<?xml version="1.0" standalone="no"?>
<!DOCTYPE svg PUBLIC "-//W3C//DTD SVG 1.1//EN" "http://www.w3.org/Graphics/SVG/1.1/DTD/svg11.dtd" >
<svg xmlns="http://www.w3.org/2000/svg" xmlns:xlink="http://www.w3.org/1999/xlink" version="1.1">
<metadata>
Created by FontForge 20200427 at Mon Oct 13 17:23:02 2014
 By www
Copyright (c) 2014 by FONTYOU. All rights reserved. www.fontyou.com
</metadata>
<defs>
<font id="WesFYW03-Black" horiz-adv-x="262" >
  <font-face 
    font-family="WesFYW03-Black"
    font-weight="900"
    font-stretch="normal"
    units-per-em="1000"
    panose-1="2 11 10 5 3 2 1 2 1 4"
    ascent="800"
    descent="-200"
    x-height="557"
    cap-height="720"
    bbox="-300 -230 1203 988"
    underline-thickness="50"
    underline-position="-125"
    unicode-range="U+000D-FB02"
  />
<missing-glyph horiz-adv-x="602" 
d="M305 435q16 29 41.5 47t56.5 18q43 0 71 -29.5t28 -75.5q0 -30 -13.5 -65t-39 -70t-63 -67.5t-85.5 -57.5q-48 25 -85.5 57.5t-63 67.5t-39 70t-13.5 65q0 46 28 75.5t71 29.5q31 0 56.5 -18t41.5 -47h8z" />
    <glyph glyph-name="uniFB01" unicode="fi" horiz-adv-x="677" 
d="M30 557h65v2q0 38 12.5 70t38 55.5t63 36.5t88.5 13q24 0 41 -1t29.5 -2.5t21 -3.5t16.5 -3v-127q-9 3 -24 5.5t-35 2.5q-32 0 -48.5 -11t-16.5 -37h124v-146h-124v-411h-186v411h-65v146zM453 517h186v-517h-186v517zM546 542q-40 0 -68 28t-28 68q0 19 7.5 36.5
t20.5 31t30.5 21t37.5 7.5t37.5 -7.5t30.5 -21t20.5 -31t7.5 -36.5q0 -40 -28 -68t-68 -28z" />
    <glyph glyph-name="uniFB02" unicode="fl" horiz-adv-x="677" 
d="M30 557h65v2q0 38 12.5 70t38 55.5t63 36.5t88.5 13q24 0 41 -1t29.5 -2.5t21 -3.5t16.5 -3v-127q-9 3 -24 5.5t-35 2.5q-32 0 -48.5 -11t-16.5 -37h124v-146h-124v-411h-186v411h-65v146zM453 720h186v-720h-186v720z" />
    <glyph glyph-name=".notdef" horiz-adv-x="602" 
d="M305 435q16 29 41.5 47t56.5 18q43 0 71 -29.5t28 -75.5q0 -30 -13.5 -65t-39 -70t-63 -67.5t-85.5 -57.5q-48 25 -85.5 57.5t-63 67.5t-39 70t-13.5 65q0 46 28 75.5t71 29.5q31 0 56.5 -18t41.5 -47h8z" />
    <glyph glyph-name="glyph1" horiz-adv-x="300" 
 />
    <glyph glyph-name="glyph1" horiz-adv-x="300" 
 />
    <glyph glyph-name="uni000D" unicode="&#xd;" horiz-adv-x="200" 
 />
    <glyph glyph-name="space" unicode=" " horiz-adv-x="200" 
 />
    <glyph glyph-name="exclam" unicode="!" horiz-adv-x="363" 
d="M83 720h197l-19 -491h-159zM182 -14q-40 0 -68 28t-28 68q0 19 7.5 36.5t20.5 31t30.5 21t37.5 7.5t37.5 -7.5t30.5 -21t20.5 -31t7.5 -36.5q0 -40 -28 -68t-68 -28z" />
    <glyph glyph-name="quotedbl" unicode="&#x22;" horiz-adv-x="600" 
d="M334 720h185l-26 -270h-133zM80 720h186l-26 -270h-134z" />
    <glyph glyph-name="numbersign" unicode="#" horiz-adv-x="782" 
d="M123 577h97l41 143h173l-41 -143h119l41 143h173l-41 -143h87l-39 -136h-87l-46 -162h99l-39 -136h-99l-40 -143h-173l40 143h-119l-40 -143h-173l40 143h-85l39 136h85l46 162h-97zM308 279h119l46 162h-119z" />
    <glyph glyph-name="dollar" unicode="$" horiz-adv-x="610" 
d="M161 234q49 -83 137 -83q45 0 66 15t21 41q0 13 -5.5 23t-18.5 18.5t-34 16.5t-52 18q-50 16 -91.5 36.5t-71.5 48.5t-47 65t-17 87q0 34 11 65.5t33 58.5t54.5 47.5t75.5 31.5v93h168v-90q70 -14 114.5 -51.5t71.5 -83.5l-139 -102q-30 48 -58.5 64t-65.5 16
q-29 0 -46 -14.5t-17 -37.5q0 -26 24 -39t80 -33q53 -19 96 -40t73.5 -48t47 -63.5t16.5 -85.5q0 -35 -12 -68.5t-36.5 -62t-61.5 -50.5t-87 -32v-91h-168v90q-70 14 -122.5 51t-76.5 91z" />
    <glyph glyph-name="percent" unicode="%" horiz-adv-x="827" 
d="M429 173q0 88 49 137.5t137 49.5t138 -49.5t50 -137.5t-49.5 -137.5t-137.5 -49.5t-137.5 49.5t-49.5 137.5zM616 97q27 0 41.5 20t14.5 56q0 76 -57 76q-56 0 -56 -76q0 -36 15 -56t42 -20zM592 720h142l-500 -720h-142zM24 546q0 89 49.5 138.5t137.5 49.5t137.5 -49.5
t49.5 -138.5q0 -88 -49.5 -137t-137.5 -49t-137.5 49t-49.5 137zM211 471q28 0 42.5 20t14.5 55q0 37 -15 57t-43 20q-27 0 -41.5 -20t-14.5 -57q0 -35 15 -55t42 -20z" />
    <glyph glyph-name="ampersand" unicode="&#x26;" horiz-adv-x="691" 
d="M376 448h305v-121h-87q39 -50 39 -119q0 -52 -21.5 -93t-61 -69.5t-94 -44t-120.5 -15.5q-69 0 -125.5 15t-96.5 44.5t-62 72t-22 97.5q0 57 22.5 101t64.5 73q-67 52 -67 139q0 43 19 80.5t54.5 65.5t87.5 44t118 16q60 0 104.5 -11t77 -32t55 -52t38.5 -71l-170 -67
q-11 28 -33.5 49t-69.5 21q-35 0 -57 -16.5t-22 -45.5q0 -24 16 -39.5t44 -21.5v-121q-35 -4 -57.5 -27t-22.5 -58q0 -46 33 -69.5t79 -23.5q45 0 77.5 25t32.5 70q0 35 -22 56.5t-56 26.5v121z" />
    <glyph glyph-name="quotesingle" unicode="'" horiz-adv-x="346" 
d="M80 720h186l-26 -270h-134z" />
    <glyph glyph-name="parenleft" unicode="(" horiz-adv-x="461" 
d="M289 -176q-46 49 -87.5 102t-73 111t-50 121.5t-18.5 133.5t18.5 133.5t50 121.5t73 111t87.5 102l146 -115q-36 -38 -67.5 -78.5t-55 -84.5t-37 -91.5t-13.5 -98.5t13.5 -98.5t37 -91.5t55 -85t67.5 -78z" />
    <glyph glyph-name="parenright" unicode=")" horiz-adv-x="461" 
d="M26 -61q36 37 67.5 78t55 85t37 91.5t13.5 98.5t-13.5 98.5t-37 91.5t-55 84.5t-67.5 78.5l146 115q46 -49 87.5 -102t73 -111t50 -121.5t18.5 -133.5t-18.5 -133.5t-50 -121.5t-73 -111t-87.5 -102z" />
    <glyph glyph-name="asterisk" unicode="*" horiz-adv-x="458" 
d="M228 438l-66 -92l-89 64l67 92l-108 36l34 103l108 -35v114h109v-114l108 35l34 -103l-108 -36l67 -92l-89 -64z" />
    <glyph glyph-name="plus" unicode="+" horiz-adv-x="510" 
d="M49 415h135v134h142v-134h135v-143h-135v-134h-142v134h-135v143z" />
    <glyph glyph-name="comma" unicode="," horiz-adv-x="356" 
d="M109 174h178l-104 -295h-123z" />
    <glyph glyph-name="hyphen" unicode="-" horiz-adv-x="344" 
d="M20 330h304v-143h-304v143z" />
    <glyph glyph-name="period" unicode="." horiz-adv-x="292" 
d="M146 -14q-40 0 -68 28t-28 68q0 19 7.5 36.5t20.5 31t30.5 21t37.5 7.5t37.5 -7.5t30.5 -21t20.5 -31t7.5 -36.5q0 -40 -28 -68t-68 -28z" />
    <glyph glyph-name="slash" unicode="/" horiz-adv-x="500" 
d="M303 720h197l-303 -720h-197z" />
    <glyph glyph-name="zero" unicode="0" horiz-adv-x="701" 
d="M351 -14q-77 0 -137.5 25.5t-102.5 73.5t-64.5 117t-22.5 157t22 157.5t64 118t102 74t137 25.5q76 0 137 -25.5t103.5 -74t65 -118t22.5 -157.5t-22.5 -157t-64.5 -117t-102.5 -73.5t-136.5 -25.5zM350 161q60 0 93 52t33 145q0 95 -33.5 148t-93.5 53q-59 0 -91 -53
t-32 -148q0 -93 32.5 -145t91.5 -52z" />
    <glyph glyph-name="one" unicode="1" horiz-adv-x="376" 
d="M39 720h269v-720h-197v553h-101z" />
    <glyph glyph-name="two" unicode="2" horiz-adv-x="592" 
d="M36 164q78 65 138 113t101 85t62 66.5t21 59.5q0 36 -18 58.5t-52 22.5q-45 0 -72 -26.5t-45 -75.5l-154 62q9 40 30.5 77t55 65.5t80.5 45.5t107 17q64 0 114.5 -17t85 -46.5t52.5 -69.5t18 -86q0 -49 -19 -90.5t-55.5 -83t-90.5 -85.5t-124 -98h299v-158h-534v164z" />
    <glyph glyph-name="three" unicode="3" horiz-adv-x="595" 
d="M157 232q19 -39 51 -60t73 -21q35 0 61.5 19t26.5 58q0 23 -10 37t-26 22t-36.5 11t-41.5 3h-42v129h40q19 0 37.5 3.5t33 12.5t23.5 23t9 35q0 34 -22.5 49.5t-52.5 15.5q-36 0 -62.5 -23t-41.5 -60l-165 54q15 48 42 84.5t63.5 60.5t81 36.5t92.5 12.5q52 0 100 -12.5
t85 -38t59.5 -64t22.5 -92.5t-21.5 -91.5t-58.5 -63.5q42 -23 67.5 -61t25.5 -97t-24.5 -102t-64 -71t-91 -41.5t-105.5 -13.5q-49 0 -93.5 10.5t-81 31.5t-64 53.5t-42.5 76.5z" />
    <glyph glyph-name="four" unicode="4" horiz-adv-x="646" 
d="M30 289l299 431h210v-439h94v-150h-94v-131h-190v131h-319v158zM349 281v242l-165 -242h165z" />
    <glyph glyph-name="five" unicode="5" horiz-adv-x="605" 
d="M80 339l56 381h402v-158h-256l-12 -75q11 2 24 4t33 2q53 0 99 -15.5t80.5 -46t54 -76.5t19.5 -106q0 -62 -22 -111t-61.5 -83t-94 -51.5t-120.5 -17.5q-80 0 -144.5 31.5t-108.5 106.5l139 102q19 -32 45.5 -52.5t62.5 -20.5q48 0 75 27t27 65q0 42 -26.5 66.5
t-75.5 24.5q-32 0 -55 -11t-46 -32z" />
    <glyph glyph-name="six" unicode="6" horiz-adv-x="631" 
d="M277 734h229l-229 -257q32 29 91 29q54 0 98 -18t75.5 -50t48.5 -76t17 -96q0 -60 -21.5 -109t-60 -84t-90.5 -54t-113 -19q-77 0 -133.5 21t-93 57t-54 83.5t-17.5 100.5q0 41 9 79t26 76t43 78.5t61 86.5zM318 167q42 0 65.5 25.5t23.5 70.5t-25 70t-70 25
q-41 0 -63.5 -25t-22.5 -70t24.5 -70.5t67.5 -25.5z" />
    <glyph glyph-name="seven" unicode="7" horiz-adv-x="618" 
d="M330 562h-300v158h583l-327 -720h-227z" />
    <glyph glyph-name="eight" unicode="8" horiz-adv-x="649" 
d="M23 206q0 57 28.5 101.5t82.5 73.5q-44 26 -66 64t-22 86q0 96 70 149.5t207 53.5q138 0 209 -53.5t71 -149.5q0 -48 -22 -86.5t-67 -64.5q54 -28 83 -72.5t29 -101.5q0 -103 -79.5 -161.5t-222.5 -58.5q-142 0 -221.5 58.5t-79.5 161.5zM225 228q0 -46 25.5 -72.5
t73.5 -26.5t74 26.5t26 72.5q0 48 -27 75.5t-75 27.5q-47 0 -72 -27.5t-25 -75.5zM324 429q37 0 57.5 20.5t20.5 58.5q0 40 -21 61.5t-59 21.5q-36 0 -55.5 -21.5t-19.5 -61.5q0 -38 20 -58.5t57 -20.5z" />
    <glyph glyph-name="nine" unicode="9" horiz-adv-x="631" 
d="M354 257q-32 -29 -91 -29q-54 0 -98 18t-75.5 50t-48.5 76t-17 96q0 60 21.5 109t60 84t90.5 54t113 19q77 0 133.5 -21t93 -57t54 -83.5t17.5 -100.5q0 -41 -9 -79t-26 -76t-43.5 -78.5t-60.5 -86.5l-114 -152h-229zM319 376q41 0 63.5 25t22.5 70t-24.5 70.5
t-67.5 25.5q-42 0 -65.5 -25.5t-23.5 -70.5t25 -70t70 -25z" />
    <glyph glyph-name="colon" unicode=":" horiz-adv-x="292" 
d="M146 379q-40 0 -68 28t-28 68q0 19 7.5 36.5t20.5 31t30.5 21t37.5 7.5t37.5 -7.5t30.5 -21t20.5 -31t7.5 -36.5q0 -40 -28 -68t-68 -28zM146 -14q-40 0 -68 28t-28 68q0 19 7.5 36.5t20.5 31t30.5 21t37.5 7.5t37.5 -7.5t30.5 -21t20.5 -31t7.5 -36.5q0 -40 -28 -68
t-68 -28z" />
    <glyph glyph-name="semicolon" unicode=";" horiz-adv-x="356" 
d="M198 379q-40 0 -68 28t-28 68q0 19 7.5 36.5t20.5 31t30.5 21t37.5 7.5t37.5 -7.5t30.5 -21t20.5 -31t7.5 -36.5q0 -40 -28 -68t-68 -28zM109 174h178l-104 -295h-123z" />
    <glyph glyph-name="less" unicode="&#x3c;" horiz-adv-x="510" 
d="M49 415l412 177v-143l-243 -106l243 -106v-142l-412 177v143z" />
    <glyph glyph-name="equal" unicode="=" horiz-adv-x="510" 
d="M49 530h412v-143h-412v143zM49 300h412v-143h-412v143z" />
    <glyph glyph-name="greater" unicode="&#x3e;" horiz-adv-x="510" 
d="M49 237l243 106l-243 106v143l412 -177v-143l-412 -177v142z" />
    <glyph glyph-name="question" unicode="?" horiz-adv-x="606" 
d="M198 401h19q77 0 114.5 24t37.5 69q0 35 -21.5 55t-64.5 20q-35 0 -62 -21.5t-38 -63.5l-159 62q9 41 32 75.5t57.5 59.5t80 39t100.5 14q67 0 118.5 -16.5t86.5 -46t53.5 -70t18.5 -88.5q0 -87 -47 -144t-147 -83l-12 -57h-157zM286 -14q-40 0 -68 28t-28 68
q0 19 7.5 36.5t20.5 31t30.5 21t37.5 7.5t37.5 -7.5t30.5 -21t20.5 -31t7.5 -36.5q0 -40 -28 -68t-68 -28z" />
    <glyph glyph-name="at" unicode="@" horiz-adv-x="985" 
d="M441 126q24 0 44.5 12.5t35.5 34t23.5 49.5t8.5 58q0 41 -16.5 65t-43.5 24q-24 0 -44 -12.5t-35 -33.5t-23.5 -48.5t-8.5 -57.5q0 -41 16 -66t43 -25zM623 -199q-64 -11 -129 -11q-106 0 -194.5 31t-152 88.5t-98.5 138.5t-35 182q0 106 37 195.5t103.5 155t159 102.5
t203.5 37q101 0 184.5 -28.5t143.5 -81.5t93 -129t33 -170q0 -71 -17.5 -130.5t-52 -103t-85 -67.5t-116.5 -24t-104 25t-45 63h-4q-36 -46 -77 -67t-95 -21q-36 0 -68 14t-55 41t-36.5 67.5t-13.5 94.5q0 64 20 119.5t55 97t83 65t105 23.5q91 0 120 -74h3l14 60h177
l-63 -290q-7 -31 -7 -57q0 -29 11 -44.5t36 -15.5q26 0 48 17t38.5 47.5t26 71.5t9.5 89q0 75 -26.5 135t-74 102.5t-114 65t-146.5 22.5q-90 0 -165.5 -28.5t-130 -82t-84.5 -128.5t-30 -168q0 -81 28.5 -147t79.5 -112.5t122 -72t157 -25.5q32 0 65.5 3.5t63.5 9.5v-85z
" />
    <glyph glyph-name="A" unicode="A" horiz-adv-x="803" 
d="M277 720h246l275 -720h-223l-45 133h-274l-46 -133h-205zM305 276h177l-87 257z" />
    <glyph glyph-name="B" unicode="B" horiz-adv-x="617" 
d="M48 720h244q139 0 205.5 -49t66.5 -134q0 -57 -25 -98.5t-82 -64.5q72 -21 104.5 -64t32.5 -106q0 -44 -16 -81t-51.5 -64.5t-93 -43t-141.5 -15.5h-244v720zM245 299v-149h44q55 0 79.5 20.5t24.5 57.5q0 71 -106 71h-42zM245 570v-129h36q42 0 61.5 17.5t19.5 49.5
q0 33 -22 47.5t-60 14.5h-35z" />
    <glyph glyph-name="C" unicode="C" horiz-adv-x="586" 
d="M562 20q-68 -33 -151 -33q-86 0 -157.5 26t-124 74.5t-81.5 117t-29 154.5q0 85 29 154t81.5 118t125 76t159.5 27q83 0 148 -28v-180q-30 15 -65 24t-78 9q-44 0 -80.5 -14t-62.5 -40t-40.5 -63.5t-14.5 -83.5t15 -82.5t41.5 -62t63 -39t79.5 -13.5q42 0 77 9t65 26
v-176z" />
    <glyph glyph-name="D" unicode="D" horiz-adv-x="729" 
d="M48 720h260q107 0 182.5 -28.5t123.5 -77.5t70 -115t22 -141q0 -73 -22 -138t-69 -114t-121 -77.5t-178 -28.5h-268v720zM245 542v-364h60q102 0 150.5 48.5t48.5 131.5q0 85 -49 134.5t-146 49.5h-64z" />
    <glyph glyph-name="E" unicode="E" horiz-adv-x="541" 
d="M48 720h470v-168h-273v-105h228v-160h-228v-119h273v-168h-470v720z" />
    <glyph glyph-name="F" unicode="F" horiz-adv-x="544" 
d="M48 720h473v-168h-276v-140h236v-168h-236v-244h-197v720z" />
    <glyph glyph-name="G" unicode="G" horiz-adv-x="750" 
d="M404 424h324q9 -42 9 -86q0 -80 -25.5 -145t-71.5 -110.5t-109.5 -70.5t-139.5 -25q-80 0 -147 26t-116.5 74.5t-77 117t-27.5 154.5q0 85 27.5 154t77.5 118t118.5 76t151.5 27q86 0 151 -24t114 -75l-110 -142q-29 30 -66 48t-84 18q-40 0 -73 -14t-56.5 -39.5
t-36.5 -61.5t-13 -81q0 -48 13.5 -85t37 -63t56 -39.5t70.5 -13.5q28 0 53 8t44.5 23.5t31.5 38.5t15 53h-141v139z" />
    <glyph glyph-name="H" unicode="H" horiz-adv-x="746" 
d="M48 720h197v-277h256v277h197v-720h-197v276h-256v-276h-197v720z" />
    <glyph glyph-name="I" unicode="I" horiz-adv-x="293" 
d="M48 720h197v-720h-197v720z" />
    <glyph glyph-name="J" unicode="J" horiz-adv-x="457" 
d="M82 174q20 -13 50 -13q41 0 62.5 28.5t21.5 69.5v461h197v-455q0 -62 -19.5 -113.5t-55 -88t-85.5 -57t-112 -20.5q-35 0 -69 7.5t-62 22.5z" />
    <glyph glyph-name="K" unicode="K" horiz-adv-x="717" 
d="M48 720h197v-306l214 306h234l-263 -340l283 -380h-249l-219 311v-311h-197v720z" />
    <glyph glyph-name="L" unicode="L" horiz-adv-x="532" 
d="M48 720h197v-562h283v-158h-480v720z" />
    <glyph glyph-name="M" unicode="M" horiz-adv-x="961" 
d="M79 720h228l182 -506l188 506h204l70 -720h-197l-40 411l-159 -411h-167l-152 403l-40 -403h-186z" />
    <glyph glyph-name="N" unicode="N" horiz-adv-x="759" 
d="M48 720h192l288 -435v435h183v-720h-193l-288 436v-436h-182v720z" />
    <glyph glyph-name="O" unicode="O" horiz-adv-x="809" 
d="M23 359q0 85 27.5 154t78 118t120.5 76t154 27q85 0 155.5 -27t121 -76t78.5 -118t28 -154t-28 -154t-78 -117.5t-120 -75t-155 -26.5t-155 26.5t-120.5 75t-78.5 117.5t-28 154zM404 161q39 0 72.5 13.5t57.5 39t37.5 62t13.5 82.5t-14 83.5t-38 63.5t-57.5 40t-72.5 14
t-71.5 -14t-56.5 -40t-37.5 -63.5t-13.5 -83.5t14 -82.5t38 -62t57 -39t71 -13.5z" />
    <glyph glyph-name="P" unicode="P" horiz-adv-x="644" 
d="M48 720h269q66 0 122 -14.5t96.5 -44.5t63 -76t22.5 -110q0 -66 -22 -114.5t-62.5 -80.5t-97 -48t-125.5 -16h-69v-216h-197v720zM245 560v-184h49q59 0 92 23t33 71t-32 69t-89 21h-53z" />
    <glyph glyph-name="Q" unicode="Q" horiz-adv-x="809" 
d="M23 359q0 85 27.5 154t78 118t120.5 76t154 27q85 0 155.5 -27t121 -76t78.5 -118t28 -154q0 -79 -23.5 -143.5t-67.5 -112.5l67 -74l-96 -90l-77 86q-40 -19 -86 -29t-98 -10q-85 0 -155 26.5t-120.5 75t-78.5 117.5t-28 154zM404 161q15 0 29 1.5t28 6.5l-95 107l96 90
l100 -112q23 44 23 104q0 46 -14 83.5t-38 63.5t-57.5 40t-72.5 14t-71.5 -14t-56.5 -40t-37.5 -63.5t-13.5 -83.5t14 -82.5t38 -62t57 -39t71 -13.5z" />
    <glyph glyph-name="R" unicode="R" horiz-adv-x="670" 
d="M48 720h269q66 0 122 -14t96.5 -42.5t63 -73t22.5 -105.5q0 -79 -34 -132.5t-95 -82.5l178 -270h-227l-140 236h-58v-236h-197v720zM245 560v-174h49q59 0 92 23t33 71q0 42 -32 61t-89 19h-53z" />
    <glyph glyph-name="S" unicode="S" horiz-adv-x="610" 
d="M161 234q49 -83 137 -83q45 0 66 15t21 41q0 13 -5.5 23t-18.5 18.5t-34 16.5t-52 18q-50 16 -91.5 36.5t-71.5 48.5t-47 65t-17 87q0 42 17 80.5t50.5 68.5t83 47.5t114.5 17.5q53 0 94.5 -11.5t73.5 -31t55 -45.5t40 -55l-139 -102q-30 48 -58.5 64t-65.5 16
q-29 0 -46 -14.5t-17 -37.5q0 -26 24 -39t80 -33q53 -19 96 -40t73.5 -48t47 -63.5t16.5 -85.5q0 -41 -17 -81t-52.5 -71.5t-90 -50.5t-128.5 -19q-48 0 -91 10.5t-79 30t-63.5 47.5t-42.5 62z" />
    <glyph glyph-name="T" unicode="T" horiz-adv-x="558" 
d="M5 720h548v-167h-175v-553h-198v553h-175v167z" />
    <glyph glyph-name="U" unicode="U" horiz-adv-x="716" 
d="M43 720h197v-415q0 -75 29.5 -114.5t88.5 -39.5t88.5 39.5t29.5 115.5v414h197v-414q0 -153 -81.5 -236.5t-233.5 -83.5q-159 0 -237 81t-78 239v414z" />
    <glyph glyph-name="V" unicode="V" horiz-adv-x="765" 
d="M5 720h222l162 -530l166 530h205l-252 -720h-248z" />
    <glyph glyph-name="W" unicode="W" horiz-adv-x="1199" 
d="M5 720h222l127 -530l152 530h204l148 -530l131 530h205l-217 -720h-248l-127 446l-129 -446h-248z" />
    <glyph glyph-name="X" unicode="X" horiz-adv-x="774" 
d="M267 369l-257 351h237l146 -200l146 200h225l-257 -355l267 -365h-236l-157 214l-155 -214h-226z" />
    <glyph glyph-name="Y" unicode="Y" horiz-adv-x="731" 
d="M266 242l-261 478h222l145 -300l149 300h205l-262 -478v-242h-198v242z" />
    <glyph glyph-name="Z" unicode="Z" horiz-adv-x="600" 
d="M306 562h-291v158h580l-301 -562h291v-158h-580z" />
    <glyph glyph-name="bracketleft" unicode="[" horiz-adv-x="473" 
d="M105 750h343v-158h-146v-600h146v-158h-343v916z" />
    <glyph glyph-name="backslash" unicode="\" horiz-adv-x="500" 
d="M0 720h197l303 -720h-197z" />
    <glyph glyph-name="bracketright" unicode="]" horiz-adv-x="473" 
d="M25 -8h145v600h-145v158h343v-916h-343v158z" />
    <glyph glyph-name="asciicircum" unicode="^" horiz-adv-x="510" 
d="M184 750h142l160 -330h-152l-79 186l-79 -186h-152z" />
    <glyph glyph-name="underscore" unicode="_" horiz-adv-x="487" 
d="M20 0h447v-143h-447v143z" />
    <glyph glyph-name="grave" unicode="`" horiz-adv-x="674" 
d="M235 750l242 -84l-28 -82l-251 58z" />
    <glyph glyph-name="a" unicode="a" horiz-adv-x="655" 
d="M434 73h-3q-29 -46 -67.5 -66.5t-93.5 -20.5q-50 0 -96.5 20t-82 58t-56.5 92t-21 122q0 69 20.5 123t55 92t81 58t99.5 20q103 0 158 -77h3v62h186v-556h-183v73zM316 152q50 0 82.5 35.5t32.5 91.5q0 57 -32.5 91t-82.5 34q-51 0 -83.5 -34t-32.5 -91q0 -56 32.5 -91.5
t83.5 -35.5z" />
    <glyph glyph-name="b" unicode="b" horiz-adv-x="655" 
d="M38 720h186v-231h4q53 82 163 82q52 0 98 -20t79.5 -58t53 -92.5t19.5 -122.5t-21 -122t-56.5 -92t-82.5 -58t-98 -20q-57 0 -95.5 22t-62.5 65h-4v-73h-183v720zM340 152q50 0 82.5 35.5t32.5 91.5q0 57 -32.5 91t-82.5 34q-51 0 -83.5 -34t-32.5 -91q0 -56 32.5 -91.5
t83.5 -35.5z" />
    <glyph glyph-name="c" unicode="c" horiz-adv-x="446" 
d="M422 5q-23 -10 -50 -14.5t-52 -4.5q-69 0 -125.5 22t-96.5 61t-62 92.5t-22 116.5t22 117t61.5 93t95 61t123.5 22q29 0 57 -5.5t49 -15.5v-173q-21 14 -47 20.5t-54 6.5q-54 0 -87.5 -34t-33.5 -91q0 -56 34.5 -91t94.5 -35q21 0 46 5t47 16v-169z" />
    <glyph glyph-name="d" unicode="d" horiz-adv-x="655" 
d="M434 73h-3q-24 -42 -63.5 -64.5t-95.5 -22.5q-51 0 -97.5 20t-82.5 58t-57 92t-21 122q0 69 20.5 123t55 92t81 58t98.5 20q53 0 93 -19.5t66 -54.5h3v223h186v-720h-183v73zM316 152q50 0 82.5 35.5t32.5 91.5q0 57 -32.5 91t-82.5 34q-51 0 -83.5 -34t-32.5 -91
q0 -56 32.5 -91.5t83.5 -35.5z" />
    <glyph glyph-name="e" unicode="e" horiz-adv-x="575" 
d="M201 241q9 -50 37.5 -75t69.5 -25q33 0 59 18t37 49l146 -54q-9 -32 -30 -62t-53 -53.5t-73.5 -38t-92.5 -14.5q-66 0 -119 20.5t-90.5 59t-57.5 92.5t-20 122q0 63 20 116.5t56.5 92t88.5 60.5t116 22q66 0 116.5 -22t84.5 -60t51 -89t17 -109q0 -13 -1 -26.5t-4 -23.5
h-358zM295 423q-35 0 -59 -22.5t-34 -61.5h179q-2 36 -25.5 60t-60.5 24z" />
    <glyph glyph-name="f" unicode="f" horiz-adv-x="415" 
d="M30 557h65v2q0 38 12.5 70t38 55.5t63 36.5t88.5 13q24 0 41 -1t29.5 -2.5t21 -3.5t16.5 -3v-127q-9 3 -24 5.5t-35 2.5q-32 0 -48.5 -11t-16.5 -37h124v-146h-124v-411h-186v411h-65v146z" />
    <glyph glyph-name="g" unicode="g" horiz-adv-x="635" 
d="M186 -3q17 -25 40.5 -43t64.5 -18q61 0 92 35t31 112v12h-3q-23 -38 -60.5 -59.5t-84.5 -21.5q-56 0 -102.5 20.5t-79.5 57t-51.5 88t-18.5 114.5q0 61 18 112t50.5 88t77.5 57t100 20q45 0 85 -21.5t63 -59.5h3v66h186v-445q0 -91 -27 -152.5t-69.5 -99t-95 -53.5
t-104.5 -16q-91 0 -151.5 33.5t-92.5 87.5zM306 180q47 0 76 31.5t29 82.5q0 49 -29 79.5t-76 30.5q-48 0 -77 -30.5t-29 -79.5q0 -51 29 -82.5t77 -31.5z" />
    <glyph glyph-name="h" unicode="h" horiz-adv-x="628" 
d="M38 720h186v-226h4q25 41 64 59t96 18q49 0 88 -16t66.5 -45t42.5 -70t15 -92v-348h-186v276q0 27 -5 50t-16 40.5t-29 27.5t-44 10q-48 0 -72 -36t-24 -103v-265h-186v720z" />
    <glyph glyph-name="i" unicode="i" 
d="M38 517h186v-517h-186v517zM131 542q-40 0 -68 28t-28 68q0 19 7.5 36.5t20.5 31t30.5 21t37.5 7.5t37.5 -7.5t30.5 -21t20.5 -31t7.5 -36.5q0 -40 -28 -68t-68 -28z" />
    <glyph glyph-name="j" unicode="j" 
d="M131 542q-40 0 -68 28t-28 68q0 19 7.5 36.5t20.5 31t30.5 21t37.5 7.5t37.5 -7.5t30.5 -21t20.5 -31t7.5 -36.5q0 -40 -28 -68t-68 -28zM-56 -58q11 -3 20.5 -5t24.5 -2q25 0 37 17.5t12 56.5v508h186v-505q0 -49 -12.5 -90t-37.5 -70t-63 -45.5t-89 -16.5q-36 0 -61 5
t-45 13z" />
    <glyph glyph-name="k" unicode="k" horiz-adv-x="617" 
d="M224 224v-224h-186v720h186v-382l151 219h222l-207 -266l227 -291h-229z" />
    <glyph glyph-name="l" unicode="l" 
d="M38 720h186v-720h-186v720z" />
    <glyph glyph-name="m" unicode="m" horiz-adv-x="949" 
d="M38 557h183v-63h4q44 77 155 77q54 0 93 -21t63 -59h4q27 39 69 59.5t105 20.5q50 0 88.5 -16t65 -45t40 -70t13.5 -92v-348h-186v281q0 27 -4 49.5t-13 39t-24.5 25.5t-38.5 9q-41 0 -61 -30.5t-22 -88.5v-285h-186v281q0 27 -4 49.5t-13 39t-24.5 25.5t-38.5 9
q-43 0 -62.5 -34t-19.5 -97v-273h-186v557z" />
    <glyph glyph-name="n" unicode="n" horiz-adv-x="628" 
d="M38 557h183v-63h4q26 40 65 58.5t97 18.5q51 0 90.5 -16t66.5 -45t41.5 -70t14.5 -92v-348h-186v276q0 27 -5 50t-16 40.5t-29 27.5t-44 10q-48 0 -72 -36t-24 -103v-265h-186v557z" />
    <glyph glyph-name="o" unicode="o" horiz-adv-x="631" 
d="M14 278q0 63 22 117t61.5 93t95 61t123.5 22q67 0 122.5 -22t95.5 -61t61.5 -93t21.5 -117t-21.5 -116.5t-61.5 -92.5t-95.5 -61t-122.5 -22q-68 0 -123.5 22t-95 61t-61.5 92.5t-22 116.5zM316 153q50 0 82.5 35t32.5 91q0 57 -32.5 91t-82.5 34q-51 0 -83.5 -34
t-32.5 -91q0 -56 32.5 -91t83.5 -35z" />
    <glyph glyph-name="p" unicode="p" horiz-adv-x="655" 
d="M38 557h183v-68h4q29 41 70.5 61.5t98.5 20.5q50 0 95 -20t78.5 -58t53.5 -92.5t20 -122.5t-21 -122t-55.5 -92t-80 -58t-93.5 -20q-60 0 -99.5 22t-63.5 65h-4v-273h-186v757zM340 152q50 0 82.5 35.5t32.5 91.5q0 57 -32.5 91t-82.5 34q-51 0 -83.5 -34t-32.5 -91
q0 -56 32.5 -91.5t83.5 -35.5z" />
    <glyph glyph-name="q" unicode="q" horiz-adv-x="655" 
d="M434 73h-3q-29 -46 -67.5 -66.5t-93.5 -20.5q-50 0 -96.5 20t-82 58t-56.5 92t-21 122q0 69 20.5 123t55 92t81 58t99.5 20q103 0 158 -77h3v62h186v-756h-183v273zM316 152q50 0 82.5 35.5t32.5 91.5q0 57 -32.5 91t-82.5 34q-51 0 -83.5 -34t-32.5 -91
q0 -56 32.5 -91.5t83.5 -35.5z" />
    <glyph glyph-name="r" unicode="r" horiz-adv-x="415" 
d="M38 557h183v-85h4q49 99 170 99v-178q-42 0 -73.5 -8t-53.5 -27.5t-33 -52.5t-11 -82v-223h-186v557z" />
    <glyph glyph-name="s" unicode="s" horiz-adv-x="478" 
d="M151 183q13 -27 34.5 -44t53.5 -16q46 0 46 28q0 7 -3.5 13t-12.5 12t-25.5 14t-43.5 19q-80 31 -125 76.5t-45 107.5q0 37 13 69.5t38.5 56.5t64.5 38t91 14q101 0 153.5 -37t65.5 -96l-134 -64q-8 28 -30.5 44.5t-48.5 15.5q-22 0 -31 -7.5t-9 -18.5q0 -10 5 -16.5
t15.5 -12.5t27 -12.5t39.5 -16.5q79 -32 124 -75t45 -110q0 -32 -13 -64t-40 -57.5t-68.5 -41.5t-98.5 -16q-39 0 -75 9t-66.5 26t-52.5 42t-32 57z" />
    <glyph glyph-name="t" unicode="t" horiz-adv-x="407" 
d="M20 557h85v145h186v-145h106v-146h-106v-411h-186v411h-85v146z" />
    <glyph glyph-name="u" unicode="u" horiz-adv-x="606" 
d="M28 557h186v-276q0 -25 4.5 -48t15 -41t27.5 -28.5t42 -10.5t42 10.5t27.5 28.5t15 41t4.5 48v276h186v-318q0 -62 -22.5 -109.5t-60 -79.5t-87 -48t-104.5 -16t-105 16t-88 48t-60.5 79.5t-22.5 109.5v318z" />
    <glyph glyph-name="v" unicode="v" horiz-adv-x="623" 
d="M3 557h210l107 -354l109 354h191l-205 -557h-204z" />
    <glyph glyph-name="w" unicode="w" horiz-adv-x="959" 
d="M3 557h195l96 -363l95 363h197l94 -363l97 363h180l-176 -557h-203l-100 381l-97 -381h-203z" />
    <glyph glyph-name="x" unicode="x" horiz-adv-x="618" 
d="M197 292l-184 265h212l94 -135l84 135h202l-185 -279l195 -278h-213l-103 147l-95 -147h-201z" />
    <glyph glyph-name="y" unicode="y" horiz-adv-x="605" 
d="M228 56l-228 501h194l119 -292l105 292h187l-295 -757h-187z" />
    <glyph glyph-name="z" unicode="z" horiz-adv-x="517" 
d="M243 411h-228v146h497l-238 -411h228v-146h-497z" />
    <glyph glyph-name="braceleft" unicode="{" horiz-adv-x="468" 
d="M140 129q0 89 -100 89v148q100 0 100 89v68q0 48 14 88.5t43.5 71t75.5 50t110 27.5l60 -149q-56 -14 -80.5 -41.5t-24.5 -81.5v-73q0 -58 -27 -86t-83 -37q56 -9 83 -37t27 -86v-73q0 -54 24.5 -81.5t80.5 -41.5l-60 -149q-64 7 -110 27t-75.5 50.5t-43.5 71t-14 88.5
v68z" />
    <glyph glyph-name="bar" unicode="|" horiz-adv-x="386" 
d="M100 770h186v-1000h-186v1000z" />
    <glyph glyph-name="braceright" unicode="}" horiz-adv-x="468" 
d="M25 -27q56 14 80.5 41.5t24.5 81.5v73q0 58 27 86t83 37q-56 9 -83 37t-27 86v73q0 54 -24.5 81.5t-80.5 41.5l60 149q128 -15 185.5 -77.5t57.5 -159.5v-68q0 -89 100 -89v-148q-100 0 -100 -89v-68q0 -97 -57.5 -159.5t-185.5 -77.5z" />
    <glyph glyph-name="asciitilde" unicode="~" horiz-adv-x="510" 
d="M33 360q37 44 69.5 60t61.5 16q24 0 47 -7.5t44.5 -16.5t42 -16.5t40.5 -7.5q19 0 37 8.5t37 31.5l65 -95q-37 -45 -69 -60.5t-61 -15.5q-25 0 -47.5 7.5t-44.5 16.5t-42.5 16.5t-40.5 7.5q-18 0 -36.5 -8.5t-37.5 -31.5z" />
    <glyph glyph-name="uni00A0" unicode="&#xa0;" horiz-adv-x="200" 
 />
    <glyph glyph-name="exclamdown" unicode="&#xa1;" horiz-adv-x="363" 
d="M102 328h159l19 -491h-197zM181 379q-40 0 -68 28t-28 68q0 19 7.5 36.5t20.5 31t30.5 21t37.5 7.5t37.5 -7.5t30.5 -21t20.5 -31t7.5 -36.5q0 -40 -28 -68t-68 -28z" />
    <glyph glyph-name="cent" unicode="&#xa2;" horiz-adv-x="446" 
d="M422 95q-32 -13 -63 -17v-78h-167v98q-84 31 -131 99.5t-47 160.5t47.5 160.5t130.5 100.5v101h167v-82q37 -6 63 -18v-173q-21 14 -47 20.5t-54 6.5q-54 0 -87.5 -31t-33.5 -84q0 -51 34.5 -83.5t94.5 -32.5q21 0 46 5t47 16v-169z" />
    <glyph glyph-name="sterling" unicode="&#xa3;" horiz-adv-x="643" 
d="M30 392h68v74q0 61 17.5 111t52 85.5t86 54.5t119.5 19q59 0 104 -16t76.5 -43t51 -62t28.5 -73l-161 -63q-15 45 -37.5 68.5t-59.5 23.5q-38 0 -59 -25.5t-21 -82.5v-71h174v-106h-174v-128h318v-158h-583v158h68v128h-68v106z" />
    <glyph glyph-name="currency" unicode="&#xa4;" horiz-adv-x="636" 
d="M104 238q-31 50 -31 114q0 32 8 60t22 53l-73 73l101 101l84 -85q23 8 48 13t54 5q58 0 103 -18l85 85l101 -101l-74 -74q14 -24 22 -52t8 -60q0 -63 -31 -113l75 -75l-101 -101l-86 86q-46 -17 -102 -17q-54 0 -100 17l-86 -86l-101 101zM317 260q38 0 61.5 25.5
t23.5 67.5t-23.5 67t-61.5 25q-37 0 -61 -25t-24 -67t24 -67.5t61 -25.5z" />
    <glyph glyph-name="yen" unicode="&#xa5;" horiz-adv-x="691" 
d="M110 359h81l-186 361h222l125 -290l129 290h205l-187 -361h80v-106h-135v-58h135v-106h-135v-89h-198v89h-136v106h136v58h-136v106z" />
    <glyph glyph-name="brokenbar" unicode="&#xa6;" horiz-adv-x="386" 
d="M100 770h186v-413h-186v413zM100 190h186v-420h-186v420z" />
    <glyph glyph-name="section" unicode="&#xa7;" horiz-adv-x="595" 
d="M164 110q14 -32 44 -54t78 -22q56 0 56 36q0 20 -24.5 32.5t-84.5 30.5q-40 13 -77 30t-65 40.5t-44.5 54.5t-16.5 72q0 50 24.5 87t60.5 60q-23 20 -35.5 46.5t-12.5 63.5q0 33 14 64t44 55.5t77.5 39t113.5 14.5q50 0 88 -9t66 -25.5t46.5 -38.5t29.5 -49l-137 -70
q-14 31 -43.5 46.5t-58.5 15.5t-41.5 -9t-12.5 -21q0 -8 3.5 -14.5t14.5 -13t31 -13.5t53 -15q42 -11 80 -27.5t67 -40.5t46 -58t17 -80q0 -54 -23 -89.5t-61 -57.5q22 -20 34.5 -47t12.5 -65q0 -36 -16 -68.5t-47 -56.5t-76 -38t-103 -14q-106 0 -166 37.5t-86 96.5z
M315 262q8 -2 14.5 -3.5t14.5 -3.5q19 8 32 23.5t13 44.5q0 24 -10 38.5t-26 24t-36 15t-39 10.5l-37 9q-14 -9 -24.5 -26t-10.5 -40t10 -38.5t25.5 -26t35 -17t38.5 -10.5z" />
    <glyph glyph-name="dieresis" unicode="&#xa8;" horiz-adv-x="674" 
d="M432 578q-32 0 -54.5 23t-22.5 56q0 15 6 29t16.5 24.5t24.5 17t30 6.5t30 -6.5t24.5 -17t16.5 -24.5t6 -29q0 -33 -22.5 -56t-54.5 -23zM241 578q-32 0 -54.5 23t-22.5 56q0 15 6 29t16.5 24.5t24.5 17t30 6.5t30 -6.5t24.5 -17t16.5 -24.5t6 -29q0 -33 -22.5 -56
t-54.5 -23z" />
    <glyph glyph-name="copyright" unicode="&#xa9;" horiz-adv-x="1000" 
d="M50 360q0 99 33.5 181.5t93 142t142 92.5t181.5 33t181.5 -33t142 -92.5t93 -142t33.5 -181.5t-33.5 -181.5t-93 -142t-142 -92.5t-181.5 -33t-181.5 33t-142 92.5t-93 142t-33.5 181.5zM498 -25q84 0 153 28.5t118.5 79.5t77 121t27.5 154t-27.5 155t-77 122.5
t-118.5 80.5t-153 29t-152.5 -29t-117 -81t-75.5 -122.5t-27 -154.5q0 -83 27 -153.5t76 -121.5t117.5 -79.5t151.5 -28.5zM645 118q-24 -11 -51 -17.5t-56 -6.5q-60 0 -111 18t-88 52t-58 82.5t-21 108.5t20.5 108.5t57.5 83t88.5 53.5t113.5 19q30 0 56.5 -5.5t49.5 -14.5
v-137q-21 9 -45 16t-56 7q-54 0 -86.5 -34.5t-32.5 -95.5q0 -60 34.5 -93.5t85.5 -33.5q29 0 54 7.5t45 18.5v-136z" />
    <glyph glyph-name="ordfeminine" unicode="&#xaa;" horiz-adv-x="437" 
d="M270 390h-2q-18 -28 -41 -39.5t-57 -11.5q-31 0 -60.5 13t-52.5 38t-37 61t-14 83q0 48 13 84.5t35.5 61.5t52.5 38t63 13q32 0 54.5 -11t40.5 -34h2v34h152v-371h-149v41zM213 477q23 0 38.5 16t15.5 42q0 27 -15.5 42t-38.5 15q-24 0 -39.5 -15t-15.5 -42
q0 -26 15.5 -42t39.5 -16z" />
    <glyph glyph-name="guillemotleft" unicode="&#xab;" horiz-adv-x="614" 
d="M43 290l148 224l124 -79l-92 -145l92 -145l-124 -79zM300 290l147 224l124 -79l-92 -145l92 -145l-124 -79z" />
    <glyph glyph-name="logicalnot" unicode="&#xac;" horiz-adv-x="510" 
d="M49 467h412v-272h-143v130h-269v142z" />
    <glyph glyph-name="uni00AD" unicode="&#xad;" horiz-adv-x="344" 
 />
    <glyph glyph-name="registered" unicode="&#xae;" horiz-adv-x="699" 
d="M349 201q-71 0 -130.5 25t-103 69t-68 105t-24.5 132t24.5 131.5t68 104.5t103 69t130.5 25t131 -25t103.5 -69t68 -104.5t24.5 -131.5t-24.5 -132t-68 -105t-103.5 -69t-131 -25zM349 265q54 0 100 20t79.5 55t52.5 84t19 108q0 58 -19 107t-52.5 84.5t-79.5 55
t-100 19.5t-99.5 -19.5t-79 -55t-52.5 -84.5t-19 -107q0 -59 19 -108t52.5 -84t79 -55t99.5 -20zM335 464h-15v-104h-138v360h168q36 0 66 -7t52 -22t34.5 -38.5t12.5 -56.5q0 -71 -50 -104l76 -132h-158zM320 613v-51h17q36 0 36 27q0 24 -36 24h-17z" />
    <glyph glyph-name="macron" unicode="&#xaf;" horiz-adv-x="674" 
d="M186 710h302v-99h-302v99z" />
    <glyph glyph-name="degree" unicode="&#xb0;" horiz-adv-x="316" 
d="M158 534q30 0 49 19.5t19 49.5t-19 49t-49 19t-48.5 -19t-18.5 -49t18.5 -49.5t48.5 -19.5zM158 475q-56 0 -92 36t-36 92t36 91.5t92 35.5t92 -35.5t36 -91.5t-36 -92t-92 -36z" />
    <glyph glyph-name="plusminus" unicode="&#xb1;" horiz-adv-x="510" 
d="M49 495h135v134h142v-134h135v-143h-135v-134h-142v134h-135v143zM49 143h412v-143h-412v143z" />
    <glyph glyph-name="uni00B2" unicode="&#xb2;" horiz-adv-x="375" 
d="M47 474q29 18 56 34t48 31.5t33.5 30.5t12.5 30q0 9 -5.5 16.5t-19.5 7.5q-15 0 -24 -10t-16 -33l-105 34q4 19 14 39t28 36.5t45 27t65 10.5q39 0 67.5 -10t46.5 -26.5t27 -37.5t9 -44q0 -28 -11 -49.5t-27.5 -39t-36.5 -30t-38 -22.5h116v-109h-285v114z" />
    <glyph glyph-name="uni00B3" unicode="&#xb3;" horiz-adv-x="375" 
d="M125 490q7 -19 20.5 -26.5t29.5 -7.5q10 0 20.5 5t10.5 22t-12.5 21t-33.5 4h-15v65h13q17 0 30.5 5t13.5 22q0 13 -7.5 18.5t-19.5 5.5q-29 0 -43 -32l-108 25q19 56 62 83.5t98 27.5q28 0 55 -6.5t48 -20t34 -34.5t13 -51q0 -26 -11 -43.5t-29 -28.5q20 -11 32 -28.5
t12 -43.5q0 -33 -13.5 -55.5t-36 -37t-50.5 -21t-57 -6.5q-57 0 -100.5 23t-60.5 75z" />
    <glyph glyph-name="acute" unicode="&#xb4;" horiz-adv-x="674" 
d="M197 666l242 84l37 -108l-251 -58z" />
    <glyph glyph-name="uni00B5" unicode="&#xb5;" horiz-adv-x="616" 
d="M38 557h186v-286q1 -24 6 -45t15.5 -37.5t27 -26t40.5 -9.5q25 0 42 10.5t27.5 28.5t15 41t4.5 48v276h186v-318q0 -62 -22.5 -109.5t-60 -79.5t-87 -48t-104.5 -16q-48 0 -90 18v-234h-186v787z" />
    <glyph glyph-name="paragraph" unicode="&#xb6;" horiz-adv-x="727" 
d="M551 720h76v-720h-76v720zM325 181q-65 1 -117.5 20.5t-90 55t-57.5 84.5t-20 108q0 60 20 109.5t57.5 85.5t90 56t117.5 20h186v-720h-186v181z" />
    <glyph glyph-name="periodcentered" unicode="&#xb7;" horiz-adv-x="674" 
d="M337 263q-40 0 -68 28t-28 68q0 19 7.5 36.5t20.5 31t30.5 21t37.5 7.5t37.5 -7.5t30.5 -21t20.5 -31t7.5 -36.5q0 -40 -28 -68t-68 -28z" />
    <glyph glyph-name="cedilla" unicode="&#xb8;" horiz-adv-x="674" 
d="M260 10h140l-81 -180h-129z" />
    <glyph glyph-name="uni00B9" unicode="&#xb9;" horiz-adv-x="375" 
d="M92 720h169v-360h-138v244h-45z" />
    <glyph glyph-name="ordmasculine" unicode="&#xba;" horiz-adv-x="425" 
d="M6 534q0 43 15 79t42 62t65 41t85 15t85 -15t65 -41t41.5 -62t14.5 -79q0 -42 -14.5 -78t-41.5 -62t-65 -40.5t-85 -14.5t-85 14.5t-65 40.5t-42 62t-15 78zM213 477q23 0 38.5 16t15.5 42q0 28 -15.5 42.5t-38.5 14.5q-24 0 -39.5 -15t-15.5 -42q0 -26 15.5 -42
t39.5 -16z" />
    <glyph glyph-name="guillemotright" unicode="&#xbb;" horiz-adv-x="614" 
d="M392 290l-92 145l123 79l148 -224l-148 -224l-123 79zM135 290l-92 145l124 79l148 -224l-148 -224l-124 79z" />
    <glyph glyph-name="onequarter" unicode="&#xbc;" horiz-adv-x="792" 
d="M92 720h169v-360h-138v244h-45zM572 720h142l-500 -720h-142zM426 164l129 196h181v-199h51v-102h-51v-59h-132v59h-178v105zM604 161v121l-77 -121h77z" />
    <glyph glyph-name="onehalf" unicode="&#xbd;" horiz-adv-x="792" 
d="M92 720h169v-360h-138v244h-45zM567 720h142l-500 -720h-142zM464 114q29 18 56 34t48 31.5t33.5 30.5t12.5 30q0 9 -5.5 16.5t-19.5 7.5q-15 0 -24 -10t-16 -33l-105 34q4 19 14 39t28 36.5t45 27t65 10.5q39 0 67.5 -10t46.5 -26.5t27 -37.5t9 -44q0 -28 -11 -49.5
t-27.5 -39t-36.5 -30t-38 -22.5h116v-109h-285v114z" />
    <glyph glyph-name="threequarters" unicode="&#xbe;" horiz-adv-x="792" 
d="M125 490q7 -19 20.5 -26.5t29.5 -7.5q10 0 20.5 5t10.5 22t-12.5 21t-33.5 4h-15v65h13q17 0 30.5 5t13.5 22q0 13 -7.5 18.5t-19.5 5.5q-29 0 -43 -32l-108 25q19 56 62 83.5t98 27.5q28 0 55 -6.5t48 -20t34 -34.5t13 -51q0 -26 -11 -43.5t-29 -28.5q20 -11 32 -28.5
t12 -43.5q0 -33 -13.5 -55.5t-36 -37t-50.5 -21t-57 -6.5q-57 0 -100.5 23t-60.5 75zM586 720h142l-500 -720h-142zM426 164l129 196h181v-199h51v-102h-51v-59h-132v59h-178v105zM604 161v121l-77 -121h77z" />
    <glyph glyph-name="questiondown" unicode="&#xbf;" horiz-adv-x="606" 
d="M582 11q-9 -41 -32 -75.5t-57.5 -59.5t-80 -39t-100.5 -14q-67 0 -118.5 16.5t-87 46t-53.5 70t-18 88.5q0 87 47 144t147 83l12 57h157l10 -172h-19q-77 0 -114.5 -24t-37.5 -69q0 -35 21.5 -55t64.5 -20q35 0 62 21.5t38 63.5zM321 379q-40 0 -68 28t-28 68
q0 19 7.5 36.5t20.5 31t30.5 21t37.5 7.5t37.5 -7.5t30.5 -21t20.5 -31t7.5 -36.5q0 -40 -28 -68t-68 -28z" />
    <glyph glyph-name="Agrave" unicode="&#xc0;" horiz-adv-x="803" 
d="M277 720h246l275 -720h-223l-45 133h-274l-46 -133h-205zM305 276h177l-87 257zM299 913l242 -84l-28 -82l-251 58z" />
    <glyph glyph-name="Aacute" unicode="&#xc1;" horiz-adv-x="803" 
d="M277 720h246l275 -720h-223l-45 133h-274l-46 -133h-205zM305 276h177l-87 257zM261 829l242 84l37 -108l-251 -58z" />
    <glyph glyph-name="Acircumflex" unicode="&#xc2;" horiz-adv-x="803" 
d="M277 720h246l275 -720h-223l-45 133h-274l-46 -133h-205zM305 276h177l-87 257zM209 829l192 84l192 -84l-28 -82l-164 47l-164 -47z" />
    <glyph glyph-name="Atilde" unicode="&#xc3;" horiz-adv-x="803" 
d="M277 720h246l275 -720h-223l-45 133h-274l-46 -133h-205zM305 276h177l-87 257zM206 830q23 27 52.5 49t67.5 22q22 0 41 -6.5t35.5 -14.5t32.5 -14.5t34 -6.5q25 0 42 13t31 28l54 -76q-23 -26 -53.5 -47t-68.5 -21q-22 0 -39.5 6.5t-33.5 14.5t-32 14.5t-34 6.5
q-25 0 -42 -14.5t-32 -29.5z" />
    <glyph glyph-name="Adieresis" unicode="&#xc4;" horiz-adv-x="803" 
d="M277 720h246l275 -720h-223l-45 133h-274l-46 -133h-205zM305 276h177l-87 257zM496 741q-32 0 -54.5 23t-22.5 56q0 15 6 29t16.5 24.5t24.5 17t30 6.5t30 -6.5t24.5 -17t16.5 -24.5t6 -29q0 -33 -22.5 -56t-54.5 -23zM305 741q-32 0 -54.5 23t-22.5 56q0 15 6 29
t16.5 24.5t24.5 17t30 6.5t30 -6.5t24.5 -17t16.5 -24.5t6 -29q0 -33 -22.5 -56t-54.5 -23z" />
    <glyph glyph-name="Aring" unicode="&#xc5;" horiz-adv-x="803" 
d="M277 720h246l275 -720h-223l-45 133h-274l-46 -133h-205zM305 276h177l-87 257zM401 821q19 0 32 13t13 33t-13 33.5t-32 13.5q-18 0 -31 -13.5t-13 -33.5t13 -33t31 -13zM280 867q0 25 9.5 47t26 38.5t38.5 26t47 9.5t47 -9.5t38.5 -26t26 -38.5t9.5 -47t-9.5 -47
t-26 -38t-38.5 -25.5t-47 -9.5t-47 9.5t-38.5 25.5t-26 38t-9.5 47z" />
    <glyph glyph-name="AE" unicode="&#xc6;" horiz-adv-x="971" 
d="M478 133h-202l-71 -133h-205l404 720h544v-168h-273v-105h228v-160h-228v-119h273v-168h-470v133zM478 276v234l-126 -234h126z" />
    <glyph glyph-name="Ccedilla" unicode="&#xc7;" horiz-adv-x="586" 
d="M317 -4q-67 12 -122 43t-94 77.5t-60.5 107.5t-21.5 135q0 85 29 154t81.5 118t125 76t159.5 27q83 0 148 -28v-180q-30 15 -65 24t-78 9q-44 0 -80.5 -13t-62.5 -38.5t-40.5 -63t-14.5 -86.5q0 -46 15 -82.5t41.5 -62t63 -39t79.5 -13.5q42 0 77 9t65 26v-176
q-50 -25 -109 -31l-71 -159h-129z" />
    <glyph glyph-name="Egrave" unicode="&#xc8;" horiz-adv-x="541" 
d="M48 720h470v-168h-273v-105h228v-160h-228v-119h273v-168h-470v720zM189 913l242 -84l-28 -82l-251 58z" />
    <glyph glyph-name="Eacute" unicode="&#xc9;" horiz-adv-x="541" 
d="M48 720h470v-168h-273v-105h228v-160h-228v-119h273v-168h-470v720zM151 829l242 84l37 -108l-251 -58z" />
    <glyph glyph-name="Ecircumflex" unicode="&#xca;" horiz-adv-x="541" 
d="M48 720h470v-168h-273v-105h228v-160h-228v-119h273v-168h-470v720zM98 829l192 84l192 -84l-28 -82l-164 47l-164 -47z" />
    <glyph glyph-name="Edieresis" unicode="&#xcb;" horiz-adv-x="541" 
d="M48 720h470v-168h-273v-105h228v-160h-228v-119h273v-168h-470v720zM385 741q-32 0 -54.5 23t-22.5 56q0 15 6 29t16.5 24.5t24.5 17t30 6.5t30 -6.5t24.5 -17t16.5 -24.5t6 -29q0 -33 -22.5 -56t-54.5 -23zM194 741q-32 0 -54.5 23t-22.5 56q0 15 6 29t16.5 24.5
t24.5 17t30 6.5t30 -6.5t24.5 -17t16.5 -24.5t6 -29q0 -33 -22.5 -56t-54.5 -23z" />
    <glyph glyph-name="Igrave" unicode="&#xcc;" horiz-adv-x="293" 
d="M48 720h197v-720h-197v720zM45 913l242 -84l-28 -82l-251 58z" />
    <glyph glyph-name="Iacute" unicode="&#xcd;" horiz-adv-x="293" 
d="M48 720h197v-720h-197v720zM7 829l242 84l37 -108l-251 -58z" />
    <glyph glyph-name="Icircumflex" unicode="&#xce;" horiz-adv-x="293" 
d="M48 720h197v-720h-197v720zM-45 829l192 84l192 -84l-28 -82l-164 47l-164 -47z" />
    <glyph glyph-name="Idieresis" unicode="&#xcf;" horiz-adv-x="293" 
d="M48 720h197v-720h-197v720zM242 741q-32 0 -54.5 23t-22.5 56q0 15 6 29t16.5 24.5t24.5 17t30 6.5t30 -6.5t24.5 -17t16.5 -24.5t6 -29q0 -33 -22.5 -56t-54.5 -23zM51 741q-32 0 -54.5 23t-22.5 56q0 15 6 29t16.5 24.5t24.5 17t30 6.5t30 -6.5t24.5 -17t16.5 -24.5
t6 -29q0 -33 -22.5 -56t-54.5 -23z" />
    <glyph glyph-name="Eth" unicode="&#xd0;" horiz-adv-x="729" 
d="M2 443h46v277h260q107 0 182.5 -28.5t123.5 -77.5t70 -115t22 -141q0 -73 -22 -138t-69 -114t-121 -77.5t-178 -28.5h-268v276h-46v167zM245 276v-98h60q102 0 150.5 48.5t48.5 131.5q0 85 -49 134.5t-146 49.5h-64v-99h94v-167h-94z" />
    <glyph glyph-name="Ntilde" unicode="&#xd1;" horiz-adv-x="759" 
d="M48 720h192l288 -435v435h183v-720h-193l-288 436v-436h-182v720zM184 830q23 27 52.5 49t67.5 22q22 0 41 -6.5t35.5 -14.5t32.5 -14.5t34 -6.5q25 0 42 13t31 28l54 -76q-23 -26 -53.5 -47t-68.5 -21q-22 0 -39.5 6.5t-33.5 14.5t-32 14.5t-34 6.5q-25 0 -42 -14.5
t-32 -29.5z" />
    <glyph glyph-name="Ograve" unicode="&#xd2;" horiz-adv-x="809" 
d="M23 359q0 85 27.5 154t78 118t120.5 76t154 27q85 0 155.5 -27t121 -76t78.5 -118t28 -154t-28 -154t-78 -117.5t-120 -75t-155 -26.5t-155 26.5t-120.5 75t-78.5 117.5t-28 154zM404 161q39 0 72.5 13.5t57.5 39t37.5 62t13.5 82.5t-14 83.5t-38 63.5t-57.5 40t-72.5 14
t-71.5 -14t-56.5 -40t-37.5 -63.5t-13.5 -83.5t14 -82.5t38 -62t57 -39t71 -13.5zM302 913l242 -84l-28 -82l-251 58z" />
    <glyph glyph-name="Oacute" unicode="&#xd3;" horiz-adv-x="809" 
d="M23 359q0 85 27.5 154t78 118t120.5 76t154 27q85 0 155.5 -27t121 -76t78.5 -118t28 -154t-28 -154t-78 -117.5t-120 -75t-155 -26.5t-155 26.5t-120.5 75t-78.5 117.5t-28 154zM404 161q39 0 72.5 13.5t57.5 39t37.5 62t13.5 82.5t-14 83.5t-38 63.5t-57.5 40t-72.5 14
t-71.5 -14t-56.5 -40t-37.5 -63.5t-13.5 -83.5t14 -82.5t38 -62t57 -39t71 -13.5zM264 829l242 84l37 -108l-251 -58z" />
    <glyph glyph-name="Ocircumflex" unicode="&#xd4;" horiz-adv-x="809" 
d="M23 359q0 85 27.5 154t78 118t120.5 76t154 27q85 0 155.5 -27t121 -76t78.5 -118t28 -154t-28 -154t-78 -117.5t-120 -75t-155 -26.5t-155 26.5t-120.5 75t-78.5 117.5t-28 154zM404 161q39 0 72.5 13.5t57.5 39t37.5 62t13.5 82.5t-14 83.5t-38 63.5t-57.5 40t-72.5 14
t-71.5 -14t-56.5 -40t-37.5 -63.5t-13.5 -83.5t14 -82.5t38 -62t57 -39t71 -13.5zM212 829l192 84l192 -84l-28 -82l-164 47l-164 -47z" />
    <glyph glyph-name="Otilde" unicode="&#xd5;" horiz-adv-x="809" 
d="M23 359q0 85 27.5 154t78 118t120.5 76t154 27q85 0 155.5 -27t121 -76t78.5 -118t28 -154t-28 -154t-78 -117.5t-120 -75t-155 -26.5t-155 26.5t-120.5 75t-78.5 117.5t-28 154zM404 161q39 0 72.5 13.5t57.5 39t37.5 62t13.5 82.5t-14 83.5t-38 63.5t-57.5 40t-72.5 14
t-71.5 -14t-56.5 -40t-37.5 -63.5t-13.5 -83.5t14 -82.5t38 -62t57 -39t71 -13.5zM209 830q23 27 52.5 49t67.5 22q22 0 41 -6.5t35.5 -14.5t32.5 -14.5t34 -6.5q25 0 42 13t31 28l54 -76q-23 -26 -53.5 -47t-68.5 -21q-22 0 -39.5 6.5t-33.5 14.5t-32 14.5t-34 6.5
q-25 0 -42 -14.5t-32 -29.5z" />
    <glyph glyph-name="Odieresis" unicode="&#xd6;" horiz-adv-x="809" 
d="M23 359q0 85 27.5 154t78 118t120.5 76t154 27q85 0 155.5 -27t121 -76t78.5 -118t28 -154t-28 -154t-78 -117.5t-120 -75t-155 -26.5t-155 26.5t-120.5 75t-78.5 117.5t-28 154zM404 161q39 0 72.5 13.5t57.5 39t37.5 62t13.5 82.5t-14 83.5t-38 63.5t-57.5 40t-72.5 14
t-71.5 -14t-56.5 -40t-37.5 -63.5t-13.5 -83.5t14 -82.5t38 -62t57 -39t71 -13.5zM499 741q-32 0 -54.5 23t-22.5 56q0 15 6 29t16.5 24.5t24.5 17t30 6.5t30 -6.5t24.5 -17t16.5 -24.5t6 -29q0 -33 -22.5 -56t-54.5 -23zM308 741q-32 0 -54.5 23t-22.5 56q0 15 6 29
t16.5 24.5t24.5 17t30 6.5t30 -6.5t24.5 -17t16.5 -24.5t6 -29q0 -33 -22.5 -56t-54.5 -23z" />
    <glyph glyph-name="multiply" unicode="&#xd7;" horiz-adv-x="510" 
d="M38 227l116 116l-116 117l101 101l116 -117l116 117l101 -101l-116 -117l116 -116l-101 -101l-116 116l-116 -116z" />
    <glyph glyph-name="Oslash" unicode="&#xd8;" horiz-adv-x="809" 
d="M23 359q0 85 27.5 154t78 118t120.5 76t154 27q70 0 130.5 -18.5t108.5 -53.5l64 69l50 -46l-64 -68q45 -48 69.5 -113.5t24.5 -144.5q0 -85 -28 -154t-78 -117.5t-120 -75t-155 -26.5q-70 0 -130 18t-108 52l-61 -66l-49 47l59 63q-45 48 -69 113.5t-24 145.5zM224 358
q0 -65 28 -113l260 279q-23 17 -50.5 26t-58.5 9q-39 0 -71.5 -14t-56.5 -40t-37.5 -63.5t-13.5 -83.5zM404 161q39 0 72.5 13.5t57.5 39t37.5 62t13.5 82.5q0 66 -28 114l-260 -278q43 -33 107 -33z" />
    <glyph glyph-name="Ugrave" unicode="&#xd9;" horiz-adv-x="716" 
d="M43 720h197v-415q0 -75 29.5 -114.5t88.5 -39.5t88.5 39.5t29.5 115.5v414h197v-414q0 -153 -81.5 -236.5t-233.5 -83.5q-159 0 -237 81t-78 239v414zM256 913l242 -84l-28 -82l-251 58z" />
    <glyph glyph-name="Uacute" unicode="&#xda;" horiz-adv-x="716" 
d="M43 720h197v-415q0 -75 29.5 -114.5t88.5 -39.5t88.5 39.5t29.5 115.5v414h197v-414q0 -153 -81.5 -236.5t-233.5 -83.5q-159 0 -237 81t-78 239v414zM218 829l242 84l37 -108l-251 -58z" />
    <glyph glyph-name="Ucircumflex" unicode="&#xdb;" horiz-adv-x="716" 
d="M43 720h197v-415q0 -75 29.5 -114.5t88.5 -39.5t88.5 39.5t29.5 115.5v414h197v-414q0 -153 -81.5 -236.5t-233.5 -83.5q-159 0 -237 81t-78 239v414zM166 829l192 84l192 -84l-28 -82l-164 47l-164 -47z" />
    <glyph glyph-name="Udieresis" unicode="&#xdc;" horiz-adv-x="716" 
d="M43 720h197v-415q0 -75 29.5 -114.5t88.5 -39.5t88.5 39.5t29.5 115.5v414h197v-414q0 -153 -81.5 -236.5t-233.5 -83.5q-159 0 -237 81t-78 239v414zM453 741q-32 0 -54.5 23t-22.5 56q0 15 6 29t16.5 24.5t24.5 17t30 6.5t30 -6.5t24.5 -17t16.5 -24.5t6 -29
q0 -33 -22.5 -56t-54.5 -23zM262 741q-32 0 -54.5 23t-22.5 56q0 15 6 29t16.5 24.5t24.5 17t30 6.5t30 -6.5t24.5 -17t16.5 -24.5t6 -29q0 -33 -22.5 -56t-54.5 -23z" />
    <glyph glyph-name="Yacute" unicode="&#xdd;" horiz-adv-x="731" 
d="M266 242l-261 478h222l145 -300l149 300h205l-262 -478v-242h-198v242zM225 829l242 84l37 -108l-251 -58z" />
    <glyph glyph-name="Thorn" unicode="&#xde;" horiz-adv-x="644" 
d="M48 720h197v-93h72q66 0 122 -14.5t96.5 -44.5t63 -76t22.5 -110q0 -66 -22 -114.5t-62.5 -80.5t-97 -48t-125.5 -16h-69v-123h-197v720zM245 477v-204h49q59 0 92 25t33 79q0 53 -32 76.5t-89 23.5h-53z" />
    <glyph glyph-name="germandbls" unicode="&#xdf;" horiz-adv-x="652" 
d="M38 494q0 62 22.5 107.5t61.5 75t90.5 43.5t108.5 14q52 0 100 -12.5t84.5 -39t58 -67t21.5 -97.5q0 -50 -16.5 -84.5t-44.5 -57.5q53 -21 83.5 -61.5t30.5 -109.5q0 -56 -20.5 -97t-52.5 -68t-72.5 -40.5t-79.5 -13.5q-32 0 -57.5 3.5t-46 9.5t-37.5 14t-33 18l65 145
q15 -9 36.5 -16t44.5 -7q27 0 47 17t20 49q0 40 -30 59t-78 19h-38v129h20q27 0 50 18.5t23 59.5q0 29 -20 51.5t-66 22.5q-50 0 -69.5 -28.5t-19.5 -70.5v-479h-186v494z" />
    <glyph glyph-name="agrave" unicode="&#xe0;" horiz-adv-x="655" 
d="M434 73h-3q-29 -46 -67.5 -66.5t-93.5 -20.5q-50 0 -96.5 20t-82 58t-56.5 92t-21 122q0 69 20.5 123t55 92t81 58t99.5 20q103 0 158 -77h3v62h186v-556h-183v73zM316 152q50 0 82.5 35.5t32.5 91.5q0 57 -32.5 91t-82.5 34q-51 0 -83.5 -34t-32.5 -91q0 -56 32.5 -91.5
t83.5 -35.5zM226 750l242 -84l-28 -82l-251 58z" />
    <glyph glyph-name="aacute" unicode="&#xe1;" horiz-adv-x="655" 
d="M434 73h-3q-29 -46 -67.5 -66.5t-93.5 -20.5q-50 0 -96.5 20t-82 58t-56.5 92t-21 122q0 69 20.5 123t55 92t81 58t99.5 20q103 0 158 -77h3v62h186v-556h-183v73zM316 152q50 0 82.5 35.5t32.5 91.5q0 57 -32.5 91t-82.5 34q-51 0 -83.5 -34t-32.5 -91q0 -56 32.5 -91.5
t83.5 -35.5zM188 666l242 84l37 -108l-251 -58z" />
    <glyph glyph-name="acircumflex" unicode="&#xe2;" horiz-adv-x="655" 
d="M434 73h-3q-29 -46 -67.5 -66.5t-93.5 -20.5q-50 0 -96.5 20t-82 58t-56.5 92t-21 122q0 69 20.5 123t55 92t81 58t99.5 20q103 0 158 -77h3v62h186v-556h-183v73zM316 152q50 0 82.5 35.5t32.5 91.5q0 57 -32.5 91t-82.5 34q-51 0 -83.5 -34t-32.5 -91q0 -56 32.5 -91.5
t83.5 -35.5zM136 666l192 84l192 -84l-28 -82l-164 47l-164 -47z" />
    <glyph glyph-name="atilde" unicode="&#xe3;" horiz-adv-x="655" 
d="M434 73h-3q-29 -46 -67.5 -66.5t-93.5 -20.5q-50 0 -96.5 20t-82 58t-56.5 92t-21 122q0 69 20.5 123t55 92t81 58t99.5 20q103 0 158 -77h3v62h186v-556h-183v73zM316 152q50 0 82.5 35.5t32.5 91.5q0 57 -32.5 91t-82.5 34q-51 0 -83.5 -34t-32.5 -91q0 -56 32.5 -91.5
t83.5 -35.5zM133 667q23 27 52.5 49t67.5 22q22 0 41 -6.5t35.5 -14.5t32.5 -14.5t34 -6.5q25 0 42 13t31 28l54 -76q-23 -26 -53.5 -47t-68.5 -21q-22 0 -39.5 6.5t-33.5 14.5t-32 14.5t-34 6.5q-25 0 -42 -14.5t-32 -29.5z" />
    <glyph glyph-name="adieresis" unicode="&#xe4;" horiz-adv-x="655" 
d="M434 73h-3q-29 -46 -67.5 -66.5t-93.5 -20.5q-50 0 -96.5 20t-82 58t-56.5 92t-21 122q0 69 20.5 123t55 92t81 58t99.5 20q103 0 158 -77h3v62h186v-556h-183v73zM316 152q50 0 82.5 35.5t32.5 91.5q0 57 -32.5 91t-82.5 34q-51 0 -83.5 -34t-32.5 -91q0 -56 32.5 -91.5
t83.5 -35.5zM423 578q-32 0 -54.5 23t-22.5 56q0 15 6 29t16.5 24.5t24.5 17t30 6.5t30 -6.5t24.5 -17t16.5 -24.5t6 -29q0 -33 -22.5 -56t-54.5 -23zM232 578q-32 0 -54.5 23t-22.5 56q0 15 6 29t16.5 24.5t24.5 17t30 6.5t30 -6.5t24.5 -17t16.5 -24.5t6 -29
q0 -33 -22.5 -56t-54.5 -23z" />
    <glyph glyph-name="aring" unicode="&#xe5;" horiz-adv-x="655" 
d="M434 73h-3q-29 -46 -67.5 -66.5t-93.5 -20.5q-50 0 -96.5 20t-82 58t-56.5 92t-21 122q0 69 20.5 123t55 92t81 58t99.5 20q103 0 158 -77h3v62h186v-556h-183v73zM316 152q50 0 82.5 35.5t32.5 91.5q0 57 -32.5 91t-82.5 34q-51 0 -83.5 -34t-32.5 -91q0 -56 32.5 -91.5
t83.5 -35.5zM328 658q19 0 32 13t13 33t-13 33.5t-32 13.5q-18 0 -31 -13.5t-13 -33.5t13 -33t31 -13zM207 704q0 25 9.5 47t26 38.5t38.5 26t47 9.5t47 -9.5t38.5 -26t26 -38.5t9.5 -47t-9.5 -47t-26 -38t-38.5 -25.5t-47 -9.5t-47 9.5t-38.5 25.5t-26 38t-9.5 47z" />
    <glyph glyph-name="ae" unicode="&#xe6;" horiz-adv-x="987" 
d="M54 437q19 36 47 61.5t61.5 41.5t72 23.5t79.5 7.5q60 0 108.5 -15t82.5 -46q35 29 80.5 45t100.5 16q66 0 116.5 -22t84.5 -60t51 -89t17 -109q0 -13 -1 -26.5t-4 -23.5h-358q9 -50 37.5 -75t69.5 -25q33 0 59 18t37 49l146 -54q-9 -32 -30 -62t-53 -53.5t-73.5 -38
t-92.5 -14.5q-70 0 -125 23t-93 66q-38 -42 -86.5 -65.5t-124.5 -23.5q-48 0 -88.5 11.5t-70 35t-45.5 58t-16 80.5q0 79 60 125.5t174 46.5q43 0 76 -6t50 -11v8q0 46 -29.5 69.5t-76.5 23.5q-39 0 -66 -19t-47 -52zM403 223q-20 8 -42 13.5t-53 5.5q-36 0 -59 -15t-23 -41
q0 -32 22.5 -46t59.5 -14q43 0 69 24.5t26 60.5v12zM686 423q-35 0 -59 -22.5t-34 -61.5h179q-2 36 -25.5 60t-60.5 24z" />
    <glyph glyph-name="ccedilla" unicode="&#xe7;" horiz-adv-x="446" 
d="M219 0q-48 13 -86 39t-64.5 62t-40.5 81t-14 96q0 63 22 117t61.5 93t95 61t123.5 22q29 0 57 -5.5t49 -15.5v-173q-21 14 -47 20.5t-54 6.5q-54 0 -87.5 -34t-33.5 -91q0 -56 34.5 -91t94.5 -35q21 0 46 5t47 16v-169q-32 -14 -69 -17l-71 -158h-129z" />
    <glyph glyph-name="egrave" unicode="&#xe8;" horiz-adv-x="575" 
d="M201 241q9 -50 37.5 -75t69.5 -25q33 0 59 18t37 49l146 -54q-9 -32 -30 -62t-53 -53.5t-73.5 -38t-92.5 -14.5q-66 0 -119 20.5t-90.5 59t-57.5 92.5t-20 122q0 63 20 116.5t56.5 92t88.5 60.5t116 22q66 0 116.5 -22t84.5 -60t51 -89t17 -109q0 -13 -1 -26.5t-4 -23.5
h-358zM295 423q-35 0 -59 -22.5t-34 -61.5h179q-2 36 -25.5 60t-60.5 24zM186 750l242 -84l-28 -82l-251 58z" />
    <glyph glyph-name="eacute" unicode="&#xe9;" horiz-adv-x="575" 
d="M201 241q9 -50 37.5 -75t69.5 -25q33 0 59 18t37 49l146 -54q-9 -32 -30 -62t-53 -53.5t-73.5 -38t-92.5 -14.5q-66 0 -119 20.5t-90.5 59t-57.5 92.5t-20 122q0 63 20 116.5t56.5 92t88.5 60.5t116 22q66 0 116.5 -22t84.5 -60t51 -89t17 -109q0 -13 -1 -26.5t-4 -23.5
h-358zM295 423q-35 0 -59 -22.5t-34 -61.5h179q-2 36 -25.5 60t-60.5 24zM148 666l242 84l37 -108l-251 -58z" />
    <glyph glyph-name="ecircumflex" unicode="&#xea;" horiz-adv-x="575" 
d="M201 241q9 -50 37.5 -75t69.5 -25q33 0 59 18t37 49l146 -54q-9 -32 -30 -62t-53 -53.5t-73.5 -38t-92.5 -14.5q-66 0 -119 20.5t-90.5 59t-57.5 92.5t-20 122q0 63 20 116.5t56.5 92t88.5 60.5t116 22q66 0 116.5 -22t84.5 -60t51 -89t17 -109q0 -13 -1 -26.5t-4 -23.5
h-358zM295 423q-35 0 -59 -22.5t-34 -61.5h179q-2 36 -25.5 60t-60.5 24zM96 666l192 84l192 -84l-28 -82l-164 47l-164 -47z" />
    <glyph glyph-name="edieresis" unicode="&#xeb;" horiz-adv-x="575" 
d="M201 241q9 -50 37.5 -75t69.5 -25q33 0 59 18t37 49l146 -54q-9 -32 -30 -62t-53 -53.5t-73.5 -38t-92.5 -14.5q-66 0 -119 20.5t-90.5 59t-57.5 92.5t-20 122q0 63 20 116.5t56.5 92t88.5 60.5t116 22q66 0 116.5 -22t84.5 -60t51 -89t17 -109q0 -13 -1 -26.5t-4 -23.5
h-358zM295 423q-35 0 -59 -22.5t-34 -61.5h179q-2 36 -25.5 60t-60.5 24zM383 578q-32 0 -54.5 23t-22.5 56q0 15 6 29t16.5 24.5t24.5 17t30 6.5t30 -6.5t24.5 -17t16.5 -24.5t6 -29q0 -33 -22.5 -56t-54.5 -23zM192 578q-32 0 -54.5 23t-22.5 56q0 15 6 29t16.5 24.5
t24.5 17t30 6.5t30 -6.5t24.5 -17t16.5 -24.5t6 -29q0 -33 -22.5 -56t-54.5 -23z" />
    <glyph glyph-name="igrave" unicode="&#xec;" 
d="M38 557h186v-557h-186v557zM29 750l242 -84l-28 -82l-251 58z" />
    <glyph glyph-name="iacute" unicode="&#xed;" 
d="M38 557h186v-557h-186v557zM-9 666l242 84l37 -108l-251 -58z" />
    <glyph glyph-name="icircumflex" unicode="&#xee;" 
d="M38 557h186v-557h-186v557zM-61 666l192 84l192 -84l-28 -82l-164 47l-164 -47z" />
    <glyph glyph-name="idieresis" unicode="&#xef;" 
d="M38 557h186v-557h-186v557zM226 578q-32 0 -54.5 23t-22.5 56q0 15 6 29t16.5 24.5t24.5 17t30 6.5t30 -6.5t24.5 -17t16.5 -24.5t6 -29q0 -33 -22.5 -56t-54.5 -23zM35 578q-32 0 -54.5 23t-22.5 56q0 15 6 29t16.5 24.5t24.5 17t30 6.5t30 -6.5t24.5 -17t16.5 -24.5
t6 -29q0 -33 -22.5 -56t-54.5 -23z" />
    <glyph glyph-name="eth" unicode="&#xf0;" horiz-adv-x="631" 
d="M194 780l61 -21l29 49l57 -31l-26 -43q71 -33 127 -76.5t95 -98t59.5 -121t20.5 -144.5q0 -69 -21.5 -126t-61.5 -97.5t-95.5 -62.5t-122.5 -22q-68 0 -123.5 22t-95 61t-61.5 92.5t-22 116.5t21.5 117t60.5 93t93.5 61t120.5 22q10 0 21 -1.5t19 -6.5q-17 17 -42 34
t-54 32l-29 -49l-56 32l26 45l-50 21zM316 153q50 0 82.5 35t32.5 91q0 57 -32.5 91t-82.5 34q-51 0 -83.5 -34t-32.5 -91q0 -56 32.5 -91t83.5 -35z" />
    <glyph glyph-name="ntilde" unicode="&#xf1;" horiz-adv-x="628" 
d="M38 557h183v-63h4q26 40 65 58.5t97 18.5q51 0 90.5 -16t66.5 -45t41.5 -70t14.5 -92v-348h-186v276q0 27 -5 50t-16 40.5t-29 27.5t-44 10q-48 0 -72 -36t-24 -103v-265h-186v557zM119 667q23 27 52.5 49t67.5 22q22 0 41 -6.5t35.5 -14.5t32.5 -14.5t34 -6.5
q25 0 42 13t31 28l54 -76q-23 -26 -53.5 -47t-68.5 -21q-22 0 -39.5 6.5t-33.5 14.5t-32 14.5t-34 6.5q-25 0 -42 -14.5t-32 -29.5z" />
    <glyph glyph-name="ograve" unicode="&#xf2;" horiz-adv-x="631" 
d="M14 278q0 63 22 117t61.5 93t95 61t123.5 22q67 0 122.5 -22t95.5 -61t61.5 -93t21.5 -117t-21.5 -116.5t-61.5 -92.5t-95.5 -61t-122.5 -22q-68 0 -123.5 22t-95 61t-61.5 92.5t-22 116.5zM316 153q50 0 82.5 35t32.5 91q0 57 -32.5 91t-82.5 34q-51 0 -83.5 -34
t-32.5 -91q0 -56 32.5 -91t83.5 -35zM214 750l242 -84l-28 -82l-251 58z" />
    <glyph glyph-name="oacute" unicode="&#xf3;" horiz-adv-x="631" 
d="M14 278q0 63 22 117t61.5 93t95 61t123.5 22q67 0 122.5 -22t95.5 -61t61.5 -93t21.5 -117t-21.5 -116.5t-61.5 -92.5t-95.5 -61t-122.5 -22q-68 0 -123.5 22t-95 61t-61.5 92.5t-22 116.5zM316 153q50 0 82.5 35t32.5 91q0 57 -32.5 91t-82.5 34q-51 0 -83.5 -34
t-32.5 -91q0 -56 32.5 -91t83.5 -35zM176 666l242 84l37 -108l-251 -58z" />
    <glyph glyph-name="ocircumflex" unicode="&#xf4;" horiz-adv-x="631" 
d="M14 278q0 63 22 117t61.5 93t95 61t123.5 22q67 0 122.5 -22t95.5 -61t61.5 -93t21.5 -117t-21.5 -116.5t-61.5 -92.5t-95.5 -61t-122.5 -22q-68 0 -123.5 22t-95 61t-61.5 92.5t-22 116.5zM316 153q50 0 82.5 35t32.5 91q0 57 -32.5 91t-82.5 34q-51 0 -83.5 -34
t-32.5 -91q0 -56 32.5 -91t83.5 -35zM124 666l192 84l192 -84l-28 -82l-164 47l-164 -47z" />
    <glyph glyph-name="otilde" unicode="&#xf5;" horiz-adv-x="631" 
d="M14 278q0 63 22 117t61.5 93t95 61t123.5 22q67 0 122.5 -22t95.5 -61t61.5 -93t21.5 -117t-21.5 -116.5t-61.5 -92.5t-95.5 -61t-122.5 -22q-68 0 -123.5 22t-95 61t-61.5 92.5t-22 116.5zM316 153q50 0 82.5 35t32.5 91q0 57 -32.5 91t-82.5 34q-51 0 -83.5 -34
t-32.5 -91q0 -56 32.5 -91t83.5 -35zM121 667q23 27 52.5 49t67.5 22q22 0 41 -6.5t35.5 -14.5t32.5 -14.5t34 -6.5q25 0 42 13t31 28l54 -76q-23 -26 -53.5 -47t-68.5 -21q-22 0 -39.5 6.5t-33.5 14.5t-32 14.5t-34 6.5q-25 0 -42 -14.5t-32 -29.5z" />
    <glyph glyph-name="odieresis" unicode="&#xf6;" horiz-adv-x="631" 
d="M14 278q0 63 22 117t61.5 93t95 61t123.5 22q67 0 122.5 -22t95.5 -61t61.5 -93t21.5 -117t-21.5 -116.5t-61.5 -92.5t-95.5 -61t-122.5 -22q-68 0 -123.5 22t-95 61t-61.5 92.5t-22 116.5zM316 153q50 0 82.5 35t32.5 91q0 57 -32.5 91t-82.5 34q-51 0 -83.5 -34
t-32.5 -91q0 -56 32.5 -91t83.5 -35zM411 578q-32 0 -54.5 23t-22.5 56q0 15 6 29t16.5 24.5t24.5 17t30 6.5t30 -6.5t24.5 -17t16.5 -24.5t6 -29q0 -33 -22.5 -56t-54.5 -23zM220 578q-32 0 -54.5 23t-22.5 56q0 15 6 29t16.5 24.5t24.5 17t30 6.5t30 -6.5t24.5 -17
t16.5 -24.5t6 -29q0 -33 -22.5 -56t-54.5 -23z" />
    <glyph glyph-name="divide" unicode="&#xf7;" horiz-adv-x="510" 
d="M49 415h412v-143h-412v143zM145 562q0 46 31.5 74t78.5 28t78.5 -28t31.5 -74q0 -47 -31.5 -75t-78.5 -28t-78.5 28t-31.5 75zM145 125q0 47 31.5 74.5t78.5 27.5t78.5 -27.5t31.5 -74.5t-31.5 -74.5t-78.5 -27.5t-78.5 27.5t-31.5 74.5z" />
    <glyph glyph-name="oslash" unicode="&#xf8;" horiz-adv-x="631" 
d="M14 278q0 63 22 117t61.5 93t95 61t123.5 22q50 0 93.5 -12t78.5 -35l41 47l50 -46l-39 -44q37 -39 57 -90.5t20 -112.5q0 -63 -21.5 -116.5t-61.5 -92.5t-95.5 -61t-122.5 -22q-98 0 -172 46l-40 -46l-49 47l36 41q-37 39 -57 90.5t-20 113.5zM200 279q0 -35 14 -65
l156 177q-26 13 -54 13q-51 0 -83.5 -34t-32.5 -91zM316 153q50 0 82.5 35t32.5 91q0 34 -14 62l-155 -176q24 -12 54 -12z" />
    <glyph glyph-name="ugrave" unicode="&#xf9;" horiz-adv-x="606" 
d="M28 557h186v-276q0 -25 4.5 -48t15 -41t27.5 -28.5t42 -10.5t42 10.5t27.5 28.5t15 41t4.5 48v276h186v-318q0 -62 -22.5 -109.5t-60 -79.5t-87 -48t-104.5 -16t-105 16t-88 48t-60.5 79.5t-22.5 109.5v318zM202 750l242 -84l-28 -82l-251 58z" />
    <glyph glyph-name="uacute" unicode="&#xfa;" horiz-adv-x="606" 
d="M28 557h186v-276q0 -25 4.5 -48t15 -41t27.5 -28.5t42 -10.5t42 10.5t27.5 28.5t15 41t4.5 48v276h186v-318q0 -62 -22.5 -109.5t-60 -79.5t-87 -48t-104.5 -16t-105 16t-88 48t-60.5 79.5t-22.5 109.5v318zM164 666l242 84l37 -108l-251 -58z" />
    <glyph glyph-name="ucircumflex" unicode="&#xfb;" horiz-adv-x="606" 
d="M28 557h186v-276q0 -25 4.5 -48t15 -41t27.5 -28.5t42 -10.5t42 10.5t27.5 28.5t15 41t4.5 48v276h186v-318q0 -62 -22.5 -109.5t-60 -79.5t-87 -48t-104.5 -16t-105 16t-88 48t-60.5 79.5t-22.5 109.5v318zM111 666l192 84l192 -84l-28 -82l-164 47l-164 -47z" />
    <glyph glyph-name="udieresis" unicode="&#xfc;" horiz-adv-x="606" 
d="M28 557h186v-276q0 -25 4.5 -48t15 -41t27.5 -28.5t42 -10.5t42 10.5t27.5 28.5t15 41t4.5 48v276h186v-318q0 -62 -22.5 -109.5t-60 -79.5t-87 -48t-104.5 -16t-105 16t-88 48t-60.5 79.5t-22.5 109.5v318zM398 578q-32 0 -54.5 23t-22.5 56q0 15 6 29t16.5 24.5
t24.5 17t30 6.5t30 -6.5t24.5 -17t16.5 -24.5t6 -29q0 -33 -22.5 -56t-54.5 -23zM207 578q-32 0 -54.5 23t-22.5 56q0 15 6 29t16.5 24.5t24.5 17t30 6.5t30 -6.5t24.5 -17t16.5 -24.5t6 -29q0 -33 -22.5 -56t-54.5 -23z" />
    <glyph glyph-name="yacute" unicode="&#xfd;" horiz-adv-x="605" 
d="M228 56l-228 501h194l119 -292l105 292h187l-295 -757h-187zM163 666l242 84l37 -108l-251 -58z" />
    <glyph glyph-name="thorn" unicode="&#xfe;" horiz-adv-x="655" 
d="M38 720h183v-231h4q29 41 70.5 61.5t98.5 20.5q50 0 95 -20t78.5 -58t53.5 -92.5t20 -122.5t-21 -122t-55.5 -92t-80 -58t-93.5 -20q-60 0 -99.5 22t-63.5 65h-4v-273h-186v920zM340 152q50 0 82.5 35.5t32.5 91.5q0 57 -32.5 91t-82.5 34q-51 0 -83.5 -34t-32.5 -91
q0 -56 32.5 -91.5t83.5 -35.5z" />
    <glyph glyph-name="ydieresis" unicode="&#xff;" horiz-adv-x="605" 
d="M228 56l-228 501h194l119 -292l105 292h187l-295 -757h-187zM398 578q-32 0 -54.5 23t-22.5 56q0 15 6 29t16.5 24.5t24.5 17t30 6.5t30 -6.5t24.5 -17t16.5 -24.5t6 -29q0 -33 -22.5 -56t-54.5 -23zM207 578q-32 0 -54.5 23t-22.5 56q0 15 6 29t16.5 24.5t24.5 17
t30 6.5t30 -6.5t24.5 -17t16.5 -24.5t6 -29q0 -33 -22.5 -56t-54.5 -23z" />
    <glyph glyph-name="Amacron" unicode="&#x100;" horiz-adv-x="803" 
d="M277 720h246l275 -720h-223l-45 133h-274l-46 -133h-205zM305 276h177l-87 257zM250 873h302v-99h-302v99z" />
    <glyph glyph-name="amacron" unicode="&#x101;" horiz-adv-x="655" 
d="M434 73h-3q-29 -46 -67.5 -66.5t-93.5 -20.5q-50 0 -96.5 20t-82 58t-56.5 92t-21 122q0 69 20.5 123t55 92t81 58t99.5 20q103 0 158 -77h3v62h186v-556h-183v73zM316 152q50 0 82.5 35.5t32.5 91.5q0 57 -32.5 91t-82.5 34q-51 0 -83.5 -34t-32.5 -91q0 -56 32.5 -91.5
t83.5 -35.5zM177 710h302v-99h-302v99z" />
    <glyph glyph-name="Abreve" unicode="&#x102;" horiz-adv-x="803" 
d="M277 720h246l275 -720h-223l-45 133h-274l-46 -133h-205zM305 276h177l-87 257zM330 913q0 -39 21.5 -59.5t50.5 -20.5t50 20.5t21 59.5h93q0 -76 -44 -121t-120 -45q-38 0 -68.5 12.5t-52 34.5t-33 52.5t-11.5 66.5h93z" />
    <glyph glyph-name="abreve" unicode="&#x103;" horiz-adv-x="655" 
d="M434 73h-3q-29 -46 -67.5 -66.5t-93.5 -20.5q-50 0 -96.5 20t-82 58t-56.5 92t-21 122q0 69 20.5 123t55 92t81 58t99.5 20q103 0 158 -77h3v62h186v-556h-183v73zM316 152q50 0 82.5 35.5t32.5 91.5q0 57 -32.5 91t-82.5 34q-51 0 -83.5 -34t-32.5 -91q0 -56 32.5 -91.5
t83.5 -35.5zM257 750q0 -39 21.5 -59.5t50.5 -20.5t50 20.5t21 59.5h93q0 -76 -44 -121t-120 -45q-38 0 -68.5 12.5t-52 34.5t-33 52.5t-11.5 66.5h93z" />
    <glyph glyph-name="Aogonek" unicode="&#x104;" horiz-adv-x="803" 
d="M697 -227q-122 0 -176 27.5t-54 82.5q0 43 30 73.5t75 51.5l-42 125h-274l-46 -133h-205l272 720h246l275 -720h-110q-35 -21 -56 -42t-21 -42t19.5 -34.5t66.5 -13.5v-95zM305 276h177l-87 257z" />
    <glyph glyph-name="aogonek" unicode="&#x105;" horiz-adv-x="655" 
d="M564 -227q-122 0 -176 27.5t-54 82.5q0 42 28.5 71.5t71.5 50.5v68h-3q-29 -46 -67.5 -66.5t-93.5 -20.5q-50 0 -96.5 20t-82 58t-56.5 92t-21 122q0 69 20.5 123t55 92t81 58t99.5 20q103 0 158 -77h3v62h186v-556h-62q-35 -21 -56 -42t-21 -42t19.5 -34.5t66.5 -13.5
v-95zM316 152q50 0 82.5 35.5t32.5 91.5q0 57 -32.5 91t-82.5 34q-51 0 -83.5 -34t-32.5 -91q0 -56 32.5 -91.5t83.5 -35.5z" />
    <glyph glyph-name="Cacute" unicode="&#x106;" horiz-adv-x="586" 
d="M562 20q-68 -33 -151 -33q-86 0 -157.5 26t-124 74.5t-81.5 117t-29 154.5q0 85 29 154t81.5 118t125 76t159.5 27q83 0 148 -28v-180q-30 15 -65 24t-78 9q-44 0 -80.5 -14t-62.5 -40t-40.5 -63.5t-14.5 -83.5t15 -82.5t41.5 -62t63 -39t79.5 -13.5q42 0 77 9t65 26
v-176zM213 829l242 84l37 -108l-251 -58z" />
    <glyph glyph-name="cacute" unicode="&#x107;" horiz-adv-x="446" 
d="M422 5q-23 -10 -50 -14.5t-52 -4.5q-69 0 -125.5 22t-96.5 61t-62 92.5t-22 116.5t22 117t61.5 93t95 61t123.5 22q29 0 57 -5.5t49 -15.5v-173q-21 14 -47 20.5t-54 6.5q-54 0 -87.5 -34t-33.5 -91q0 -56 34.5 -91t94.5 -35q21 0 46 5t47 16v-169zM123 666l242 84
l37 -108l-251 -58z" />
    <glyph glyph-name="Ccircumflex" unicode="&#x108;" horiz-adv-x="586" 
d="M562 20q-68 -33 -151 -33q-86 0 -157.5 26t-124 74.5t-81.5 117t-29 154.5q0 85 29 154t81.5 118t125 76t159.5 27q83 0 148 -28v-180q-30 15 -65 24t-78 9q-44 0 -80.5 -14t-62.5 -40t-40.5 -63.5t-14.5 -83.5t15 -82.5t41.5 -62t63 -39t79.5 -13.5q42 0 77 9t65 26
v-176zM161 829l192 84l192 -84l-28 -82l-164 47l-164 -47z" />
    <glyph glyph-name="ccircumflex" unicode="&#x109;" horiz-adv-x="446" 
d="M422 5q-23 -10 -50 -14.5t-52 -4.5q-69 0 -125.5 22t-96.5 61t-62 92.5t-22 116.5t22 117t61.5 93t95 61t123.5 22q29 0 57 -5.5t49 -15.5v-173q-21 14 -47 20.5t-54 6.5q-54 0 -87.5 -34t-33.5 -91q0 -56 34.5 -91t94.5 -35q21 0 46 5t47 16v-169zM71 666l192 84
l192 -84l-28 -82l-164 47l-164 -47z" />
    <glyph glyph-name="Cdotaccent" unicode="&#x10a;" horiz-adv-x="586" 
d="M562 20q-68 -33 -151 -33q-86 0 -157.5 26t-124 74.5t-81.5 117t-29 154.5q0 85 29 154t81.5 118t125 76t159.5 27q83 0 148 -28v-180q-30 15 -65 24t-78 9q-44 0 -80.5 -14t-62.5 -40t-40.5 -63.5t-14.5 -83.5t15 -82.5t41.5 -62t63 -39t79.5 -13.5q42 0 77 9t65 26
v-176zM373 755q-40 0 -68 28t-28 68q0 19 7.5 36.5t20.5 31t30.5 21t37.5 7.5t37.5 -7.5t30.5 -21t20.5 -31t7.5 -36.5q0 -40 -28 -68t-68 -28z" />
    <glyph glyph-name="cdotaccent" unicode="&#x10b;" horiz-adv-x="446" 
d="M422 5q-23 -10 -50 -14.5t-52 -4.5q-69 0 -125.5 22t-96.5 61t-62 92.5t-22 116.5t22 117t61.5 93t95 61t123.5 22q29 0 57 -5.5t49 -15.5v-173q-21 14 -47 20.5t-54 6.5q-54 0 -87.5 -34t-33.5 -91q0 -56 34.5 -91t94.5 -35q21 0 46 5t47 16v-169zM283 582q-40 0 -68 28
t-28 68q0 19 7.5 36.5t20.5 31t30.5 21t37.5 7.5t37.5 -7.5t30.5 -21t20.5 -31t7.5 -36.5q0 -40 -28 -68t-68 -28z" />
    <glyph glyph-name="Ccaron" unicode="&#x10c;" horiz-adv-x="586" 
d="M562 20q-68 -33 -151 -33q-86 0 -157.5 26t-124 74.5t-81.5 117t-29 154.5q0 85 29 154t81.5 118t125 76t159.5 27q83 0 148 -28v-180q-30 15 -65 24t-78 9q-44 0 -80.5 -14t-62.5 -40t-40.5 -63.5t-14.5 -83.5t15 -82.5t41.5 -62t63 -39t79.5 -13.5q42 0 77 9t65 26
v-176zM189 913l164 -48l164 48l28 -82l-192 -84l-192 84z" />
    <glyph glyph-name="ccaron" unicode="&#x10d;" horiz-adv-x="446" 
d="M422 5q-23 -10 -50 -14.5t-52 -4.5q-69 0 -125.5 22t-96.5 61t-62 92.5t-22 116.5t22 117t61.5 93t95 61t123.5 22q29 0 57 -5.5t49 -15.5v-173q-21 14 -47 20.5t-54 6.5q-54 0 -87.5 -34t-33.5 -91q0 -56 34.5 -91t94.5 -35q21 0 46 5t47 16v-169zM99 750l164 -48
l164 48l28 -82l-192 -84l-192 84z" />
    <glyph glyph-name="Dcaron" unicode="&#x10e;" horiz-adv-x="729" 
d="M48 720h260q107 0 182.5 -28.5t123.5 -77.5t70 -115t22 -141q0 -73 -22 -138t-69 -114t-121 -77.5t-178 -28.5h-268v720zM245 542v-364h60q102 0 150.5 48.5t48.5 131.5q0 85 -49 134.5t-146 49.5h-64zM141 913l164 -48l164 48l28 -82l-192 -84l-192 84z" />
    <glyph glyph-name="dcaron" unicode="&#x10f;" horiz-adv-x="794" 
d="M434 73h-3q-24 -42 -63.5 -64.5t-95.5 -22.5q-51 0 -97.5 20t-82.5 58t-57 92t-21 122q0 69 20.5 123t55 92t81 58t98.5 20q53 0 93 -19.5t66 -54.5h3v223h186v-720h-183v73zM316 152q50 0 82.5 35.5t32.5 91.5q0 57 -32.5 91t-82.5 34q-51 0 -83.5 -34t-32.5 -91
q0 -56 32.5 -91.5t83.5 -35.5zM674 720h140l-41 -139h-129z" />
    <glyph glyph-name="Dcroat" unicode="&#x110;" horiz-adv-x="729" 
d="M2 443h46v277h260q107 0 182.5 -28.5t123.5 -77.5t70 -115t22 -141q0 -73 -22 -138t-69 -114t-121 -77.5t-178 -28.5h-268v276h-46v167zM245 276v-98h60q102 0 150.5 48.5t48.5 131.5q0 85 -49 134.5t-146 49.5h-64v-99h94v-167h-94z" />
    <glyph glyph-name="dcroat" unicode="&#x111;" horiz-adv-x="655" 
d="M357 683h74v37h186v-37h42v-99h-42v-584h-183v73h-3q-24 -42 -63.5 -64.5t-95.5 -22.5q-51 0 -97.5 20t-82.5 58t-57 92t-21 122q0 69 20.5 123t55 92t81 58t98.5 20q53 0 93 -19.5t66 -54.5h3v87h-74v99zM316 152q50 0 82.5 35.5t32.5 91.5q0 57 -32.5 91t-82.5 34
q-51 0 -83.5 -34t-32.5 -91q0 -56 32.5 -91.5t83.5 -35.5z" />
    <glyph glyph-name="Emacron" unicode="&#x112;" horiz-adv-x="541" 
d="M48 720h470v-168h-273v-105h228v-160h-228v-119h273v-168h-470v720zM139 873h302v-99h-302v99z" />
    <glyph glyph-name="emacron" unicode="&#x113;" horiz-adv-x="575" 
d="M201 241q9 -50 37.5 -75t69.5 -25q33 0 59 18t37 49l146 -54q-9 -32 -30 -62t-53 -53.5t-73.5 -38t-92.5 -14.5q-66 0 -119 20.5t-90.5 59t-57.5 92.5t-20 122q0 63 20 116.5t56.5 92t88.5 60.5t116 22q66 0 116.5 -22t84.5 -60t51 -89t17 -109q0 -13 -1 -26.5t-4 -23.5
h-358zM295 423q-35 0 -59 -22.5t-34 -61.5h179q-2 36 -25.5 60t-60.5 24zM137 710h302v-99h-302v99z" />
    <glyph glyph-name="Ebreve" unicode="&#x114;" horiz-adv-x="541" 
d="M48 720h470v-168h-273v-105h228v-160h-228v-119h273v-168h-470v720zM219 913q0 -39 21.5 -59.5t50.5 -20.5t50 20.5t21 59.5h93q0 -76 -44 -121t-120 -45q-38 0 -68.5 12.5t-52 34.5t-33 52.5t-11.5 66.5h93z" />
    <glyph glyph-name="ebreve" unicode="&#x115;" horiz-adv-x="575" 
d="M201 241q9 -50 37.5 -75t69.5 -25q33 0 59 18t37 49l146 -54q-9 -32 -30 -62t-53 -53.5t-73.5 -38t-92.5 -14.5q-66 0 -119 20.5t-90.5 59t-57.5 92.5t-20 122q0 63 20 116.5t56.5 92t88.5 60.5t116 22q66 0 116.5 -22t84.5 -60t51 -89t17 -109q0 -13 -1 -26.5t-4 -23.5
h-358zM295 423q-35 0 -59 -22.5t-34 -61.5h179q-2 36 -25.5 60t-60.5 24zM217 750q0 -39 21.5 -59.5t50.5 -20.5t50 20.5t21 59.5h93q0 -76 -44 -121t-120 -45q-38 0 -68.5 12.5t-52 34.5t-33 52.5t-11.5 66.5h93z" />
    <glyph glyph-name="Edotaccent" unicode="&#x116;" horiz-adv-x="541" 
d="M48 720h470v-168h-273v-105h228v-160h-228v-119h273v-168h-470v720zM290 745q-40 0 -68 28t-28 68q0 19 7.5 36.5t20.5 31t30.5 21t37.5 7.5t37.5 -7.5t30.5 -21t20.5 -31t7.5 -36.5q0 -40 -28 -68t-68 -28z" />
    <glyph glyph-name="edotaccent" unicode="&#x117;" horiz-adv-x="575" 
d="M201 241q9 -50 37.5 -75t69.5 -25q33 0 59 18t37 49l146 -54q-9 -32 -30 -62t-53 -53.5t-73.5 -38t-92.5 -14.5q-66 0 -119 20.5t-90.5 59t-57.5 92.5t-20 122q0 63 20 116.5t56.5 92t88.5 60.5t116 22q66 0 116.5 -22t84.5 -60t51 -89t17 -109q0 -13 -1 -26.5t-4 -23.5
h-358zM295 423q-35 0 -59 -22.5t-34 -61.5h179q-2 36 -25.5 60t-60.5 24zM288 582q-40 0 -68 28t-28 68q0 19 7.5 36.5t20.5 31t30.5 21t37.5 7.5t37.5 -7.5t30.5 -21t20.5 -31t7.5 -36.5q0 -40 -28 -68t-68 -28z" />
    <glyph glyph-name="Eogonek" unicode="&#x118;" horiz-adv-x="541" 
d="M48 720h470v-168h-273v-105h228v-160h-228v-119h273v-168h-27q-35 -21 -56 -42t-21 -42t19.5 -34.5t66.5 -13.5v-95q-122 0 -176 27.5t-54 82.5q0 39 25.5 68t63.5 49h-311v720z" />
    <glyph glyph-name="eogonek" unicode="&#x119;" horiz-adv-x="575" 
d="M394 -227q-122 0 -176 27.5t-54 82.5q0 35 20.5 62t53.5 47q-104 18 -164 93.5t-60 194.5q0 63 20 116.5t56.5 92t88.5 60.5t116 22q66 0 116.5 -22t84.5 -60t51 -89t17 -109q0 -13 -1 -26.5t-4 -23.5h-358q9 -50 37.5 -75t69.5 -25q33 0 59 18t37 49l146 -54
q-14 -51 -58.5 -95.5t-112.5 -62.5q-32 -20 -51.5 -40t-19.5 -40q0 -21 19.5 -34.5t66.5 -13.5v-95zM295 423q-35 0 -59 -22.5t-34 -61.5h179q-2 36 -25.5 60t-60.5 24z" />
    <glyph glyph-name="Ecaron" unicode="&#x11a;" horiz-adv-x="541" 
d="M48 720h470v-168h-273v-105h228v-160h-228v-119h273v-168h-470v720zM126 913l164 -48l164 48l28 -82l-192 -84l-192 84z" />
    <glyph glyph-name="ecaron" unicode="&#x11b;" horiz-adv-x="575" 
d="M201 241q9 -50 37.5 -75t69.5 -25q33 0 59 18t37 49l146 -54q-9 -32 -30 -62t-53 -53.5t-73.5 -38t-92.5 -14.5q-66 0 -119 20.5t-90.5 59t-57.5 92.5t-20 122q0 63 20 116.5t56.5 92t88.5 60.5t116 22q66 0 116.5 -22t84.5 -60t51 -89t17 -109q0 -13 -1 -26.5t-4 -23.5
h-358zM295 423q-35 0 -59 -22.5t-34 -61.5h179q-2 36 -25.5 60t-60.5 24zM124 750l164 -48l164 48l28 -82l-192 -84l-192 84z" />
    <glyph glyph-name="Gcircumflex" unicode="&#x11c;" horiz-adv-x="750" 
d="M404 424h324q9 -42 9 -86q0 -80 -25.5 -145t-71.5 -110.5t-109.5 -70.5t-139.5 -25q-80 0 -147 26t-116.5 74.5t-77 117t-27.5 154.5q0 85 27.5 154t77.5 118t118.5 76t151.5 27q86 0 151 -24t114 -75l-110 -142q-29 30 -66 48t-84 18q-40 0 -73 -14t-56.5 -39.5
t-36.5 -61.5t-13 -81q0 -48 13.5 -85t37 -63t56 -39.5t70.5 -13.5q28 0 53 8t44.5 23.5t31.5 38.5t15 53h-141v139zM193 829l192 84l192 -84l-28 -82l-164 47l-164 -47z" />
    <glyph glyph-name="gcircumflex" unicode="&#x11d;" horiz-adv-x="635" 
d="M186 -3q17 -25 40.5 -43t64.5 -18q61 0 92 35t31 112v12h-3q-23 -38 -60.5 -59.5t-84.5 -21.5q-56 0 -102.5 20.5t-79.5 57t-51.5 88t-18.5 114.5q0 61 18 112t50.5 88t77.5 57t100 20q45 0 85 -21.5t63 -59.5h3v66h186v-445q0 -91 -27 -152.5t-69.5 -99t-95 -53.5
t-104.5 -16q-91 0 -151.5 33.5t-92.5 87.5zM306 180q47 0 76 31.5t29 82.5q0 49 -29 79.5t-76 30.5q-48 0 -77 -30.5t-29 -79.5q0 -51 29 -82.5t77 -31.5zM126 666l192 84l192 -84l-28 -82l-164 47l-164 -47z" />
    <glyph glyph-name="Gbreve" unicode="&#x11e;" horiz-adv-x="750" 
d="M404 424h324q9 -42 9 -86q0 -80 -25.5 -145t-71.5 -110.5t-109.5 -70.5t-139.5 -25q-80 0 -147 26t-116.5 74.5t-77 117t-27.5 154.5q0 85 27.5 154t77.5 118t118.5 76t151.5 27q86 0 151 -24t114 -75l-110 -142q-29 30 -66 48t-84 18q-40 0 -73 -14t-56.5 -39.5
t-36.5 -61.5t-13 -81q0 -48 13.5 -85t37 -63t56 -39.5t70.5 -13.5q28 0 53 8t44.5 23.5t31.5 38.5t15 53h-141v139zM314 913q0 -39 21.5 -59.5t50.5 -20.5t50 20.5t21 59.5h93q0 -76 -44 -121t-120 -45q-38 0 -68.5 12.5t-52 34.5t-33 52.5t-11.5 66.5h93z" />
    <glyph glyph-name="gbreve" unicode="&#x11f;" horiz-adv-x="635" 
d="M186 -3q17 -25 40.5 -43t64.5 -18q61 0 92 35t31 112v12h-3q-23 -38 -60.5 -59.5t-84.5 -21.5q-56 0 -102.5 20.5t-79.5 57t-51.5 88t-18.5 114.5q0 61 18 112t50.5 88t77.5 57t100 20q45 0 85 -21.5t63 -59.5h3v66h186v-445q0 -91 -27 -152.5t-69.5 -99t-95 -53.5
t-104.5 -16q-91 0 -151.5 33.5t-92.5 87.5zM306 180q47 0 76 31.5t29 82.5q0 49 -29 79.5t-76 30.5q-48 0 -77 -30.5t-29 -79.5q0 -51 29 -82.5t77 -31.5zM247 750q0 -39 21.5 -59.5t50.5 -20.5t50 20.5t21 59.5h93q0 -76 -44 -121t-120 -45q-38 0 -68.5 12.5t-52 34.5
t-33 52.5t-11.5 66.5h93z" />
    <glyph glyph-name="Gdotaccent" unicode="&#x120;" horiz-adv-x="750" 
d="M404 424h324q9 -42 9 -86q0 -80 -25.5 -145t-71.5 -110.5t-109.5 -70.5t-139.5 -25q-80 0 -147 26t-116.5 74.5t-77 117t-27.5 154.5q0 85 27.5 154t77.5 118t118.5 76t151.5 27q86 0 151 -24t114 -75l-110 -142q-29 30 -66 48t-84 18q-40 0 -73 -14t-56.5 -39.5
t-36.5 -61.5t-13 -81q0 -48 13.5 -85t37 -63t56 -39.5t70.5 -13.5q28 0 53 8t44.5 23.5t31.5 38.5t15 53h-141v139zM385 755q-40 0 -68 28t-28 68q0 19 7.5 36.5t20.5 31t30.5 21t37.5 7.5t37.5 -7.5t30.5 -21t20.5 -31t7.5 -36.5q0 -40 -28 -68t-68 -28z" />
    <glyph glyph-name="gdotaccent" unicode="&#x121;" horiz-adv-x="635" 
d="M186 -3q17 -25 40.5 -43t64.5 -18q61 0 92 35t31 112v12h-3q-23 -38 -60.5 -59.5t-84.5 -21.5q-56 0 -102.5 20.5t-79.5 57t-51.5 88t-18.5 114.5q0 61 18 112t50.5 88t77.5 57t100 20q45 0 85 -21.5t63 -59.5h3v66h186v-445q0 -91 -27 -152.5t-69.5 -99t-95 -53.5
t-104.5 -16q-91 0 -151.5 33.5t-92.5 87.5zM306 180q47 0 76 31.5t29 82.5q0 49 -29 79.5t-76 30.5q-48 0 -77 -30.5t-29 -79.5q0 -51 29 -82.5t77 -31.5zM318 582q-40 0 -68 28t-28 68q0 19 7.5 36.5t20.5 31t30.5 21t37.5 7.5t37.5 -7.5t30.5 -21t20.5 -31t7.5 -36.5
q0 -40 -28 -68t-68 -28z" />
    <glyph glyph-name="Gcommaaccent" unicode="&#x122;" horiz-adv-x="750" 
d="M404 424h324q9 -42 9 -86q0 -80 -25.5 -145t-71.5 -110.5t-109.5 -70.5t-139.5 -25q-80 0 -147 26t-116.5 74.5t-77 117t-27.5 154.5q0 85 27.5 154t77.5 118t118.5 76t151.5 27q86 0 151 -24t114 -75l-110 -142q-29 30 -66 48t-84 18q-40 0 -73 -14t-56.5 -39.5
t-36.5 -61.5t-13 -81q0 -48 13.5 -85t37 -63t56 -39.5t70.5 -13.5q28 0 53 8t44.5 23.5t31.5 38.5t15 53h-141v139zM310 -59h140l-41 -160h-129z" />
    <glyph glyph-name="gcommaaccent" unicode="&#x123;" horiz-adv-x="635" 
d="M186 -3q17 -25 40.5 -43t64.5 -18q61 0 92 35t31 112v12h-3q-23 -38 -60.5 -59.5t-84.5 -21.5q-56 0 -102.5 20.5t-79.5 57t-51.5 88t-18.5 114.5q0 61 18 112t50.5 88t77.5 57t100 20q45 0 85 -21.5t63 -59.5h3v66h186v-445q0 -91 -27 -152.5t-69.5 -99t-95 -53.5
t-104.5 -16q-91 0 -151.5 33.5t-92.5 87.5zM306 180q47 0 76 31.5t29 82.5q0 49 -29 79.5t-76 30.5q-48 0 -77 -30.5t-29 -79.5q0 -51 29 -82.5t77 -31.5zM285 741h129l-30 -140h-140z" />
    <glyph glyph-name="Hcircumflex" unicode="&#x124;" horiz-adv-x="746" 
d="M48 720h197v-277h256v277h197v-720h-197v276h-256v-276h-197v720zM181 829l192 84l192 -84l-28 -82l-164 47l-164 -47z" />
    <glyph glyph-name="hcircumflex" unicode="&#x125;" horiz-adv-x="628" 
d="M38 720h186v-226h4q25 41 64 59t96 18q49 0 88 -16t66.5 -45t42.5 -70t15 -92v-348h-186v276q0 27 -5 50t-16 40.5t-29 27.5t-44 10q-48 0 -72 -36t-24 -103v-265h-186v720zM52 826l192 84l192 -84l-28 -82l-164 47l-164 -47z" />
    <glyph glyph-name="Hbar" unicode="&#x126;" horiz-adv-x="746" 
d="M48 720h197v-77h256v77h197v-720h-197v276h-256v-276h-197v720zM245 443h256v101h-256v-101z" />
    <glyph glyph-name="hbar" unicode="&#x127;" horiz-adv-x="628" 
d="M-4 683h42v37h186v-37h74v-99h-74v-90h4q25 41 64 59t96 18q49 0 88 -16t66.5 -45t42.5 -70t15 -92v-348h-186v276q0 27 -5 50t-16 40.5t-29 27.5t-44 10q-48 0 -72 -36t-24 -103v-265h-186v584h-42v99z" />
    <glyph glyph-name="Itilde" unicode="&#x128;" horiz-adv-x="293" 
d="M48 720h197v-720h-197v720zM-48 830q23 27 52.5 49t67.5 22q22 0 41 -6.5t35.5 -14.5t32.5 -14.5t34 -6.5q25 0 42 13t31 28l54 -76q-23 -26 -53.5 -47t-68.5 -21q-22 0 -39.5 6.5t-33.5 14.5t-32 14.5t-34 6.5q-25 0 -42 -14.5t-32 -29.5z" />
    <glyph glyph-name="itilde" unicode="&#x129;" 
d="M38 557h186v-557h-186v557zM-64 667q23 27 52.5 49t67.5 22q22 0 41 -6.5t35.5 -14.5t32.5 -14.5t34 -6.5q25 0 42 13t31 28l54 -76q-23 -26 -53.5 -47t-68.5 -21q-22 0 -39.5 6.5t-33.5 14.5t-32 14.5t-34 6.5q-25 0 -42 -14.5t-32 -29.5z" />
    <glyph glyph-name="Imacron" unicode="&#x12a;" horiz-adv-x="293" 
d="M48 720h197v-720h-197v720zM-4 873h302v-99h-302v99z" />
    <glyph glyph-name="imacron" unicode="&#x12b;" 
d="M38 557h186v-557h-186v557zM-20 710h302v-99h-302v99z" />
    <glyph glyph-name="Ibreve" unicode="&#x12c;" horiz-adv-x="293" 
d="M48 720h197v-720h-197v720zM76 913q0 -39 21.5 -59.5t50.5 -20.5t50 20.5t21 59.5h93q0 -76 -44 -121t-120 -45q-38 0 -68.5 12.5t-52 34.5t-33 52.5t-11.5 66.5h93z" />
    <glyph glyph-name="ibreve" unicode="&#x12d;" 
d="M38 557h186v-557h-186v557zM60 750q0 -39 21.5 -59.5t50.5 -20.5t50 20.5t21 59.5h93q0 -76 -44 -121t-120 -45q-38 0 -68.5 12.5t-52 34.5t-33 52.5t-11.5 66.5h93z" />
    <glyph glyph-name="Iogonek" unicode="&#x12e;" horiz-adv-x="293" 
d="M172 -227q-122 0 -176 27.5t-54 82.5q0 43 30.5 73.5t75.5 51.5v712h197v-720h-82q-35 -21 -56 -42t-21 -42t19.5 -34.5t66.5 -13.5v-95z" />
    <glyph glyph-name="iogonek" unicode="&#x12f;" 
d="M164 -227q-122 0 -176 27.5t-54 82.5q0 42 29.5 72.5t74.5 51.5v510h186v-517h-69q-35 -21 -56 -42t-21 -42t19.5 -34.5t66.5 -13.5v-95zM131 542q-40 0 -68 28t-28 68q0 19 7.5 36.5t20.5 31t30.5 21t37.5 7.5t37.5 -7.5t30.5 -21t20.5 -31t7.5 -36.5q0 -40 -28 -68
t-68 -28z" />
    <glyph glyph-name="Idotaccent" unicode="&#x130;" horiz-adv-x="293" 
d="M48 720h197v-720h-197v720zM146 745q-40 0 -68 28t-28 68q0 19 7.5 36.5t20.5 31t30.5 21t37.5 7.5t37.5 -7.5t30.5 -21t20.5 -31t7.5 -36.5q0 -40 -28 -68t-68 -28z" />
    <glyph glyph-name="dotlessi" unicode="&#x131;" 
d="M38 557h186v-557h-186v557z" />
    <glyph glyph-name="IJ" unicode="&#x132;" horiz-adv-x="750" 
d="M48 720h197v-720h-197v720zM374 174q20 -13 50 -13q41 0 62.5 28.5t21.5 69.5v461h197v-455q0 -62 -19.5 -113.5t-55 -88t-85.5 -57t-112 -20.5q-35 0 -69 7.5t-62 22.5z" />
    <glyph glyph-name="ij" unicode="&#x133;" horiz-adv-x="523" 
d="M38 517h186v-517h-186v517zM131 542q-40 0 -68 28t-28 68q0 19 7.5 36.5t20.5 31t30.5 21t37.5 7.5t37.5 -7.5t30.5 -21t20.5 -31t7.5 -36.5q0 -40 -28 -68t-68 -28zM392 542q-40 0 -68 28t-28 68q0 19 7.5 36.5t20.5 31t30.5 21t37.5 7.5t37.5 -7.5t30.5 -21t20.5 -31
t7.5 -36.5q0 -40 -28 -68t-68 -28zM205 -58q11 -3 20.5 -5t24.5 -2q25 0 37 17.5t12 56.5v508h186v-505q0 -49 -12.5 -90t-37.5 -70t-63 -45.5t-89 -16.5q-36 0 -61 5t-45 13z" />
    <glyph glyph-name="Jcircumflex" unicode="&#x134;" horiz-adv-x="457" 
d="M82 174q20 -13 50 -13q41 0 62.5 28.5t21.5 69.5v461h197v-455q0 -62 -19.5 -113.5t-55 -88t-85.5 -57t-112 -20.5q-35 0 -69 7.5t-62 22.5zM121 829l192 84l192 -84l-28 -82l-164 47l-164 -47z" />
    <glyph glyph-name="jcircumflex" unicode="&#x135;" 
d="M-56 -58q11 -3 20.5 -5t24.5 -2q25 0 37 17.5t12 56.5v548h186v-545q0 -49 -12.5 -90t-37.5 -70t-63 -45.5t-89 -16.5q-36 0 -61 5t-45 13zM-61 666l192 84l192 -84l-28 -82l-164 47l-164 -47z" />
    <glyph glyph-name="Kcommaaccent" unicode="&#x136;" horiz-adv-x="717" 
d="M48 720h197v-306l214 306h234l-263 -340l283 -380h-249l-219 311v-311h-197v720zM293 -59h140l-41 -160h-129z" />
    <glyph glyph-name="kcommaaccent" unicode="&#x137;" horiz-adv-x="617" 
d="M224 224v-224h-186v720h186v-382l151 219h222l-207 -266l227 -291h-229zM244 -59h140l-41 -160h-129z" />
    <glyph glyph-name="Lacute" unicode="&#x139;" horiz-adv-x="532" 
d="M48 720h197v-562h283v-158h-480v720zM16 829l242 84l37 -108l-251 -58z" />
    <glyph glyph-name="lacute" unicode="&#x13a;" 
d="M38 720h186v-720h-186v720zM1 816l242 84l37 -108l-251 -58z" />
    <glyph glyph-name="Lcommaaccent" unicode="&#x13b;" horiz-adv-x="532" 
d="M48 720h197v-562h283v-158h-480v720zM211 -59h140l-41 -160h-129z" />
    <glyph glyph-name="lcommaaccent" unicode="&#x13c;" 
d="M38 720h186v-720h-186v720zM61 -59h140l-41 -160h-129z" />
    <glyph glyph-name="Lcaron" unicode="&#x13d;" horiz-adv-x="532" 
d="M48 720h197v-562h283v-158h-480v720zM341 720h140l-41 -139h-129z" />
    <glyph glyph-name="lcaron" unicode="&#x13e;" horiz-adv-x="397" 
d="M38 720h186v-720h-186v720zM277 720h140l-41 -139h-129z" />
    <glyph glyph-name="Ldot" unicode="&#x13f;" horiz-adv-x="532" 
d="M48 720h197v-562h283v-158h-480v720zM403 263q-40 0 -68 28t-28 68q0 19 7.5 36.5t20.5 31t30.5 21t37.5 7.5t37.5 -7.5t30.5 -21t20.5 -31t7.5 -36.5q0 -40 -28 -68t-68 -28z" />
    <glyph glyph-name="ldot" unicode="&#x140;" horiz-adv-x="417" 
d="M38 720h186v-720h-186v720zM345 263q-40 0 -68 28t-28 68q0 19 7.5 36.5t20.5 31t30.5 21t37.5 7.5t37.5 -7.5t30.5 -21t20.5 -31t7.5 -36.5q0 -40 -28 -68t-68 -28z" />
    <glyph glyph-name="Lslash" unicode="&#x141;" horiz-adv-x="532" 
d="M2 352l46 25v343h197v-235l97 54v-143l-97 -54v-184h283v-158h-480v234l-46 -25v143z" />
    <glyph glyph-name="lslash" unicode="&#x142;" 
d="M2 352l36 20v348h186v-246l36 20v-143l-36 -20v-331h-186v229l-36 -20v143z" />
    <glyph glyph-name="Nacute" unicode="&#x143;" horiz-adv-x="759" 
d="M48 720h192l288 -435v435h183v-720h-193l-288 436v-436h-182v720zM239 829l242 84l37 -108l-251 -58z" />
    <glyph glyph-name="nacute" unicode="&#x144;" horiz-adv-x="628" 
d="M38 557h183v-63h4q26 40 65 58.5t97 18.5q51 0 90.5 -16t66.5 -45t41.5 -70t14.5 -92v-348h-186v276q0 27 -5 50t-16 40.5t-29 27.5t-44 10q-48 0 -72 -36t-24 -103v-265h-186v557zM174 666l242 84l37 -108l-251 -58z" />
    <glyph glyph-name="Ncommaaccent" unicode="&#x145;" horiz-adv-x="759" 
d="M48 720h192l288 -435v435h183v-720h-193l-288 436v-436h-182v720zM314 -59h140l-41 -160h-129z" />
    <glyph glyph-name="ncommaaccent" unicode="&#x146;" horiz-adv-x="628" 
d="M38 557h183v-63h4q26 40 65 58.5t97 18.5q51 0 90.5 -16t66.5 -45t41.5 -70t14.5 -92v-348h-186v276q0 27 -5 50t-16 40.5t-29 27.5t-44 10q-48 0 -72 -36t-24 -103v-265h-186v557zM249 -59h140l-41 -160h-129z" />
    <glyph glyph-name="Ncaron" unicode="&#x147;" horiz-adv-x="759" 
d="M48 720h192l288 -435v435h183v-720h-193l-288 436v-436h-182v720zM215 913l164 -48l164 48l28 -82l-192 -84l-192 84z" />
    <glyph glyph-name="ncaron" unicode="&#x148;" horiz-adv-x="628" 
d="M38 557h183v-63h4q26 40 65 58.5t97 18.5q51 0 90.5 -16t66.5 -45t41.5 -70t14.5 -92v-348h-186v276q0 27 -5 50t-16 40.5t-29 27.5t-44 10q-48 0 -72 -36t-24 -103v-265h-186v557zM150 750l164 -48l164 48l28 -82l-192 -84l-192 84z" />
    <glyph glyph-name="Omacron" unicode="&#x14c;" horiz-adv-x="809" 
d="M23 359q0 85 27.5 154t78 118t120.5 76t154 27q85 0 155.5 -27t121 -76t78.5 -118t28 -154t-28 -154t-78 -117.5t-120 -75t-155 -26.5t-155 26.5t-120.5 75t-78.5 117.5t-28 154zM404 161q39 0 72.5 13.5t57.5 39t37.5 62t13.5 82.5t-14 83.5t-38 63.5t-57.5 40t-72.5 14
t-71.5 -14t-56.5 -40t-37.5 -63.5t-13.5 -83.5t14 -82.5t38 -62t57 -39t71 -13.5zM253 873h302v-99h-302v99z" />
    <glyph glyph-name="omacron" unicode="&#x14d;" horiz-adv-x="631" 
d="M14 278q0 63 22 117t61.5 93t95 61t123.5 22q67 0 122.5 -22t95.5 -61t61.5 -93t21.5 -117t-21.5 -116.5t-61.5 -92.5t-95.5 -61t-122.5 -22q-68 0 -123.5 22t-95 61t-61.5 92.5t-22 116.5zM316 153q50 0 82.5 35t32.5 91q0 57 -32.5 91t-82.5 34q-51 0 -83.5 -34
t-32.5 -91q0 -56 32.5 -91t83.5 -35zM165 710h302v-99h-302v99z" />
    <glyph glyph-name="Obreve" unicode="&#x14e;" horiz-adv-x="809" 
d="M23 359q0 85 27.5 154t78 118t120.5 76t154 27q85 0 155.5 -27t121 -76t78.5 -118t28 -154t-28 -154t-78 -117.5t-120 -75t-155 -26.5t-155 26.5t-120.5 75t-78.5 117.5t-28 154zM404 161q39 0 72.5 13.5t57.5 39t37.5 62t13.5 82.5t-14 83.5t-38 63.5t-57.5 40t-72.5 14
t-71.5 -14t-56.5 -40t-37.5 -63.5t-13.5 -83.5t14 -82.5t38 -62t57 -39t71 -13.5zM333 913q0 -39 21.5 -59.5t50.5 -20.5t50 20.5t21 59.5h93q0 -76 -44 -121t-120 -45q-38 0 -68.5 12.5t-52 34.5t-33 52.5t-11.5 66.5h93z" />
    <glyph glyph-name="obreve" unicode="&#x14f;" horiz-adv-x="631" 
d="M14 278q0 63 22 117t61.5 93t95 61t123.5 22q67 0 122.5 -22t95.5 -61t61.5 -93t21.5 -117t-21.5 -116.5t-61.5 -92.5t-95.5 -61t-122.5 -22q-68 0 -123.5 22t-95 61t-61.5 92.5t-22 116.5zM316 153q50 0 82.5 35t32.5 91q0 57 -32.5 91t-82.5 34q-51 0 -83.5 -34
t-32.5 -91q0 -56 32.5 -91t83.5 -35zM245 750q0 -39 21.5 -59.5t50.5 -20.5t50 20.5t21 59.5h93q0 -76 -44 -121t-120 -45q-38 0 -68.5 12.5t-52 34.5t-33 52.5t-11.5 66.5h93z" />
    <glyph glyph-name="Ohungarumlaut" unicode="&#x150;" horiz-adv-x="809" 
d="M23 359q0 85 27.5 154t78 118t120.5 76t154 27q85 0 155.5 -27t121 -76t78.5 -118t28 -154t-28 -154t-78 -117.5t-120 -75t-155 -26.5t-155 26.5t-120.5 75t-78.5 117.5t-28 154zM404 161q39 0 72.5 13.5t57.5 39t37.5 62t13.5 82.5t-14 83.5t-38 63.5t-57.5 40t-72.5 14
t-71.5 -14t-56.5 -40t-37.5 -63.5t-13.5 -83.5t14 -82.5t38 -62t57 -39t71 -13.5zM430 829l142 84l51 -108l-157 -58zM220 829l142 84l51 -108l-157 -58z" />
    <glyph glyph-name="ohungarumlaut" unicode="&#x151;" horiz-adv-x="631" 
d="M14 278q0 63 22 117t61.5 93t95 61t123.5 22q67 0 122.5 -22t95.5 -61t61.5 -93t21.5 -117t-21.5 -116.5t-61.5 -92.5t-95.5 -61t-122.5 -22q-68 0 -123.5 22t-95 61t-61.5 92.5t-22 116.5zM316 153q50 0 82.5 35t32.5 91q0 57 -32.5 91t-82.5 34q-51 0 -83.5 -34
t-32.5 -91q0 -56 32.5 -91t83.5 -35zM342 666l142 84l51 -108l-157 -58zM132 666l142 84l51 -108l-157 -58z" />
    <glyph glyph-name="OE" unicode="&#x152;" horiz-adv-x="1082" 
d="M589 36q-79 -50 -184 -50q-85 0 -155 26.5t-120.5 75t-78.5 117.5t-28 154t27.5 154t78 118t120.5 76t154 27q106 0 186 -51v37h470v-168h-273v-105h228v-160h-228v-119h273v-168h-470v36zM404 161q39 0 72.5 13.5t57.5 39t37.5 62t13.5 82.5t-14 83.5t-38 63.5t-57.5 40
t-72.5 14t-71.5 -14t-56.5 -40t-37.5 -63.5t-13.5 -83.5t14 -82.5t38 -62t57 -39t71 -13.5z" />
    <glyph glyph-name="oe" unicode="&#x153;" horiz-adv-x="995" 
d="M14 278q0 63 22 117t61.5 93t95 61t123.5 22q62 0 113 -20t89 -55q37 35 86.5 55t110.5 20q66 0 116.5 -22t84.5 -60t51 -89t17 -109q0 -13 -1 -26.5t-4 -23.5h-358q9 -50 37.5 -75t69.5 -25q33 0 59 18t37 49l146 -54q-9 -32 -30 -62t-53 -53.5t-73.5 -38t-92.5 -14.5
q-127 0 -204 74q-38 -35 -88.5 -54.5t-112.5 -19.5q-68 0 -123.5 22t-95 61t-61.5 92.5t-22 116.5zM316 153q50 0 82.5 35t32.5 91q0 57 -32.5 91t-82.5 34q-51 0 -83.5 -34t-32.5 -91q0 -56 32.5 -91t83.5 -35zM715 423q-35 0 -59 -22.5t-34 -61.5h179q-2 36 -25.5 60
t-60.5 24z" />
    <glyph glyph-name="Racute" unicode="&#x154;" horiz-adv-x="670" 
d="M48 720h269q66 0 122 -14t96.5 -42.5t63 -73t22.5 -105.5q0 -79 -34 -132.5t-95 -82.5l178 -270h-227l-140 236h-58v-236h-197v720zM245 560v-174h49q59 0 92 23t33 71q0 42 -32 61t-89 19h-53zM196 829l242 84l37 -108l-251 -58z" />
    <glyph glyph-name="racute" unicode="&#x155;" horiz-adv-x="415" 
d="M38 557h183v-85h4q49 99 170 99v-178q-42 0 -73.5 -8t-53.5 -27.5t-33 -52.5t-11 -82v-223h-186v557zM63 666l242 84l37 -108l-251 -58z" />
    <glyph glyph-name="Rcommaaccent" unicode="&#x156;" horiz-adv-x="670" 
d="M48 720h269q66 0 122 -14t96.5 -42.5t63 -73t22.5 -105.5q0 -79 -34 -132.5t-95 -82.5l178 -270h-227l-140 236h-58v-236h-197v720zM245 560v-174h49q59 0 92 23t33 71q0 42 -32 61t-89 19h-53zM270 -59h140l-41 -160h-129z" />
    <glyph glyph-name="rcommaaccent" unicode="&#x157;" horiz-adv-x="415" 
d="M38 557h183v-85h4q49 99 170 99v-178q-42 0 -73.5 -8t-53.5 -27.5t-33 -52.5t-11 -82v-223h-186v557zM67 -59h140l-41 -160h-129z" />
    <glyph glyph-name="Rcaron" unicode="&#x158;" horiz-adv-x="670" 
d="M48 720h269q66 0 122 -14t96.5 -42.5t63 -73t22.5 -105.5q0 -79 -34 -132.5t-95 -82.5l178 -270h-227l-140 236h-58v-236h-197v720zM245 560v-174h49q59 0 92 23t33 71q0 42 -32 61t-89 19h-53zM171 913l164 -48l164 48l28 -82l-192 -84l-192 84z" />
    <glyph glyph-name="rcaron" unicode="&#x159;" horiz-adv-x="415" 
d="M38 557h183v-85h4q49 99 170 99v-178q-42 0 -73.5 -8t-53.5 -27.5t-33 -52.5t-11 -82v-223h-186v557zM39 750l164 -48l164 48l28 -82l-192 -84l-192 84z" />
    <glyph glyph-name="Sacute" unicode="&#x15a;" horiz-adv-x="610" 
d="M161 234q49 -83 137 -83q45 0 66 15t21 41q0 13 -5.5 23t-18.5 18.5t-34 16.5t-52 18q-50 16 -91.5 36.5t-71.5 48.5t-47 65t-17 87q0 42 17 80.5t50.5 68.5t83 47.5t114.5 17.5q53 0 94.5 -11.5t73.5 -31t55 -45.5t40 -55l-139 -102q-30 48 -58.5 64t-65.5 16
q-29 0 -46 -14.5t-17 -37.5q0 -26 24 -39t80 -33q53 -19 96 -40t73.5 -48t47 -63.5t16.5 -85.5q0 -41 -17 -81t-52.5 -71.5t-90 -50.5t-128.5 -19q-48 0 -91 10.5t-79 30t-63.5 47.5t-42.5 62zM166 829l242 84l37 -108l-251 -58z" />
    <glyph glyph-name="sacute" unicode="&#x15b;" horiz-adv-x="478" 
d="M151 183q13 -27 34.5 -44t53.5 -16q46 0 46 28q0 7 -3.5 13t-12.5 12t-25.5 14t-43.5 19q-80 31 -125 76.5t-45 107.5q0 37 13 69.5t38.5 56.5t64.5 38t91 14q101 0 153.5 -37t65.5 -96l-134 -64q-8 28 -30.5 44.5t-48.5 15.5q-22 0 -31 -7.5t-9 -18.5q0 -10 5 -16.5
t15.5 -12.5t27 -12.5t39.5 -16.5q79 -32 124 -75t45 -110q0 -32 -13 -64t-40 -57.5t-68.5 -41.5t-98.5 -16q-39 0 -75 9t-66.5 26t-52.5 42t-32 57zM99 666l242 84l37 -108l-251 -58z" />
    <glyph glyph-name="Scircumflex" unicode="&#x15c;" horiz-adv-x="610" 
d="M161 234q49 -83 137 -83q45 0 66 15t21 41q0 13 -5.5 23t-18.5 18.5t-34 16.5t-52 18q-50 16 -91.5 36.5t-71.5 48.5t-47 65t-17 87q0 42 17 80.5t50.5 68.5t83 47.5t114.5 17.5q53 0 94.5 -11.5t73.5 -31t55 -45.5t40 -55l-139 -102q-30 48 -58.5 64t-65.5 16
q-29 0 -46 -14.5t-17 -37.5q0 -26 24 -39t80 -33q53 -19 96 -40t73.5 -48t47 -63.5t16.5 -85.5q0 -41 -17 -81t-52.5 -71.5t-90 -50.5t-128.5 -19q-48 0 -91 10.5t-79 30t-63.5 47.5t-42.5 62zM113 829l192 84l192 -84l-28 -82l-164 47l-164 -47z" />
    <glyph glyph-name="scircumflex" unicode="&#x15d;" horiz-adv-x="478" 
d="M151 183q13 -27 34.5 -44t53.5 -16q46 0 46 28q0 7 -3.5 13t-12.5 12t-25.5 14t-43.5 19q-80 31 -125 76.5t-45 107.5q0 37 13 69.5t38.5 56.5t64.5 38t91 14q101 0 153.5 -37t65.5 -96l-134 -64q-8 28 -30.5 44.5t-48.5 15.5q-22 0 -31 -7.5t-9 -18.5q0 -10 5 -16.5
t15.5 -12.5t27 -12.5t39.5 -16.5q79 -32 124 -75t45 -110q0 -32 -13 -64t-40 -57.5t-68.5 -41.5t-98.5 -16q-39 0 -75 9t-66.5 26t-52.5 42t-32 57zM47 666l192 84l192 -84l-28 -82l-164 47l-164 -47z" />
    <glyph glyph-name="Scedilla" unicode="&#x15e;" horiz-adv-x="610" 
d="M240 -9q-76 11 -133.5 49t-83.5 96l138 98q49 -83 137 -83q45 0 66 15t21 41q0 13 -5.5 23t-18.5 18.5t-34 16.5t-52 18q-50 16 -91.5 36.5t-71.5 48.5t-47 65t-17 87q0 42 17 80.5t50.5 68.5t83 47.5t114.5 17.5q53 0 94.5 -11.5t73.5 -31t55 -45.5t40 -55l-139 -102
q-30 48 -58.5 64t-65.5 16q-29 0 -46 -14.5t-17 -37.5q0 -26 24 -39t80 -33q53 -19 96 -40t73.5 -48t47 -63.5t16.5 -85.5q0 -35 -12.5 -69.5t-38 -63.5t-64.5 -50.5t-92 -31.5l-73 -163h-129z" />
    <glyph glyph-name="scedilla" unicode="&#x15f;" horiz-adv-x="478" 
d="M175 -8q-58 11 -102 44t-60 84l138 63q13 -27 34.5 -44t53.5 -16q46 0 46 28q0 7 -3.5 13t-12.5 12t-25.5 14t-43.5 19q-80 31 -125 76.5t-45 107.5q0 37 13 69.5t38.5 56.5t64.5 38t91 14q101 0 153.5 -37t65.5 -96l-134 -64q-8 28 -30.5 44.5t-48.5 15.5
q-22 0 -31 -7.5t-9 -18.5q0 -10 5 -16.5t15.5 -12.5t27 -12.5t39.5 -16.5q79 -32 124 -75t45 -110q0 -26 -8.5 -52.5t-26.5 -49.5t-45 -41t-64 -27l-74 -165h-129z" />
    <glyph glyph-name="Scaron" unicode="&#x160;" horiz-adv-x="610" 
d="M161 234q49 -83 137 -83q45 0 66 15t21 41q0 13 -5.5 23t-18.5 18.5t-34 16.5t-52 18q-50 16 -91.5 36.5t-71.5 48.5t-47 65t-17 87q0 42 17 80.5t50.5 68.5t83 47.5t114.5 17.5q53 0 94.5 -11.5t73.5 -31t55 -45.5t40 -55l-139 -102q-30 48 -58.5 64t-65.5 16
q-29 0 -46 -14.5t-17 -37.5q0 -26 24 -39t80 -33q53 -19 96 -40t73.5 -48t47 -63.5t16.5 -85.5q0 -41 -17 -81t-52.5 -71.5t-90 -50.5t-128.5 -19q-48 0 -91 10.5t-79 30t-63.5 47.5t-42.5 62zM141 913l164 -48l164 48l28 -82l-192 -84l-192 84z" />
    <glyph glyph-name="scaron" unicode="&#x161;" horiz-adv-x="478" 
d="M151 183q13 -27 34.5 -44t53.5 -16q46 0 46 28q0 7 -3.5 13t-12.5 12t-25.5 14t-43.5 19q-80 31 -125 76.5t-45 107.5q0 37 13 69.5t38.5 56.5t64.5 38t91 14q101 0 153.5 -37t65.5 -96l-134 -64q-8 28 -30.5 44.5t-48.5 15.5q-22 0 -31 -7.5t-9 -18.5q0 -10 5 -16.5
t15.5 -12.5t27 -12.5t39.5 -16.5q79 -32 124 -75t45 -110q0 -32 -13 -64t-40 -57.5t-68.5 -41.5t-98.5 -16q-39 0 -75 9t-66.5 26t-52.5 42t-32 57zM75 750l164 -48l164 48l28 -82l-192 -84l-192 84z" />
    <glyph glyph-name="Tcommaaccent" unicode="&#x162;" horiz-adv-x="558" 
d="M5 720h548v-167h-175v-553h-198v553h-175v167zM209 -59h140l-41 -160h-129z" />
    <glyph glyph-name="tcommaaccent" unicode="&#x163;" horiz-adv-x="407" 
d="M20 557h85v145h186v-145h106v-146h-106v-411h-186v411h-85v146zM133 -59h140l-41 -160h-129z" />
    <glyph glyph-name="Tcaron" unicode="&#x164;" horiz-adv-x="558" 
d="M5 720h548v-167h-175v-553h-198v553h-175v167zM115 913l164 -48l164 48l28 -82l-192 -84l-192 84z" />
    <glyph glyph-name="tcaron" unicode="&#x165;" horiz-adv-x="407" 
d="M20 557h85v145h186v-145h106v-146h-106v-411h-186v411h-85v146zM344 720h140l-41 -139h-129z" />
    <glyph glyph-name="Tbar" unicode="&#x166;" horiz-adv-x="558" 
d="M5 720h548v-167h-175v-160h72v-99h-72v-294h-198v294h-72v99h72v160h-175v167z" />
    <glyph glyph-name="tbar" unicode="&#x167;" horiz-adv-x="407" 
d="M20 557h85v145h186v-145h106v-146h-106v-101h66v-99h-66v-211h-186v211h-50v99h50v101h-85v146z" />
    <glyph glyph-name="Utilde" unicode="&#x168;" horiz-adv-x="716" 
d="M43 720h197v-415q0 -75 29.5 -114.5t88.5 -39.5t88.5 39.5t29.5 115.5v414h197v-414q0 -153 -81.5 -236.5t-233.5 -83.5q-159 0 -237 81t-78 239v414zM163 830q23 27 52.5 49t67.5 22q22 0 41 -6.5t35.5 -14.5t32.5 -14.5t34 -6.5q25 0 42 13t31 28l54 -76
q-23 -26 -53.5 -47t-68.5 -21q-22 0 -39.5 6.5t-33.5 14.5t-32 14.5t-34 6.5q-25 0 -42 -14.5t-32 -29.5z" />
    <glyph glyph-name="utilde" unicode="&#x169;" horiz-adv-x="606" 
d="M28 557h186v-276q0 -25 4.5 -48t15 -41t27.5 -28.5t42 -10.5t42 10.5t27.5 28.5t15 41t4.5 48v276h186v-318q0 -62 -22.5 -109.5t-60 -79.5t-87 -48t-104.5 -16t-105 16t-88 48t-60.5 79.5t-22.5 109.5v318zM108 667q23 27 52.5 49t67.5 22q22 0 41 -6.5t35.5 -14.5
t32.5 -14.5t34 -6.5q25 0 42 13t31 28l54 -76q-23 -26 -53.5 -47t-68.5 -21q-22 0 -39.5 6.5t-33.5 14.5t-32 14.5t-34 6.5q-25 0 -42 -14.5t-32 -29.5z" />
    <glyph glyph-name="Umacron" unicode="&#x16a;" horiz-adv-x="716" 
d="M43 720h197v-415q0 -75 29.5 -114.5t88.5 -39.5t88.5 39.5t29.5 115.5v414h197v-414q0 -153 -81.5 -236.5t-233.5 -83.5q-159 0 -237 81t-78 239v414zM207 873h302v-99h-302v99z" />
    <glyph glyph-name="umacron" unicode="&#x16b;" horiz-adv-x="606" 
d="M28 557h186v-276q0 -25 4.5 -48t15 -41t27.5 -28.5t42 -10.5t42 10.5t27.5 28.5t15 41t4.5 48v276h186v-318q0 -62 -22.5 -109.5t-60 -79.5t-87 -48t-104.5 -16t-105 16t-88 48t-60.5 79.5t-22.5 109.5v318zM152 710h302v-99h-302v99z" />
    <glyph glyph-name="Ubreve" unicode="&#x16c;" horiz-adv-x="716" 
d="M43 720h197v-415q0 -75 29.5 -114.5t88.5 -39.5t88.5 39.5t29.5 115.5v414h197v-414q0 -153 -81.5 -236.5t-233.5 -83.5q-159 0 -237 81t-78 239v414zM287 913q0 -39 21.5 -59.5t50.5 -20.5t50 20.5t21 59.5h93q0 -76 -44 -121t-120 -45q-38 0 -68.5 12.5t-52 34.5
t-33 52.5t-11.5 66.5h93z" />
    <glyph glyph-name="ubreve" unicode="&#x16d;" horiz-adv-x="606" 
d="M28 557h186v-276q0 -25 4.5 -48t15 -41t27.5 -28.5t42 -10.5t42 10.5t27.5 28.5t15 41t4.5 48v276h186v-318q0 -62 -22.5 -109.5t-60 -79.5t-87 -48t-104.5 -16t-105 16t-88 48t-60.5 79.5t-22.5 109.5v318zM232 750q0 -39 21.5 -59.5t50.5 -20.5t50 20.5t21 59.5h93
q0 -76 -44 -121t-120 -45q-38 0 -68.5 12.5t-52 34.5t-33 52.5t-11.5 66.5h93z" />
    <glyph glyph-name="Uring" unicode="&#x16e;" horiz-adv-x="716" 
d="M43 720h197v-415q0 -75 29.5 -114.5t88.5 -39.5t88.5 39.5t29.5 115.5v414h197v-414q0 -153 -81.5 -236.5t-233.5 -83.5q-159 0 -237 81t-78 239v414zM358 821q19 0 32 13t13 33t-13 33.5t-32 13.5q-18 0 -31 -13.5t-13 -33.5t13 -33t31 -13zM237 867q0 25 9.5 47
t26 38.5t38.5 26t47 9.5t47 -9.5t38.5 -26t26 -38.5t9.5 -47t-9.5 -47t-26 -38t-38.5 -25.5t-47 -9.5t-47 9.5t-38.5 25.5t-26 38t-9.5 47z" />
    <glyph glyph-name="uring" unicode="&#x16f;" horiz-adv-x="606" 
d="M28 557h186v-276q0 -25 4.5 -48t15 -41t27.5 -28.5t42 -10.5t42 10.5t27.5 28.5t15 41t4.5 48v276h186v-318q0 -62 -22.5 -109.5t-60 -79.5t-87 -48t-104.5 -16t-105 16t-88 48t-60.5 79.5t-22.5 109.5v318zM303 658q19 0 32 13t13 33t-13 33.5t-32 13.5q-18 0 -31 -13.5
t-13 -33.5t13 -33t31 -13zM182 704q0 25 9.5 47t26 38.5t38.5 26t47 9.5t47 -9.5t38.5 -26t26 -38.5t9.5 -47t-9.5 -47t-26 -38t-38.5 -25.5t-47 -9.5t-47 9.5t-38.5 25.5t-26 38t-9.5 47z" />
    <glyph glyph-name="Uhungarumlaut" unicode="&#x170;" horiz-adv-x="716" 
d="M43 720h197v-415q0 -75 29.5 -114.5t88.5 -39.5t88.5 39.5t29.5 115.5v414h197v-414q0 -153 -81.5 -236.5t-233.5 -83.5q-159 0 -237 81t-78 239v414zM384 829l142 84l51 -108l-157 -58zM174 829l142 84l51 -108l-157 -58z" />
    <glyph glyph-name="uhungarumlaut" unicode="&#x171;" horiz-adv-x="606" 
d="M28 557h186v-276q0 -25 4.5 -48t15 -41t27.5 -28.5t42 -10.5t42 10.5t27.5 28.5t15 41t4.5 48v276h186v-318q0 -62 -22.5 -109.5t-60 -79.5t-87 -48t-104.5 -16t-105 16t-88 48t-60.5 79.5t-22.5 109.5v318zM330 666l142 84l51 -108l-157 -58zM120 666l142 84l51 -108
l-157 -58z" />
    <glyph glyph-name="Uogonek" unicode="&#x172;" horiz-adv-x="716" 
d="M474 -227q-122 0 -176 27.5t-54 82.5q0 34 19 59.5t50 45.5q-137 11 -203.5 91t-66.5 227v414h197v-415q0 -75 29.5 -114.5t88.5 -39.5t88.5 39.5t29.5 115.5v414h197v-414q0 -125 -54 -203t-156 -104q-33 -21 -54 -41.5t-21 -41.5t19.5 -34.5t66.5 -13.5v-95z" />
    <glyph glyph-name="uogonek" unicode="&#x173;" horiz-adv-x="606" 
d="M409 -227q-122 0 -176 27.5t-54 82.5q0 35 20 61t52 46q-46 7 -86.5 26t-71 50.5t-48 74.5t-17.5 98v318h186v-276q0 -25 4.5 -48t15 -41t27.5 -28.5t42 -10.5t42 10.5t27.5 28.5t15 41t4.5 48v276h186v-318q0 -48 -13.5 -87.5t-37.5 -69.5t-57 -51t-72 -32
q-33 -21 -54 -41.5t-21 -41.5t19.5 -34.5t66.5 -13.5v-95z" />
    <glyph glyph-name="Wcircumflex" unicode="&#x174;" horiz-adv-x="1199" 
d="M5 720h222l127 -530l152 530h204l148 -530l131 530h205l-217 -720h-248l-127 446l-129 -446h-248zM407 829l192 84l192 -84l-28 -82l-164 47l-164 -47z" />
    <glyph glyph-name="wcircumflex" unicode="&#x175;" horiz-adv-x="959" 
d="M3 557h195l96 -363l95 363h197l94 -363l97 363h180l-176 -557h-203l-100 381l-97 -381h-203zM287 666l192 84l192 -84l-28 -82l-164 47l-164 -47z" />
    <glyph glyph-name="Ycircumflex" unicode="&#x176;" horiz-adv-x="731" 
d="M266 242l-261 478h222l145 -300l149 300h205l-262 -478v-242h-198v242zM173 829l192 84l192 -84l-28 -82l-164 47l-164 -47z" />
    <glyph glyph-name="ycircumflex" unicode="&#x177;" horiz-adv-x="605" 
d="M228 56l-228 501h194l119 -292l105 292h187l-295 -757h-187zM111 666l192 84l192 -84l-28 -82l-164 47l-164 -47z" />
    <glyph glyph-name="Ydieresis" unicode="&#x178;" horiz-adv-x="731" 
d="M266 242l-261 478h222l145 -300l149 300h205l-262 -478v-242h-198v242zM460 741q-32 0 -54.5 23t-22.5 56q0 15 6 29t16.5 24.5t24.5 17t30 6.5t30 -6.5t24.5 -17t16.5 -24.5t6 -29q0 -33 -22.5 -56t-54.5 -23zM269 741q-32 0 -54.5 23t-22.5 56q0 15 6 29t16.5 24.5
t24.5 17t30 6.5t30 -6.5t24.5 -17t16.5 -24.5t6 -29q0 -33 -22.5 -56t-54.5 -23z" />
    <glyph glyph-name="Zacute" unicode="&#x179;" horiz-adv-x="600" 
d="M306 562h-291v158h580l-301 -562h291v-158h-580zM161 829l242 84l37 -108l-251 -58z" />
    <glyph glyph-name="zacute" unicode="&#x17a;" horiz-adv-x="517" 
d="M243 411h-228v146h497l-238 -411h228v-146h-497zM119 666l242 84l37 -108l-251 -58z" />
    <glyph glyph-name="Zdotaccent" unicode="&#x17b;" horiz-adv-x="600" 
d="M306 562h-291v158h580l-301 -562h291v-158h-580zM300 735q-40 0 -68 28t-28 68q0 19 7.5 36.5t20.5 31t30.5 21t37.5 7.5t37.5 -7.5t30.5 -21t20.5 -31t7.5 -36.5q0 -40 -28 -68t-68 -28z" />
    <glyph glyph-name="zdotaccent" unicode="&#x17c;" horiz-adv-x="517" 
d="M243 411h-228v146h497l-238 -411h228v-146h-497zM259 582q-40 0 -68 28t-28 68q0 19 7.5 36.5t20.5 31t30.5 21t37.5 7.5t37.5 -7.5t30.5 -21t20.5 -31t7.5 -36.5q0 -40 -28 -68t-68 -28z" />
    <glyph glyph-name="Zcaron" unicode="&#x17d;" horiz-adv-x="600" 
d="M306 562h-291v158h580l-301 -562h291v-158h-580zM136 913l164 -48l164 48l28 -82l-192 -84l-192 84z" />
    <glyph glyph-name="zcaron" unicode="&#x17e;" horiz-adv-x="517" 
d="M243 411h-228v146h497l-238 -411h228v-146h-497zM95 750l164 -48l164 48l28 -82l-192 -84l-192 84z" />
    <glyph glyph-name="florin" unicode="&#x192;" horiz-adv-x="567" 
d="M125 433h94l18 106q15 91 74.5 143t161.5 52q40 0 56 -2.5t28 -5.5v-127q-9 2 -23.5 4t-34.5 2q-16 0 -28.5 -3t-22 -11.5t-16.5 -24t-11 -40.5l-16 -93h99v-106h-117l-58 -349q-31 -188 -235 -188q-38 0 -55 3t-29 8v127q11 -3 27 -6t38 -3q14 0 25.5 2.5t20 10.5
t14.5 22.5t10 37.5l56 335h-76v106z" />
    <glyph glyph-name="Scommaaccent" unicode="&#x218;" horiz-adv-x="610" 
d="M161 234q49 -83 137 -83q45 0 66 15t21 41q0 13 -5.5 23t-18.5 18.5t-34 16.5t-52 18q-50 16 -91.5 36.5t-71.5 48.5t-47 65t-17 87q0 42 17 80.5t50.5 68.5t83 47.5t114.5 17.5q53 0 94.5 -11.5t73.5 -31t55 -45.5t40 -55l-139 -102q-30 48 -58.5 64t-65.5 16
q-29 0 -46 -14.5t-17 -37.5q0 -26 24 -39t80 -33q53 -19 96 -40t73.5 -48t47 -63.5t16.5 -85.5q0 -41 -17 -81t-52.5 -71.5t-90 -50.5t-128.5 -19q-48 0 -91 10.5t-79 30t-63.5 47.5t-42.5 62zM240 -59h140l-41 -160h-129z" />
    <glyph glyph-name="scommaaccent" unicode="&#x219;" horiz-adv-x="478" 
d="M151 183q13 -27 34.5 -44t53.5 -16q46 0 46 28q0 7 -3.5 13t-12.5 12t-25.5 14t-43.5 19q-80 31 -125 76.5t-45 107.5q0 37 13 69.5t38.5 56.5t64.5 38t91 14q101 0 153.5 -37t65.5 -96l-134 -64q-8 28 -30.5 44.5t-48.5 15.5q-22 0 -31 -7.5t-9 -18.5q0 -10 5 -16.5
t15.5 -12.5t27 -12.5t39.5 -16.5q79 -32 124 -75t45 -110q0 -32 -13 -64t-40 -57.5t-68.5 -41.5t-98.5 -16q-39 0 -75 9t-66.5 26t-52.5 42t-32 57zM174 -59h140l-41 -160h-129z" />
    <glyph glyph-name="uni021A" unicode="&#x21a;" horiz-adv-x="558" 
d="M5 720h548v-167h-175v-553h-198v553h-175v167zM209 -59h140l-41 -160h-129z" />
    <glyph glyph-name="uni021B" unicode="&#x21b;" horiz-adv-x="407" 
d="M20 557h85v145h186v-145h106v-146h-106v-411h-186v411h-85v146zM133 -59h140l-41 -160h-129z" />
    <glyph glyph-name="uni0237" unicode="&#x237;" 
d="M-56 -58q11 -3 20.5 -5t24.5 -2q25 0 37 17.5t12 56.5v548h186v-545q0 -49 -12.5 -90t-37.5 -70t-63 -45.5t-89 -16.5q-36 0 -61 5t-45 13z" />
    <glyph glyph-name="circumflex" unicode="&#x2c6;" horiz-adv-x="674" 
d="M145 666l192 84l192 -84l-28 -82l-164 47l-164 -47z" />
    <glyph glyph-name="caron" unicode="&#x2c7;" horiz-adv-x="674" 
d="M173 750l164 -48l164 48l28 -82l-192 -84l-192 84z" />
    <glyph glyph-name="breve" unicode="&#x2d8;" horiz-adv-x="674" 
d="M266 750q0 -39 21.5 -59.5t50.5 -20.5t50 20.5t21 59.5h93q0 -76 -44 -121t-120 -45q-38 0 -68.5 12.5t-52 34.5t-33 52.5t-11.5 66.5h93z" />
    <glyph glyph-name="dotaccent" unicode="&#x2d9;" horiz-adv-x="674" 
d="M337 542q-40 0 -68 28t-28 68q0 19 7.5 36.5t20.5 31t30.5 21t37.5 7.5t37.5 -7.5t30.5 -21t20.5 -31t7.5 -36.5q0 -40 -28 -68t-68 -28z" />
    <glyph glyph-name="ring" unicode="&#x2da;" horiz-adv-x="674" 
d="M337 658q19 0 32 13t13 33t-13 33.5t-32 13.5q-18 0 -31 -13.5t-13 -33.5t13 -33t31 -13zM216 704q0 25 9.5 47t26 38.5t38.5 26t47 9.5t47 -9.5t38.5 -26t26 -38.5t9.5 -47t-9.5 -47t-26 -38t-38.5 -25.5t-47 -9.5t-47 9.5t-38.5 25.5t-26 38t-9.5 47z" />
    <glyph glyph-name="ogonek" unicode="&#x2db;" horiz-adv-x="674" 
d="M443 -227q-122 0 -176 27.5t-54 82.5q0 44 31.5 75t78.5 52h128q-41 -24 -67.5 -47.5t-26.5 -46.5q0 -21 19.5 -34.5t66.5 -13.5v-95z" />
    <glyph glyph-name="tilde" unicode="&#x2dc;" horiz-adv-x="674" 
d="M142 667q23 27 52.5 49t67.5 22q22 0 41 -6.5t35.5 -14.5t32.5 -14.5t34 -6.5q25 0 42 13t31 28l54 -76q-23 -26 -53.5 -47t-68.5 -21q-22 0 -39.5 6.5t-33.5 14.5t-32 14.5t-34 6.5q-25 0 -42 -14.5t-32 -29.5z" />
    <glyph glyph-name="hungarumlaut" unicode="&#x2dd;" horiz-adv-x="674" 
d="M363 666l142 84l51 -108l-157 -58zM153 666l142 84l51 -108l-157 -58z" />
    <glyph glyph-name="Delta" unicode="&#x394;" horiz-adv-x="762" 
d="M310 720h142l300 -720h-742zM381 516l-149 -370h298z" />
    <glyph glyph-name="Omega" unicode="&#x3a9;" horiz-adv-x="804" 
d="M20 167h133q-30 15 -54 39t-41.5 53.5t-26.5 63t-9 69.5q0 74 27.5 136.5t78 108.5t120.5 71.5t154 25.5t154 -25.5t120.5 -71.5t78 -108.5t27.5 -136.5q0 -36 -9 -69.5t-26.5 -63t-41.5 -53.5t-54 -39h133v-167h-317v167q18 12 38.5 29.5t37 42t27.5 56.5t11 73
q0 44 -13.5 79.5t-37.5 60t-56.5 38t-71.5 13.5t-71.5 -13.5t-56.5 -38t-37.5 -60t-13.5 -79.5q0 -41 11 -73t27.5 -56.5t37 -42t38.5 -29.5v-167h-317v167z" />
    <glyph glyph-name="pi" unicode="&#x3c0;" horiz-adv-x="683" 
d="M407 411h-131v-411h-186v411h-80v146h663v-146h-80v-411h-186v411z" />
    <glyph glyph-name="Wgrave" unicode="&#x1e80;" horiz-adv-x="1199" 
d="M5 720h222l127 -530l152 530h204l148 -530l131 530h205l-217 -720h-248l-127 446l-129 -446h-248zM497 913l242 -84l-28 -82l-251 58z" />
    <glyph glyph-name="wgrave" unicode="&#x1e81;" horiz-adv-x="959" 
d="M3 557h195l96 -363l95 363h197l94 -363l97 363h180l-176 -557h-203l-100 381l-97 -381h-203zM377 750l242 -84l-28 -82l-251 58z" />
    <glyph glyph-name="Wacute" unicode="&#x1e82;" horiz-adv-x="1199" 
d="M5 720h222l127 -530l152 530h204l148 -530l131 530h205l-217 -720h-248l-127 446l-129 -446h-248zM459 829l242 84l37 -108l-251 -58z" />
    <glyph glyph-name="wacute" unicode="&#x1e83;" horiz-adv-x="959" 
d="M3 557h195l96 -363l95 363h197l94 -363l97 363h180l-176 -557h-203l-100 381l-97 -381h-203zM339 666l242 84l37 -108l-251 -58z" />
    <glyph glyph-name="Wdieresis" unicode="&#x1e84;" horiz-adv-x="1199" 
d="M5 720h222l127 -530l152 530h204l148 -530l131 530h205l-217 -720h-248l-127 446l-129 -446h-248zM694 741q-32 0 -54.5 23t-22.5 56q0 15 6 29t16.5 24.5t24.5 17t30 6.5t30 -6.5t24.5 -17t16.5 -24.5t6 -29q0 -33 -22.5 -56t-54.5 -23zM503 741q-32 0 -54.5 23
t-22.5 56q0 15 6 29t16.5 24.5t24.5 17t30 6.5t30 -6.5t24.5 -17t16.5 -24.5t6 -29q0 -33 -22.5 -56t-54.5 -23z" />
    <glyph glyph-name="wdieresis" unicode="&#x1e85;" horiz-adv-x="959" 
d="M3 557h195l96 -363l95 363h197l94 -363l97 363h180l-176 -557h-203l-100 381l-97 -381h-203zM574 578q-32 0 -54.5 23t-22.5 56q0 15 6 29t16.5 24.5t24.5 17t30 6.5t30 -6.5t24.5 -17t16.5 -24.5t6 -29q0 -33 -22.5 -56t-54.5 -23zM383 578q-32 0 -54.5 23t-22.5 56
q0 15 6 29t16.5 24.5t24.5 17t30 6.5t30 -6.5t24.5 -17t16.5 -24.5t6 -29q0 -33 -22.5 -56t-54.5 -23z" />
    <glyph glyph-name="Ygrave" unicode="&#x1ef2;" horiz-adv-x="731" 
d="M266 242l-261 478h222l145 -300l149 300h205l-262 -478v-242h-198v242zM263 913l242 -84l-28 -82l-251 58z" />
    <glyph glyph-name="ygrave" unicode="&#x1ef3;" horiz-adv-x="605" 
d="M228 56l-228 501h194l119 -292l105 292h187l-295 -757h-187zM201 750l242 -84l-28 -82l-251 58z" />
    <glyph glyph-name="endash" unicode="&#x2013;" horiz-adv-x="500" 
d="M20 330h460v-143h-460v143z" />
    <glyph glyph-name="emdash" unicode="&#x2014;" horiz-adv-x="1000" 
d="M20 330h960v-143h-960v143z" />
    <glyph glyph-name="quoteleft" unicode="&#x2018;" horiz-adv-x="346" 
d="M140 720h133l-30 -270h-185z" />
    <glyph glyph-name="quoteright" unicode="&#x2019;" horiz-adv-x="346" 
d="M103 720h185l-82 -270h-133z" />
    <glyph glyph-name="quotesinglbase" unicode="&#x201a;" horiz-adv-x="346" 
d="M95 140h186l-82 -270h-134z" />
    <glyph glyph-name="quotedblleft" unicode="&#x201c;" horiz-adv-x="602" 
d="M396 720h134l-30 -270h-186zM140 720h133l-30 -270h-185z" />
    <glyph glyph-name="quotedblright" unicode="&#x201d;" horiz-adv-x="602" 
d="M359 720h185l-82 -270h-133zM103 720h185l-82 -270h-133z" />
    <glyph glyph-name="quotedblbase" unicode="&#x201e;" horiz-adv-x="602" 
d="M351 140h186l-82 -270h-134zM95 140h186l-82 -270h-134z" />
    <glyph glyph-name="dagger" unicode="&#x2020;" horiz-adv-x="519" 
d="M38 587h129v155h186v-155h129v-136h-129v-451h-186v451h-129v136z" />
    <glyph glyph-name="daggerdbl" unicode="&#x2021;" horiz-adv-x="519" 
d="M167 -75h-129v136h129v390h-129v136h129v155h186v-155h129v-136h-129v-390h129v-136h-129v-155h-186v155z" />
    <glyph glyph-name="bullet" unicode="&#x2022;" horiz-adv-x="393" 
d="M60 290q0 59 39 93t97 34q59 0 97.5 -34t38.5 -93q0 -58 -38.5 -92t-97.5 -34q-29 0 -54 9t-43 25.5t-28.5 39.5t-10.5 52z" />
    <glyph glyph-name="ellipsis" unicode="&#x2026;" horiz-adv-x="792" 
d="M646 -14q-40 0 -68 28t-28 68q0 19 7.5 36.5t20.5 31t30.5 21t37.5 7.5t37.5 -7.5t30.5 -21t20.5 -31t7.5 -36.5q0 -40 -28 -68t-68 -28zM396 -14q-40 0 -68 28t-28 68q0 19 7.5 36.5t20.5 31t30.5 21t37.5 7.5t37.5 -7.5t30.5 -21t20.5 -31t7.5 -36.5q0 -40 -28 -68
t-68 -28zM146 -14q-40 0 -68 28t-28 68q0 19 7.5 36.5t20.5 31t30.5 21t37.5 7.5t37.5 -7.5t30.5 -21t20.5 -31t7.5 -36.5q0 -40 -28 -68t-68 -28z" />
    <glyph glyph-name="perthousand" unicode="&#x2030;" horiz-adv-x="1227" 
d="M829 173q0 88 49 137.5t137 49.5t138 -49.5t50 -137.5t-49.5 -137.5t-137.5 -49.5t-137.5 49.5t-49.5 137.5zM1016 97q27 0 41.5 20t14.5 56q0 76 -57 76q-56 0 -56 -76q0 -36 15 -56t42 -20zM429 173q0 88 49 137.5t137 49.5t138 -49.5t50 -137.5t-49.5 -137.5
t-137.5 -49.5t-137.5 49.5t-49.5 137.5zM616 97q27 0 41.5 20t14.5 56q0 76 -57 76q-56 0 -56 -76q0 -36 15 -56t42 -20zM592 720h142l-500 -720h-142zM24 546q0 89 49.5 138.5t137.5 49.5t137.5 -49.5t49.5 -138.5q0 -88 -49.5 -137t-137.5 -49t-137.5 49t-49.5 137z
M211 471q28 0 42.5 20t14.5 55q0 37 -15 57t-43 20q-27 0 -41.5 -20t-14.5 -57q0 -35 15 -55t42 -20z" />
    <glyph glyph-name="guilsinglleft" unicode="&#x2039;" horiz-adv-x="358" 
d="M43 290l148 224l124 -79l-92 -145l92 -145l-124 -79z" />
    <glyph glyph-name="guilsinglright" unicode="&#x203a;" horiz-adv-x="358" 
d="M135 290l-92 145l124 79l148 -224l-148 -224l-124 79z" />
    <glyph glyph-name="fraction" unicode="&#x2044;" horiz-adv-x="42" 
d="M200 720h142l-500 -720h-142z" />
    <glyph glyph-name="uni2074" unicode="&#x2074;" horiz-adv-x="375" 
d="M9 524l129 196h181v-199h51v-102h-51v-59h-132v59h-178v105zM187 521v121l-77 -121h77z" />
    <glyph glyph-name="Euro" unicode="&#x20ac;" horiz-adv-x="616" 
d="M30 492h72q16 56 46.5 101t72.5 76.5t94.5 48t113.5 16.5q46 0 85.5 -4.5t71.5 -15.5v-168q-26 11 -59 17t-75 6q-48 0 -82.5 -20.5t-54.5 -56.5h184v-106h-212q-1 -7 -1 -14v-14v-15.5t1 -14.5h212v-106h-180q21 -34 56 -52.5t85 -18.5q27 0 62 7.5t64 21.5v-169
q-35 -17 -74 -21t-77 -4q-60 0 -113 16t-95.5 46.5t-74 74.5t-48.5 99h-74v106h55q-1 8 -1 15.5v15.5v13.5t1 13.5h-55v106z" />
    <glyph glyph-name="afii61289" unicode="&#x2113;" horiz-adv-x="545" 
d="M21 213q17 8 35.5 16t36.5 17q-4 27 -5.5 58.5t-1.5 66.5q0 96 16.5 165t46 113t70.5 64.5t91 20.5q85 0 131 -52t46 -139q0 -58 -18 -108t-49.5 -93t-74.5 -80t-94 -68q10 -35 28 -56.5t48 -21.5q18 0 32 7.5t26.5 20t23.5 29.5t22 36l97 -70q-42 -81 -91.5 -117
t-118.5 -36q-30 0 -58.5 6.5t-54 22.5t-47 43t-37.5 68l-26 -12t-27 -11zM347 543q0 23 -8 42t-32 19q-22 0 -36 -20t-21.5 -53.5t-10.5 -78t-3 -92.5v-27q48 39 79.5 90t31.5 120z" />
    <glyph glyph-name="trademark" unicode="&#x2122;" horiz-adv-x="801" 
d="M327 720h185l32 -155l39 155h167l31 -360h-139l-16 176l-36 -132h-117l-28 124l-18 -168h-130zM5 720h286v-124h-74v-236h-139v236h-73v124z" />
    <glyph glyph-name="uni2126" unicode="&#x2126;" horiz-adv-x="804" 
d="M20 167h133q-30 15 -54 39t-41.5 53.5t-26.5 63t-9 69.5q0 74 27.5 136.5t78 108.5t120.5 71.5t154 25.5t154 -25.5t120.5 -71.5t78 -108.5t27.5 -136.5q0 -36 -9 -69.5t-26.5 -63t-41.5 -53.5t-54 -39h133v-167h-317v167q18 12 38.5 29.5t37 42t27.5 56.5t11 73
q0 44 -13.5 79.5t-37.5 60t-56.5 38t-71.5 13.5t-71.5 -13.5t-56.5 -38t-37.5 -60t-13.5 -79.5q0 -41 11 -73t27.5 -56.5t37 -42t38.5 -29.5v-167h-317v167z" />
    <glyph glyph-name="estimated" unicode="&#x212e;" horiz-adv-x="715" 
d="M163 104q0 -9 7 -18q35 -37 83.5 -58.5t104.5 -21.5q60 0 110.5 24t86.5 66h44q-42 -48 -104.5 -77.5t-137.5 -29.5q-63 0 -119 21.5t-97.5 59t-65.5 87.5t-24 107t24 107.5t65.5 88t97.5 59.5t119 22t119 -22t97.5 -59.5t65.5 -88t24 -107.5v-7h-496q-4 0 -4 -3v-150z
M548 272q3 0 3 4v151q0 11 -8 19q-35 36 -82.5 57t-102.5 21t-103.5 -21.5t-83.5 -59.5q-8 -6 -8 -19v-148q0 -4 4 -4h381z" />
    <glyph glyph-name="partialdiff" unicode="&#x2202;" horiz-adv-x="631" 
d="M194 780q98 -30 176.5 -74.5t133 -104.5t84 -136.5t29.5 -170.5q0 -69 -21.5 -126t-61.5 -97.5t-95.5 -62.5t-122.5 -22q-68 0 -123.5 22t-95 61t-61.5 92.5t-22 116.5t21.5 117t60.5 93t93.5 61t120.5 22q10 0 21 -1.5t19 -6.5q-17 17 -41 33.5t-51.5 31t-56.5 27
t-56 23.5zM316 153q50 0 82.5 35t32.5 91q0 57 -32.5 91t-82.5 34q-51 0 -83.5 -34t-32.5 -91q0 -56 32.5 -91t83.5 -35z" />
    <glyph glyph-name="uni2206" unicode="&#x2206;" horiz-adv-x="762" 
d="M310 720h142l300 -720h-742zM381 516l-149 -370h298z" />
    <glyph glyph-name="product" unicode="&#x220f;" horiz-adv-x="706" 
d="M461 553h-216v-653h-197v820h610v-820h-197v653z" />
    <glyph glyph-name="summation" unicode="&#x2211;" horiz-adv-x="623" 
d="M10 718v2h583v-158h-303l154 -252l-154 -252h303v-158h-583v2l247 408z" />
    <glyph glyph-name="minus" unicode="&#x2212;" horiz-adv-x="510" 
d="M49 415h412v-143h-412v143z" />
    <glyph glyph-name="uni2215" unicode="&#x2215;" horiz-adv-x="42" 
d="M200 720h142l-500 -720h-142z" />
    <glyph glyph-name="radical" unicode="&#x221a;" horiz-adv-x="602" 
d="M20 330h152l79 -186l189 576h152l-257 -720h-155z" />
    <glyph glyph-name="infinity" unicode="&#x221e;" horiz-adv-x="671" 
d="M175 187q-30 0 -57.5 12t-48.5 33.5t-33 51t-12 64.5q0 34 11.5 63t31.5 50.5t48 33.5t60 12q26 0 48.5 -8t42.5 -21.5t37 -31.5t33 -37q16 19 34.5 37t38.5 31.5t43.5 22t50.5 8.5q28 0 54.5 -12t46 -33.5t31.5 -51t12 -63.5q0 -35 -12 -64.5t-32 -51t-46 -34t-53 -12.5
t-50.5 8.5t-44.5 22.5t-40 32t-36 38q-32 -39 -70.5 -69.5t-87.5 -30.5zM484 413q-28 0 -52.5 -18.5t-47.5 -45.5q23 -29 46.5 -48t52.5 -19q31 0 49 19t18 45q0 28 -17 47.5t-49 19.5zM122 346q0 -28 17.5 -46t52.5 -18q25 0 47 18t45 45q-25 29 -49.5 48t-50.5 19
q-29 0 -45.5 -20t-16.5 -46z" />
    <glyph glyph-name="integral" unicode="&#x222b;" horiz-adv-x="454" 
d="M10 -73q10 -4 24.5 -6.5t34.5 -1.5q32 1 48.5 10.5t16.5 37.5v592q0 38 12.5 70t38 55.5t63 36.5t88.5 13q24 0 41 -1t29.5 -2.5t21 -3.5t16.5 -3v-127q-9 3 -24 5.5t-35 2.5q-32 0 -48.5 -11t-16.5 -37v-590q0 -39 -12.5 -72t-37.5 -56.5t-63 -36t-89 -12.5
q-24 0 -41 1.5t-29.5 3.5t-21 3.5t-16.5 1.5v127z" />
    <glyph glyph-name="approxequal" unicode="&#x2248;" horiz-adv-x="510" 
d="M33 243q37 44 69.5 60t61.5 16q24 0 47 -7.5t44.5 -17t42 -17t40.5 -7.5q19 0 37 8.5t37 31.5l65 -95q-37 -45 -69 -60.5t-61 -15.5q-25 0 -47.5 7.5t-44.5 16.5t-42.5 16.5t-40.5 7.5q-18 0 -36.5 -8.5t-37.5 -30.5zM33 473q37 44 69.5 60t61.5 16q24 0 47 -7.5
t44.5 -16.5t42 -16.5t40.5 -7.5q19 0 37 8.5t37 31.5l65 -95q-37 -45 -69 -60.5t-61 -15.5q-25 0 -47.5 7.5t-44.5 16.5t-42.5 16.5t-40.5 7.5q-18 0 -36.5 -8.5t-37.5 -31.5z" />
    <glyph glyph-name="notequal" unicode="&#x2260;" horiz-adv-x="510" 
d="M49 530h215l35 80h142l-35 -80h55v-143h-117l-37 -87h154v-143h-216l-34 -80h-142l34 80h-54v143h116l37 87h-153v143z" />
    <glyph glyph-name="lessequal" unicode="&#x2264;" horiz-adv-x="510" 
d="M49 495l412 177v-143l-243 -106l243 -106v-142l-412 177v143zM49 143h412v-143h-412v143z" />
    <glyph glyph-name="greaterequal" unicode="&#x2265;" horiz-adv-x="510" 
d="M49 317l243 106l-243 106v143l412 -177v-143l-412 -177v142zM49 143h412v-143h-412v143z" />
    <glyph glyph-name="lozenge" unicode="&#x25ca;" horiz-adv-x="542" 
d="M380 360l-109 216l-109 -216l109 -216zM10 360l190 360h142l190 -360l-190 -360h-142z" />
    <glyph glyph-name="heart" unicode="&#x2665;" horiz-adv-x="602" 
d="M305 435q16 29 41.5 47t56.5 18q43 0 71 -29.5t28 -75.5q0 -30 -13.5 -65t-39 -70t-63 -67.5t-85.5 -57.5q-48 25 -85.5 57.5t-63 67.5t-39 70t-13.5 65q0 46 28 75.5t71 29.5q31 0 56.5 -18t41.5 -47h8z" />
    <glyph glyph-name="uniE166" unicode="&#xe166;" 
d="M38 517h186v-517h-186v517zM131 542q-40 0 -68 28t-28 68q0 19 7.5 36.5t20.5 31t30.5 21t37.5 7.5t37.5 -7.5t30.5 -21t20.5 -31t7.5 -36.5q0 -40 -28 -68t-68 -28z" />
    <glyph glyph-name="uniF6C3" unicode="&#xf6c3;" horiz-adv-x="674" 
d="M272 -59h140l-41 -160h-129z" />
    <glyph glyph-name="glyph273" horiz-adv-x="674" 
d="M293 720h140l-41 -139h-129z" />
    <glyph glyph-name="glyph274" horiz-adv-x="674" 
d="M304 741h129l-30 -140h-140z" />
    </font>
</defs>
</svg>
