<svg width="122" height="39" viewBox="0 0 122 39" fill="none" xmlns="http://www.w3.org/2000/svg">
<path opacity="0.9" fill-rule="evenodd" clip-rule="evenodd" d="M47.9387 38.076C47.6796 38.0856 47.4212 38.0426 47.1794 37.9495C46.9375 37.8564 46.7174 37.7152 46.5324 37.5346C46.3474 37.354 46.2014 37.1378 46.1033 36.8991C46.0053 36.6605 45.9573 36.4045 45.9623 36.1468C45.9623 34.9893 46.8093 34.2176 47.9387 34.2176C48.6798 34.2176 49.1739 34.5684 49.4563 35.0244L48.8916 35.3401C48.7946 35.173 48.656 35.0337 48.4891 34.9354C48.3222 34.8371 48.1327 34.7832 47.9387 34.7788C47.1976 34.7788 46.6329 35.3401 46.6329 36.1468C46.6329 36.9185 47.1976 37.4797 47.9387 37.4797C48.3269 37.4797 48.7151 37.2693 48.8916 36.9536L49.4563 37.2342C49.3006 37.4952 49.0782 37.7105 48.8116 37.8584C48.5451 38.0062 48.2439 38.0813 47.9387 38.076ZM54.7501 38.0059H54.009L53.7267 37.3044H51.9973L51.715 38.0059H50.9739L52.4561 34.2527H53.2679L54.7501 38.0059ZM53.5502 36.7081L52.8443 34.9191L52.1738 36.673H53.5502V36.7081ZM57.2206 38.0059H56.5853V34.2527H58.2441C59.0205 34.2527 59.444 34.7788 59.444 35.4453C59.444 36.0767 59.0205 36.6028 58.2441 36.6028H57.2206V38.0059ZM58.1382 36.0416C58.4911 36.0416 58.7735 35.7961 58.7735 35.4453C58.7735 35.0945 58.5264 34.849 58.1382 34.849H57.2206V36.0416H58.1382ZM62.091 38.0059H61.4204V34.2527H62.091V38.0059ZM65.8672 38.0059H65.1967V34.849H64.0673V34.2527H66.9966V34.849H65.8672V38.0059ZM72.0081 38.0059H71.2317L70.9493 37.3044H69.2553L68.973 38.0059H68.1965L69.6788 34.2527H70.5258L72.0081 38.0059ZM70.7729 36.7081L70.1023 34.9191L69.3965 36.673H70.8082L70.7729 36.7081ZM76.0667 38.0059H73.7727V34.2527H74.4433V37.4096H76.102V38.0059H76.0667ZM14.658 23.87L13.7051 24.0805V24.326H18.2225C19.9165 24.326 21.1165 24.0805 21.8929 23.5543C22.2561 23.3216 22.5515 22.9983 22.7496 22.6167C22.9478 22.2351 23.0418 21.8085 23.0223 21.3795C23.0332 20.8343 22.8308 20.3061 22.4576 19.9063C22.1047 19.5205 21.6106 19.2048 21.0459 19.0294C20.4812 18.854 19.8107 18.7137 19.0695 18.6786V18.6085C19.6695 18.6085 20.2342 18.5033 20.7636 18.3279C21.2349 18.1797 21.6601 17.914 21.9988 17.5562C22.3517 17.2054 22.4929 16.7845 22.4929 16.2233C22.4929 15.4165 22.14 14.7851 21.3635 14.259C20.3054 13.6893 19.1049 13.4336 17.9049 13.5224H13.7051V13.7679L14.6227 13.9784V23.87H14.658ZM18.8225 18.1876C18.5048 18.363 18.1872 18.4682 17.8696 18.4682H17.1637V13.9082H17.8696C18.2225 13.9082 18.5401 14.0134 18.8225 14.1888C19.1284 14.4026 19.372 14.693 19.5283 15.0307C19.7048 15.3814 19.8107 15.7673 19.8107 16.2233C19.8136 16.6263 19.7166 17.0238 19.5283 17.3808C19.3668 17.7056 19.1237 17.9835 18.8225 18.1876ZM19.7401 23.2737C19.5454 23.4902 19.3057 23.6619 19.0375 23.777C18.7694 23.8921 18.4792 23.9478 18.1872 23.9401H17.1637V18.854H18.1872C18.8225 18.854 19.3519 19.0645 19.7401 19.5556C20.1283 19.9765 20.34 20.6079 20.34 21.3795C20.34 22.1863 20.1283 22.7826 19.7401 23.2737ZM25.1398 23.9752C25.758 24.4051 26.5041 24.6152 27.2574 24.5715C27.9632 24.5715 28.5632 24.326 29.022 23.87L29.5161 23.1685L29.869 23.7648C30.2219 24.1155 30.6807 24.326 31.316 24.326H32.7277V24.0805L31.7748 23.87V19.6959C31.7748 19.0645 31.6336 18.4682 31.316 17.942C30.9919 17.4347 30.5258 17.0324 29.9749 16.7845C29.4102 16.5039 28.7043 16.3636 27.8926 16.3636C26.9397 16.3636 26.2339 16.539 25.7751 16.8547C25.281 17.2054 25.0339 17.5913 25.0339 18.0823C25.0339 18.4331 25.1398 18.7137 25.3516 18.9242C25.5633 19.1346 25.8457 19.2399 26.1986 19.2399L26.6221 19.2048L26.7986 19.1697V16.8547L27.0456 16.7494C27.2175 16.6995 27.396 16.6758 27.575 16.6793C28.175 16.6793 28.5985 16.8897 28.8808 17.3457C29.1631 17.7666 29.3043 18.5383 29.3043 19.6959V20.1519C27.8538 20.2417 26.4135 20.453 24.9986 20.7832C24.8575 20.9236 24.7869 21.0989 24.7163 21.2743C24.5371 21.6471 24.4408 22.0538 24.434 22.4669C24.434 23.0983 24.681 23.5894 25.1751 23.9752H25.1398ZM28.9514 23.414C28.5985 23.7998 28.2808 24.0103 27.8926 24.0103C27.6456 24.0103 27.3985 23.87 27.2221 23.5894C27.0283 23.1978 26.943 22.7619 26.975 22.3266C26.9817 21.7741 27.0893 21.2274 27.2927 20.7131L27.9279 20.6079L29.3043 20.5377V22.7826L28.9514 23.414ZM34.9511 23.4841C35.6569 24.1857 36.7157 24.5364 38.0215 24.5364C38.5862 24.5364 39.0803 24.4312 39.5391 24.2208C39.9638 24.0265 40.3291 23.7239 40.5979 23.3438C40.8337 22.9907 40.9567 22.575 40.9508 22.1512H40.5979C40.5832 22.5066 40.4601 22.8491 40.245 23.1334C40.0685 23.4491 39.7862 23.6946 39.4332 23.87C39.0803 24.0805 38.7274 24.1857 38.3392 24.1857C37.7392 24.1857 37.2804 23.9051 36.9275 23.3438C36.6098 22.7826 36.4687 21.8355 36.4687 20.4676C36.4687 19.0645 36.6098 18.0823 36.9628 17.5211C37.2804 16.9599 37.7392 16.6793 38.3392 16.6793C38.5182 16.6758 38.6967 16.6995 38.8686 16.7494L39.1156 16.8547V19.1697H39.2921C39.4332 19.2399 39.5744 19.2399 39.7156 19.2399C40.0685 19.2399 40.3508 19.1346 40.5626 18.8891C40.7743 18.7137 40.9155 18.4331 40.9155 18.0823C40.9155 17.5913 40.6332 17.2054 40.1744 16.8547C39.6803 16.539 38.9744 16.3636 38.0215 16.3636C36.6804 16.3636 35.6569 16.7143 34.9158 17.451C34.21 18.1876 33.8217 19.2048 33.8217 20.4676C33.8217 21.7303 34.1747 22.7475 34.9158 23.4841H34.9511ZM43.1742 23.8349L42.2213 24.0805V24.326H46.5623V24.0805L45.6447 23.87V20.9235L46.9505 23.0281C47.1767 23.41 47.4766 23.7438 47.8328 24.0103C48.1857 24.2208 48.5387 24.326 49.0681 24.326H51.0797V24.0805L50.3033 23.87L47.2682 19.1697L49.0328 17.3107L50.3033 16.8547V16.6091H47.3387V16.8547L48.5034 17.3107L45.6447 20.3272V14.9254C45.6447 13.9784 45.1859 13.5224 44.233 13.5224H42.2919V13.7679L43.2448 13.9784V23.87L43.1742 23.8349ZM53.1267 27.4127C53.6914 27.553 54.4325 27.6583 55.3854 27.6583C56.7265 27.6583 57.75 27.3777 58.4558 26.8866C59.1617 26.3604 59.5146 25.694 59.5146 24.8521C59.5146 24.0805 59.2676 23.4491 58.8088 22.9931C58.3853 22.5371 57.75 22.2915 57.0088 22.2915H54.0443C53.5855 22.2915 53.2679 22.2915 53.0914 22.1863C52.9149 22.0811 52.8091 21.9408 52.8091 21.7654C52.8091 21.6952 52.8091 21.6251 52.8796 21.5549L53.1267 21.3795L53.4443 21.2392C54.0443 21.4848 54.7148 21.6251 55.456 21.6251C56.55 21.6251 57.4324 21.3795 57.997 20.9235C58.5617 20.4676 58.8793 19.8712 58.8793 19.0645C58.8793 18.363 58.597 17.7666 58.1029 17.3107C58.1735 17.1353 58.2441 16.995 58.35 16.9248C58.5617 16.6442 58.8441 16.539 59.0911 16.539V18.398H59.2676C59.4087 18.4682 59.5146 18.4682 59.6205 18.4682C59.9028 18.4682 60.0793 18.363 60.2557 18.1876C60.4212 17.9914 60.5091 17.742 60.5028 17.486C60.5028 17.0651 60.3616 16.7494 60.1499 16.5039C59.9028 16.2584 59.6205 16.1531 59.2676 16.1531C58.8088 16.1531 58.4205 16.2934 58.1029 16.6091L57.75 17.0651C57.5382 16.9248 57.1853 16.7845 56.7971 16.6793C56.3736 16.574 55.9501 16.539 55.456 16.539C54.3266 16.539 53.4796 16.7494 52.9149 17.2405C52.6344 17.4546 52.4085 17.7313 52.2552 18.0481C52.102 18.3649 52.0257 18.713 52.0326 19.0645C52.0129 19.4763 52.0979 19.8865 52.2797 20.2571C52.4561 20.5728 52.7385 20.8534 53.1267 21.0989C52.8091 21.2042 52.562 21.3094 52.3855 21.4497C51.8915 21.8355 51.6444 22.2915 51.6444 22.7826C51.6444 23.2737 51.8562 23.6946 52.2797 24.0103C52.6679 24.326 53.2679 24.4663 54.0443 24.4663H57.0088C58.2441 24.4663 58.8793 24.8171 58.8793 25.4835C58.8793 26.0097 58.5617 26.4657 57.997 26.8164C57.3971 27.1672 56.4795 27.3426 55.2089 27.3426C54.5493 27.3381 53.8945 27.2316 53.2679 27.0269V24.8521H53.0914L52.6679 24.782C52.315 24.782 52.0326 24.8872 51.8209 25.1328C51.6091 25.3081 51.4679 25.5887 51.4679 25.9395C51.4679 26.2201 51.6091 26.5007 51.8562 26.7814C52.2186 27.096 52.656 27.3133 53.1267 27.4127ZM56.2324 20.8183C56.056 21.1691 55.7736 21.3094 55.456 21.3094C55.1031 21.3094 54.856 21.1691 54.6443 20.8183C54.4678 20.4676 54.3619 19.9063 54.3619 19.0645C54.3619 18.2577 54.4678 17.6614 54.6443 17.3107C54.856 16.995 55.1031 16.8547 55.456 16.8547C55.8089 16.8547 56.056 16.995 56.2324 17.3457C56.4442 17.6965 56.55 18.2577 56.55 19.0996C56.55 19.9063 56.4442 20.5026 56.2324 20.8534V20.8183ZM62.2321 23.87L61.2792 24.0805V24.326H65.6555V24.0805L64.7026 23.87V18.1525C64.8438 17.942 64.9849 17.7316 65.1967 17.5211C65.5804 17.1395 66.1009 16.925 66.6437 16.9248V19.0645L66.8201 19.1346H67.2789C67.6319 19.1346 67.9142 19.0645 68.126 18.854C68.3377 18.6436 68.4436 18.363 68.4436 18.0122C68.4436 17.5211 68.3024 17.1703 68.0201 16.9248C67.7377 16.6442 67.3142 16.539 66.7848 16.539C66.1496 16.539 65.5849 16.7494 65.0202 17.1353L64.4908 17.7666C64.385 17.5562 64.2791 17.3457 64.1379 17.2054C63.9559 17.0061 63.7318 16.8492 63.4816 16.7461C63.2315 16.643 62.9614 16.5962 62.6909 16.6091H61.2792V16.8547L62.2321 17.0651V23.87ZM70.42 23.4841C71.1258 24.1857 72.1493 24.5364 73.4198 24.5364C74.7256 24.5364 75.7138 24.1857 76.455 23.4841C77.1608 22.7475 77.5137 21.7303 77.5137 20.4676C77.5137 19.2048 77.1608 18.1876 76.455 17.451C75.7491 16.7494 74.6903 16.3987 73.4198 16.3987C72.1493 16.3987 71.1258 16.7494 70.42 17.451C69.6788 18.1876 69.3259 19.2048 69.3259 20.4676C69.3259 21.7303 69.6788 22.7475 70.3847 23.4841H70.42ZM74.4786 23.3789C74.1962 23.9752 73.8433 24.2558 73.4198 24.2558C72.9963 24.2558 72.6787 23.9752 72.361 23.3789C72.0787 22.8177 71.9375 21.8355 71.9375 20.4676C71.9375 19.0996 72.0787 18.1174 72.3963 17.5562C72.6787 16.9599 72.9963 16.6793 73.4551 16.6793C73.808 16.6793 74.161 16.9599 74.4786 17.5562C74.7609 18.1174 74.9021 19.0996 74.9021 20.4676C74.9021 21.8355 74.7609 22.8177 74.4786 23.3789ZM81.1136 24.1857C81.5724 24.4312 82.1017 24.5364 82.7017 24.5364C83.4076 24.5364 83.9722 24.326 84.431 23.8349C84.6075 23.6595 84.784 23.414 84.9251 23.1685C84.9957 23.3789 85.1369 23.5894 85.3133 23.7998C85.7016 24.1857 86.2662 24.3961 87.0427 24.3961H87.1838V17.0651L88.1367 16.8547V16.6091H83.7605V16.8547L84.7134 17.0651V22.7826L84.3605 23.414C84.0075 23.7998 83.6899 24.0103 83.3017 24.0103C82.984 24.0103 82.737 23.8349 82.49 23.4841C82.2429 23.1334 82.137 22.6423 82.137 22.0109V18.0122C82.137 17.0651 81.6782 16.6091 80.7253 16.6091H78.7137V16.8547L79.6666 17.0651V22.046C79.6666 22.4669 79.7724 22.8878 80.0195 23.2737C80.2949 23.6787 80.6721 24.0052 81.1136 24.2208V24.1857ZM90.1484 23.8349L89.2308 24.0805V24.326H93.5718V24.0805L92.6542 23.87V18.1525C92.7248 17.907 92.8659 17.6965 93.0071 17.5211C93.2894 17.1353 93.6424 16.9248 94.0659 16.9248C94.3482 16.9248 94.6305 17.1002 94.8776 17.451C95.0893 17.8017 95.2305 18.2928 95.2305 18.9242V22.9229C95.2305 23.87 95.6893 24.326 96.6069 24.326H98.6186V24.0805L97.701 23.87V18.8891C97.701 18.4682 97.5598 18.0473 97.3128 17.6614C97.0471 17.261 96.6826 16.9349 96.254 16.7143C95.7599 16.4688 95.2305 16.3636 94.6658 16.3636C93.96 16.3636 93.3953 16.574 92.9012 17.0651C92.7248 17.2405 92.5483 17.451 92.4071 17.7316C92.269 17.3813 92.0253 17.0821 91.7094 16.8749C91.3935 16.6676 91.0208 16.5626 90.6425 16.574H89.2308V16.8196L90.1484 17.03V23.8349ZM101.301 24.0805C101.76 24.4312 102.289 24.5715 102.924 24.5715C103.63 24.5715 104.195 24.326 104.689 23.87C104.889 23.6626 105.055 23.426 105.183 23.1685C105.254 23.414 105.359 23.5894 105.536 23.7648C105.854 24.1155 106.348 24.326 106.948 24.326H108.359V24.0805L107.406 23.87V14.9254C107.406 13.9784 106.948 13.5224 105.995 13.5224H104.054V13.7679L104.971 13.9784V16.995L104.477 16.6793C104.124 16.4688 103.665 16.3636 103.171 16.3636C102.113 16.3636 101.301 16.7143 100.701 17.4159C100.066 18.1174 99.7832 19.1697 99.7832 20.4676C99.7832 21.3445 99.9244 22.0811 100.171 22.7125C100.454 23.3088 100.877 23.7648 101.336 24.1155L101.301 24.0805ZM104.583 23.3789C104.265 23.7998 103.912 24.0103 103.524 24.0103C103.207 24.0103 102.924 23.7648 102.713 23.2386C102.501 22.7125 102.36 21.8005 102.36 20.4676C102.36 19.0645 102.501 18.1174 102.713 17.6263C102.995 17.1002 103.312 16.8547 103.771 16.8547C104.018 16.8547 104.301 16.9599 104.583 17.1353L104.936 17.486V22.7475L104.583 23.3789Z" fill="white"/>
<path d="M40 36H1V1H121V36H83" stroke="white" stroke-width="0.4"/>
</svg>