<svg width="188" height="64" viewBox="0 0 188 64" fill="none" xmlns="http://www.w3.org/2000/svg">
<path d="M0.00585938 0.631882C0.214743 0.642326 0.423626 0.663214 0.627287 0.663214C4.05819 0.663214 7.48388 0.657992 10.9148 0.668436C12.5493 0.673658 14.1368 0.92954 15.6355 1.61885C19.4894 3.38914 19.8863 7.13337 19.1604 9.59297C18.6487 11.3163 17.4685 12.4756 15.881 13.2484C15.5102 13.4312 15.1186 13.5722 14.6642 13.7602C14.8261 13.8176 14.9253 13.8699 15.0298 13.8855C17.9489 14.3973 20.0795 16.4235 20.5182 19.353C21.0038 22.5855 19.902 25.6352 16.4397 27.254C14.9201 27.9643 13.3065 28.288 11.6459 28.3977C10.9513 28.4447 10.2568 28.4499 9.55704 28.4499C6.58046 28.4551 3.60387 28.4551 0.627287 28.4499C0.418404 28.4499 0.214743 28.4238 0.00585938 28.4081C0.00585938 19.1546 0.00585938 9.89063 0.00585938 0.631882ZM5.05561 24.1939C5.18094 24.2096 5.28016 24.2305 5.37938 24.2305C7.01389 24.2305 8.6484 24.2514 10.2829 24.22C11.3795 24.1991 12.471 24.0529 13.4893 23.6038C14.6903 23.0712 15.4632 22.1782 15.6251 20.857C15.9332 18.3765 14.9149 17.0135 12.7686 16.5018C11.8495 16.2825 10.9148 16.2198 9.97481 16.2093C8.51263 16.1937 7.05045 16.2041 5.59349 16.2093C5.42638 16.2093 5.25405 16.225 5.05561 16.2355C5.05561 18.9039 5.05561 21.5359 5.05561 24.1939ZM5.05561 11.9638C5.27494 11.9742 5.46293 11.9899 5.65093 11.9899C6.76323 11.9899 7.87553 12.0004 8.98784 11.9899C9.54138 11.9847 10.1001 11.969 10.6537 11.922C11.5258 11.8437 12.3613 11.6191 13.1081 11.1283C13.7556 10.7001 14.2204 10.1204 14.3979 9.3632C14.7687 7.78091 14.3091 6.00018 12.2203 5.32131C11.3326 5.0341 10.4239 4.91921 9.4996 4.91399C8.17842 4.90354 6.85723 4.90877 5.53604 4.91399C5.3846 4.91399 5.23316 4.92965 5.05561 4.94532C5.05561 7.27437 5.05561 9.57731 5.05561 11.9638Z" fill="white"/>
<path d="M188.001 28.6222C187.964 28.8259 187.917 29.0243 187.891 29.228C187.625 31.463 186.862 33.484 185.275 35.1237C184.105 36.3352 182.658 37.0924 181.034 37.4632C177.896 38.1786 174.784 38.0324 171.729 36.9671C170.538 36.5494 169.462 35.9123 168.48 35.1185C168.386 35.0402 168.292 34.9618 168.204 34.8783C168.183 34.8574 168.172 34.8208 168.125 34.7321C169.034 33.4997 169.953 32.2411 170.898 30.9565C171.076 31.1027 171.217 31.2228 171.363 31.3429C172.606 32.3926 173.985 33.1811 175.598 33.484C176.982 33.7399 178.366 33.7346 179.734 33.3587C181.374 32.9043 182.444 31.8547 182.967 30.2411C183.41 28.8781 183.379 27.4786 183.353 26.0269C183.254 26.0686 183.196 26.0739 183.17 26.1052C181.974 27.5413 180.392 28.288 178.59 28.5752C176.653 28.8833 174.768 28.6536 172.987 27.8076C170.329 26.5438 168.7 24.4132 168.042 21.5776C167.368 18.6637 167.702 15.8595 169.264 13.2745C170.632 11.0134 172.684 9.71308 175.29 9.30053C176.836 9.0551 178.376 9.09687 179.88 9.59819C181.295 10.0734 182.45 10.8933 183.301 12.1257C183.358 12.2092 183.421 12.2928 183.478 12.3659C183.52 12.3555 183.536 12.3555 183.551 12.3502C183.567 12.345 183.588 12.3293 183.588 12.3189C183.588 11.452 183.588 10.5799 183.588 9.63997C185.087 9.62953 186.538 9.6243 187.99 9.61386C188.001 15.9482 188.001 22.2878 188.001 28.6222ZM177.985 24.4968C178.434 24.4446 178.888 24.4289 179.327 24.3349C181.457 23.8806 182.841 22.6064 183.416 20.4915C183.656 19.6089 183.682 18.7055 183.515 17.8021C183.155 15.8125 182.063 14.4077 180.131 13.7289C179.661 13.5618 179.154 13.4678 178.658 13.4208C175.489 13.1231 172.919 14.9665 172.496 18.1311C172.037 21.5568 174.522 24.455 177.985 24.4968Z" fill="white"/>
<path d="M0.00522208 35.6198C3.72857 35.6198 7.45713 35.625 11.1805 35.625C12.7837 35.625 14.3816 35.6982 15.9535 36.0324C16.6428 36.1786 17.2799 36.4345 17.8595 36.8418C20.1572 38.4659 21.0815 40.6957 20.7264 43.4582C20.4236 45.8185 19.1859 47.5157 17.0083 48.5079C16.9195 48.5497 16.836 48.6019 16.6584 48.7011C16.9195 48.7795 17.0866 48.8369 17.259 48.8839C20.011 49.662 21.7813 51.8866 21.9327 54.7483C21.985 55.7092 21.9275 56.6596 21.6716 57.5943C20.8204 60.6806 18.2146 62.9261 15.0291 63.2916C14.3555 63.37 13.6766 63.4065 13.003 63.4117C8.87754 63.4222 4.75209 63.417 0.62665 63.417C0.417766 63.417 0.208883 63.4065 0 63.4065C0.00522208 54.1425 0.00522208 44.8786 0.00522208 35.6198ZM3.79123 60.2576C3.974 60.2733 4.10978 60.2889 4.24033 60.2889C7.21692 60.2889 10.1883 60.2942 13.1649 60.2837C13.5983 60.2837 14.037 60.2419 14.4599 60.1636C16.0266 59.8659 17.2276 59.0461 17.8595 57.5421C18.3399 56.4037 18.4131 55.2078 18.1258 54.012C17.7551 52.461 16.6845 51.5628 15.2224 51.0772C14.3555 50.79 13.4573 50.6803 12.5487 50.6751C9.78096 50.6594 7.01848 50.6699 4.25077 50.6699C4.09933 50.6699 3.95311 50.696 3.79123 50.7116C3.79123 53.9076 3.79123 57.0512 3.79123 60.2576ZM3.80167 47.5157C3.91134 47.5366 3.97923 47.5575 4.04711 47.5575C6.80959 47.5471 9.5773 47.5523 12.3398 47.521C13.1544 47.5105 13.9586 47.333 14.7263 47.0249C15.9065 46.5496 16.6532 45.6984 16.9509 44.4556C17.118 43.7558 17.1389 43.0508 17.0605 42.3354C16.8673 40.586 15.9848 39.4842 14.2719 39.0455C13.5879 38.868 12.8672 38.774 12.1622 38.7635C9.50419 38.727 6.84093 38.7374 4.18289 38.7322C4.06278 38.7322 3.94789 38.7531 3.80167 38.7687C3.80167 41.6827 3.80167 44.5757 3.80167 47.5157Z" fill="white"/>
<path d="M115.518 0.00522208C115.512 0.161884 115.497 0.318547 115.497 0.475209C115.497 4.13067 115.497 7.78612 115.497 11.4416C115.497 11.6087 115.497 11.7758 115.497 12.0526C115.653 11.922 115.732 11.8698 115.794 11.8019C117.361 10.016 119.372 9.24308 121.711 9.16475C126.333 9.01331 129.894 12.063 130.844 16.5174C131.414 19.1807 131.194 21.7917 129.915 24.2357C128.505 26.9303 126.239 28.4342 123.236 28.8363C121.638 29.0504 120.077 28.9355 118.567 28.3402C117.356 27.8598 116.358 27.1026 115.596 26.0373C115.528 25.9433 115.455 25.8493 115.309 25.6561C115.199 26.6222 115.319 27.4995 115.23 28.3559C114.828 28.476 111.424 28.4969 110.823 28.382C110.813 28.2253 110.797 28.053 110.797 27.8859C110.797 18.7316 110.797 9.5773 110.797 0.417766C110.797 0.27677 110.807 0.140996 110.813 0C112.384 0.00522208 113.951 0.00522208 115.518 0.00522208ZM120.891 24.7004C123.377 24.69 125.377 23.2435 126.129 20.9144C126.468 19.8648 126.526 18.789 126.27 17.7237C125.779 15.6506 124.562 14.1832 122.479 13.614C120.369 13.0395 118.421 13.4364 116.87 15.0657C115.606 16.3921 115.173 18.0214 115.387 19.8282C115.732 22.7056 117.998 24.7161 120.891 24.7004Z" fill="white"/>
<path d="M28.622 0.00523376C28.6063 0.229783 28.5802 0.454333 28.5802 0.678882C28.5802 9.68697 28.5802 18.7003 28.5802 27.7084C28.5802 27.9329 28.5802 28.1522 28.5802 28.3611C28.1468 28.476 24.5853 28.5021 23.9012 28.3977C23.8908 28.2097 23.8699 28.0113 23.8699 27.8128C23.8699 24.2984 23.8699 20.7839 23.8699 17.2747C23.8699 11.7445 23.8699 6.21429 23.8699 0.678882C23.8699 0.454333 23.8438 0.229783 23.8281 0.00523376C25.4209 0.00523376 27.0188 0.00523376 28.622 0.00523376Z" fill="white"/>
<path d="M106.948 28.4238C105.36 28.4238 103.836 28.4238 102.253 28.4238C102.253 28.1888 102.253 27.9851 102.253 27.7815C102.253 24.4759 102.264 21.1703 102.243 17.8595C102.238 17.2538 102.18 16.6428 102.065 16.0475C101.663 14.0265 100.232 13.2066 98.2688 13.4103C96.415 13.6035 95.2035 14.8255 94.8431 16.8099C94.7439 17.3686 94.7074 17.9483 94.7074 18.5227C94.6969 21.6037 94.7021 24.6848 94.7021 27.7658C94.7021 27.9695 94.7021 28.1731 94.7021 28.4186C93.1199 28.4186 91.6002 28.4186 90.0232 28.4186C90.0127 28.1836 89.9971 27.9642 89.9971 27.7449C89.9971 24.2827 90.0023 20.8204 89.9866 17.353C89.9866 16.8151 89.9344 16.272 89.8195 15.7498C89.4905 14.2615 88.5088 13.4416 86.9787 13.3842C84.4512 13.2954 82.848 14.7002 82.5034 17.2224C82.4511 17.6193 82.4407 18.0214 82.4355 18.4183C82.4303 21.5359 82.4303 24.6482 82.4303 27.7658C82.4303 27.9695 82.4303 28.1731 82.4303 28.4133C80.8427 28.4133 79.3231 28.4133 77.7617 28.4133C77.7617 22.1573 77.7617 15.9169 77.7617 9.6504C79.2291 9.6504 80.6809 9.6504 82.1744 9.6504C82.1744 10.5852 82.1744 11.499 82.1744 12.4181C82.2005 12.4286 82.2318 12.439 82.2579 12.4547C82.3258 12.3763 82.4041 12.3032 82.4564 12.2144C83.5635 10.2875 85.2606 9.32664 87.4435 9.18564C88.3678 9.12297 89.2868 9.16475 90.1903 9.39974C91.7778 9.80707 92.9684 10.7157 93.7256 12.1779C93.7883 12.298 93.8562 12.4129 93.9502 12.58C94.0755 12.4024 94.1747 12.2667 94.2687 12.1257C95.5011 10.2666 97.2453 9.30053 99.4595 9.18564C100.384 9.13864 101.298 9.15953 102.206 9.3893C104.034 9.84884 105.324 10.9455 106.097 12.6531C106.661 13.8907 106.901 15.2119 106.917 16.5592C106.948 18.8204 106.932 21.0815 106.932 23.3479C106.932 24.8258 106.932 26.3088 106.932 27.7867C106.948 27.9747 106.948 28.1627 106.948 28.4238Z" fill="white"/>
<path d="M28.1366 50.6803C28.1366 53.8971 28.1366 57.0512 28.1366 60.2889C29.4473 60.2941 30.7424 60.2889 32.0375 60.2941C33.3274 60.2941 34.612 60.2941 35.9018 60.2941C37.2074 60.2941 38.5129 60.2941 39.8184 60.2941C41.103 60.2941 42.3877 60.2941 43.7036 60.2941C43.7036 61.349 43.7036 62.3464 43.7036 63.3804C37.2909 63.3804 30.8991 63.3804 24.4707 63.3804C24.4707 54.1478 24.4707 44.9308 24.4707 35.7138C24.8258 35.6042 42.5234 35.5572 43.5783 35.6668C43.5783 36.659 43.5783 37.6617 43.5783 38.7165C38.4345 38.7165 33.3065 38.7165 28.147 38.7165C28.147 41.6722 28.147 44.5705 28.147 47.5314C28.3559 47.5418 28.5753 47.5627 28.7894 47.5627C33.1602 47.5627 37.5259 47.5627 41.8968 47.5627C42.1004 47.5627 42.3041 47.5627 42.5391 47.5627C42.5391 48.628 42.5391 49.6254 42.5391 50.6803C37.7243 50.6803 32.9461 50.6803 28.1366 50.6803Z" fill="white"/>
<path d="M84.2273 63.3804C83.2194 60.6075 82.2168 57.8502 81.2089 55.0668C77.2872 55.0668 73.381 55.0668 69.4227 55.0668C68.394 57.8241 67.3652 60.5918 66.3208 63.3804C65.0779 63.3804 63.8507 63.3804 62.5557 63.3804C66.1641 54.1216 69.7569 44.889 73.3549 35.6459C74.7231 35.6459 76.0756 35.6459 77.4647 35.6459C81.0732 44.8733 84.6764 54.0955 88.3057 63.3804C86.9167 63.3804 85.6059 63.3804 84.2273 63.3804ZM80.0235 51.897C78.4778 47.5679 76.9425 43.2858 75.4124 39.0037C75.3706 39.0089 75.3341 39.0089 75.2923 39.0142C73.7361 43.2963 72.18 47.5836 70.6133 51.9023C73.7831 51.897 76.8694 51.897 80.0235 51.897Z" fill="white"/>
<path d="M64.6232 9.10208C67.1298 9.16997 69.4066 9.85406 71.3597 11.4416C73.4068 13.1022 74.5086 15.285 74.7906 17.8961C74.9577 19.4261 74.8167 20.9197 74.3258 22.3714C73.5112 24.7735 71.9759 26.6013 69.7095 27.7188C66.2525 29.4212 62.7433 29.4264 59.3385 27.6196C56.3201 26.0164 54.7274 23.3845 54.414 19.9849C54.2574 18.3086 54.4558 16.6793 55.1138 15.1284C56.4454 11.9899 58.8685 10.1569 62.1479 9.42063C62.9574 9.24308 63.7981 9.20652 64.6232 9.10208ZM64.6284 24.7004C67.0985 24.69 69.0881 23.2644 69.8453 20.9614C70.2056 19.8648 70.2683 18.742 69.9811 17.6193C69.4589 15.5775 68.2265 14.1414 66.1585 13.5983C64.0175 13.0343 62.0748 13.473 60.5291 15.1388C59.3907 16.366 58.9834 17.8647 59.0878 19.5201C59.2915 22.5333 61.6205 24.7161 64.6284 24.7004Z" fill="white"/>
<path d="M31.7403 18.9979C31.756 13.9482 35.1869 10.0055 40.1792 9.29531C42.5082 8.96632 44.7694 9.19609 46.8843 10.2666C49.934 11.8071 51.6782 14.2981 52.1325 17.6924C52.3623 19.4314 52.19 21.1338 51.5529 22.7683C50.5346 25.3741 48.6807 27.1809 46.0854 28.1784C43.3438 29.2332 40.5709 29.2228 37.8293 28.1679C34.0067 26.6848 31.7246 23.2174 31.7403 18.9979ZM41.9599 24.7004C45.088 24.7213 47.4901 22.3192 47.5214 19.1494C47.5528 15.8647 45.2081 13.4051 42.0174 13.3738C38.8528 13.3476 36.4506 15.7707 36.435 19.0136C36.4245 22.2722 38.764 24.6796 41.9599 24.7004Z" fill="white"/>
<path d="M152.338 20.6899C147.534 20.6899 142.772 20.6899 137.967 20.6899C138.155 22.1834 138.766 23.3688 139.946 24.22C141.09 25.0399 142.385 25.2853 143.764 25.1391C145.362 24.972 146.662 24.2304 147.733 23.0503C147.837 22.9354 147.947 22.8205 148.051 22.7056C148.062 22.6952 148.082 22.6952 148.161 22.6638C149.237 23.4732 150.338 24.3088 151.477 25.1652C151.247 25.4263 151.064 25.6509 150.861 25.865C149.09 27.724 146.907 28.7319 144.354 28.9042C142.098 29.0557 139.946 28.6536 137.983 27.4943C135.33 25.9224 133.8 23.5829 133.367 20.5332C133.111 18.7264 133.267 16.9509 133.957 15.2537C135.184 12.2353 137.45 10.3763 140.557 9.53029C142.244 9.07075 143.957 9.01331 145.67 9.3893C148.239 9.95328 150.067 11.4625 151.205 13.8176C151.978 15.4104 152.26 17.1232 152.323 18.8726C152.359 19.447 152.338 20.0215 152.338 20.6899ZM138.004 17.1023C138.824 17.2172 147.247 17.1754 147.597 17.0605C147.665 15.2902 146.673 13.7288 145.043 13.0709C144.458 12.8306 143.842 12.7262 143.215 12.6897C139.852 12.4912 138.239 14.7733 138.004 17.1023Z" fill="white"/>
<path d="M54.9254 38.727C51.8078 38.727 48.7685 38.727 45.6875 38.727C45.6875 37.6825 45.6875 36.6851 45.6875 35.6564C53.0663 35.6564 60.4399 35.6564 67.8396 35.6564C67.8396 36.659 67.8396 37.646 67.8396 38.7061C67.3539 38.7531 66.8578 38.7217 66.3617 38.727C65.8395 38.7322 65.3173 38.727 64.7951 38.727C64.2885 38.727 63.7872 38.727 63.2807 38.727C62.7741 38.727 62.2728 38.727 61.7663 38.727C61.2441 38.727 60.7219 38.727 60.1997 38.727C59.6983 38.727 59.1918 38.727 58.6174 38.727C58.5913 40.3876 58.6069 42.0169 58.6069 43.6462C58.6017 45.2807 58.6069 46.9204 58.6069 48.5549C58.6069 50.2103 58.6069 51.8605 58.6069 53.5159C58.6069 55.1504 58.6069 56.7901 58.6069 58.4246C58.6069 60.0592 58.6069 61.6937 58.6069 63.3177C58.2153 63.4326 55.7713 63.4692 54.9306 63.3647C54.9306 61.7459 54.9254 60.1218 54.9254 58.4925C54.9254 56.858 54.9254 55.2183 54.9254 53.5838C54.9254 51.9284 54.9254 50.2782 54.9254 48.6228C54.9254 46.9883 54.9254 45.3486 54.9254 43.714C54.9254 42.0795 54.9254 40.4502 54.9254 38.727Z" fill="white"/>
<path d="M155.456 9.64518C157.028 9.64518 158.537 9.64518 160.098 9.64518C160.098 10.5956 160.098 11.5251 160.098 12.4547C160.13 12.4651 160.161 12.4808 160.192 12.4912C160.26 12.4129 160.344 12.345 160.396 12.2562C161.738 9.98984 163.749 9.02376 166.344 9.19609C166.6 9.21175 166.861 9.27442 167.112 9.32664C167.227 9.35275 167.336 9.41019 167.456 9.45197C167.456 10.9403 167.456 12.4129 167.456 13.9377C167.237 13.896 167.054 13.8594 166.872 13.8228C165.895 13.6035 164.913 13.5304 163.921 13.7393C161.916 14.1571 160.568 15.5409 160.219 17.5671C160.156 17.9274 160.125 18.2929 160.125 18.6533C160.119 21.6821 160.119 24.7057 160.119 27.7345C160.119 27.9434 160.119 28.147 160.119 28.3402C159.712 28.476 156.041 28.5021 155.456 28.3768C155.456 22.1521 155.456 15.9169 155.456 9.64518Z" fill="white"/>
</svg>
