<svg width="465" height="642" viewBox="0 0 465 642" fill="none" xmlns="http://www.w3.org/2000/svg">
<path d="M232.5 641H133.5L0 121.164L232.5 242.215V641Z" fill="url(#paint0_linear)"/>
<path d="M45.6734 220.551L34.3946 213.181L24.6792 173.091L36.293 180.014L45.6734 220.551Z" fill="#181E26"/>
<path d="M71.9165 237.749L59.6326 229.708L50.8105 188.613L63.5411 196.095L71.9165 237.749Z" fill="#181E26"/>
<path d="M100.84 256.621L87.3273 247.687L79.5103 205.587L93.5809 213.963L100.84 256.621Z" fill="#181E26"/>
<path d="M132.553 277.28L117.701 267.565L111.224 224.348L126.858 233.617L132.553 277.28Z" fill="#181E26"/>
<path d="M167.73 300.285L151.203 289.564L146.401 245.231L163.822 255.504L167.73 300.285Z" fill="#181E26"/>
<path d="M206.927 325.857L188.501 313.797L185.709 268.458L205.252 280.072L206.927 325.857Z" fill="#181E26"/>
<path d="M67.0035 313.238L56.6181 305.086L49.0244 273.707L59.6332 281.635L67.0035 313.238Z" fill="#181E26"/>
<path d="M91.0122 332.111L79.845 323.289L72.9214 291.463L84.5352 300.061L91.0122 332.111Z" fill="#181E26"/>
<path d="M117.143 352.658L104.971 343.055L98.9404 310.782L111.559 320.162L117.143 352.658Z" fill="#181E26"/>
<path d="M145.508 374.993L132.219 364.607L127.306 331.776L141.153 342.05L145.508 374.993Z" fill="#181E26"/>
<path d="M176.553 399.337L162.035 387.947L158.35 354.892L173.649 366.171L176.553 399.337Z" fill="#181E26"/>
<path d="M210.612 426.138L194.643 413.631L192.633 380.241L209.384 392.637L210.612 426.138Z" fill="#181E26"/>
<path d="M83.9766 386.942L74.3729 378.455L68.231 353.217L78.0581 361.592L83.9766 386.942Z" fill="#181E26"/>
<path d="M106.088 406.596L95.7024 397.439L90.2305 371.978L100.951 381.023L106.088 406.596Z" fill="#181E26"/>
<path d="M129.873 427.59L118.706 417.763L114.016 392.19L125.518 402.017L129.873 427.59Z" fill="#181E26"/>
<path d="M155.446 450.259L143.498 439.651L139.701 414.078L152.096 424.575L155.446 450.259Z" fill="#181E26"/>
<path d="M183.253 474.827L170.299 463.325L167.507 437.752L180.908 449.143L183.253 474.827Z" fill="#181E26"/>
<path d="M213.293 501.405L199.222 489.009L197.659 463.437L212.399 475.944L213.293 501.405Z" fill="#181E26"/>
<path d="M97.7124 447.021L88.7786 438.422L83.7534 417.651L92.9105 426.25L97.7124 447.021Z" fill="#181E26"/>
<path d="M118.148 466.675L108.656 457.518L104.189 436.747L114.017 445.904L118.148 466.675Z" fill="#181E26"/>
<path d="M140.037 487.669L129.874 477.842L126.078 457.183L136.463 466.898L140.037 487.669Z" fill="#181E26"/>
<path d="M163.375 510.115L152.543 499.618L149.416 479.071L160.695 489.568L163.375 510.115Z" fill="#181E26"/>
<path d="M188.501 534.236L176.776 522.957L174.542 502.522L186.715 513.8L188.501 534.236Z" fill="#181E26"/>
<path d="M215.414 560.144L202.907 548.084L201.567 527.871L214.744 540.043L215.414 560.144Z" fill="#181E26"/>
<path d="M109.214 496.826L100.839 488.228L96.707 470.919L105.194 479.406L109.214 496.826Z" fill="#181E26"/>
<path d="M128.199 516.257L119.377 507.212L115.691 489.903L124.737 498.948L128.199 516.257Z" fill="#181E26"/>
<path d="M148.411 536.805L139.03 527.313L135.792 510.115L145.507 519.719L148.411 536.805Z" fill="#181E26"/>
<path d="M169.853 558.804L159.914 548.642L157.346 531.668L167.619 541.942L169.853 558.804Z" fill="#181E26"/>
<path d="M192.745 582.143L182.025 571.311L180.238 554.561L191.182 565.616L192.745 582.143Z" fill="#181E26"/>
<path d="M217.09 607.158L205.811 595.544L204.806 579.128L216.531 590.965L217.09 607.158Z" fill="#181E26"/>
<path d="M118.818 538.815L111.113 530.44L107.54 515.699L115.468 524.074L118.818 538.815Z" fill="#181E26"/>
<path d="M136.574 557.799L128.422 548.977L125.295 534.348L133.671 543.282L136.574 557.799Z" fill="#181E26"/>
<path d="M155.335 577.9L146.625 568.519L143.945 554.114L152.879 563.606L155.335 577.9Z" fill="#181E26"/>
<path d="M175.213 599.117L165.944 589.29L163.822 575.108L173.314 585.047L175.213 599.117Z" fill="#181E26"/>
<path d="M196.207 621.675L186.491 611.29L184.928 597.331L194.978 607.939L196.207 621.675Z" fill="#181E26"/>
<path d="M217.983 640.5L208.156 634.517L207.374 621.005L217.983 632.284V640.5Z" fill="#181E26"/>
<path d="M127.082 574.661L119.824 566.509L116.697 553.779L124.179 562.042L127.082 574.661Z" fill="#181E26"/>
<path d="M143.721 593.199L136.016 584.6L133.336 572.093L141.265 580.803L143.721 593.199Z" fill="#181E26"/>
<path d="M161.253 612.63L153.101 603.696L150.868 591.3L159.131 600.457L161.253 612.63Z" fill="#181E26"/>
<path d="M179.679 633.177L171.192 623.685L169.293 611.625L178.115 621.34L179.679 633.177Z" fill="#181E26"/>
<path d="M134.229 605.706L127.417 597.777L124.737 586.722L131.773 594.762L134.229 605.706Z" fill="#181E26"/>
<path d="M149.863 623.685L142.716 615.31L140.371 604.478L147.741 612.965L149.863 623.685Z" fill="#181E26"/>
<path d="M165.5 640.5L158.686 633.736L156.787 623.127L164.492 632.061L165.5 640.5Z" fill="#181E26"/>
<path d="M140.483 632.731L134.006 625.137L131.661 615.422L138.361 623.239L140.483 632.731Z" fill="#181E26"/>
<path d="M332 641H232.5V242.215L465 121.164L332 641Z" fill="url(#paint1_linear)"/>
<path d="M274.712 315.025L256.286 327.086L257.738 281.189L277.392 269.575L274.712 315.025Z" fill="#181E26"/>
<path d="M312.234 290.569L295.595 301.401L299.503 256.509L316.924 246.124L312.234 290.569Z" fill="#181E26"/>
<path d="M345.959 268.57L330.995 278.285L336.69 234.51L352.324 225.241L345.959 268.57Z" fill="#181E26"/>
<path d="M376.445 248.581L362.821 257.403L370.08 214.744L384.151 206.369L376.445 248.581Z" fill="#181E26"/>
<path d="M404.251 230.49L391.855 238.53L400.231 196.877L413.073 189.283L404.251 230.49Z" fill="#181E26"/>
<path d="M429.601 213.851L418.322 221.221L427.59 180.684L439.204 173.761L429.601 213.851Z" fill="#181E26"/>
<path d="M268.905 414.748L252.825 427.367L253.941 393.865L270.804 381.358L268.905 414.748Z" fill="#181E26"/>
<path d="M301.625 389.063L286.996 400.566L289.899 367.287L305.198 355.897L301.625 389.063Z" fill="#181E26"/>
<path d="M331.553 365.612L318.152 375.998L322.508 343.055L336.355 332.781L331.553 365.612Z" fill="#181E26"/>
<path d="M358.912 344.06L346.74 353.664L352.212 321.055L364.831 311.675L358.912 344.06Z" fill="#181E26"/>
<path d="M384.15 324.182L372.872 333.004L379.349 300.955L390.962 292.244L384.15 324.182Z" fill="#181E26"/>
<path d="M407.489 305.868L396.992 314.02L404.251 282.417L414.971 274.488L407.489 305.868Z" fill="#181E26"/>
<path d="M264.438 490.238L250.368 502.633L251.149 477.172L265.89 464.665L264.438 490.238Z" fill="#181E26"/>
<path d="M293.473 464.442L280.519 475.944L282.752 450.371L296.265 438.869L293.473 464.442Z" fill="#181E26"/>
<path d="M320.386 440.767L308.326 451.376L311.676 425.692L324.183 415.083L320.386 440.767Z" fill="#181E26"/>
<path d="M345.177 418.768L334.121 428.595L338.365 402.911L349.867 393.195L345.177 418.768Z" fill="#181E26"/>
<path d="M368.293 398.332L357.907 407.489L363.044 381.916L373.765 372.871L368.293 398.332Z" fill="#181E26"/>
<path d="M389.734 379.348L380.13 387.835L385.937 362.486L395.876 353.999L389.734 379.348Z" fill="#181E26"/>
<path d="M260.977 549.2L248.358 561.373L249.028 541.272L262.205 528.988L260.977 549.2Z" fill="#181E26"/>
<path d="M287.108 524.074L275.382 535.353L277.169 515.029L289.341 503.638L287.108 524.074Z" fill="#181E26"/>
<path d="M311.453 500.623L300.509 511.12L303.189 490.573L314.579 480.076L311.453 500.623Z" fill="#181E26"/>
<path d="M334.233 478.847L323.959 488.563L327.421 467.903L338.03 458.076L334.233 478.847Z" fill="#181E26"/>
<path d="M355.45 458.411L345.847 467.568L350.09 446.798L359.917 437.641L355.45 458.411Z" fill="#181E26"/>
<path d="M375.328 439.204L366.395 447.803L371.196 427.032L380.353 418.433L375.328 439.204Z" fill="#181E26"/>
<path d="M258.184 596.661L246.794 608.275L247.352 592.082L259.189 580.245L258.184 596.661Z" fill="#181E26"/>
<path d="M281.971 572.316L271.25 583.26L272.702 566.733L283.758 555.677L281.971 572.316Z" fill="#181E26"/>
<path d="M304.193 549.535L294.254 559.809L296.376 542.947L306.762 532.673L304.193 549.535Z" fill="#181E26"/>
<path d="M325.076 528.206L315.695 537.81L318.599 520.724L328.314 511.009L325.076 528.206Z" fill="#181E26"/>
<path d="M344.841 508.105L335.908 517.151L339.37 499.842L348.527 490.796L344.841 508.105Z" fill="#181E26"/>
<path d="M363.379 489.121L355.004 497.608L359.024 480.299L367.511 471.7L363.379 489.121Z" fill="#181E26"/>
<path d="M255.839 635.634L250.647 641.162H245.678L245.677 640.045L245.901 633.401L256.621 622.122L255.839 635.634Z" fill="#181E26"/>
<path d="M277.616 612.295L267.9 622.68L269.017 609.056L279.179 598.336L277.616 612.295Z" fill="#181E26"/>
<path d="M298.163 590.295L288.895 600.123L290.793 586.052L300.285 576.113L298.163 590.295Z" fill="#181E26"/>
<path d="M317.482 569.524L308.771 578.793L311.228 564.499L320.162 555.119L317.482 569.524Z" fill="#181E26"/>
<path d="M335.797 549.87L327.645 558.692L330.548 544.175L338.923 535.241L335.797 549.87Z" fill="#181E26"/>
<path d="M353.216 531.221L345.399 539.596L348.75 524.968L356.79 516.48L353.216 531.221Z" fill="#181E26"/>
<path d="M293.026 624.579L284.539 634.182L286.102 622.233L294.812 612.63L293.026 624.579Z" fill="#181E26"/>
<path d="M311.116 604.478L302.964 613.523L304.974 601.351L313.35 592.194L311.116 604.478Z" fill="#181E26"/>
<path d="M328.202 585.493L320.497 593.981L322.954 581.585L330.883 572.986L328.202 585.493Z" fill="#181E26"/>
<path d="M344.507 567.291L337.137 575.443L340.04 562.936L347.522 554.672L344.507 567.291Z" fill="#181E26"/>
<path d="M305.533 634.629L299 640.5L299.726 632.842L307.543 624.02L305.533 634.629Z" fill="#181E26"/>
<path d="M321.614 616.203L314.355 624.467L316.588 613.746L323.959 605.371L321.614 616.203Z" fill="#181E26"/>
<path d="M337.025 598.559L330.102 606.488L332.558 595.544L339.594 587.504L337.025 598.559Z" fill="#181E26"/>
<path d="M330.436 625.807L323.847 633.512L326.081 624.02L332.781 616.203L330.436 625.807Z" fill="#181E26"/>
<path d="M0 121.164L232.5 242.215L465 121.164H0Z" fill="white"/>
<path d="M232.5 0L0 121.164L232.5 242.215L465 121.164L232.5 0Z" fill="url(#paint2_linear)"/>
<defs>
<linearGradient id="paint0_linear" x1="200.17" y1="178.536" x2="-223.121" y2="348.559" gradientUnits="userSpaceOnUse">
<stop offset="0.0416667" stop-color="white"/>
<stop offset="0.572917" stop-color="white" stop-opacity="0.2"/>
<stop offset="0.895833" stop-color="white" stop-opacity="0"/>
</linearGradient>
<linearGradient id="paint1_linear" x1="432.67" y1="178.536" x2="9.3787" y2="348.559" gradientUnits="userSpaceOnUse">
<stop offset="0.0416667" stop-color="white"/>
<stop offset="0.572917" stop-color="white" stop-opacity="0.2"/>
<stop offset="0.895833" stop-color="white" stop-opacity="0"/>
</linearGradient>
<linearGradient id="paint2_linear" x1="339.26" y1="21.6518" x2="295.4" y2="278.198" gradientUnits="userSpaceOnUse">
<stop offset="0.0416667" stop-color="#BF6DFF"/>
<stop offset="0.572917" stop-color="#D8A7FF"/>
<stop offset="0.895833" stop-color="#E8CAFF"/>
</linearGradient>
</defs>
</svg>
