<svg fill="none" height="595" viewBox="0 0 684 595" width="684" xmlns="http://www.w3.org/2000/svg" xmlns:xlink="http://www.w3.org/1999/xlink"><filter id="a" color-interpolation-filters="sRGB" filterUnits="userSpaceOnUse" height="283.877" width="275.611" x="407.468" y="194.929"><feFlood flood-opacity="0" result="BackgroundImageFix"/><feColorMatrix in="SourceAlpha" result="hardAlpha" type="matrix" values="0 0 0 0 0 0 0 0 0 0 0 0 0 0 0 0 0 0 127 0"/><feOffset dx="-16" dy="-16"/><feGaussianBlur stdDeviation="14"/><feColorMatrix type="matrix" values="0 0 0 0 1 0 0 0 0 1 0 0 0 0 1 0 0 0 0.65 0"/><feBlend in2="BackgroundImageFix" mode="normal" result="effect1_dropShadow"/><feColorMatrix in="SourceAlpha" result="hardAlpha" type="matrix" values="0 0 0 0 0 0 0 0 0 0 0 0 0 0 0 0 0 0 127 0"/><feOffset dx="16" dy="24"/><feGaussianBlur stdDeviation="22"/><feColorMatrix type="matrix" values="0 0 0 0 0 0 0 0 0 0 0 0 0 0 0 0 0 0 0.06 0"/><feBlend in2="effect1_dropShadow" mode="normal" result="effect2_dropShadow"/><feBlend in="SourceGraphic" in2="effect2_dropShadow" mode="normal" result="shape"/></filter><filter id="b" color-interpolation-filters="sRGB" filterUnits="userSpaceOnUse" height="389.648" width="381.217" x="27.2845" y=".134277"><feFlood flood-opacity="0" result="BackgroundImageFix"/><feColorMatrix in="SourceAlpha" result="hardAlpha" type="matrix" values="0 0 0 0 0 0 0 0 0 0 0 0 0 0 0 0 0 0 127 0"/><feOffset dx="-16" dy="-16"/><feGaussianBlur stdDeviation="14"/><feColorMatrix type="matrix" values="0 0 0 0 1 0 0 0 0 1 0 0 0 0 1 0 0 0 0.65 0"/><feBlend in2="BackgroundImageFix" mode="normal" result="effect1_dropShadow"/><feColorMatrix in="SourceAlpha" result="hardAlpha" type="matrix" values="0 0 0 0 0 0 0 0 0 0 0 0 0 0 0 0 0 0 127 0"/><feOffset dx="16" dy="24"/><feGaussianBlur stdDeviation="22"/><feColorMatrix type="matrix" values="0 0 0 0 0 0 0 0 0 0 0 0 0 0 0 0 0 0 0.06 0"/><feBlend in2="effect1_dropShadow" mode="normal" result="effect2_dropShadow"/><feBlend in="SourceGraphic" in2="effect2_dropShadow" mode="normal" result="shape"/></filter><filter id="c" color-interpolation-filters="sRGB" filterUnits="userSpaceOnUse" height="338.526" width="330.174" x="52.8062" y="51.2568"><feFlood flood-opacity="0" result="BackgroundImageFix"/><feColorMatrix in="SourceAlpha" result="hardAlpha" type="matrix" values="0 0 0 0 0 0 0 0 0 0 0 0 0 0 0 0 0 0 127 0"/><feOffset dx="-16" dy="-16"/><feGaussianBlur stdDeviation="14"/><feColorMatrix type="matrix" values="0 0 0 0 1 0 0 0 0 1 0 0 0 0 1 0 0 0 0.65 0"/><feBlend in2="BackgroundImageFix" mode="normal" result="effect1_dropShadow"/><feColorMatrix in="SourceAlpha" result="hardAlpha" type="matrix" values="0 0 0 0 0 0 0 0 0 0 0 0 0 0 0 0 0 0 127 0"/><feOffset dx="16" dy="24"/><feGaussianBlur stdDeviation="22"/><feColorMatrix type="matrix" values="0 0 0 0 0 0 0 0 0 0 0 0 0 0 0 0 0 0 0.06 0"/><feBlend in2="effect1_dropShadow" mode="normal" result="effect2_dropShadow"/><feBlend in="SourceGraphic" in2="effect2_dropShadow" mode="normal" result="shape"/></filter><filter id="d" color-interpolation-filters="sRGB" filterUnits="userSpaceOnUse" height="238.925" width="230.728" x="154.012" y="355.348"><feFlood flood-opacity="0" result="BackgroundImageFix"/><feColorMatrix in="SourceAlpha" result="hardAlpha" type="matrix" values="0 0 0 0 0 0 0 0 0 0 0 0 0 0 0 0 0 0 127 0"/><feOffset dx="-16" dy="-16"/><feGaussianBlur stdDeviation="14"/><feColorMatrix type="matrix" values="0 0 0 0 1 0 0 0 0 1 0 0 0 0 1 0 0 0 0.65 0"/><feBlend in2="BackgroundImageFix" mode="normal" result="effect1_dropShadow"/><feColorMatrix in="SourceAlpha" result="hardAlpha" type="matrix" values="0 0 0 0 0 0 0 0 0 0 0 0 0 0 0 0 0 0 127 0"/><feOffset dx="16" dy="24"/><feGaussianBlur stdDeviation="22"/><feColorMatrix type="matrix" values="0 0 0 0 0 0 0 0 0 0 0 0 0 0 0 0 0 0 0.06 0"/><feBlend in2="effect1_dropShadow" mode="normal" result="effect2_dropShadow"/><feBlend in="SourceGraphic" in2="effect2_dropShadow" mode="normal" result="shape"/></filter><filter id="e" color-interpolation-filters="sRGB" filterUnits="userSpaceOnUse" height="154.593" width="154.523" x="322.231" y="287.802"><feFlood flood-opacity="0" result="BackgroundImageFix"/><feColorMatrix in="SourceAlpha" result="hardAlpha" type="matrix" values="0 0 0 0 0 0 0 0 0 0 0 0 0 0 0 0 0 0 127 0"/><feOffset dy="-32"/><feGaussianBlur stdDeviation="22.0246"/><feColorMatrix type="matrix" values="0 0 0 0 1 0 0 0 0 0.572549 0 0 0 0 0.419608 0 0 0 0.2 0"/><feBlend in2="BackgroundImageFix" mode="normal" result="effect1_dropShadow"/><feBlend in="SourceGraphic" in2="effect1_dropShadow" mode="normal" result="shape"/></filter><linearGradient id="f" gradientUnits="userSpaceOnUse" x1="397.805" x2="375.899" y1="230.274" y2="392.357"><stop offset="0" stop-color="#09d3a3" stop-opacity=".86"/><stop offset="1" stop-color="#faff00" stop-opacity=".06"/></linearGradient><linearGradient id="g" gradientUnits="userSpaceOnUse" x1="561.209" x2="515.632" y1="258.094" y2="396.811"><stop offset=".0416667" stop-color="#706dff"/><stop offset=".572917" stop-color="#816dff" stop-opacity=".2"/><stop offset=".895833" stop-color="#6d7cff" stop-opacity="0"/></linearGradient><linearGradient id="h"><stop offset=".0416667" stop-color="#bf6dff"/><stop offset=".572917" stop-color="#bf6dff" stop-opacity=".2"/><stop offset=".895833" stop-color="#bf6dff" stop-opacity="0"/></linearGradient><linearGradient id="i" gradientUnits="userSpaceOnUse" x1="252.231" x2="192.845" xlink:href="#h" y1="155.331" y2="336.078"/><linearGradient id="j"><stop offset="0" stop-color="#6ef0f1"/><stop offset="1" stop-color="#6ef0f2" stop-opacity="0"/></linearGradient><linearGradient id="k" gradientUnits="userSpaceOnUse" x1="261.284" x2="261.284" xlink:href="#j" y1="398.051" y2="506"/><linearGradient id="l" gradientUnits="userSpaceOnUse" x1="441.114" x2="441.114" xlink:href="#j" y1="114.395" y2="239.81"/><linearGradient id="m" gradientUnits="userSpaceOnUse" x1="53.2868" x2="53.2868" y1="337.448" y2="444.134"><stop offset="0" stop-color="#6ebaf1"/><stop offset="1" stop-color="#6ef2d2" stop-opacity="0"/></linearGradient><linearGradient id="n" gradientUnits="userSpaceOnUse" x1="-3.96703" x2="103.893" y1="382.256" y2="382.256"><stop offset="0" stop-color="#09d3a3"/><stop offset="1" stop-color="#faff00"/></linearGradient><linearGradient id="o" gradientUnits="userSpaceOnUse" x1="414.743" x2="393.247" xlink:href="#h" y1="369.796" y2="435.22"/><mask height="126" maskUnits="userSpaceOnUse" width="126" x="378" y="114"><path d="m441.114 239.81c34.596 0 62.641-28.075 62.641-62.707 0-34.633-28.045-62.708-62.641-62.708s-62.641 28.075-62.641 62.708c0 34.632 28.045 62.707 62.641 62.707z" fill="url(#l)"/></mask><mask height="108" maskUnits="userSpaceOnUse" width="107" x="0" y="337"><path d="m53.2868 444.134c29.4295 0 53.2872-23.882 53.2872-53.343 0-29.46-23.8577-53.343-53.2872-53.343s-53.2868 23.883-53.2868 53.343c0 29.461 23.8573 53.343 53.2868 53.343z" fill="url(#n)"/></mask><mask height="68" maskUnits="userSpaceOnUse" width="67" x="366" y="363"><path d="m399.493 430.346c18.342 0 33.212-14.885 33.212-33.247s-14.87-33.247-33.212-33.247c-18.343 0-33.213 14.885-33.213 33.247s14.87 33.247 33.213 33.247z" fill="url(#o)"/></mask><g filter="url(#a)" opacity=".4"><path d="m537.273 410.806c47.389 0 85.805-38.476 85.805-85.938 0-47.463-38.416-85.939-85.805-85.939s-85.805 38.476-85.805 85.939c0 47.462 38.416 85.938 85.805 85.938z" fill="#f1f3ff"/></g><path d="m526.508 107.165-229.93 304.082.44.441 229.91-304.207z" fill="#0e1319"/><path d="m78.8564 196.296-.1115.514 388.1241 85.749.44-.441z" fill="#0e1319"/><path d="m147.409 296.662-.631-.737-57.4526 55.385.88.882z" fill="url(#f)"/><path d="m458.948 322.223-.105-.947-356.317 48.985.44 1.322z" fill="url(#f)"/><path d="m528.874 386.478c38.891 0 70.419-31.561 70.419-70.493 0-38.933-31.528-70.494-70.419-70.494s-70.418 31.561-70.418 70.494c0 38.932 31.527 70.493 70.418 70.493z" fill="url(#g)"/><g filter="url(#b)" opacity=".3"><path d="m209.893 321.782c76.551 0 138.608-62.153 138.608-138.824 0-76.67-62.057-138.8237-138.608-138.8237s-138.6085 62.1537-138.6085 138.8237c0 76.671 62.0575 138.824 138.6085 138.824z" fill="#f1f3ff"/></g><g filter="url(#c)"><path d="m209.893 321.783c62.456 0 113.087-50.71 113.087-113.263 0-62.554-50.631-113.2632-113.087-113.2632s-113.0868 50.7092-113.0868 113.2632c0 62.553 50.6308 113.263 113.0868 113.263z" fill="#f1f3ff"/></g><path d="m210.099 322.613c50.675 0 91.755-41.123 91.755-91.851 0-50.729-41.08-91.852-91.755-91.852-50.674 0-91.754 41.123-91.754 91.852 0 50.728 41.08 91.851 91.754 91.851z" fill="url(#i)"/><g filter="url(#d)"><path d="m261.376 526.272c34.995 0 63.364-28.413 63.364-63.462s-28.369-63.462-63.364-63.462-63.364 28.413-63.364 63.462 28.369 63.462 63.364 63.462z" fill="#f1f3ff"/></g><path d="m261.284 506c29.778 0 53.917-24.165 53.917-53.975 0-29.809-24.139-53.974-53.917-53.974s-53.917 24.165-53.917 53.974c0 29.81 24.139 53.975 53.917 53.975z" fill="url(#k)"/><path d="m441.114 239.81c34.596 0 62.641-28.075 62.641-62.707 0-34.633-28.045-62.708-62.641-62.708s-62.641 28.075-62.641 62.708c0 34.632 28.045 62.707 62.641 62.707z" fill="url(#l)"/><path d="m53.2868 444.134c29.4295 0 53.2872-23.882 53.2872-53.343 0-29.46-23.8577-53.343-53.2872-53.343s-53.2868 23.883-53.2868 53.343c0 29.461 23.8573 53.343 53.2868 53.343z" fill="url(#m)"/><path d="m244.047 399.524-.63-2.841.946-.21.63 2.84zm-1.261-5.682-.63-2.84.945-.211.631 2.841zm-1.261-5.681-.631-2.841.946-.21.631 2.84zm-1.261-5.682-.631-2.84.946-.211.631 2.841zm-1.367-5.681-.63-2.841.946-.21.63 2.84zm-1.261-5.682-.63-2.841.945-.21.631 2.841zm-1.261-5.681-.631-2.841.946-.211.631 2.841zm-1.261-5.682-.631-2.841.946-.21.631 2.841zm-1.262-5.681-.63-2.841.946-.211.63 2.841zm-1.261-5.682-.63-2.841.946-.21.63 2.841zm-1.261-5.681-.631-2.841.946-.211.631 2.841zm-1.261-5.682-.631-2.841.946-.21.631 2.841zm-1.261-5.681-.631-2.841.946-.211.63 2.841zm-1.367-5.682-.63-2.841.946-.21.63 2.841zm-1.261-5.682-.631-2.84.946-.211.631 2.841zm-1.261-5.786-.631-2.841.946-.21.631 2.84zm-1.261-5.682-.631-2.841.946-.21.63 2.841zm-1.262-5.681-.63-2.841.946-.211.63 2.841zm-1.261-5.682-.631-2.841.946-.21.631 2.841zm-1.261-5.681-.631-2.841.946-.211.631 2.841zm-1.261-5.682-.631-2.841.946-.21.631 2.841zm-1.262-5.681-.63-2.841.946-.211.63 2.841zm-1.261-5.682-.63-2.841.945-.21.631 2.841zm-1.366-5.682-.631-2.84.946-.211.631 2.841zm-1.261-5.681-.631-2.841.946-.21.631 2.841zm-1.262-5.682-.63-2.84.946-.211.63 2.841zm-1.261-5.681-.63-2.841.945-.21.631 2.84zm-1.261-5.682-.21-.841 2.943-.737.21.947-2.418.631v-.105zm5.781-1.367-.211-.947 2.838-.737.21.947zm5.675-1.473-.21-.947 2.838-.737.21.947zm5.571-1.473-.211-.947 2.838-.737.21.947zm5.675-1.579-.21-.947 2.838-.736.21.947zm5.57-1.473-.21-.947 2.838-.736.21.947zm5.676-1.473-.21-.946 2.838-.737.21.947zm5.57-1.473-.21-.946 2.838-.737.21.947zm5.676-1.473-.21-.946 2.837-.737.211.947zm5.57-1.578-.21-.947 2.838-.736.21.947zm5.676-1.473-.21-.947 2.837-.736.211.947zm5.57-1.473-.21-.947 2.838-.736.21.947zm5.676-1.473-.21-.947 2.837-.736.211.947zm5.57-1.578-.21-.947 2.838-.736.21.947zm5.676-1.473-.211-.947 2.838-.736.21.947zm5.57-1.473-.21-.947 2.838-.736.21.947zm5.676-1.473-.211-.947 2.838-.736.21.947zm5.57-1.473-.21-.947 2.838-.736.21.947zm5.676-1.578-.211-.947 2.838-.737.21.947zm5.57-1.473-.21-.947 2.838-.736.21.946zm5.676-1.473-.211-.947 2.838-.736.21.946zm5.57-1.473-.21-.947 2.837-.736.211.946zm5.675-1.473-.21-.947 2.838-.736.21.946zm5.571-1.578-.21-.947 2.837-.737.211.947zm5.675-1.473-.21-.947 2.838-.737.21.947zm5.571-1.473-.21-.947 2.837-.737.211.947zm5.675-1.473-.21-.947 2.838-.737.21.947zm5.571-1.578-.21-.947 2.837-.737.21.947zm5.675-1.473-.21-.947 2.838-.737.21.947zm5.571-1.473-.211-.947 2.838-.737.21.947zm5.675-1.473-.21-.947 2.838-.737.21.947zm5.571-1.473-.211-.947 2.838-.737.21.947zm5.675-1.579-.21-.946 2.838-.737.21.947zm5.571-1.473-.211-.946 2.838-.737.21.947zm5.675-1.473-.21-.946 2.838-.737.21.947zm5.57-1.473-.21-.946 2.838-.737.21.947zm5.676-1.473-.21-.946 2.838-.737.21.947zm5.57-1.578-.21-.947 2.838-.736.21.947zm5.676-1.473-.21-.947 2.837-.736.211.947zm5.57-1.473-.21-.947 2.838-.736.21.947z" fill="#d1ae44"/><g fill="#181e26" opacity=".1"><path d="m237.531 295.363s.631-.211.526-.421c-.106-.211-.421-.526-1.051-.526-.631 0-.421.421-.421.421s-.315-.211-1.261-.421c-.736-.211-1.261-.421-1.787-.421-.42 0-.315 0-.42.105s-1.261-.105-1.156 0c.105.211-1.156-.105-.631.211.315.21-.841 0-.315.21.63.21 2.207.631 2.207.631l1.051.526 3.153-.105z"/><path d="m227.651 302.517s-7.147-2.525-9.144-3.472c-1.996-.947-3.047-1.578-3.047-1.578l4.309-.316s5.78 2.42 7.672 3.051c1.997.632 7.042 2.21 7.042 2.21s2.312.736 1.471.947c-.735.21-8.303-.842-8.303-.842z"/><path d="m215.88 297.467-.736-.316 3.784-.21.42.21z"/><path d="m163.329 285.367c.315-.105.42-.947 1.051-.947l1.576-.631 1.682-.526c-.315.631-.631 1.683-.631 1.683l1.157.947-3.994-.105s-1.156-.316-.841-.421z"/><path d="m158.809 285.893c.421-.105.736-.736 1.472-.736 0 0 2.417-2.736 2.733-2.104.105.105.84.841.735 1.052-.63 1.052.526 1.683.526 1.683l.946.421-2.207.526s-4.625-.736-4.205-.842z"/><path d="m163.434 285.788 4.204-.316s28.273 4.314 32.267 5.051c3.993.736 2.417 1.473 2.417 1.473s-5.991.736-12.718-.632c-3.258-.736-26.17-5.576-26.17-5.576z"/><path d="m163.014 286.735 1.366-.736s27.116 4.945 31.11 5.681c3.994.737 2.417 1.473 2.417 1.473s-6.201-.421-13.032-1.894c-3.258-.736-21.861-4.524-21.861-4.524z"/><path d="m199.904 290.523s17.868 3.156 24.805 4.524c6.936 1.368 8.828 1.894 8.828 1.894l-12.087.526s-11.666-2.42-17.972-3.683c0 0-11.141-3.156-12.507-3.577-1.367-.421 8.933.316 8.933.316z"/><path d="m192.022 291.154s18.393 3.156 25.329 4.629c6.937 1.473 11.141 2.315 11.141 2.315l-11.981.105s-13.348-3.156-19.76-4.419c0 0-11.981-2.63-13.453-2.946-1.366-.42 8.724.316 8.724.316z"/><path d="m284.512 308.83s-3.258-.526-4.415-.842c-1.681-.526-2.207-.526-2.627-.526-.841-.105-3.153-.736-3.784-.736-.736-.105-1.681 0-1.681 0l-4.835-1.158-7.673.316 4.52.842 1.051.315 12.297 1.999z"/><path d="m272.74 309.672c-4.099-.737-7.672-2.736-7.672-2.736s4.94-.421 5.78-.316c.841.106 4.204.842 4.204.842s.211.316 1.472.421c1.261.21 1.366.105 1.366.105.421-.105-.525-.21-.525-.21h.841s3.993.841 4.834.947c.841.105 1.577.105 1.577.105s1.997.842-3.469 1.157c-3.258.105-8.408-.315-8.408-.315z"/><path d="m210.52 297.256s18.708-1.683 19.444-1.473c1.576.421 7.462 1.894 14.188 3.262 8.198 1.683 19.024 3.788 21.651 4.524 6.201 1.684 1.682 2.104 1.682 2.104s-3.363.632-5.36.632c-1.892 0-11.141-.842-14.294-1.263s-17.762-4.314-20.6-4.945-16.711-2.841-16.711-2.841z"/><path d="m262.23 306.305c-3.679.21-9.249.21-12.087-.211-2.837-.315-16.711-2.42-22.386-3.577 0 0-5.361-1.683-3.784-1.683 2.732-.106 14.924 1.893 17.026 2.42 2.102.42 7.988 1.893 10.616 1.999 2.522.105 10.615 1.052 10.615 1.052z"/><path d="m246.78 301.149s-7.567-2.63-9.775-3.787c-2.207-1.053-3.258-1.684-3.258-1.684l5.571-.21s5.045 2.314 7.147 3.051c2.102.736 7.567 2.42 7.567 2.42s2.417.842 1.577 1.052c-.736.21-8.829-.842-8.829-.842z"/><path d="m261.494 306.305 2.418.421 4.94-.947-.526-.105z"/><path d="m234.063 295.678-.316-.21 4.625-.105.525.105z"/></g><path d="m170.161 255.382s.735.315.946.526c.21.21.84.947.63 1.052s-.946-.526-.946-.526.316.421.316.947c.105.42.315.841.105.947-.211.105-.105.105-.421-.106-.315-.21-.21.421-.525.106-.316-.316-.21.42-.526-.211-.21-.316-.315.211-.525-.21-.105-.421-.421-1.473-.421-1.473l-.525-1.052 1.366-.527z" fill="#0e1319"/><path d="m152.188 245.702s2.207 5.366 3.468 7.47c1.262 2.104 1.892 3.051 1.892 3.051l2.313-.21s-2.523-4.945-3.154-6.523c-.63-1.579-1.681-4.946-1.681-4.946s-.631-1.683-1.367-1.893c-.735-.211-1.471 3.051-1.471 3.051z" fill="#0e1319"/><path d="m157.864 256.223.21.526 1.787-.315-.106-.316z" fill="#fff"/><path d="m162.698 285.999c.316.105.526.105.841 0 1.261-.316 2.628-1.368 3.258-1.789.841-.631 1.051-1.157.631-1.052-1.366.315-2.838.947-2.838.947l-.315-.526-1.472.736c0-.105-.42 1.578-.105 1.684z" fill="#0e1319"/><path d="m158.915 285.999c.315 0 .735.105 1.051 0 1.261-.421 2.627-1.999 3.258-2.525.735-.632.735-1.053.315-1.053-1.471.211-2.522 1.158-2.522 1.158l-.316-.737-1.786.947c0 .105-.316 2.104 0 2.21z" fill="#0e1319"/><path d="m162.698 284.631 1.997-.947s.736-11.153.736-13.152c.105-1.894-1.892-2.735-1.892-2.735s-1.471 1.893-1.261 5.471c.105 1.788.42 11.363.42 11.363z" fill="#0e1319"/><path d="m158.915 283.894 1.997-.947s.42-11.468.525-13.467-1.997-2.841-1.997-2.841-1.471 1.999-1.156 5.682c.105 1.789.631 11.573.631 11.573z" fill="#0e1319"/><path d="m165.431 270.532s.525-8.627.42-12.204c-.21-3.578-.42-4.84-.42-4.84l-5.676 1.473s1.892 7.365 1.787 10.626c0 0 .631 6.208.841 7.05.105.841 3.048-2.105 3.048-2.105z" fill="#0e1319"/><path d="m161.227 271.164s.736-8.628.525-12.416c-.21-3.682-.42-5.997-.42-5.997l-4.625 2.21s1.051 7.68 1.157 10.942c0 0 .63 6.523.735 7.365.105.947 2.628-2.104 2.628-2.104z" fill="#0e1319"/><path d="m161.332 224.344s-.21 1.472.105 2.314c.525 1.263.105 1.158.105 1.368-.105.316.21 1.789.105 1.999-.105.316-.63.421-.63.421l.42 2.735-3.573.947v-2.314l-.211-.632.736-5.576z" fill="#0e1319"/><path d="m155.131 225.29c0 2.105 2.417 5.892 2.417 5.892s2.628-.315 2.733-.631c.105-.315 0-2.104 0-2.104s-.526-.526-.315-1.052c.105-.526.315-.421.315-.421.315.105.315.526.315.526l.315-.21s-.21-2.105-.105-2.526c.105-.315.421-.42.421-.42s-.946-1.789-3.574-1.158c-1.471.316-2.522 2.104-2.522 2.104z" fill="#0e1319"/><path d="m156.182 257.591s10.3-.947 10.3-1.368c-.21-.947-.946-4.524-1.156-8.101-.21-4.314-.315-9.785-.736-11.574-1.051-3.998-3.573-3.787-3.573-3.787s-2.523-.421-3.259 0c-.735.42-2.627 3.472-2.942 4.839-.316 1.263 1.681 10.416 1.997 11.995.105 1.683-.631 7.996-.631 7.996z" fill="#0e1319"/><path d="m157.864 232.866c-1.892.316-3.889 1.473-4.31 2.63-.42 1.158-1.576 7.155-1.366 10.206 0 0 1.366 3.788 1.997 3.577 1.156-.421 1.892-5.997 1.787-7.154-.105-1.158-.631-4.524 0-5.366.63-.842 1.892-3.893 1.892-3.893z" fill="#0e1319"/><path d="m162.278 244.229s2.417 5.787 3.678 7.996c1.367 2.21 1.997 3.367 1.997 3.367l2.523-.737s-2.733-4.839-3.363-6.418c-.631-1.578-1.787-5.365-1.787-5.365s-.736-1.789-1.472-2c-.735-.21-1.576 3.157-1.576 3.157z" fill="#0e1319"/><path d="m157.443 232.866.21-1.052 3.679.526.105.315z" fill="#fff"/><path d="m168.164 255.487.21.315 2.102-.526-.105-.421z" fill="#fff"/><path d="m50.2388 331.872-.1051.526-1.8919-.21.1051-.316z" fill="#fff"/><path d="m49.8184 351.862c0 .316 0 .526-.2102.737-.6306 1.052-2.102 3.577-2.7326 4.103-.8408.631-1.2612.316-1.051-.105.5255-1.894 1.6816-3.472 1.6816-3.472l-.4204-.421 1.5765-1.789c-.1051.105 1.1561.737 1.1561.947z" fill="#0d121a"/><path d="m49.2929 351.126-2.4174 2.104s-11.5612-7.891-13.2428-8.733c-1.6817-.841-1.4715-2.946-1.4715-2.946s2.2072-1.367 5.15.632c1.4715.841 11.9817 8.943 11.9817 8.943z" fill="#0d121a"/><path d="m32.1612 341.446s4.5194-4.208 11.9816-7.26c3.2582-1.367 3.7837-2.525 3.7837-2.525l1.997 5.261s-7.0419 3.367-9.8796 4.84c0 0-5.4654 2.209-6.2011 2.42-.8408.315-1.6816-2.736-1.6816-2.736z" fill="#0d121a"/><path d="m45.7194 357.965c-.2103.21-.3154.42-.5256.631-1.051.631-3.5734 1.999-4.4142 2.104-.946.105-1.2613-.315-.946-.631 1.4715-1.368 3.1531-2.104 3.1531-2.104l-.1051-.632 2.2071-.736s.7358 1.157.6307 1.368z" fill="#0d121a"/><path d="m45.6143 357.018-3.1531.631s-5.9908-12.731-7.0418-14.309.2102-3.262.2102-3.262 2.6275 0 4.2041 3.157c.7357 1.473 5.7806 13.783 5.7806 13.783z" fill="#0d121a"/><path d="m35.5245 341.446s4.2041-4.945 11.7714-7.996c3.2582-1.368 5.4653-.736 5.4653-.736s1.0511 2.84.2102 4.524c-.8408 1.683-6.7265 3.051-9.4592 4.419 0 0-5.4653 2.209-6.201 2.42-.9459.42-1.7867-2.631-1.7867-2.631z" fill="#0d121a"/><path d="m48.7674 311.039-.1052-.736s1.0511-3.472-.4204-6.208c0 0-1.6816-1.052-3.153-.736-2.5225.631-2.2072 3.367-2.2072 3.367s.4204.841.5255 1.262c.2102 1.263 1.1562 2.631 1.2613 2.736.2102.315.3153.421.6306.526.1051.105.3153 0 .3153 0l.7357 2.42 3.1531-1.052z" fill="#0d121a"/><path d="m53.9174 336.922s-10.0898-2.104-10.0898-2.525c.1051-.947.1051-3.051 0-6.629-.1051-4.313-1.6816-9.89-1.3663-11.573.7357-3.893 3.2582-3.998 3.2582-3.998s2.4173-.526 3.2581-.211c.7357.316 2.8378 3.262 3.2582 4.419.4204 1.263.4204 10.416.3153 12.1-.2102 1.683 1.3663 8.417 1.3663 8.417z" fill="#0d121a"/><path d="m38.5725 333.555c-.2102.105-3.8887 2.104-3.5734 2.525.3153.316.6306.106.6306.106s.1051.105.2102.105.3153-.105.3153-.105.1051 0 .4204-.106c.2102 0 .9459-.631.9459-.631s-.7357.631-.5255.737c.2102.105 1.3663-.842 1.3663-.842l1.0511-1.052z" fill="#0d121a"/><path d="m44.9837 324.717s-.7357 4.104-1.051 6.629-4.3092 3.893-4.3092 3.893l-1.1561-1.999s2.4174-2.105 2.7327-3.788c.3153-2.104.3153-11.048.6306-12.626s1.9969-3.893 2.7326-4.103c.5256-.211.4204 11.994.4204 11.994z" fill="#0d121a"/><path d="m39.4133 335.028-.3153.316-1.0511-1.789.4204-.21z" fill="#fff"/><path d="m48.1368 313.249-.5255 4.945-1.3663 4.945-.4204-6.418-.1051-3.998-.2102-.526.1051-.316 1.4714.421 1.997-.421.1051.211z" fill="#fff"/><path d="m51.1987 318.493-1.9891-.176-.0463.524 1.9892.176z" fill="#fff"/><path d="m46.4551 312.092.1051 1.262s.7357.105.7357 0 .2102-1.157.2102-1.157h-1.051z" fill="#0d121a"/><path d="m46.5602 313.249-.7357 11.889.1051 1.473.6306-1.894.7358-11.468z" fill="#0d121a"/><path d="m33.2123 336.922 9.9847.316-3.5735-8.523-10.4051-.21z" fill="#fff"/><path d="m47.6112 334.607c-.1051 0-4.4143 2.526-4.4143 2.526l-9.9847-.316 5.15-2.21z" fill="#fff"/><path d="m54.7581 329.978s-4.5194 2.525-6.7265 3.472-5.3602 2.525-5.3602 2.525l-1.051-2.42s6.3061-2.736 7.5673-3.577c1.3664-.842 3.6786-2.525 3.6786-2.525s2.2072-.842 2.8378-.632c.7357.211-.946 3.157-.946 3.157z" fill="#0d121a"/><path d="m49.1878 312.197c1.8918.105 3.9939 1.052 4.4143 2.104.5255 1.052 2.3123 11.047 2.3123 14.099 0 0-1.2613 2.104-1.997 1.999-1.1561-.316-1.8918-6.103-1.9969-7.26 0-1.157.1051-4.524-.6306-5.261-.5256-.736-2.1021-5.681-2.1021-5.681z" fill="#0d121a"/><g fill="#181e26" opacity=".1"><path d="m306.058 303.78s5.36.526 10.72-.106c5.676-.631 5.465-1.788 3.048-2.314-3.784-.842-5.781-.737-4.099-1.684 1.577-.842.736-1.578-2.207-1.999 0 0 3.573-1.894-4.414-2.104-2.207 0-2.838-.631-7.147-.211-4.309.421-6.622 1.053-5.886 1.473 1.366.737-2.312 1.053-3.468 1.263-2.313.316-3.469.736-3.469.947-.105.526 3.469.842 9.565 1.157 1.156.105 7.357.211 6.831 1.052-.42.632 2.733 1.473 2.733 1.473s-.736.106-1.261.421c-.211.316-.946.632-.946.632z"/><path d="m295.863 299.887s-5.045-.526-10.511-1.052c-.525 0-.945-.106-1.471-.106-5.57-.526-11.141-1.052-12.087-1.157-2.312-.105-3.888-.105-4.94-.105-.84 0-1.156 0-1.156 0l-2.522.526 8.303.526s22.807 2.42 25.119 2.42c1.682 0 2.313-.105 3.364-.211.42 0 .946-.105 1.576-.105 2.523-.105-4.414-.631-5.675-.736z"/><path d="m264.752 297.362-12.717-.632-1.892.211 13.138 1.052z"/><path d="m264.858 297.151 2.837.211-4.414.631h-1.156z"/><path d="m248.882 296.941s-1.577 0-2.312 0c-.736 0-2.207-.316-1.787-.316.21 0 1.997.211 1.997.211s-.841-.106-1.471-.211c-.526-.105-.421-.421.21-.526.21-.105 1.471.211 1.471.211s.21 0 .946.105 1.051.105 1.682.105c.525.105 1.261.21 1.261.21l1.366.106-1.471.315z"/><path d="m306.058 303.78s-.946-.526-2.418-.842c-.525-.105-1.576-.21-1.681-.21s.315-.106.315-.106c-.21-.105-1.892-.631-1.997-.736 0-.105 3.994-.316 4.204-.526.315-.421-8.513-1.052-8.513-1.052l15.24.315.21 2.21z"/><path d="m276.419 294.205s.42.737 3.258 1.473c2.838.737 4.835.737 9.669 1.578 8.514 1.368 18.603 1.684 18.078 2.105-.315.315-7.147 1.473-7.147 1.473l-2.417.105s-5.886-.211-8.303-.421c-2.628-.105-7.147-.526-8.093-.737-1.262-.315.946-.315.525-.631-1.787-.842-14.084-2.104-15.975-2.42-2.102-.315-6.201-.526-6.201-.526l6.306-.736z"/><path d="m195.28 283.158c.21 0 14.819 2.42 21.756 3.577 6.201 1.052 14.819 2.631 14.819 2.631s5.256-.106 5.256-.421c0-.421-3.469-1.368-17.132-3.157-3.784-.526-24.699-3.156-24.699-3.156s-.841.421 0 .526z"/><path d="m233.957 289.891s1.051.527 11.982 2.42c10.931 1.894 14.504 2.841 14.504 2.841l9.459-1.157s-19.338-3.262-25.014-4.209c-5.57-.841-11.561-1.578-11.561-1.578z"/><path d="m233.957 289.891s1.051.527 11.982 2.42c10.931 1.894 14.504 2.841 14.504 2.841l9.459-1.157s-19.338-3.262-25.014-4.209c-5.57-.841-11.561-1.578-11.561-1.578z"/><path d="m197.592 283.053-1.997.315c3.153.526 16.081 2.42 21.546 3.367 6.201 1.052 17.027 3.051 17.027 3.051s3.048-.631 3.048-.841c0-.421-3.469-1.368-17.132-3.157-3.048-.315-18.183-2.104-22.492-2.735z"/><path d="m196.856 283.053-4.309-.842s-.525-.105-.42.105c.105.211 1.051.421.841.421-.946.105-2.313.631-2.418.631-.105.105 1.472.105 2.207 0 2.102-.315 2.418-.21 2.418-.21z"/><path d="m193.283 283.158s.736.21 1.576.316c.211 0 10.511 2.209 17.447 3.577 6.202 1.157 14.715 2.946 14.715 2.946s5.255-.105 5.255-.421c0-.421-3.363-1.368-17.027-3.472-3.783-.526-20.39-3.262-20.39-3.262l-.945-.105z"/><path d="m229.123 290.523s.946.421 11.876 2.42c10.931 1.893 19.97 3.261 19.97 3.261l3.889-1.578s-19.339-3.262-24.91-4.103c-5.57-.842-11.456-1.578-11.456-1.578z"/><path d="m196.226 283.158-1.892.315c3.153.632 12.612 2.525 18.078 3.578 6.201 1.157 16.921 3.472 16.921 3.472s3.048-.632 3.048-.842c0-.421-3.363-1.368-17.027-3.472-2.942-.421-14.819-2.315-19.128-3.051z"/><path d="m195.595 283.158s-.525-.105-.946-.211c-.21 0-3.678-.631-4.519-.526-.841 0 .841.211-.21.211s-1.997.631-2.102.736 1.156.105 1.891 0c.841-.105.736-.315 2.103-.315.42 0 1.366.105 1.366.105z"/><path d="m275.578 294.521s-3.258-1.052-9.775-1.789c-4.834-.526-8.933-.631-8.933-.631l-14.61.315s10.195 2.315 14.715 2.841c4.519.526 3.994.947 3.994.947l7.462-.842z"/><path d="m299.752 299.361s-1.051-4.209-1.682-4.525c-1.471-.736-13.348 0-13.348 0l-.841.632 9.144-.106s-1.051 3.788-.631 3.893c.421.106 3.994.211 5.991.421 2.102.211 1.682-.105 1.367-.315z"/><path d="m283.671 294.836-14.925.316.316.316h14.819z"/><path d="m283.04 294.626h3.153l-2.312.842-1.051.105z"/><path d="m267.59 295.573s-1.576.105-2.522.105-2.733-.21-2.523-.315c.316-.106 2.208.105 2.208.105s-1.157 0-2.208-.105c-.84-.106-3.258-.737-2.942-.737.315-.105 3.468.316 3.468.316s.315 0 1.366.105h3.153l2.628.105-.526.421z"/><path d="m300.277 300.834s-9.459-.947-12.928-1.473c-3.363-.632-18.813-3.367-18.813-3.367l.736-.105s13.768 2.314 20.81 3.156 14.714 1.263 14.714 1.263-4.099.105-5.255 0c-1.892-.106-6.306-.526-6.306-.526s4.204.526 5.255.736c.946 0 1.787.316 1.787.316z"/></g><path d="m186.767 219.925s.525-2.21 2.942-2.526c2.523-.315 4.099 1.473 4.205 2.946.315 2.315-.316 2.736 1.576 3.893 1.682 1.052 2.523 2.315 2.417 3.788 0 0 3.889 2.315 1.997 4.524-.525.631.211 1.789-1.576 2.104-1.787.421-3.258 0-3.679-.841-.841-1.579-2.312-1.263-2.837-1.158-1.052.106-1.997-.315-2.418-.736-.841-.842-.42-2.315.631-4.419.21-.421 1.471-2.315.105-3.472-1.051-.947-1.577-3.157-1.577-3.157s-.42 0-1.051-.42c-.105-.316-.735-.526-.735-.526z" fill="#0e1319"/><path d="m190.13 228.868s-.526 2.104-1.051 4.419c0 .21-.105.42-.21.631-.631 2.315-1.156 4.629-1.367 4.945-.42.736-.735 1.262-1.051 1.473-.21.21-.315.316-.315.316l-1.471-.211 1.261-3.051s2.102-9.89 2.627-10.416c.421-.421.736-.421 1.156-.526.211 0 .316-.105.631-.211.841-.526 0 2.21-.21 2.631z" fill="#0e1319"/><path d="m186.031 240.967-2.207 4.314-.841.105 1.787-5.05z" fill="#0e1319"/><path d="m186.451 241.283.421-1.052-2.102.105-.316.316z" fill="#fff"/><g fill="#0e1319"><path d="m182.668 245.702s-.421.421-.526.631c-.105.316-.105 1.052.105 1.052.105 0 .21-.841.21-.841s-.105.315 0 .736c0 .316.421.737.946.842.105.105 0-.737 0-.737s0-.105.105-.421c.106-.315.211-.42.211-.631 0-.21 0-.631 0-.631l.21-.526-.841-.105z"/><path d="m186.767 219.925s.63 1.157.63 1.999c0 .315-.105.631-.105.841 0 .106.21 0 .315.106.211.315.421 1.473.631 1.683s1.471-.526 1.787-.21c.63.526-.526 3.892-.526 3.892l3.469-4.313-3.259-3.578z"/><path d="m193.914 243.282s-.946-1.263-1.367-3.262c-.42-1.999.105-2.525.105-5.05.105-4.419 2.102-7.575 1.367-8.101-.526-.316-3.994-.526-3.994-.526l-.841.42s-1.156 1.894-1.577 2.736c-.42.947-1.051 2.63-.945 3.262.21.841.84.315 1.051.841.84 1.894-.316 7.05-.421 7.996-.105.947-.841 2.42-.841 2.42l2.733-.42z"/><path d="m191.812 281.054c0-.106-.841-5.892-1.157-9.996-.315-3.577-.84-8.627-.84-8.627s1.576-1.052 1.891-.737c.736.737 1.262 3.157.946 9.996-.105 1.893-.21 9.995-.21 9.995s-.525-.105-.63-.631z"/><path d="m189.709 261.168s-.42-1.052-.63-7.049-.631-8.312-.631-8.312l4.099-.526s.105 10.311 0 13.257c-.105 2.841-.525 5.576-.525 5.576z"/><path d="m189.709 261.168s-.42-1.052-.63-7.049-.631-8.312-.631-8.312l4.099-.526s.105 10.311 0 13.257c-.105 2.841-.525 5.576-.525 5.576z"/><path d="m192.547 280.633h-1.051c-.21-1.789-.63-6.313-.841-9.469-.315-3.578-.946-9.996-.946-9.996s1.682.211 2.103.526c.735.737 1.261 3.157.945 9.996-.105 1.473-.105 6.733-.21 8.943z"/><path d="m192.442 280.948s.105.316.105.632v.736l-.525.105v-.421s.105 0-.105.211c-.211.21-.526.526-.841.736-.315.211-.946.421-1.156.421-.105-.105.105-.526.315-.736.21-.211.42-.211.736-.526.42-.421.63-1.053.63-1.053z"/><path d="m189.604 281.58s-.105-.421-.105-.947c0-.105-.735-5.366-1.051-9.364-.315-3.577-.84-8.628-.84-8.628s1.576-1.052 1.891-.736c.736.736 1.262 3.156.946 9.995-.105 1.894-.21 9.469-.21 9.469l-.105.421-.631.211z"/><path d="m187.502 261.379s-.42-.947-.63-6.944 0-10.522 0-10.522l3.468 1.684s.105 10.311 0 13.151c-.105 2.841-.525 5.577-.525 5.577z"/><path d="m190.235 280.738h-.946c-.21-1.789-.63-6.313-.841-9.469-.315-3.578-.946-9.996-.946-9.996s1.682.211 2.102.527c.736.736 1.262 3.156.946 9.995-.105 1.578-.21 6.733-.315 8.943z"/><path d="m190.235 281.054s.105.315.105.631v.736l-.525.106v-.211s.105 0-.106.211c-.21.21-.525.526-.84.736-.316.211-.946.421-1.156.421-.106-.105.105-.526.315-.736.21-.211.42-.211.736-.527.42-.42.63-1.052.63-1.052z"/><path d="m193.178 242.861s.736 2.525.21 5.366c-.42 2.104-1.261 3.367-1.261 3.367l-4.204 3.261s-.946-6.418-.631-8.417c.421-1.999-.42-2.63-.42-2.63l3.258-.421z"/><path d="m191.917 228.763s6.201 7.259 6.516 7.891c.736 1.473-3.363 3.366-3.363 3.366l-1.156-.841 2.417-2.21s-6.096-5.997-6.096-6.207c0-.211.736-1.368.841-2.21.21-.842.63-.21.841.211z"/><path d="m194.754 240.336-4.309 3.262-.42-.737 3.784-3.682z"/></g><path d="m194.965 240.862.84-.736-1.996-.947-.421.21z" fill="#fff"/><path d="m189.604 243.177s-.63.21-.84.421c-.211.21-.421 1.052-.211 1.052.211.105.421-.737.421-.737s-.316.316-.421.737c-.105.315.211 1.999.421 1.999s.42-1.368.42-1.368.105-.105.21-.421c.211-.316.841-.842.841-.842l.526-.841-.736-.526z" fill="#0e1319"/><path d="m189.815 226.237s-1.052 3.893-.946 5.787c0 1.894.42 10.311.42 10.311h.315s-.105-7.365.526-10.416c.525-3.157 1.892-5.787 1.892-5.787s-1.156.947-1.367 1.368c-.315.631-.84 2.42-.84 2.42s.315-1.894.21-2.525c0-.526-.21-1.158-.21-1.158z" fill="#fff"/><g fill="#181e26" opacity=".1"><path d="m625.884 380.691s-1.472-.632-2.102-.947c-.211-.105-.316-.316-.421-.316-.105-.105-.315 0-.42-.105-.421-.105-1.682-.737-2.102-.842-.421-.105-1.577.211-2.207.105-1.262-.315-4.73-1.367-4.73-1.367h-.315l1.261 1.367 6.832 1.789z"/><path d="m590.464 372.063s1.367.316 4.204 1.052c2.838.737 3.258 1.052 6.622 1.999 5.885 1.789 8.513 3.472 9.774 3.578.841 0 4.414-.947 4.414-.947l-.84-.316s-1.051-.947-1.892-1.368-1.997-.947-2.943-1.157c-1.261-.316-1.577-.21-2.417-.316-3.153-.526-10.721-3.156-11.877-3.472-1.261-.315-1.892-.736-1.892-.736l-1.366.631z"/><path d="m539.595 356.386s9.039 2.315 14.714 3.788c5.045 1.368 12.297 3.157 12.297 3.157s.42.841-.21.736c-1.472-.105-5.045-.947-14.189-3.682-2.522-.737-13.348-3.999-13.348-3.999l.42-.946c-.105.105 0-.527.316.946z"/><path d="m538.754 356.492s-.526-.106-.631-.211l-.42-.21s0 0 .21-.106h.315l.316.106s.105-.737.42-.842.21-.21.631-.21c.315 0 .63.21.841.21.21.105.21.105-.211.21-.105 0-.21.106-.63.106-.526.105.105.736.105.736z"/><path d="m568.393 363.857s1.787.315 9.879 2.63c8.198 2.315 11.562 3.261 11.562 3.261l-2.208 1.158s-13.768-4.103-17.551-5.261c-3.784-1.157-7.147-2.315-7.147-2.315z"/><path d="m568.393 363.857s1.787.315 9.879 2.63c8.198 2.315 11.562 3.261 11.562 3.261l-2.208 1.158s-13.768-4.103-17.551-5.261c-3.784-1.157-7.147-2.315-7.147-2.315z"/><path d="m540.225 356.912.631-.21c2.627.631 9.039 2.315 13.453 3.472 5.045 1.368 14.189 3.683 14.189 3.683s-1.366.315-2.102.315c-1.472-.105-5.045-.947-14.189-3.682-1.997-.632-8.934-2.631-11.982-3.578z"/><path d="m541.066 356.281s8.724 2.104 14.399 3.472c5.045 1.263 12.402 3.051 12.402 3.051s.421.842-.21.737c-1.471-.105-5.15-.842-14.189-3.472-2.522-.737-13.453-3.788-13.453-3.788l.631-.315.63-.316c-.105.105-.315.421-.21.631z"/><path d="m569.654 363.225s1.787.316 9.88 2.631c8.198 2.314 14.083 4.313 14.083 4.313l-4.624.106s-13.769-4.104-17.552-5.261c-3.784-1.157-7.147-2.315-7.147-2.315z"/><path d="m541.381 356.702.631-.21c2.628.631 9.039 2.209 13.558 3.261 5.045 1.263 14.189 3.472 14.189 3.472s-1.366.316-2.102.316c-1.472-.105-5.15-.842-14.189-3.472-1.997-.526-9.039-2.525-12.087-3.367z"/><path d="m539.91 356.281s-.21.105-.315 0l.42-.21s.21.105.315-.105c.106-.211.316-.842.631-.842s1.156-.105 1.051 0-.63.421-.736.631c-.21.316-.105.526-.105.526z"/><path d="m590.464 372.063s-3.889-.841-7.357-2.104c-2.522-.947-3.468-1.683-3.468-1.683l-1.472-2.315s9.354 2.42 11.667 3.261c2.312.842 3.678.947 3.678.947l-1.681.947z"/><path d="m613.797 376.587 1.366 1.263.316-.631z"/><path d="m610.118 377.429s-13.978-1.473-15.134-1.683c-2.523-.421-2.103-2.105-2.103-2.105l1.997.106 1.157 1.473s12.191 1.052 12.612 1.052c.315.105 1.261.736 2.312 1.052 1.051.421-.105.21-.841.105z"/><path d="m592.776 373.431-1.366-2.315 1.261.211 2.207 2.314z"/><path d="m591.936 373.221.42.526 2.523-.106.105-.105z"/><path d="m592.566 371.116s.21-.21.105-.315c-.105-.106-1.051-.526-1.261-.526s.631.42.631.42-.21-.21-.631-.42c-.42-.211-2.838-.737-2.943-.737-.21 0 1.577.631 1.577.631s.105.106.42.211c.315.21.526.526.526.526l.735.421h1.262z"/><path d="m609.698 376.587s5.36-2.84 5.991-2.946c1.471-.315 7.462 2.631 7.462 2.631l-1.156.315-4.519-1.788s-3.574 2.525-3.784 2.525c-.315 0-2.312-.316-3.574-.421-1.366-.105-.84-.316-.42-.316z"/><path d="m623.466 376.377 4.94 2.209-.315.316-6.096-2.42z"/><path d="m624.307 376.377-1.261-.421-1.051.526.21.211z"/><path d="m628.511 379.113s.316.21.631.42c.315.106 1.366.421 1.471.316l-1.051-.316s.421.106 1.051.316c.421.105 1.261.105 1.682.105.21 0-1.051-.315-1.051-.315s-.105 0-.526-.211c-.42-.105-.42-.21-.735-.315-.316-.106-.946-.211-.946-.211l-.631-.21-.63.21z"/><path d="m626.304 380.691s1.156.841-.63 1.367c-1.892.526-4.415 0-6.307-.631-2.942-.947-2.837-1.368-5.675-1.368-2.628 0-4.94-.315-6.832-.947 0 0-5.78 0-7.462-1.367-.42-.316-2.417-.632-1.682-1.158.736-.526 2.208-.736 3.784-.526 2.733.421 3.258 0 3.468-.21.526-.316 1.892-.316 2.733-.211 1.682.106 4.414.737 6.516 1.789.421.21.841 1.368 3.469 1.578 1.997.105 5.991 1.473 5.991 1.473s.315-.105 1.471 0c.42 0 1.156.211 1.156.211z"/><path d="m624.938 380.059 25.329-4.313s.421 0 1.577.315c1.156.316 1.261.526 1.261.526l-27.537 3.683z"/></g><path d="m539.595 297.256s.42 1.158.841 1.789c.105.21.42.421.525.526 0 .105-.105.105-.105.21 0 .316.526 1.368.42 1.579 0 .21-1.366.421-1.471.841-.21.737-.105 3.157-.105 3.157l-.105.105-2.102-1.894.315-4.524z" fill="#0e1319"/><path d="m536.232 319.772s.105-.842.42-2.63c.315-1.789-.21-2.315-.315-4.63-.211-4.103-2.313-6.839-1.577-7.365.42-.315 4.73-.736 4.73-.736l.315.736s1.261 1.368 1.682 2.105c.42.841.84 1.788.735 2.314-.105.737-.525.842-.735 1.263-.736 1.789.105 7.365.105 8.207 0 .841.42 1.473.42 1.473l-2.207-.106z" fill="#0e1319"/><path d="m539.49 354.808s-.841.21-1.262 0c-.105-.105.631-5.366.946-9.048.211-3.262.736-7.997.736-7.997s-1.471-1.052-1.787-.631c-.63.737-1.156 2.946-.84 9.259.105 1.789.21 9.259.21 9.259l.946-.106 1.261-.42z" fill="#0e1319"/><path d="m537.598 355.439s-.105.316.105.421c.105.105.105.316.105.316h.21c.105 0 .211-.105.211-.105v-.421s.105 0 .315-.106c.21-.105.946-.105 1.261-.21.21-.105.736-.421.736-.526s-.105-.21-.526-.105c-.21 0-.315 0-.736.105-.42.105-.945.21-.945.21z" fill="#0e1319"/><path d="m540.12 336.606s.316-1.052.421-6.523c0-5.471.21-7.786.21-7.786l-3.784-.316s.421 9.47.526 12.205c.105 2.631.525 5.156.525 5.156z" fill="#0e1319"/><path d="m540.12 336.606s.316-1.052.421-6.523c0-5.471.21-7.786.21-7.786l-3.784-.316s.421 9.47.526 12.205c.105 2.631.525 5.156.525 5.156z" fill="#0e1319"/><path d="m537.598 354.492h.841c.105-1.683.525-5.786.84-8.732.211-3.262.841-9.154.841-9.154s-1.576.211-1.892.526c-.63.737-1.156 2.946-.84 9.259 0 1.263.105 5.997.21 8.101z" fill="#0e1319"/><path d="m541.276 355.124s-.63.105-.946-.105c-.105-.106.631-5.366.946-9.049.211-3.261.736-7.996.736-7.996s-1.471-1.052-1.787-.631c-.63.736-1.156 2.946-.84 9.259.105 1.788.21 9.258.21 9.258l.946-.21h.946z" fill="#0e1319"/><path d="m542.117 336.711s.316-1.052.421-6.523c0-5.471-.526-9.785-.526-9.785l-3.153 1.684s.42 9.469.526 12.204c.105 2.631.525 5.156.525 5.156z" fill="#0e1319"/><path d="m539.595 354.598h.841c.105-1.684.525-5.787.84-8.733.211-3.262.841-9.154.841-9.154s-1.576.211-1.892.526c-.63.737-1.156 2.946-.84 9.259.105 1.263.21 5.997.21 8.102z" fill="#0e1319"/><path d="m539.595 355.65s-.105.316.105.421c.105.105.105.315.105.315h.21c.105 0 .21-.105.21-.105v-.421s.105 0 .316-.105c.21-.105.946 0 1.156-.21.21-.105.735-.421.735-.526 0-.106-.105-.211-.525-.106-.21 0-.526.106-.841.211-.42.105-.736 0-.736 0z" fill="#0e1319"/><path d="m536.232 319.772s-.631 2.42 0 5.05c.42 1.894 1.366 3.052 1.366 3.052l3.994 2.84s.63-6.102.21-7.891c-.421-1.788.315-2.42.315-2.42l-3.048-.315z" fill="#0e1319"/><path d="m540.751 306.094-1.787-1.788 1.472.421z" fill="#fff"/><path d="m536.757 306.62s-5.36 6.944-5.675 7.576c-.526 1.368 3.258 2.946 3.258 2.946l1.051-.842-2.418-1.894s5.361-5.787 5.361-5.997-.736-1.157-.946-1.999c-.105-.737-.421-.105-.631.21z" fill="#0e1319"/><path d="m534.655 317.457 4.099 2.841.42-.631-3.678-3.262z" fill="#0e1319"/><path d="m534.55 317.983-.841-.736 1.787-.842.315.105z" fill="#fff"/><path d="m539.595 319.877s.525.105.841.316c.21.21.42.947.21.947-.21.105-.421-.632-.421-.632s.211.316.421.632c.105.315-.105 1.894-.316 1.894-.21 0-.42-1.263-.42-1.263s-.105-.105-.21-.421c-.21-.316-.841-.736-.841-.736l-.525-.737.63-.526z" fill="#0e1319"/><path d="m538.334 307.778s9.249.736 9.984.631c1.472-.21-1.051-5.576-1.051-5.576l-1.366.105.946 3.577s-7.567-1.262-7.778-1.157c-.21.105-.63 1.262-1.261 1.789-.525.631.105.631.526.631z" fill="#0e1319"/><path d="m547.162 302.517-1.681-4.208-.841-.106 1.261 4.735z" fill="#0e1319"/><path d="m547.582 302.201.316.947-1.997-.21-.21-.316z" fill="#fff"/><path d="m544.429 297.888s-.315-.421-.42-.632c-.105-.21 0-.946.105-.946s.105.736.105.736-.105-.316 0-.736c.105-.316.526-.632.946-.737.105 0 0 .631 0 .631v.421c0 .316.105.316.21.631 0 .211-.105.632-.105.632l.105.526h-.735z" fill="#0e1319"/><path d="m539.595 297.046s-1.051-1.368-3.258-1.157c-2.313.21-2.733 1.683-2.523 3.051.21 2.104 1.156 2.525-.525 3.577-1.577 1.052-2.208 2.21-2.102 3.577 0 0-3.469 2.315-1.682 4.209.525.526-.105 1.578 1.471 1.894 1.577.315 2.943-.105 3.364-.947.735-1.578 1.997-1.263 2.522-1.157.946.105 1.787-.421 2.207-.842.736-.842 1.156-2.42.21-4.314-.21-.421-2.417-1.683-1.156-2.946.946-.947.526-3.788.526-3.788s.315-.105.841-.631c.105 0 .105-.526.105-.526z" fill="#0e1319"/><path d="m540.12 298.203 24.594-5.576s.21-.21.21-.947c0-.736-.315-.947-.315-.947l-24.804 6.944z" fill="#0e1319"/><path d="m452.36 70.3107s3.573 7.5754 3.678 8.2067c.211 1.473-1.471 2.4199-1.471 2.4199h-1.366l.946-2.5251s-3.784-6.5233-3.679-6.8389c0-.2104.946-.9469 1.261-1.6834.315-.6313.526 0 .631.4208z" fill="#0e1319"/><path d="m454.462 81.3581-1.787 3.9981-.736.2105 1.261-4.6294z" fill="#0e1319"/><path d="m454.777 81.5685.315-.9469-1.891.3156-.211.3157z" fill="#fff"/><path d="m451.729 85.8822s-.315.4209-.42.6313c-.105.2105 0 .9469.105.8417.105 0 .105-.7365.105-.7365s-.105.3157 0 .6313c.105.3157.105.5261.525.6313.106 0 .421-.6313.421-.6313s0-.1052.105-.4208c0-.3157 0-.3157 0-.5261s-.105-.6313-.105-.6313l.105-.526h-.736z" fill="#0e1319"/><path d="m448.156 61.6833s-.21 1.1574-.526 1.8939c-.105.2104-.42.5261-.42.6313s.105.1052.21.2104c0 .3156-.21 1.3678-.21 1.5782.105.2104 1.366.2104 1.576.5261.316.7365.526 3.0512.526 3.0512l.105.1052 1.787-2.1043-.946-4.2085z" fill="#0e1319"/><path d="m453.411 83.4625s-.21-1.1573-.526-2.9459c-.315-1.6835.105-1.7887.211-3.9981.105-3.9982 1.471-6.8389.84-7.365-.42-.3156-4.519-.5261-4.519-.5261l-.21.6313s-.841 1.1574-1.261 1.8939c-.421.8417-.736 1.6834-.631 2.3147.105.7365.525.7365.736 1.1573.735 1.6834.315 4.7346.42 5.4711 0 .8417-.841 3.7877-.841 3.7877l1.997-.4209z" fill="#0e1319"/><path d="m459.191 116.394s.946-.841.841-1.157c0-.105-2.312-4.735-3.678-7.996-1.261-2.946-3.784-6.418-3.784-6.418s1.366-1.2629 1.682-1.0525c.841.4205 2.312 1.4725 3.994 7.3645.42 1.579 2.627 8.418 2.627 8.418l-.841.21z" fill="#0e1319"/><path d="m460.768 115.237s.21.105.21.316c0 .105.21.21.21.21s0 .105-.105.211c-.105.105-.21.105-.21.105l-.315-.211s-.105.106-.21.211c-.211.105-.631.736-.841.841-.315.106-.841.106-.841 0-.105-.105 0-.21.315-.42.105-.106.316-.211.631-.316.42-.21.946-.842.946-.842z" fill="#0e1319"/><path d="m452.15 99.981s-.21-1.8938-1.472-7.0493c-1.261-5.1554-1.892-7.2597-1.892-7.2597l3.469-1.1574s1.471 9.7849 1.892 12.31c.42 2.5252.84 5.3664.84 5.3664z" fill="#0e1319"/><path d="m452.675 100.928s-1.051-.842-2.312-5.9972c-1.261-5.1555-1.577-9.364-1.577-9.364l3.469-1.1574s1.471 9.7849 1.892 12.31c.42 2.5251.84 5.3656.84 5.3656z" fill="#0e1319"/><path d="m460.663 114.816-.736.316c-.63-1.473-2.312-5.156-3.468-7.681-1.261-2.946-4.309-7.47-4.309-7.47s1.787-.2105 2.207 0c.841.421 2.312 1.473 3.994 7.365.315 1.157 1.681 5.576 2.312 7.47z" fill="#0e1319"/><path d="m437.225 112.817s.736.105 1.156 0c.105 0 1.367-5.05 2.523-8.417.946-3.051 2.207-7.7856 2.207-7.7856s1.576-.3157 1.682.1052c.315.8417.21 3.3664-2.418 8.9434-.735 1.473-3.573 8.101-3.573 8.101l-.841-.421-.841-.105z" fill="#0e1319"/><path d="m443.216 95.5621s-.21-.9469 1.787-5.9971c1.892-4.9451 3.153-6.8389 3.153-6.8389l2.943 4.8398s-3.153 4.6294-4.204 6.9441c-.946 2.3147-2.313 4.6294-2.313 4.6294z" fill="#0e1319"/><path d="m439.117 112.817-.736-.316c.526-1.578 1.682-5.366 2.523-8.101.946-3.051 2.417-8.838 2.417-8.838s1.367.7365 1.472 1.1574c.315.8417.21 3.3666-2.418 8.9436-.63 1.157-2.417 5.365-3.258 7.154z" fill="#0e1319"/><path d="m438.697 113.764s0 .316-.211.316c-.105 0-.21.21-.21.21s-.105 0-.21-.105-.105-.21-.105-.21l.21-.421s-.105 0-.315-.106c-.21-.105-.841-.105-1.156-.315-.211-.105-.631-.526-.631-.631 0-.106.105-.211.525-.106.211 0 .421.211.841.316.421.21.946.105.946.105z" fill="#0e1319"/><path d="m452.57 82.5156s.946 2.2095.736 4.7346c-.105 1.8939-.421 5.9972-.421 5.9972l-3.153-6.1024s-2.207.8417-1.997-.8417c.105-1.7886.631-2.946.631-2.946h1.577z" fill="#0e1319"/><path d="m448.366 70.416 1.471-1.999-1.366.6313z" fill="#fff"/><path d="m450.678 71.8889s-2.627 8.7327-2.943 9.364c-.84 1.3678-1.366 1.6834-1.366 1.6834l-1.471-.2104 1.366-2.946s1.576-7.891 1.787-8.1014c.21-.2104 1.471-.2104 2.312-.5261.841-.3156.631.4209.315.7365z" fill="#0e1319"/><path d="m446.159 83.3571-2.312 4.1033h-.841l1.892-4.7346z" fill="#0e1319"/><path d="m446.579 83.6728.526-.947h-2.207l-.316.3157z" fill="#fff"/><path d="m442.796 87.8813s-.421.4208-.526.6313c-.105.2104-.105.9469 0 .9469s.21-.7365.21-.7365-.105.3156-.105.7365c0 .3156 0 .7365.421.9469.105.1052.525-.7365.525-.7365s.105 0 .21-.3156c.105-.3157 0-.5261.105-.7365.106-.2104 0-.6313 0-.6313l.211-.5261-.841-.1052z" fill="#0e1319"/><path d="m448.156 61.5781s.841-1.3678 2.943-1.5782c2.207-.1053 2.837 1.2625 2.837 2.5251.106 2.1042-.735 2.5251 1.051 3.3668 1.577.7365 2.418 1.7886 2.523 3.1564 0 0 3.573 1.6834 2.207 3.7877-.42.5261.315 1.473-1.156 1.9991-1.472.526-2.838.3156-3.363-.4209-.841-1.3678-2.102-.8417-2.523-.7365-.841.2104-1.787-.1052-2.207-.4209-.736-.6312-1.471-2.2094-.736-4.1033.105-.4208 1.997-1.999.631-2.946-1.051-.7364-1.051-3.5772-1.051-3.5772s-.315 0-.841-.4209c-.315-.2104-.315-.6312-.315-.6312z" fill="#0e1319"/><g filter="url(#e)"><path d="m399.493 430.346c18.343 0 33.212-14.885 33.212-33.247s-14.869-33.247-33.212-33.247-33.212 14.885-33.212 33.247 14.869 33.247 33.212 33.247z" fill="url(#o)"/></g><path d="m419.883 423.508s-.21-.737-.105-1.052c.105-.421.21-1.263.42-1.053.21.211.105 1.053.105 1.053s.21-.421.526-.842c.315-.316.525-.737.735-.631.211.105.106 0 .106.315 0 .316.525-.105.42.316s.42 0 .21.526c-.21.316.315.21.105.526s-.946 1.052-.946 1.052l-.525.947-1.156-.736z" fill="#0e1319"/><path d="m421.039 425.086.21-.421-1.682-1.368-.21.421z" fill="#fff"/><path d="m386.67 426.138s-.63-.421-.945-.526c-.421-.105-1.262-.21-1.157 0 .106.21.946.421.946.421s-.42 0-.946.21c-.42.211-.84.211-.84.421s0 .105.315.211c.315.105-.315.42.105.526.42.105-.21.42.42.42.421 0 0 .316.421.316.42-.105 1.366-.421 1.366-.421l1.156-.105-.315-1.368z" fill="#0e1319"/><path d="m411.685 441.289-.21.526-1.892-.421.21-.316z" fill="#fff"/><path d="m408.216 410.461s.211 1.473-.105 2.21c-.42 1.262-.105 1.157-.105 1.367.105.316-.21 1.684-.105 1.999.105.211.526.316.526.316l-.421 2.63 3.469.947v-2.209l.21-.631-.736-5.366z" fill="#0e1319"/><path d="m414.207 411.303c0 1.999-2.417 5.681-2.417 5.681s-2.523-.315-2.733-.631c-.105-.315 0-1.999 0-1.999s.526-.526.316-.947c-.106-.526-.316-.421-.316-.421-.315.106-.21.526-.21.526l-.315-.21s.105-2.104.105-2.42c-.105-.316-.421-.421-.421-.421s.946-1.683 3.469-1.157c1.576.315 2.522 1.999 2.522 1.999z" fill="#0e1319"/><path clip-rule="evenodd" d="m412.19 442.446c.658.066 1.071.105 1.071.105s-.736-6.102-.631-7.68c.067-.537.316-1.789.613-3.287.429-2.163.96-4.84 1.193-6.614.128.105.261.214.402.326.841.737 2.522 1.999 3.153 1.894s2.943-2.104 2.943-2.104c-.245-.429-.454-.572-.731-.762-.199-.137-.433-.298-.74-.606-.152-.202-.303.008-.467.235-.176.246-.366.51-.584.291-.902-.845-1.863-1.842-2.642-2.65-.675-.7-1.214-1.258-1.458-1.453-.383-.288-1.138-.707-2.006-1.008-.241-.293-.457-.5-.621-.57-.736-.316-3.154 0-3.154 0s-1.238-.052-2.305 1.221c-2.544 1.484-7.882 4.538-9.15 4.776-1.577.21-9.985 1.052-9.985 1.052l.631 2.42s7.146-.631 9.669-.631c1.669 0 5.177-1.382 7.361-2.317-.07 1.229-.117 2.687-.164 4.191v.001c-.044 1.382-.09 2.804-.155 4.122-.211 3.472-.841 6.839-1.051 7.786-.016.061.183.133.533.212-.037.168-.075.343-.113.524-.736 3.472-.315 12.1-.315 12.1.105 1.894.736 12.73.736 12.73l.099.045-.099.166s-1.472-.526-2.733-.842c-.421-.105-.105.421.631 1.052.63.526 1.997 1.473 3.153 1.789.315.105.525.105.84 0 .222-.074.081-.872-.023-1.378l.023.01.019-.546.034.032c.706.682 1.701 1.643 2.575 1.882.214.071.476.046.721.022.116-.011.229-.022.33-.022.315 0 0-2.104 0-1.999l-1.787-.947-.315.736s-.615-.554-1.516-.908c.097-2.769.284-7.972.36-9.192.064-.729.054-1.384-.002-1.964.267-2.031.632-5.506.632-5.506 0-.079.002-.161.006-.244.047 2.027.176 3.919.252 4.903.148 3.312.478 12.07.478 12.07l1.892.947s.42-9.469.525-11.258c.068-.763.058-1.45.002-2.058.201-1.969.419-4.15.419-4.15.063-1.884.837-4.855 1.451-6.944z" fill="#0e1319" fill-rule="evenodd"/><path d="m412 418.668-.21-.947-3.469.421-.105.315z" fill="#fff"/><path d="m387.616 427.821h-.315l-.631-1.999.421-.105z" fill="#fff"/></svg>