<svg width="90" height="90" viewBox="0 0 90 90" fill="none" xmlns="http://www.w3.org/2000/svg">
<g clip-path="url(#clip0)">
<rect width="89.14" height="89.14" rx="44.57" fill="#D3C4F7"/>
<path d="M66.1128 47.3928C68.5232 39.3877 70.0088 25.7021 59.873 16.3424C52.1268 9.1892 31.1997 8.46835 23.9199 24.0678C22.7046 26.6719 24.3656 30.7533 27.6341 30.6048C28.9186 30.5454 29.714 34.6161 30.4568 37.1417C29.4169 47.3928 20.1516 47.5821 15.4516 55.4154C9.65749 65.0722 16.7887 79.3346 33.8739 79.3346C50.959 79.3346 60.7531 65.1926 66.1128 47.3928Z" fill="url(#paint1_linear)"/>
<path d="M71.9059 70.8441C74.0847 75.0408 75.1743 90.3286 75.1743 90.3286H13.9648C13.9648 90.3286 15.0544 75.0408 17.2333 70.8441C20.5018 64.5491 44.5696 56.4554 44.5696 56.4554C44.5696 56.4554 68.6374 64.5491 71.9059 70.8441Z" fill="url(#paint2_linear)"/>
<path d="M51.6991 60.021C51.6991 60.021 47.9059 62.1009 44.4164 62.1009C40.9269 62.1009 37.4367 60.021 37.4367 60.021V53.4841C36.686 53.6027 35.9255 53.6479 35.166 53.619C28.0384 53.6184 25.3508 43.2362 26.7399 30.6048C27.6313 30.6048 29.7113 30.6048 32.6826 26.4449C31.9398 32.239 40.5566 31.3476 43.8251 26.7421C42.1909 32.239 46.4993 35.9532 50.2135 33.7247C57.4965 29.3548 59.1337 42.6761 51.6991 42.7873V60.021Z" fill="url(#paint3_linear)"/>
<g style="mix-blend-mode:multiply" opacity="0.782">
<path d="M37.4375 53.4841C41.1234 52.8055 44.6503 51.4451 47.8372 49.4728C47.8372 49.4728 44.123 55.8611 37.4375 55.8611V53.4841Z" fill="#FFD7B8"/>
</g>
<path d="M44.5821 61.7963C46.7295 61.6991 51.7035 60.6473 51.7035 58.3748V56.4553C52.2484 56.4553 53.8087 57.7425 54.6112 58.8324C57.7834 63.1408 54.2648 67.0036 51.395 67.0036C47.7742 67.0036 45.3745 63.9781 44.5723 62.5228C43.77 63.9787 41.3704 67.0036 37.7495 67.0036C34.8798 67.0036 31.3611 63.1408 34.5333 58.8324C35.3359 57.7425 36.8961 56.4553 37.4411 56.4553V58.3748C37.4411 60.6473 42.5494 61.6991 44.5821 61.7963Z" fill="white"/>
<path d="M43.3828 82.0088C43.3828 81.7737 43.4525 81.5439 43.5831 81.3485C43.7137 81.153 43.8993 81.0007 44.1165 80.9107C44.3337 80.8208 44.5727 80.7972 44.8032 80.8431C45.0338 80.889 45.2455 81.0022 45.4118 81.1684C45.578 81.3346 45.6912 81.5464 45.737 81.7769C45.7829 82.0075 45.7594 82.2465 45.6694 82.4636C45.5795 82.6808 45.4271 82.8664 45.2317 82.997C45.0362 83.1276 44.8064 83.1973 44.5713 83.1973C44.2561 83.1973 43.9538 83.0721 43.7309 82.8492C43.508 82.6263 43.3828 82.324 43.3828 82.0088ZM43.3828 76.0661C43.3828 75.8311 43.4525 75.6013 43.5831 75.4058C43.7137 75.2104 43.8993 75.058 44.1165 74.9681C44.3337 74.8781 44.5727 74.8546 44.8032 74.9004C45.0338 74.9463 45.2455 75.0595 45.4118 75.2257C45.578 75.3919 45.6912 75.6037 45.737 75.8343C45.7829 76.0648 45.7594 76.3038 45.6694 76.521C45.5795 76.7381 45.4271 76.9238 45.2317 77.0544C45.0362 77.185 44.8064 77.2547 44.5713 77.2547C44.2561 77.2547 43.9538 77.1294 43.7309 76.9066C43.508 76.6837 43.3828 76.3814 43.3828 76.0661ZM43.3828 70.1235C43.3828 69.8884 43.4525 69.6586 43.5831 69.4632C43.7137 69.2677 43.8993 69.1154 44.1165 69.0254C44.3337 68.9355 44.5727 68.9119 44.8032 68.9578C45.0338 69.0036 45.2455 69.1168 45.4118 69.2831C45.578 69.4493 45.6912 69.661 45.737 69.8916C45.7829 70.1222 45.7594 70.3611 45.6694 70.5783C45.5795 70.7955 45.4271 70.9811 45.2317 71.1117C45.0362 71.2423 44.8064 71.312 44.5713 71.312C44.2561 71.312 43.9538 71.1868 43.7309 70.9639C43.508 70.741 43.3828 70.4387 43.3828 70.1235Z" fill="url(#paint4_linear)"/>
</g>
<defs>
<linearGradient id="paint1_linear" x1="40.6729" y1="11.4659" x2="40.6729" y2="79.3346" gradientUnits="userSpaceOnUse">
<stop stop-color="#130027"/>
<stop offset="1" stop-color="#130017"/>
</linearGradient>
<linearGradient id="paint2_linear" x1="44.5696" y1="90.3286" x2="44.5696" y2="56.4554" gradientUnits="userSpaceOnUse">
<stop stop-color="#E6864E"/>
<stop offset="1" stop-color="#E67240"/>
</linearGradient>
<linearGradient id="paint3_linear" x1="41.4619" y1="26.4449" x2="41.4619" y2="62.1009" gradientUnits="userSpaceOnUse">
<stop stop-color="#FFE0CC"/>
<stop offset="1" stop-color="#FFEADB"/>
</linearGradient>
<linearGradient id="paint4_linear" x1="44.5713" y1="68.9349" x2="44.5713" y2="83.1973" gradientUnits="userSpaceOnUse">
<stop stop-color="#130027"/>
<stop offset="1" stop-color="#130017"/>
</linearGradient>
<clipPath id="clip0">
<rect width="89.14" height="89.14" rx="44.57" fill="white"/>
</clipPath>
</defs>
</svg>
