<svg width="90" height="90" viewBox="0 0 90 90" fill="none" xmlns="http://www.w3.org/2000/svg">
<g clip-path="url(#clip0)">
<rect width="89.14" height="89.14" rx="44.57" fill="#D3C4F7"/>
<path d="M17.2348 69.8262C15.0559 73.9861 13.9663 89.1399 13.9663 89.1399H75.1758C75.1758 89.1399 74.0862 73.9861 71.9073 69.8262C68.6388 63.5864 44.571 55.5638 44.571 55.5638C44.571 55.5638 20.5033 63.5864 17.2348 69.8262Z" fill="url(#paint1_linear)"/>
<path d="M45.7578 82.0087C45.7578 81.7736 45.6881 81.5438 45.5575 81.3484C45.4269 81.1529 45.2413 81.0006 45.0241 80.9106C44.8069 80.8207 44.568 80.7971 44.3374 80.843C44.1069 80.8888 43.8951 81.002 43.7289 81.1683C43.5626 81.3345 43.4494 81.5463 43.4036 81.7768C43.3577 82.0074 43.3813 82.2463 43.4712 82.4635C43.5612 82.6807 43.7135 82.8663 43.909 82.9969C44.1044 83.1275 44.3342 83.1972 44.5693 83.1972C44.8845 83.1972 45.1868 83.072 45.4097 82.8491C45.6326 82.6262 45.7578 82.3239 45.7578 82.0087ZM45.7578 76.066C45.7578 75.8309 45.6881 75.6012 45.5575 75.4057C45.4269 75.2102 45.2413 75.0579 45.0241 74.968C44.8069 74.878 44.568 74.8545 44.3374 74.9003C44.1069 74.9462 43.8951 75.0594 43.7289 75.2256C43.5626 75.3918 43.4494 75.6036 43.4036 75.8341C43.3577 76.0647 43.3813 76.3037 43.4712 76.5208C43.5612 76.738 43.7135 76.9236 43.909 77.0542C44.1044 77.1848 44.3342 77.2545 44.5693 77.2545C44.8845 77.2545 45.1868 77.1293 45.4097 76.9064C45.6326 76.6835 45.7578 76.3812 45.7578 76.066ZM45.7578 70.1233C45.7578 69.8883 45.6881 69.6585 45.5575 69.463C45.4269 69.2676 45.2413 69.1152 45.0241 69.0253C44.8069 68.9353 44.568 68.9118 44.3374 68.9577C44.1069 69.0035 43.8951 69.1167 43.7289 69.2829C43.5626 69.4491 43.4494 69.6609 43.4036 69.8915C43.3577 70.122 43.3813 70.361 43.4712 70.5782C43.5612 70.7954 43.7135 70.981 43.909 71.1116C44.1044 71.2422 44.3342 71.3119 44.5693 71.3119C44.8845 71.3119 45.1868 71.1867 45.4097 70.9638C45.6326 70.7409 45.7578 70.4386 45.7578 70.1233Z" fill="white"/>
<path d="M19.1739 52.1204L67.4453 46.2868C69.8251 33.6531 67.0023 25.6932 58.977 22.4071C55.2669 10.2511 40.8272 11.2399 36.7341 12.2309C22.8059 15.6035 16.9525 28.9 19.1739 52.1204Z" fill="url(#paint2_linear)"/>
<path d="M51.7012 59.1294V41.3014C59.1358 41.1903 57.6858 28.3072 50.2156 32.2389C48.8785 32.8331 45.4614 31.1989 46.65 27.1876C38.6274 33.1303 27.448 22.7009 26.742 29.119C25.3529 41.7504 28.0408 52.1326 35.1681 52.1331C35.9276 52.1621 36.6881 52.1169 37.4388 51.9982V59.1294C39.7654 60.5161 42.0919 61.2094 44.4185 61.2094C46.745 61.2094 49.1726 60.5161 51.7012 59.1294Z" fill="#FFDBC9"/>
<path d="M37.4402 51.9982V54.3753C41.8972 54.3753 45.3637 52.2458 47.8398 47.9869C44.8685 49.9678 41.402 51.3049 37.4402 51.9982Z" fill="#FFBC9E"/>
<path d="M44.5821 60.9048C42.5494 60.8077 37.4411 59.7558 37.4411 57.4833V55.5638C36.8961 55.5638 35.3359 56.851 34.5333 57.9409C31.3611 62.2493 34.8798 66.1121 37.7495 66.1121C41.3703 66.1121 43.77 63.0867 44.5723 61.6313C45.3745 63.0873 47.7742 66.1121 51.395 66.1121C54.2647 66.1121 57.7834 62.2493 54.6112 57.9409C53.8086 56.851 52.2484 55.5638 51.7035 55.5638V57.4833C51.7035 59.7558 46.7294 60.8077 44.5821 60.9048Z" fill="white"/>
</g>
<defs>
<linearGradient id="paint1_linear" x1="44.571" y1="55.5638" x2="44.571" y2="89.1399" gradientUnits="userSpaceOnUse">
<stop stop-color="#1D0024"/>
<stop offset="1" stop-color="#100014"/>
</linearGradient>
<linearGradient id="paint2_linear" x1="43.4886" y1="52.1204" x2="43.4886" y2="11.6871" gradientUnits="userSpaceOnUse">
<stop stop-color="#E6864E"/>
<stop offset="1" stop-color="#E67240"/>
</linearGradient>
<clipPath id="clip0">
<rect width="89.14" height="89.14" rx="44.57" fill="white"/>
</clipPath>
</defs>
</svg>
