<svg width="528" height="495" viewBox="0 0 528 495" fill="none" xmlns="http://www.w3.org/2000/svg">
<g clip-path="url(#clip0)">
<path d="M436.281 177.572C485.285 177.572 525.01 137.821 525.01 88.7859C525.01 39.7508 485.285 0 436.281 0C387.277 0 347.551 39.7508 347.551 88.7859C347.551 137.821 387.277 177.572 436.281 177.572Z" fill="url(#paint0_linear)"/>
<mask id="mask0" mask-type="alpha" maskUnits="userSpaceOnUse" x="347" y="0" width="179" height="178">
<path d="M436.281 177.572C485.285 177.572 525.01 137.821 525.01 88.7859C525.01 39.7508 485.285 0 436.281 0C387.277 0 347.551 39.7508 347.551 88.7859C347.551 137.821 387.277 177.572 436.281 177.572Z" fill="#E02914"/>
</mask>
<g mask="url(#mask0)">
</g>
<path d="M50.9314 444.036H0V495H50.9314V444.036Z" fill="url(#paint1_linear)"/>
<path d="M116.811 426.301L79.6539 434.527C73.6746 435.81 69.9374 441.793 71.2187 447.776L79.4404 484.957C80.7217 490.94 86.7011 494.679 92.6804 493.397L129.838 485.171C135.817 483.888 139.554 477.905 138.273 471.922L130.052 434.741C128.663 428.758 122.791 424.912 116.811 426.301Z" fill="url(#paint2_linear)"/>
<path d="M186.535 392.966L163.899 403.223C151.3 408.885 145.747 423.736 151.513 436.344L161.763 458.887C167.423 471.495 182.264 477.051 194.864 471.281L217.5 461.024C230.099 455.362 235.651 440.511 229.886 427.903L219.635 405.359C213.869 392.752 199.028 387.196 186.535 392.966Z" fill="url(#paint3_linear)"/>
<path d="M257.22 337.835L245.688 347.985C228.177 363.37 226.575 390.081 241.951 407.496L252.094 419.035C267.47 436.557 294.164 438.16 311.568 422.775L323.099 412.625C340.611 397.239 342.212 370.529 326.837 353.113L316.693 341.575C301.317 324.159 274.624 322.45 257.22 337.835Z" fill="url(#paint4_linear)"/>
<path d="M323.527 226.078L311.248 247.446C297.047 272.02 305.482 303.432 330.04 317.642L351.395 329.929C375.953 344.139 407.345 335.698 421.546 311.124L433.825 289.756C448.026 265.182 439.591 233.771 415.033 219.561L393.678 207.274C369.12 193.064 337.621 201.504 323.527 226.078Z" fill="url(#paint5_linear)"/>
<path d="M219.529 302.577C219.529 302.577 220.063 304.714 220.703 305.782C220.917 306.103 221.451 306.53 221.451 306.744C221.451 306.958 221.237 306.958 221.237 307.171C221.237 307.706 221.878 309.522 221.771 309.949C221.664 310.377 219.315 310.483 219.102 311.125C218.675 312.407 218.461 316.467 218.461 316.467L218.248 316.68L214.938 313.261L216.112 305.782L219.529 302.577Z" fill="#0E1319"/>
<path d="M209.492 339.758C209.492 339.758 209.919 339.117 210.987 336.232C212.162 333.348 211.307 330.997 211.307 327.044C211.307 320.099 208.211 315.184 209.386 314.33C210.133 313.795 217.5 313.582 217.5 313.582L217.928 314.757C217.928 314.757 219.956 317.214 220.597 318.497C221.344 319.885 221.771 321.488 221.558 322.557C221.238 323.839 220.49 323.839 220.17 324.587C218.675 327.578 218.995 336.446 218.782 337.942C218.675 339.01 218.995 340.185 218.995 340.185L215.472 339.331L209.492 339.758Z" fill="#0E1319"/>
<path d="M213.336 361.127C213.336 361.127 214.724 362.088 215.685 352.793C216.646 343.498 217.286 339.758 217.286 339.758L210.88 338.583C210.88 338.583 210.346 351.831 209.706 356.319C209.065 360.806 209.172 365.293 209.172 365.293L213.336 361.127Z" fill="#0E1319"/>
<path d="M213.336 361.127C213.336 361.127 216.112 360.165 217.073 350.87C218.034 341.575 219.102 340.506 219.102 340.506L210.88 338.476C210.88 338.476 210.346 351.724 209.706 356.212C209.065 360.699 209.172 365.187 209.172 365.187L213.336 361.127Z" fill="#0E1319"/>
<path d="M202.231 390.295C202.231 390.295 201.697 389.44 202.018 388.799C202.124 388.692 205.968 380.572 208.424 374.696C210.56 369.567 214.083 360.165 214.083 360.165C214.083 360.165 212.054 358.028 211.414 358.456C210.026 359.417 207.997 364.332 205.114 374.696C204.367 377.58 200.736 387.837 200.736 387.837L201.484 389.119L202.338 390.829L202.231 390.295Z" fill="#0E1319"/>
<path d="M200.63 387.623L202.445 387.944C203.62 385.273 206.396 379.397 208.318 374.802C210.453 369.674 214.617 358.349 214.617 358.349C214.617 358.349 211.948 358.135 211.307 358.562C209.919 359.524 207.891 364.439 205.008 374.802C204.474 376.939 201.698 384.311 200.63 387.623Z" fill="#0E1319"/>
<path d="M200.63 387.837C200.63 387.837 200.096 387.944 199.989 388.371C199.989 388.585 199.562 388.799 199.562 388.799C199.562 388.799 199.669 389.012 199.776 389.119C199.882 389.333 200.096 389.333 200.096 389.333L200.416 389.119C200.416 389.119 200.416 389.119 200.63 389.44C200.843 389.76 201.911 391.363 202.338 391.363C202.872 391.363 203.726 391.256 203.833 391.149C203.94 390.936 203.833 390.829 203.192 390.508C202.872 390.401 202.338 390.615 202.125 390.081C201.804 389.333 201.591 388.906 201.591 388.906L200.63 387.837Z" fill="#0E1319"/>
<path d="M230.634 366.041C230.634 366.041 230.74 366.148 230.954 365.507C231.061 365.293 233.73 356.746 235.332 350.656C236.72 345.207 239.923 334.95 239.923 334.95C239.923 334.95 237.467 334.096 236.826 334.63C235.545 335.805 233.41 340.292 232.022 350.977C231.701 353.968 229.673 364.652 229.673 364.652L229.459 365.4L230.313 365.828L230.634 366.041Z" fill="#0E1319"/>
<path d="M240.243 333.989C240.243 333.027 238.107 333.027 228.818 334.63C219.635 336.232 212.588 337.301 212.588 337.301L217.927 345.207C217.927 345.207 229.566 340.186 234.05 339.545C238.535 338.903 238.428 339.545 238.428 339.545C238.428 339.545 240.243 334.95 240.243 333.989Z" fill="#0E1319"/>
<path d="M229.459 364.439H231.274C232.022 361.661 233.944 355.357 235.225 350.549C236.613 345.1 240.03 333.882 240.03 333.882C240.03 333.882 237.36 333.989 236.72 334.523C235.438 335.698 233.516 339.865 232.235 350.549C232.022 352.9 229.993 361.02 229.459 364.439Z" fill="#0E1319"/>
<path d="M229.459 365.187C229.459 365.187 229.032 365.507 229.032 365.828C229.032 366.041 228.818 366.362 228.818 366.362C228.818 366.362 228.925 366.469 229.139 366.682C229.352 366.789 229.566 366.789 229.566 366.789L229.993 366.255C229.993 366.255 230.1 366.362 230.527 366.469C230.847 366.575 231.808 367.537 232.235 367.644C232.662 367.751 233.623 367.964 233.73 367.751C233.837 367.537 233.837 367.43 233.196 366.896C232.983 366.682 232.449 366.469 231.808 366.148C231.061 365.828 230.847 365.293 230.847 365.293L229.459 365.187Z" fill="#0E1319"/>
<path d="M210.026 339.224C210.026 339.224 209.385 341.788 211.734 345.741C213.443 348.626 215.151 350.229 215.151 350.229L219.956 341.468C219.956 341.468 220.917 342.75 219.315 340.079C217.714 337.408 218.461 336.019 218.461 336.019L213.443 337.194L210.026 339.224Z" fill="#0E1319"/>
<path d="M219.636 316.68L216.859 313.475L219.208 314.436L219.636 316.68Z" fill="white"/>
<path d="M214.404 318.817C214.404 318.817 230.206 323.518 231.594 323.625C234.477 323.732 235.759 321.488 235.759 321.488L235.332 318.924L230.74 320.313C230.74 320.313 217.073 315.078 216.646 315.184C216.219 315.291 214.938 317.001 213.656 317.749C212.268 318.497 213.656 318.71 214.404 318.817Z" fill="#0E1319"/>
<path d="M236.293 321.168L243.874 317.749L244.301 316.253L235.332 318.924L236.293 321.168Z" fill="#0E1319"/>
<path d="M236.826 321.916L235.011 322.557L235.332 318.924L235.865 318.497L236.826 321.916Z" fill="white"/>
<path d="M245.048 315.932C245.048 315.932 245.795 315.291 246.329 315.078C246.863 314.864 248.144 314.971 248.038 315.185C248.038 315.398 246.543 315.505 246.543 315.505C246.543 315.505 247.183 315.398 247.824 315.505C248.358 315.612 248.892 316.253 249.105 317.001C249.212 317.215 247.824 317.001 247.824 317.001C247.824 317.001 247.717 317.001 247.077 317.108C246.543 317.214 246.329 317.321 245.902 317.428C245.475 317.535 244.728 317.321 244.728 317.321L243.767 317.535V316.253L245.048 315.932Z" fill="#0E1319"/>
<path d="M210.88 312.193C210.88 312.193 203.406 326.937 203.086 328.219C202.445 331.104 204.474 332.707 204.474 332.707L207.036 332.814L206.396 328.112C206.396 328.112 213.977 315.612 213.977 315.185C213.977 314.757 212.482 313.154 212.055 311.766C211.521 310.163 211.094 311.445 210.88 312.193Z" fill="#0E1319"/>
<path d="M204.581 333.348L206.716 341.468L207.997 342.002L207.036 332.707L204.581 333.348Z" fill="#0E1319"/>
<path d="M203.833 333.775L203.513 331.745L207.036 332.707L207.357 333.348L203.833 333.775Z" fill="white"/>
<path d="M208.211 342.857C208.211 342.857 208.745 343.711 208.745 344.246C208.851 344.78 208.531 346.062 208.318 345.955C208.211 345.848 208.211 344.459 208.211 344.459C208.211 344.459 208.211 345.1 207.997 345.741C207.784 346.276 207.036 346.703 206.289 346.703C206.075 346.703 206.502 345.528 206.502 345.528C206.502 345.528 206.502 345.421 206.609 344.78C206.609 344.246 206.502 344.032 206.502 343.604C206.502 343.177 206.716 342.536 206.716 342.536L206.609 341.574L207.89 341.788L208.211 342.857Z" fill="#0E1319"/>
<path d="M219.635 302.257C219.635 302.257 217.927 299.906 214.19 299.906C210.239 300.013 209.385 302.363 209.492 304.714C209.599 308.347 211.093 309.094 208.104 310.804C205.328 312.3 204.046 314.33 204.046 316.68C204.046 316.68 197.853 320.099 200.629 323.625C201.377 324.587 200.202 326.296 202.872 327.044C205.541 327.685 207.89 327.258 208.744 325.869C210.132 323.411 212.375 324.052 213.122 324.159C214.724 324.373 216.325 323.732 216.966 323.091C218.247 321.809 219.315 319.138 217.82 315.825C217.5 315.184 213.976 312.62 216.325 310.697C218.034 309.308 217.713 304.287 217.713 304.287C217.713 304.287 218.247 304.18 219.208 303.432C219.635 303.004 219.635 302.257 219.635 302.257Z" fill="#0E1319"/>
</g>
<defs>
<linearGradient id="paint0_linear" x1="436.281" y1="0" x2="436.281" y2="177.572" gradientUnits="userSpaceOnUse">
<stop stop-color="#6EF0F1"/>
<stop offset="1" stop-color="#6EF0F2" stop-opacity="0"/>
</linearGradient>
<linearGradient id="paint1_linear" x1="45.2308" y1="535.634" x2="-0.0352766" y2="433.602" gradientUnits="userSpaceOnUse">
<stop stop-color="#6EF0F1"/>
<stop offset="1" stop-color="#6EF0F2" stop-opacity="0"/>
</linearGradient>
<linearGradient id="paint2_linear" x1="153.693" y1="519.935" x2="75.0107" y2="403.186" gradientUnits="userSpaceOnUse">
<stop offset="0.0416667" stop-color="#6D73FF"/>
<stop offset="0.572917" stop-color="#6D73FF" stop-opacity="0.2"/>
<stop offset="0.895833" stop-color="#6D73FF" stop-opacity="0"/>
</linearGradient>
<linearGradient id="paint3_linear" x1="250.785" y1="505.772" x2="154.432" y2="362.551" gradientUnits="userSpaceOnUse">
<stop offset="0.0416667" stop-color="#6D73FF"/>
<stop offset="0.572917" stop-color="#6D73FF" stop-opacity="0.2"/>
<stop offset="0.895833" stop-color="#6D73FF" stop-opacity="0"/>
</linearGradient>
<linearGradient id="paint4_linear" x1="361.175" y1="474.526" x2="237.888" y2="291.441" gradientUnits="userSpaceOnUse">
<stop offset="0.0416667" stop-color="#6D73FF"/>
<stop offset="0.572917" stop-color="#6D73FF" stop-opacity="0.2"/>
<stop offset="0.895833" stop-color="#6D73FF" stop-opacity="0"/>
</linearGradient>
<linearGradient id="paint5_linear" x1="471.341" y1="389.866" x2="312.617" y2="154.237" gradientUnits="userSpaceOnUse">
<stop offset="0.0416667" stop-color="#6D73FF"/>
<stop offset="0.572917" stop-color="#6D73FF" stop-opacity="0.2"/>
<stop offset="0.895833" stop-color="#6D73FF" stop-opacity="0"/>
</linearGradient>
<clipPath id="clip0">
<rect width="528" height="495" fill="white"/>
</clipPath>
</defs>
</svg>
