<svg width="62" height="57" viewBox="0 0 62 57" fill="none" xmlns="http://www.w3.org/2000/svg">
<g opacity="0.6">
<path d="M54.7855 28.7128L50.1571 32.8421C48.8155 31.9317 47.6416 31.1839 45.9647 30.1434V29.9483C46.3336 29.8183 46.5349 29.4281 46.5349 29.0055C46.5349 28.8104 46.5349 28.6153 46.4678 28.3877L45.0927 24.2259H35.601L34.3601 27.7049C36.3054 27.7049 37.4792 27.9975 38.4183 28.3877L39.2568 26.9246L39.827 27.2172L36.7078 32.8746C35.4333 32.1593 33.9911 31.6065 32.3477 31.6065C30.4024 31.6065 28.9602 32.0942 28.2224 32.7445C28.0882 32.8746 27.8535 32.8421 27.9541 32.5494C28.7255 29.9483 30.6708 27.9325 33.6893 27.7699L40.2965 9.98495C39.5587 7.90408 38.7537 7.4814 37.0768 7.4814C35.534 7.4814 34.0247 8.1967 34.0247 10.0175C34.0247 10.8628 34.8967 10.7978 34.8967 11.4156C34.8967 11.6432 34.6955 11.8707 34.3936 11.8707C33.8234 11.8707 33.4545 11.1229 33.4545 9.69233C33.4545 6.44097 36.0035 4.52266 38.7873 4.52266C41.3363 4.52266 42.3089 5.46556 43.1138 6.50599C43.3486 5.5631 44.3548 5.10791 45.0927 4.97785L45.1597 5.10791C44.6902 5.66064 44.4219 6.18086 44.4219 6.89616C44.4219 7.28632 44.6902 8.13168 44.8243 8.4243L51.9682 28.4202L53.2427 29.233L54.3495 28.2251L54.7855 28.7128ZM44.2542 21.6248L40.5984 10.8303L36.6072 21.6248H44.2542Z" fill="white"/>
<path d="M29.2305 26.9899L25.8766 32.9724C24.0655 31.7369 21.1811 30.9891 18.6992 30.9891C13.836 30.9891 10.4821 31.8344 8.73801 32.8748L8.57031 32.6798C10.1131 31.3792 12.6956 29.2658 12.6956 24.4863C12.6956 22.4705 11.8572 20.162 11.2535 18.6664C10.5491 16.9432 10.0125 16.0003 10.0125 13.5942C10.0125 9.36747 12.3603 6.96146 16.0496 5.17321L16.3514 5.49835C15.0769 6.53878 14.4732 7.83933 14.272 9.17239L20.1749 4.36037C21.6842 6.40873 23.0928 7.22157 24.971 7.22157C26.4803 7.22157 26.9163 6.5713 26.9163 6.05108C26.9163 5.66091 26.4132 5.6284 26.4132 5.23824C26.4132 4.88059 26.6815 4.78304 26.8828 4.78304C27.3523 4.78304 27.5871 5.36829 27.5871 5.79097C27.5871 8.68468 25.1052 10.7981 22.4556 10.7981C21.986 10.7981 21.6506 10.8306 21.3488 10.7981V26.6973C23.6295 26.6973 26.0107 27.38 27.7548 28.2254L28.6604 26.6973L29.2305 26.9899ZM20.7451 26.7298V10.733C18.4309 10.4729 17.257 8.84725 16.4856 7.96938L14.272 9.72512C14.272 12.1636 15.0099 14.277 15.8819 16.2279C16.6533 17.9836 17.5253 20.2921 17.5253 21.8852C17.5253 24.5188 16.016 26.1445 12.4609 29.3959L12.5615 29.5259C14.6745 27.9653 17.9278 26.7948 20.7451 26.7298Z" fill="white"/>
<path d="M39.9643 49.7821C39.4277 50.2373 38.3209 51.1802 37.8178 51.6679C37.3483 51.2452 36.3421 50.4974 35.7384 50.0747V50.0097C35.9061 49.9446 36.0402 49.7821 36.0402 49.3919V44.8075C35.5371 44.4498 34.6316 43.8971 34.0949 43.572L33.6925 43.9621V49.6195L34.531 50.2373C34.531 50.2373 33.3571 51.2127 32.854 51.7004C32.3844 51.2777 31.7137 50.7575 31.0764 50.3348V50.2698C31.2441 50.2048 31.3783 50.0422 31.3783 49.652V44.84C30.8752 44.4824 29.9696 43.9296 29.433 43.6045L28.9299 44.0272V49.652L29.7684 50.2698C29.7684 50.2698 28.628 51.1802 28.0914 51.7004C27.5883 51.2452 27.0182 50.855 26.3138 50.3348V50.3023C26.5151 50.2373 26.6157 50.0097 26.6157 49.7496V44.2222L25.9449 43.637L25.4083 44.0922L25.207 43.8646C25.7101 43.4419 26.6492 42.6616 27.3535 41.9788L28.8964 43.3444V43.7345L31.0093 41.9788C31.6801 42.434 33.6589 43.6695 33.6589 43.6695L35.6713 41.9788C36.3085 42.4665 37.8178 43.3769 38.6228 43.8321V43.8971C38.3544 43.9621 38.3209 44.3198 38.3209 44.4824V49.4569L39.1929 50.1072L39.696 49.6845L39.9643 49.7821Z" fill="white"/>
<path d="M25.3066 40.4507C24.77 41.1985 24.3005 41.5236 23.4284 41.5236C22.8247 41.5236 22.4223 41.2635 21.9192 40.7108L21.4161 41.166L21.2148 40.9059L23.3614 39.0526C23.9651 40.2231 24.6694 40.3856 25.2731 40.3856L25.3066 40.4507Z" fill="white"/>
<path d="M25.8445 49.7825C25.2408 50.2702 24.2346 51.148 23.698 51.6682C23.1949 51.2131 22.3228 50.5953 21.6185 50.0751V50.01C21.8198 49.945 21.9204 49.7174 21.9204 49.4573V44.1576L21.2496 43.5723L20.713 44.0275L20.5117 43.7999C21.0148 43.3773 21.9539 42.5969 22.6582 41.9142L24.5029 43.5073V43.5723C24.2681 43.6374 24.201 43.7674 24.201 44.2551V49.3923L25.1066 50.01L25.6097 49.5874L25.8445 49.7825Z" fill="white"/>
<path d="M54.1854 49.2941C52.8438 49.8468 50.932 50.8873 49.9929 51.6676C49.5234 51.2124 48.8861 50.8223 48.0477 50.8223C47.2763 50.8223 46.9073 51.0824 46.9073 51.3425C46.9073 51.505 47.2427 51.4725 47.2427 51.7001C47.2427 51.7977 47.1756 51.9277 47.0079 51.9277C46.8067 51.9277 46.6055 51.6676 46.6055 51.3425C46.6055 50.7572 46.9073 50.237 47.88 49.2616L49.5905 47.5384C48.8861 47.1807 47.88 46.7581 47.2763 46.4979V46.4329C47.444 46.4004 47.5781 46.2053 47.5781 46.0428V44.6122C47.5781 44.4496 47.511 44.222 47.2763 44.157V44.0919C48.7184 43.6042 50.5296 42.5963 51.6028 41.881C51.8376 42.1411 52.4413 42.6613 53.1121 42.6613C53.6823 42.6613 53.7829 42.4012 53.7829 42.2061C53.7829 42.1086 53.5817 42.0436 53.5817 41.881C53.5817 41.751 53.6487 41.6859 53.7829 41.6859C53.9506 41.6859 54.0847 41.8485 54.0847 42.1411C54.0847 43.019 53.2127 44.222 51.8376 44.222C50.932 44.222 50.3619 43.7668 49.9594 43.1816L49.9259 43.2141V45.425L51.1668 46.0102L51.737 45.425C52.3407 45.7826 53.5817 46.4329 54.2189 46.693V46.7581C54.0847 46.8231 53.9171 46.9531 53.9171 47.2132V48.7739C53.9171 49.0015 54.1183 49.1315 54.2189 49.1966L54.1854 49.2941ZM51.6028 50.302V47.6359C51.2674 47.4734 50.7979 47.2783 50.4625 47.1157L47.8129 49.7493L47.88 49.7818C48.2824 49.5867 48.6178 49.2941 49.4563 49.2941C50.2948 49.2941 51.1333 49.8794 51.5358 50.302H51.6028Z" fill="white"/>
<path d="M46.9416 44.9054L42.8833 47.3439V49.0021C43.3864 49.2297 44.5267 49.7499 45.0969 50.1076L45.9689 49.2297C46.2037 49.0021 46.1366 48.612 46.5391 48.612C46.6733 48.612 46.7403 48.677 46.7403 48.8071C46.7403 48.9371 46.6397 49.0021 46.5726 49.0672L43.923 51.6357C43.0175 51.083 41.1728 50.2702 40.3008 49.88V49.815C40.4349 49.7499 40.6362 49.6524 40.6362 49.2948V44.6778C40.6362 44.2877 40.4685 44.1576 40.3008 44.1576V44.0926C41.6759 43.6699 43.7553 42.5969 44.728 41.9142C45.3988 42.8896 46.3043 44.1251 46.9416 44.9054ZM44.795 45.8483C44.3255 45.198 43.4535 44.0275 42.9504 43.2797L42.8833 43.3122V47.0513L44.795 45.8483Z" fill="white"/>
<path d="M20.914 39.1502C20.914 40.4833 19.9078 41.1661 18.8346 41.3611V49.6846C20.2097 48.9368 20.5115 48.124 20.5115 47.7338C20.5115 47.6363 20.3438 47.5387 20.3438 47.3762C20.3438 47.2461 20.478 47.1486 20.5786 47.1486C20.7463 47.1486 20.8134 47.2786 20.8134 47.5387C20.8134 49.4896 18.9016 52.0907 14.8434 52.0907C11.7913 52.0907 9.20878 49.7822 9.20878 46.7909C9.20878 42.5316 12.8981 41.036 15.4806 40.8734C14.5415 40.6784 13.0323 40.3532 11.7913 40.3532C10.3491 40.3532 9.1417 41.1986 9.1417 41.9464C9.1417 42.239 9.37647 42.2715 9.37647 42.4991C9.37647 42.5967 9.30939 42.7267 9.17524 42.7267C8.94046 42.7267 8.83984 42.4991 8.83984 42.304C8.83984 40.6784 9.9131 38.3699 12.4621 38.3699C15.0111 38.3699 16.9564 39.2803 18.9352 39.2803C20.2432 39.2803 20.6457 38.8251 20.6121 38.0773L20.8134 38.1748C20.8134 38.2724 20.914 38.6625 20.914 39.1502ZM18.5327 49.7822V41.3937C18.4321 41.3937 18.2644 41.3937 18.1638 41.3937C17.5601 41.3937 16.5539 41.1661 15.8831 41.0035C13.9043 41.3611 11.5901 42.9868 11.5901 46.0431C11.5901 48.6442 13.5018 50.3349 16.252 50.3349C17.1576 50.3024 17.9625 50.1398 18.5327 49.7822Z" fill="white"/>
<path d="M17.7936 42.1415C17.7936 42.2391 17.6594 42.3366 17.5588 42.3366C17.4246 42.3366 17.2905 42.0765 16.888 42.0765C16.2843 42.0765 15.7812 42.5642 15.7812 43.1494C15.7812 44.6776 17.324 45.3279 17.324 47.0836C17.324 48.5467 15.8483 49.4246 14.3055 49.5871L14.0036 49.3921C14.8421 49.2945 15.2446 49.0019 15.2446 48.0265C15.2446 46.6934 13.8359 45.588 13.8359 44.0273C13.8359 42.7593 15.0769 41.7514 16.7539 41.7514C17.0893 41.7514 17.4246 41.8489 17.5923 41.9464C17.693 41.9464 17.7936 42.044 17.7936 42.1415Z" fill="white"/>
</g>
</svg>
