<svg width="227" height="42" viewBox="0 0 227 42" fill="none" xmlns="http://www.w3.org/2000/svg">
<g opacity="0.6">
<path d="M189.114 27.3749C188.297 28.0096 186.875 29.2491 186.106 30.0455L183.327 27.5306V27.3749C183.686 27.2701 183.764 26.9288 183.764 26.5186V19.6982C183.119 19.2311 181.81 18.0784 181.089 17.4168L180.189 18.2222V26.5216L180.884 27.1443C181.017 27.2641 181.181 27.4318 181.424 27.4318C181.721 27.4318 181.926 27.324 182.223 27.0695L182.505 27.3809C181.748 27.9348 180.343 29.1174 179.47 30.0515L176.691 27.5096V27.3809C176.974 27.2761 177.128 27.0905 177.128 26.6533V19.7222C176.46 19.2042 175.064 17.9916 174.453 17.4138L173.553 18.1922V26.5186L174.197 27.0905C174.42 27.2881 174.581 27.4288 174.815 27.4288C175.097 27.4288 175.278 27.3779 175.587 27.0665L175.869 27.3779C174.975 28.0815 173.72 29.1982 172.835 30.0485L170.056 27.5575V27.4018C170.365 27.324 170.492 27.0635 170.492 26.5964V18.3479L169.771 17.7761C169.59 17.6323 169.42 17.5425 169.257 17.5425C169.031 17.5425 168.782 17.6593 168.485 17.9317L168.203 17.5695C169.026 17.0066 170.338 15.806 171.264 14.9228L173.708 17.2311L176.332 14.9228C177.558 15.9527 179.007 17.1533 179.856 17.6713L182.968 14.9228C184.126 15.8838 186.26 17.5934 187.341 18.2431V18.3719C187.032 18.4767 186.828 18.7102 186.828 19.1773V26.4916L187.395 27.0366C187.591 27.2252 187.816 27.4258 188.063 27.4258C188.371 27.4258 188.609 27.2611 188.861 27.0366L189.114 27.3749Z" fill="white"/>
<path d="M168.59 11.3715L167.559 12.3056C166.725 13.0631 166.057 13.3955 165.425 13.3955C164.935 13.3955 164.466 13.1649 163.958 12.7218C163.78 12.5661 163.611 12.4104 163.367 12.4104C163.088 12.4104 162.856 12.5362 162.622 12.7727L162.34 12.4613L165.401 9.79067L166.945 11.1649C167.123 11.3236 167.366 11.4254 167.589 11.4254C167.853 11.4254 168.132 11.2697 168.31 11.0631L168.59 11.3715Z" fill="white"/>
<path d="M169.205 27.3744C168.421 28.0181 166.925 29.3205 166.171 30.072L163.368 27.557V27.4013C163.665 27.3205 163.804 27.0391 163.804 26.6738V18.3205L163.16 17.8025C162.976 17.6528 162.863 17.542 162.62 17.542C162.341 17.542 162.059 17.6678 161.821 17.9043L161.539 17.566C162.305 17.0091 163.706 15.8294 164.6 14.8953L167.379 17.3085V17.4372C167.141 17.53 166.865 17.7217 166.865 18.1887V26.5151L167.584 27.1648C167.762 27.3235 167.982 27.4253 168.201 27.4253C168.466 27.4253 168.691 27.2965 168.923 27.063L169.205 27.3744Z" fill="white"/>
<path d="M115.393 27.3745C114.639 27.9463 113.314 29.108 112.358 30.0721L109.58 27.5302V27.3745C109.823 27.2906 109.992 27.0062 109.992 26.5691V13.2906L109.247 12.7187C109.084 12.593 108.926 12.4852 108.784 12.4852C108.46 12.4852 108.229 12.7068 108.012 12.9253L107.703 12.587C108.629 11.8864 109.965 10.7187 110.791 9.86245L113.57 12.2756V12.3804C113.3 12.4613 113.056 12.8505 113.056 13.2876V26.5182L113.801 27.1918C113.983 27.3565 114.205 27.4254 114.419 27.4254C114.648 27.4254 114.924 27.2547 115.114 27.0631L115.393 27.3745Z" fill="white"/>
<path d="M85.2703 27.3749C84.4479 27.9797 82.9456 29.2881 82.236 30.0456L79.4571 27.5545V27.3988C79.7213 27.309 79.8935 27.0665 79.8935 26.4647V19.7222C79.2047 19.1922 77.8954 18.0635 77.2185 17.4138L76.3189 18.1922V26.5186L77.1413 27.2461C77.4649 27.5306 77.9696 27.4707 78.3764 27.0905L78.6347 27.3749C77.7826 28.0096 76.4109 29.2342 75.6004 30.0456L72.8214 27.5545V27.3988C73.1064 27.2821 73.2578 27.0306 73.2578 26.6204V18.324L72.5126 17.779C72.3434 17.6563 72.2306 17.5455 72.0762 17.5455C71.7229 17.5455 71.4913 17.7311 71.2775 17.9078L70.9688 17.5695C71.7021 17.0455 72.9372 15.9856 74.0298 14.9228L76.4732 17.2311L79.0978 14.9228C80.0182 15.7251 82.3192 17.5006 83.4711 18.2701V18.3988C83.0644 18.5066 82.9575 18.812 82.9575 18.9946V26.5156L83.8333 27.321C83.9818 27.4587 84.4776 27.5276 84.9912 27.0366L85.2703 27.3749Z" fill="white"/>
<path d="M209.823 26.312C207.926 27.2312 205.503 28.7941 204.113 30.0486C203.312 29.3929 202.261 28.7252 201.026 28.7252C199.868 28.7252 199.508 29.1324 199.508 29.5306C199.508 29.7761 199.868 29.7462 199.868 30.1025C199.868 30.2671 199.698 30.4647 199.482 30.4647C199.212 30.4647 198.941 30.1773 198.941 29.6863C198.941 28.9228 199.393 27.9049 200.794 26.339L203.187 23.6683L200.126 22.0845V21.9288C200.372 21.8569 200.462 21.6533 200.462 21.3569V19.0485C200.462 18.806 200.316 18.5605 200.126 18.4527V18.2701C202.1 17.2851 204.378 16.0066 205.681 14.8988C206.028 15.2881 206.993 15.833 207.97 15.833C208.792 15.833 208.896 15.5785 208.896 15.2881C208.896 15.1234 208.769 15.0815 208.769 14.9497C208.769 14.7312 208.89 14.6384 209.051 14.6384C209.294 14.6384 209.487 14.821 209.487 15.2881C209.487 16.5156 208.329 18.0366 206.426 18.0366C205.072 18.0366 204.241 17.6024 203.674 16.9198L203.546 16.9976V20.3959L205.423 21.303L206.221 20.4977L209.823 22.339V22.4947C209.633 22.5755 209.514 22.7641 209.514 22.9887V25.6084C209.514 25.9558 209.659 26.0635 209.823 26.1534V26.312ZM206.426 27.6623V23.7971L204.651 22.9677L200.922 26.9617L200.972 26.9887C201.569 26.6623 202.454 26.4947 203.674 26.4947C204.621 26.4947 205.779 27.0336 206.376 27.6893L206.426 27.6623Z" fill="white"/>
<path d="M199.277 19.8267L193.283 23.6411V26.0273C194.034 26.2878 195.64 27.1321 196.421 27.5842L197.938 26.1321C198.015 25.692 198.173 25.2489 198.633 25.2489C198.849 25.2489 198.968 25.4345 198.968 25.6111C198.968 25.8297 198.844 25.9974 198.737 26.1051L194.826 30.0213C193.689 29.2908 191.136 27.9554 189.812 27.3746V27.2189C190.07 27.1141 190.198 26.8447 190.198 26.5453V19.0752C190.198 18.7488 190.035 18.4494 189.785 18.4015V18.2458C191.525 17.4135 193.853 16.0662 195.676 14.9255C196.733 16.5063 198.276 18.6201 199.277 19.8267ZM196.37 20.9943C195.545 19.9584 194.123 18.0602 193.336 16.8446L193.286 16.8716V22.9944L196.37 20.9943Z" fill="white"/>
<path d="M162.005 10.4616C162.005 12.5095 160.645 13.4946 158.97 13.755V26.7521C159.912 26.0665 160.66 25.1443 161.055 24.1832C161.09 24.0934 161.105 24.0096 161.105 23.9497C161.105 23.812 160.975 23.7251 160.977 23.5605C160.977 23.3808 161.016 23.1712 161.26 23.1712C161.476 23.1712 161.619 23.3419 161.619 23.5605C161.619 26.6683 159.377 30.6413 153.077 30.6413C148.573 30.6413 144.871 27.2132 144.871 22.4437C144.871 16.0724 150.12 13.8239 153.668 13.0275C152.48 12.8269 150.818 12.5335 149.271 12.5335C146.308 12.5335 145.376 13.9497 145.129 14.9706L144.82 14.8149C144.874 13.3718 146.133 9.4197 149.989 9.4197C153.766 9.4197 156.18 11.0005 159.122 11.0005C161.064 11.0005 161.414 10.1173 161.592 9.21012L161.928 9.33886C161.951 9.46761 162.005 10.2161 162.005 10.4616ZM158.481 27.0904V13.8089C158.329 13.8209 158.172 13.8359 158.017 13.8359C157.397 13.8359 156.815 13.7071 156.088 13.5754C155.155 14.0275 154.312 15.0125 154.312 16.5335C154.312 19.3928 155.906 20.0664 155.906 22.9676C155.906 25.2491 154.006 26.9227 152.459 27.6892C153.297 28.0036 154.229 28.1293 155.188 28.1293C156.272 28.1293 157.756 27.5934 158.481 27.0904ZM155.366 13.4197L154.852 13.3149C151.723 13.9018 148.113 16.6952 148.113 21.306C148.113 24.3389 149.71 26.4317 151.97 27.4796C152.641 27.0036 153.386 26.1413 153.386 24.6263C153.386 21.9317 151.664 20.4646 151.664 18.0125C151.664 16.1742 152.851 14.5395 155.366 13.4197Z" fill="white"/>
<path d="M135.612 26.312C133.715 27.2312 131.292 28.7941 129.902 30.0486C129.101 29.3929 128.05 28.7252 126.815 28.7252C125.657 28.7252 125.298 29.1324 125.298 29.5306C125.298 29.7761 125.657 29.7462 125.657 30.1025C125.657 30.2671 125.488 30.4647 125.271 30.4647C125.001 30.4647 124.73 30.1773 124.73 29.6863C124.73 28.9228 125.182 27.9049 126.583 26.339L128.976 23.6683L125.915 22.0845V21.9018C126.162 21.83 126.248 21.6504 126.248 21.3569V19.0485C126.248 18.7372 126.144 18.5545 125.915 18.4527V18.2701C127.889 17.2851 130.167 16.0066 131.47 14.8988C131.817 15.2881 132.782 15.833 133.759 15.833C134.582 15.833 134.685 15.5785 134.685 15.2881C134.685 15.1234 134.558 15.0575 134.558 14.9497C134.558 14.7312 134.68 14.6384 134.84 14.6384C135.083 14.6384 135.276 14.821 135.276 15.2881C135.276 16.5156 134.092 18.0366 132.215 18.0366C130.861 18.0366 130.03 17.6024 129.463 16.9198L129.335 16.9976V20.3959L131.212 21.303L132.01 20.4977L135.612 22.339V22.5216C135.422 22.6024 135.303 22.7911 135.303 23.0156V25.5845C135.303 25.9318 135.431 26.0785 135.612 26.1294V26.312ZM132.215 27.6623V23.7971L130.44 22.9677L126.711 26.9617L126.761 26.9887C127.358 26.6623 128.243 26.4947 129.463 26.4947C130.41 26.4947 131.568 27.0336 132.165 27.6893L132.215 27.6623Z" fill="white"/>
<path d="M125.246 19.8267L119.251 23.6411V26.0273C120.003 26.2878 121.609 27.1321 122.39 27.5842L123.907 26.1321C124.011 25.692 124.141 25.2489 124.601 25.2489C124.818 25.2489 124.937 25.4345 124.937 25.6111C124.937 25.8297 124.836 25.9974 124.732 26.1051L120.798 30.0213C119.661 29.2908 117.108 27.9554 115.781 27.3746V27.2189C115.997 27.1381 116.167 26.8447 116.167 26.5453V19.0752C116.167 18.7488 116.003 18.4494 115.754 18.4015V18.2458C117.494 17.4135 119.821 16.0662 121.644 14.9255C122.701 16.5063 124.245 18.6201 125.246 19.8267ZM122.339 20.9943C121.514 19.9584 120.092 18.0602 119.305 16.8446L119.254 16.8716V22.9944L122.339 20.9943Z" fill="white"/>
<path d="M108.239 19.8267L102.221 23.6411V26.0273C102.972 26.2878 104.575 27.1321 105.359 27.5842L106.876 26.1321C106.98 25.665 107.108 25.2488 107.598 25.2488C107.815 25.2488 107.907 25.4345 107.907 25.6111C107.907 25.8297 107.806 25.9974 107.702 26.1051L103.768 30.0483C102.631 29.3147 100.077 27.9554 98.7533 27.3776V27.2219C98.97 27.1411 99.1392 26.8477 99.1392 26.5483V19.0752C99.1392 18.7488 98.976 18.4494 98.7266 18.4015V18.2458C100.466 17.4135 102.821 16.0662 104.644 14.9255C105.695 16.5063 107.239 18.6201 108.239 19.8267ZM105.306 20.9943C104.48 19.9584 103.058 18.0602 102.272 16.8446L102.221 16.8716V22.9943L105.306 20.9943Z" fill="white"/>
<path d="M97.6431 28.9586C97.5629 32.2071 96.0725 34.5873 93.0649 34.5873C90.7105 34.5873 89.2349 33.3418 87.0972 33.3418C85.8532 33.3418 85.1585 33.761 84.8081 34.1981L84.4727 33.9137C84.9328 31.6741 86.4262 30.255 88.5372 30.255C90.8649 30.255 92.3226 31.758 94.7869 31.758C95.924 31.758 96.598 31.2041 96.9216 30.3568L96.8949 30.3059C96.5326 30.4346 96.1526 30.4885 95.7904 30.4885C94.5226 30.4885 93.3707 29.6173 93.1421 28.1532C92.5364 28.5783 91.3191 29.5214 90.7253 30.0484C89.2379 29.0813 86.9518 27.8478 85.7879 27.3238V27.1681C86.0314 27.0843 86.2006 26.8448 86.2006 26.5454V19.1262C86.2006 18.6891 86.0343 18.4555 85.7374 18.4017V18.2729C87.8157 17.4675 90.1226 16.0663 91.6279 14.9016C92.9253 15.9376 95.0749 17.4436 96.4644 18.249V18.3777C96.2744 18.4585 96.1051 18.6681 96.1051 19.1052V27.249C96.1051 28.264 96.3545 28.8059 97.0819 28.8059C97.1977 28.8059 97.3283 28.8149 97.4679 28.7789L97.6431 28.9586ZM93.0382 27.6352V19.6981C92.2306 19.1621 90.3512 17.7909 89.3863 17.0274L89.2586 17.1322V25.8987C90.2889 26.4047 92.094 27.5065 92.6552 27.9226L93.0382 27.6352Z" fill="white"/>
<path d="M72.1517 27.608C71.2847 29.1081 70.3881 30.2278 69.0907 30.2278C68.0634 30.2278 67.336 29.635 66.956 28.5152L65.2577 23.5362H58.6725L57.7195 26.3116C58.7735 26.3925 59.7384 27.0392 60.0086 27.0392C60.3055 27.0392 60.5578 26.8057 60.8844 26.2607L61.2971 26.5212L59.1119 30.0482C58.5152 29.5302 57.5799 28.9853 56.333 28.9853C54.6258 28.9853 53.5688 29.4464 52.7821 30.0482L52.5 29.9434C52.88 28.0901 54.4001 26.4763 57.0544 26.2877L61.6326 12.7457L61.4752 12.2787C61.1605 11.3206 60.5311 10.7996 59.8542 10.7996C59.1505 10.7996 58.7853 11.126 58.5419 11.3715L58.337 11.1888C58.527 10.123 59.4979 8.95829 60.9854 8.95829C62.2294 8.95829 63.0725 9.57207 63.5327 10.3056H63.5832C63.7999 9.73375 64.2037 9.26967 64.6372 9.21578L64.7144 9.34452C64.5541 9.47027 64.3551 9.98225 64.3551 10.5391C64.3551 10.8176 64.4175 11.096 64.5095 11.3685L69.9101 27.4763C70.0378 27.8566 70.305 28.0482 70.6049 28.0482C71.0383 28.0482 71.3085 27.7877 71.6588 27.2697L72.1517 27.608ZM64.6134 21.5661L61.9889 13.7847H61.9384L59.3138 21.5661H64.6134Z" fill="white"/>
<path d="M46.5844 26.312C44.6873 27.2312 42.2646 28.7941 40.8751 30.0486C40.0735 29.3929 39.0224 28.7252 37.7873 28.7252C36.6294 28.7252 36.2702 29.1324 36.2702 29.5306C36.2702 29.7761 36.6294 29.7462 36.6294 30.1025C36.6294 30.2671 36.4602 30.4647 36.2435 30.4647C35.9733 30.4647 35.7031 30.1773 35.7031 29.6863C35.7031 28.9228 36.1544 27.9049 37.5558 26.339L39.9488 23.6683L36.8877 22.0845V21.9018C37.1342 21.83 37.2232 21.6504 37.2232 21.3569V19.0485C37.2232 18.806 37.0778 18.5605 36.8877 18.4527V18.2701C38.8621 17.2851 41.1393 16.0066 42.4427 14.8988C42.7901 15.2881 43.755 15.833 44.7318 15.833C45.5542 15.833 45.6581 15.5785 45.6581 15.2881C45.6581 15.1234 45.5305 15.0575 45.5305 14.9497C45.5305 14.7312 45.6522 14.6384 45.8125 14.6384C46.056 14.6384 46.2489 14.821 46.2489 15.2881C46.2489 16.5156 45.2454 18.0366 43.1879 18.0366C41.8341 18.0366 41.0057 17.6024 40.4357 16.9198L40.308 16.9976V20.3959L42.1844 21.303L42.9831 20.4977L46.5844 22.339V22.5456C46.3944 22.6264 46.2757 22.815 46.2757 23.0396V25.5815C46.2757 25.9288 46.4241 26.0366 46.5844 26.1264V26.312ZM43.1879 27.6623V23.7971L41.4125 22.9677L37.6834 26.9617L37.7339 26.9887C38.3307 26.6623 39.2184 26.4947 40.4357 26.4947C41.3828 26.4947 42.5407 27.0336 43.1375 27.6893L43.1879 27.6623Z" fill="white"/>
<path d="M35.2026 26.6738C33.5043 27.3744 30.7016 28.9822 29.3626 30.0451C27.8454 29.0331 25.8384 27.5031 24.4489 26.6977V26.5151C24.7577 26.4103 24.8349 26.1259 24.8349 25.7367V19.3295C24.8349 18.7336 24.725 18.4941 24.3984 18.4223V18.2666C26.4055 17.4612 28.4363 16.3205 30.2384 14.8953C31.4973 15.9073 33.7893 17.4103 35.1016 18.2426V18.3983C34.8314 18.5061 34.7661 18.7456 34.7661 19.072V25.8415C34.7661 26.2037 34.9858 26.4343 35.2026 26.5151V26.6738ZM31.6784 27.8954V19.5151C30.5977 18.8654 28.9529 17.7247 28.077 17.0241L27.9226 17.1288V25.4552C29.0805 26.1049 30.5977 27.2187 31.5745 27.9702L31.6784 27.8954Z" fill="white"/>
<path d="M23.9873 25.2729L21.5172 30.0453C20.5701 29.225 19.1657 28.6441 17.325 28.6441C14.5638 28.6441 11.1228 29.3657 10.1489 29.9944L9.81641 29.6322C10.9001 28.6771 12.0283 26.198 12.0283 23.2519C12.0283 20.1112 10.2528 18.6321 10.2528 15.5213C10.2528 12.3267 11.6661 10.5542 14.2907 9.21892L14.5994 9.50335C13.6612 10.2908 13.1743 11.2369 13.0823 12.4075L17.61 8.64706C18.4502 9.46742 19.7862 10.3836 21.0035 10.3836C21.9239 10.3836 22.393 10.195 22.393 9.78778C22.393 9.56922 22.2119 9.50335 22.2119 9.37161C22.2119 9.15305 22.3693 9.06023 22.5474 9.06023C22.7909 9.06023 22.9601 9.35365 22.9601 9.68299C22.9601 11.4046 21.2114 12.8477 19.4122 12.8477C18.8154 12.8477 18.3107 12.7968 17.8683 12.665V25.686C18.1444 25.6591 18.376 25.6351 18.563 25.6351C20.2702 25.6351 21.7844 26.3627 22.1881 26.3627C22.7849 26.3627 22.9987 25.9345 23.4737 25.0124L23.9873 25.2729ZM17.3784 25.7399V12.4614C16.6985 12.1561 16.1433 11.695 15.5762 11.0363L13.0556 13.0842C13.0556 16.9076 15.0359 18.6351 15.0359 21.7219C15.0359 23.8806 13.5247 26.1262 12.3608 27.2729L12.4647 27.2998C14.0056 26.4106 16.0008 25.9345 17.3784 25.7399Z" fill="white"/>
</g>
</svg>
