<svg
  width="730"
  height="783"
  viewBox="0 0 730 783"
  fill="none"
  xmlns="http://www.w3.org/2000/svg"
>
  <g clip-path="url(#clip0)">
    <path
      d="M181.066 460.106L181.046 457.587C180.945 447.065 179.895 436.382 168.004 412.092C156.033 387.662 147.977 380.507 140.871 374.197L139.721 373.19V373.028C106.006 343.498 86.4439 301.008 85.9998 256.279C85.1519 169.544 155.164 98.2891 242.075 97.4224C242.579 97.4224 243.104 97.4224 243.609 97.4224C329.812 97.4224 400.35 167.004 401.198 253.236C401.622 297.984 382.907 340.838 349.758 371.013V371.174L348.648 372.202C341.663 378.652 333.749 385.969 322.262 410.621C310.835 435.132 309.988 443.981 310.089 454.503L306.434 455.692L181.066 460.106Z"
      fill="url(#paint0_linear)"
    />
    <path
      fill-rule="evenodd"
      clip-rule="evenodd"
      d="M471.249 581.108L471.108 579.818C471.108 579.818 473.49 573.59 471.189 568.268C471.189 568.268 468.221 566.031 465.375 566.515C460.529 567.341 460.873 572.421 460.873 572.421C460.873 572.421 461.559 574.094 461.64 574.9C461.862 577.339 463.376 579.859 463.578 580.161C463.941 580.705 464.123 580.887 464.607 581.189C464.89 581.37 465.132 581.149 465.132 581.149L465.553 583.089L465.477 583.7C464.938 583.781 463.8 584.069 462.658 585.092C462.649 585.094 462.639 585.096 462.629 585.099C461.297 585.543 459.682 588.446 459.682 588.446C459.682 588.446 457.945 606.163 458.188 610.034C458.39 613.138 457.703 627.59 457.703 627.59L458.427 627.566L458.427 627.579L458.065 627.59L457.984 628.316L458.408 628.309C458.39 630.364 458.496 635.709 459.179 635.593C460.027 635.452 459.825 634.706 459.825 634.706C459.825 634.706 460.067 634.625 460.249 634.424C460.43 634.222 460.35 633.779 460.35 633.779C460.35 633.779 460.471 633.516 460.612 633.073C460.774 632.63 460.451 630.896 460.451 630.896C460.451 630.896 460.834 632.69 461.137 632.368C461.44 632.045 461.016 629.304 461.016 629.304L460.718 628.273L461.8 628.256L461.719 627.469L460.497 627.51L460.494 627.498L461.983 627.449C461.983 627.449 462.305 625.74 462.651 623.403C462.773 626.739 462.849 629.481 462.73 630.352C462.718 630.443 462.93 630.461 463.313 630.422C463.338 631.385 463.388 632.504 463.476 633.799C463.885 639.819 464.277 653.168 464.336 655.221C464.336 655.298 464.338 655.377 464.343 655.456L464.344 655.488L464.345 655.488C464.535 658.476 465.627 678.224 465.938 683.86L465.859 683.869V685.038C465.859 685.038 462.387 685.642 459.217 687.638C458.531 688.061 458.793 688.928 460.63 689.109C461.622 689.206 464.352 688.542 466.685 687.874C466.492 688.006 466.31 688.136 466.143 688.263C465.477 688.767 467.637 690.319 469.514 690.178C471.008 690.057 475.006 687.9 477.085 686.711C477.61 686.408 478.115 685.28 477.832 684.816C477.703 684.606 477.57 684.403 477.436 684.21L477.77 684.151C477.77 684.151 476.418 659.156 476.478 655.649C476.496 654.59 476.463 653.615 476.394 652.72C476.285 648.792 476.095 643.796 476.095 643.796C475.735 640.381 475.558 634.452 475.471 629.718C475.512 629.613 475.894 628.636 476.453 627.253C477.625 626.933 478.376 626.724 478.376 626.724C478.376 626.724 478.092 625.684 477.715 624.171C478.365 622.615 479.07 620.972 479.707 619.588C480.676 617.481 481.927 613.639 482.893 610.48C483.713 608.465 484.392 605.398 484.392 605.398C484.251 599.733 480.718 589.191 479.809 587.236C478.951 585.429 475.54 583.897 472.318 583.485L472.058 583.095L471.249 581.108ZM477.253 602.068C476.988 604.384 476.693 606.731 476.441 608.724L476.441 608.725C476.162 610.944 475.937 612.726 475.872 613.541C475.817 614.189 475.898 615.16 476.061 616.286C476.484 614.992 476.825 613.912 477.001 613.279C477.453 611.659 478.059 608.822 478.492 606.7C477.976 605.102 477.543 603.424 477.253 602.068ZM470.759 685.536C470.693 685.018 470.478 684.319 470.329 683.87C470.532 682.009 470.916 678.473 471.324 674.655C471.477 679.992 471.589 684.309 471.609 685.107C471.347 685.237 471.061 685.381 470.759 685.536Z"
      fill="url(#paint1_linear)"
    />
    <path
      fill-rule="evenodd"
      clip-rule="evenodd"
      d="M238.161 607.756C238.1 611.848 243.066 619.487 243.066 619.487L243.072 619.487L243.47 620.838L243.47 620.863L243.267 620.838L242.866 622.879L242.849 622.893C239.325 623.727 235.672 625.869 234.97 627.994C234.223 630.251 231.739 642.204 232.285 648.413C232.285 648.413 233.385 651.565 234.518 653.663C235.986 657.015 237.879 661.129 239.229 663.329C239.842 664.328 240.38 665.206 240.844 665.964C240.52 669.292 240.158 672.117 240.158 672.117C240.158 672.117 240.826 672.053 241.921 671.944C242.577 677 243.487 684.681 243.551 688.827C243.551 688.827 243.957 693.271 244.359 697.312C244.248 698.544 244.234 699.929 244.377 701.466C244.741 705.054 245.629 724.606 245.629 724.606L245.853 724.494L245.647 724.606C245.627 724.606 245.102 728.778 245.668 728.859C246.233 728.94 247.222 729.061 247.848 728.859C249.7 728.298 251.747 726.357 253.172 724.975C253.19 725.674 253.199 726.077 253.199 726.077L253.377 725.995C253.185 726.992 252.915 728.766 253.321 728.839L253.447 728.866C253.954 728.976 254.377 729.068 254.956 728.919C257.439 728.315 260.245 726.279 261.517 725.291C263.132 724.041 263.617 722.892 262.769 723.134C260.124 723.84 257.197 724.948 257.197 724.948L256.848 724.395L257.177 724.243C257.177 724.243 258.544 702.01 258.75 698.12L258.771 698.099C258.771 698.099 259.882 680.966 259.559 673.77C259.49 672.232 259.409 670.912 259.324 669.787C260.193 669.609 260.698 669.447 260.669 669.315C260.389 668.039 259.688 664.533 259.121 660.235C259.381 660.714 259.63 661.151 259.863 661.535C262.548 665.949 263.9 668.146 263.9 668.146L264.191 668.056L264.608 668.711L265.055 668.591L265.876 670.081C265.876 670.081 266.3 672.097 266.623 672.944C266.788 673.365 266.926 673.304 267.079 673.237C267.225 673.172 267.384 673.102 267.592 673.447C267.951 674.055 268.069 673.915 268.203 673.757C268.318 673.621 268.444 673.472 268.743 673.77C269.077 674.103 269.198 673.892 269.321 673.677C269.429 673.489 269.538 673.298 269.792 673.468C269.954 673.577 270.056 673.66 270.127 673.718L270.127 673.718C270.209 673.784 270.251 673.818 270.295 673.822C270.342 673.826 270.392 673.797 270.495 673.736L270.539 673.709C270.782 673.575 270.665 673.154 270.518 672.625C270.445 672.361 270.364 672.07 270.317 671.774C270.136 670.686 269.591 669.9 269.591 669.9C269.591 669.9 270.943 671.21 271.468 671.029C271.973 670.873 270.851 669.672 270.28 669.061L270.216 668.993C269.671 668.428 268.238 667.884 268.238 667.884L268.124 667.771L268.908 667.562L268.568 666.705L268.927 666.594C268.927 666.594 263.477 656.979 262.164 653.814C260.852 650.63 258.51 643.192 258.51 643.192C258.51 643.192 258.298 642.655 257.951 641.972C257.75 636.755 257.526 632.155 257.015 630.15C255.451 624.044 251.997 622.875 250.52 622.657L250.495 622.48L250.676 622.471L250.454 621.725L250.389 621.717L249.87 617.996C249.87 617.996 250.839 617.794 251.061 617.25C251.166 616.977 251.068 616.09 250.971 615.204C250.881 614.39 250.791 613.576 250.859 613.239C250.877 613.155 250.925 613.097 250.979 613.031C251.175 612.791 251.456 612.45 250.698 610.477C250.122 608.963 250.477 606.209 250.513 605.943L250.516 605.942L250.514 605.938L250.516 605.922L250.507 605.925C250.361 605.665 248.428 602.421 243.349 603.563C240.24 604.249 238.161 607.756 238.161 607.756ZM238.896 649.058C239.06 648.229 239.203 647.384 239.323 646.566C239.642 648.179 239.958 649.739 240.241 651.132C240.586 652.835 240.881 654.289 241.068 655.286C240.389 653.528 239.537 651.006 238.896 649.058ZM250.468 698.362C250.595 696.831 250.865 693.437 251.105 689.552C251.395 692.2 252.043 698.064 252.413 700.867C252.376 701.687 252.384 702.565 252.453 703.501C252.656 706.031 252.955 716.653 253.105 722.38C251.192 723.101 249.907 724.182 249.907 724.182L249.314 722.776L249.566 722.651C249.566 722.651 250.214 705.541 250.468 698.362Z"
      fill="url(#paint2_linear)"
    />
    <g filter="url(#filter0_d)">
      <path
        d="M395.866 436.704L395.846 434.184C395.745 423.663 394.695 412.979 382.804 388.69C370.833 364.26 362.778 357.104 355.671 350.795L354.521 349.787V349.626C320.806 320.096 301.244 277.605 300.82 232.877C299.972 146.122 369.985 74.8466 456.875 74C457.379 74 457.904 74 458.409 74C544.612 74 615.15 143.582 615.998 229.813C616.422 274.562 597.707 317.415 564.558 347.59V347.751L563.448 348.78C556.463 355.23 548.549 362.547 537.062 387.199C525.636 411.709 524.788 420.558 524.889 431.08L521.235 432.27L395.866 436.704Z"
        fill="url(#paint3_linear)"
      />
    </g>
    <path
      d="M200.488 526.483L224.492 553.191C227.339 555.61 230.972 556.92 234.707 556.88L257.116 556.658C260.851 556.618 264.465 555.247 267.251 552.768L295.837 520.759L200.488 526.483Z"
      fill="#0D1219"
    />
    <path
      d="M299.753 527.773L192.736 537.186C189.405 537.489 186.659 534.889 186.619 531.442L186.579 527.672C186.538 524.226 189.243 521.142 192.574 520.859L299.592 511.446C302.923 511.144 305.669 513.744 305.709 517.191L305.749 520.96C305.77 524.407 303.084 527.471 299.753 527.773Z"
      fill="#0D1219"
    />
    <path
      d="M303.852 513.039L188.033 522.532C184.439 522.835 181.452 520.235 181.431 516.788L181.391 513.018C181.351 509.572 184.278 506.488 187.871 506.205L303.691 496.711C307.284 496.409 310.272 499.009 310.313 502.456L310.353 506.225C310.373 509.672 307.466 512.736 303.852 513.039Z"
      fill="#0D1219"
    />
    <path
      d="M303.852 499.311L188.033 508.805C184.439 509.108 181.452 506.508 181.431 503.061L181.391 499.291C181.351 495.845 184.278 492.76 187.871 492.478L303.691 482.984C307.284 482.682 310.272 485.282 310.313 488.729L310.353 492.498C310.373 495.945 307.466 499.029 303.852 499.311Z"
      fill="#0D1219"
    />
    <path
      d="M303.852 485.222L188.033 494.716C184.439 495.018 181.452 492.418 181.431 488.971L181.391 485.202C181.351 481.755 184.278 478.671 187.871 478.389L303.691 468.895C307.284 468.592 310.272 471.193 310.313 474.639L310.353 478.409C310.373 481.856 307.466 484.94 303.852 485.222Z"
      fill="#0D1219"
    />
    <path
      d="M303.87 470.85L188.01 480.344C184.396 480.646 181.429 478.046 181.388 474.599L181.348 470.83C181.308 467.383 184.235 464.299 187.849 464.017L303.709 454.523C307.322 454.221 310.29 456.821 310.33 460.268L310.371 464.037C310.391 467.504 307.484 470.568 303.87 470.85Z"
      fill="#0D1219"
    />
    <path
      d="M306.655 456.881L185.223 466.436C181.448 466.738 178.319 464.158 178.299 460.691L178.258 456.921C178.218 453.475 181.286 450.391 185.062 450.088L306.493 440.534C310.269 440.231 313.398 442.812 313.418 446.279L313.458 450.048C313.499 453.515 310.43 456.579 306.655 456.881Z"
      fill="#0D1219"
    />
    <path
      d="M184.924 452.769L305.407 440.615L185.085 450.088C181.31 450.391 178.241 453.454 178.282 456.921L178.302 459.461C178.342 456.115 181.249 453.152 184.924 452.769Z"
      fill="#F1EFE6"
    />
    <path
      d="M187.971 466.637L308.656 456.458L188.112 463.956C184.337 464.259 181.269 467.323 181.309 470.79L181.329 473.329C181.39 469.983 184.297 467 187.971 466.637Z"
      fill="#F1EFE6"
    />
    <path
      d="M187.97 481.009L307.323 469.641L188.132 478.328C184.357 478.631 181.288 481.694 181.329 485.161L181.349 487.701C181.389 484.355 184.296 481.372 187.97 481.009Z"
      fill="#F1EFE6"
    />
    <path
      d="M187.97 495.099L307.525 483.831L188.132 492.398C184.357 492.7 181.288 495.764 181.329 499.231L181.349 501.771C181.389 498.445 184.296 495.462 187.97 495.099Z"
      fill="#F1EFE6"
    />
    <path
      d="M187.97 508.826L307.787 497.739L188.132 506.145C184.357 506.447 181.288 509.511 181.329 512.978L181.349 515.518C181.389 512.172 184.296 509.188 187.97 508.826Z"
      fill="#F1EFE6"
    />
    <path
      d="M193.241 523.198L303.852 513.039L193.382 520.517C189.607 520.819 186.538 523.883 186.579 527.35L186.599 529.89C186.679 526.544 189.587 523.581 193.241 523.198Z"
      fill="#F1EFE6"
    />
    <path
      d="M415.289 503.061L439.293 529.789C442.139 532.208 445.773 533.518 449.508 533.477L471.917 533.256C475.652 533.215 479.245 531.845 482.051 529.365L510.638 497.356L415.289 503.061Z"
      fill="#0D1219"
    />
    <path
      d="M514.554 504.351L407.537 513.764C404.206 514.066 401.46 511.466 401.42 508.019L401.379 504.25C401.339 500.803 404.044 497.719 407.375 497.437L514.393 488.024C517.724 487.721 520.469 490.322 520.51 493.768L520.55 497.538C520.59 501.005 517.885 504.069 514.554 504.351Z"
      fill="#0D1219"
    />
    <path
      d="M518.673 489.616L402.854 499.11C399.26 499.412 396.273 496.812 396.232 493.365L396.192 489.596C396.151 486.149 399.079 483.065 402.672 482.783L518.492 473.289C522.085 472.986 525.073 475.587 525.113 479.034L525.154 482.803C525.194 486.25 522.267 489.314 518.673 489.616Z"
      fill="#0D1219"
    />
    <path
      d="M518.673 475.889L402.854 485.383C399.26 485.685 396.273 483.085 396.232 479.638L396.192 475.869C396.151 472.422 399.079 469.338 402.672 469.056L518.492 459.562C522.085 459.26 525.073 461.86 525.113 465.307L525.154 469.076C525.194 472.543 522.267 475.607 518.673 475.889Z"
      fill="#0D1219"
    />
    <path
      d="M518.673 461.799L402.854 471.293C399.26 471.596 396.273 468.995 396.232 465.548L396.192 461.779C396.151 458.332 399.079 455.248 402.672 454.966L518.492 445.472C522.085 445.17 525.073 447.77 525.113 451.217L525.154 454.986C525.194 458.433 522.267 461.517 518.673 461.799Z"
      fill="#0D1219"
    />
    <path
      d="M518.675 447.448L402.815 456.942C399.201 457.244 396.233 454.644 396.193 451.197L396.153 447.428C396.112 443.981 399.04 440.897 402.653 440.615L518.513 431.121C522.127 430.818 525.095 433.419 525.135 436.865L525.175 440.635C525.216 444.082 522.288 447.145 518.675 447.448Z"
      fill="#0D1219"
    />
    <path
      d="M521.46 433.459L400.028 443.013C396.253 443.316 393.123 440.735 393.103 437.268L393.063 433.499C393.023 430.052 396.091 426.968 399.866 426.666L521.298 417.111C525.073 416.809 528.202 419.389 528.223 422.856L528.263 426.626C528.303 430.093 525.235 433.177 521.46 433.459Z"
      fill="#0D1219"
    />
    <path
      d="M399.724 429.366L520.207 417.211L399.886 426.685C396.111 426.987 393.042 430.051 393.082 433.518L393.103 436.058C393.143 432.712 396.07 429.728 399.724 429.366Z"
      fill="#F1EFE6"
    />
    <path
      d="M402.772 443.215L523.457 433.035L402.913 440.534C399.138 440.836 396.069 443.9 396.11 447.367L396.13 449.907C396.191 446.581 399.098 443.598 402.772 443.215Z"
      fill="#F1EFE6"
    />
    <path
      d="M402.775 457.587L522.128 446.218L402.937 454.906C399.161 455.208 396.093 458.272 396.133 461.739L396.153 464.279C396.194 460.933 399.101 457.95 402.775 457.587Z"
      fill="#F1EFE6"
    />
    <path
      d="M402.775 471.676L522.329 460.409L402.937 468.975C399.161 469.278 396.093 472.342 396.133 475.809L396.153 478.348C396.194 475.023 399.101 472.039 402.775 471.676Z"
      fill="#F1EFE6"
    />
    <path
      d="M402.775 485.403L522.592 474.317L402.937 482.722C399.161 483.025 396.093 486.089 396.133 489.556L396.153 492.095C396.194 488.749 399.101 485.766 402.775 485.403Z"
      fill="#F1EFE6"
    />
    <path
      d="M408.061 499.775L518.672 489.616L408.202 497.094C404.427 497.397 401.358 500.46 401.399 503.927L401.419 506.467C401.48 503.141 404.387 500.158 408.061 499.775Z"
      fill="#F1EFE6"
    />
    <g style="mix-blend-mode: soft-light">
      <path
        d="M338.573 129.311C314.73 157.188 300.417 193.41 300.8 232.837C301.224 277.585 320.787 320.076 354.501 349.586V349.747L355.652 350.755C357.913 352.75 360.255 354.847 362.798 357.548C387.731 328.723 401.56 291.675 401.196 253.215C400.692 202.601 376.163 157.752 338.573 129.311Z"
        fill="url(#paint4_linear)"
      />
    </g>
  </g>
  <defs>
    <filter
      id="filter0_d"
      x="-10%"
      y="-10%"
      width="120%"
      height="120%"
      filterUnits="userSpaceOnUse"
      color-interpolation-filters="sRGB"
    >
      <feFlood flood-opacity="0" result="BackgroundImageFix" />
      <feColorMatrix
        in="SourceAlpha"
        type="matrix"
        values="0 0 0 0 0 0 0 0 0 0 0 0 0 0 0 0 0 0 127 0"
        result="hardAlpha"
      />
      <feOffset dy="4" />
      <feGaussianBlur stdDeviation="40" />
      <feColorMatrix
        type="matrix"
        values="0 0 0 0 0.980392 0 0 0 0 0.745098 0 0 0 0 0.745098 0 0 0 0.8 0"
      />
      <feBlend mode="normal" in2="BackgroundImageFix" result="effect1_dropShadow" />
      <feBlend
        mode="normal"
        in="SourceGraphic"
        in2="effect1_dropShadow"
        result="shape"
      />
    </filter>
    <linearGradient
      id="paint0_linear"
      x1="243.598"
      y1="97.4224"
      x2="243.598"
      y2="460.106"
      gradientUnits="userSpaceOnUse"
    >
      <stop stop-color="#D57EEB" />
      <stop offset="1" stop-color="#2E9FCC" stop-opacity="0" />
    </linearGradient>
    <linearGradient
      id="paint1_linear"
      x1="465.938"
      y1="564.758"
      x2="479.554"
      y2="677.315"
      gradientUnits="userSpaceOnUse"
    >
      <stop stop-color="#A75316" />
      <stop offset="1" stop-color="#D7996C" />
    </linearGradient>
    <linearGradient
      id="paint2_linear"
      x1="244.36"
      y1="601.606"
      x2="253.95"
      y2="716.799"
      gradientUnits="userSpaceOnUse"
    >
      <stop stop-color="#FFC46B" />
      <stop offset="1" stop-color="#FCEC97" />
    </linearGradient>
    <linearGradient
      id="paint3_linear"
      x1="530.774"
      y1="106.422"
      x2="400.081"
      y2="452.453"
      gradientUnits="userSpaceOnUse"
    >
      <stop offset="0.0416667" stop-color="#FCCB90" />
      <stop offset="0.572917" stop-color="#FF9E7E" stop-opacity="0.2" />
      <stop offset="0.895833" stop-color="#7169E0" stop-opacity="0" />
    </linearGradient>
    <linearGradient
      id="paint4_linear"
      x1="302.846"
      y1="150.384"
      x2="490.317"
      y2="177.254"
      gradientUnits="userSpaceOnUse"
    >
      <stop stop-color="#7169E0" />
      <stop offset="1" stop-color="#BD52DC" />
    </linearGradient>
    <clipPath id="clip0">
      <rect width="730" height="783" fill="white" />
    </clipPath>
  </defs>
</svg>
