<svg fill="none" height="290" viewBox="0 0 328 290" width="328" xmlns="http://www.w3.org/2000/svg"><g fill="#fff" opacity=".5"><path d="m259.695 181.553c.025-.022.049-.044.067-.072.055.045.024.078-.012.122-.018-.022-.036-.039-.055-.05z"/><path d="m151.196 114.31c-1.186 0-2.362-.005-3.548.005-.357.004-.677-.239-.646-.593.011-.158.005-.32 0-.473-.01-.215.084-.373.273-.502 1.848-1.305 3.695-2.61 5.538-3.919.362-.258.729-.512 1.092-.77.036-.024.105-.038.084-.096-.021-.062-.084-.028-.132-.028-2.204 0-4.414 0-6.619 0-.215 0-.231-.019-.231-.215 0-.168 0-.33 0-.497 0-.172.032-.201.226-.201h1.197 5.942c.346 0 .593.158.635.44.031.248.026.501 0 .755-.016.143-.105.258-.231.349-2.22 1.567-4.435 3.135-6.656 4.713-.042.028-.115.047-.1.1.021.052.095.024.147.024h6.609c.22 0 .241.024.241.22v.473c0 .196-.031.224-.241.224-1.192-.009-2.383-.009-3.58-.009z"/><path d="m190.442 114.315c-.131 0-.263-.005-.399 0-.116.004-.205-.034-.284-.115-.897-.923-1.8-1.836-2.698-2.753-.12-.12-.094-.12-.215.004-.897.918-1.795 1.826-2.687 2.744-.079.081-.168.12-.294.12-.273-.005-.546 0-.824 0-.063 0-.126.009-.158-.063-.026-.062.016-.105.058-.153.871-.889 1.748-1.782 2.625-2.681.22-.225.435-.449.661-.674.063-.062.052-.096-.005-.153-1.076-1.094-2.158-2.199-3.234-3.298-.031-.033-.068-.067-.099-.1-.069-.086-.027-.172.084-.177.309-.005.619-.005.929 0 .094 0 .168.057.225.119.908.923 1.811 1.845 2.714 2.773.1.1.1.1.199-.005.914-.923 1.817-1.85 2.719-2.777.074-.077.163-.11.273-.11h.825c.068 0 .136 0 .167.067.032.067-.021.11-.062.153-.94.965-1.89 1.926-2.83 2.891-.157.158-.309.326-.472.478-.058.053-.063.086-.005.153 1.055 1.066 2.099 2.142 3.154 3.212.048.053.095.106.147.153.047.043.068.086.042.144-.026.057-.078.057-.136.057-.116-.009-.273-.009-.42-.009z"/><path d="m179.159 109.392c-.027-.492-.184-.937-.504-1.343-.557-.693-1.334-1.013-2.257-1.037-.698-.019-1.397-.01-2.1-.01-.262 0-.52.01-.782.043-1.297.163-2.252 1.095-2.346 2.285-.027.349-.027.703-.021 1.056.005.593-.032 1.186.047 1.778.152 1.114 1.139 1.994 2.362 2.118.53.052 1.065.033 1.601.043.52-.01 1.044.014 1.564-.038 1.37-.144 2.367-1.1 2.436-2.352.047-.846.047-1.697 0-2.543zm-.992 2.414c-.032.927-.756 1.582-1.785 1.596-.814.01-1.627.01-2.436 0-1.023-.009-1.748-.664-1.774-1.596-.026-.755-.031-1.501 0-2.251.042-.994.746-1.611 1.837-1.625.389-.005.782 0 1.166 0 .42-.005.834-.005 1.254.004.945.024 1.727.641 1.743 1.669.01.731.016 1.467-.005 2.203z"/><path d="m167.11 109.922c.005-.229-.011-.459-.042-.688-.152-1.205-1.171-2.108-2.499-2.194-.792-.053-1.585-.019-2.388-.024-.247 0-.499.014-.74.043-1.286.162-2.247 1.094-2.336 2.266-.052.678-.021 1.362-.026 2.05 0 .268.01.535.047.798.168 1.128 1.139 1.989 2.378 2.118.53.052 1.06.033 1.585.038.515-.01 1.034.019 1.554-.038 1.401-.158 2.372-1.1 2.446-2.39.042-.665.016-1.324.021-1.979zm-1.018 1.869c-.021.932-.746 1.596-1.775 1.611-.818.009-1.627.009-2.451 0-1.013-.015-1.727-.646-1.769-1.568-.037-.789-.037-1.573 0-2.361.042-.861.735-1.482 1.68-1.525.436-.024.876-.014 1.312-.014.431.004.866-.01 1.297.014 1.002.053 1.679.693 1.711 1.601.01.736.01 1.491-.005 2.242z"/><path d="m112.629 109.015c.928 0 1.68-.685 1.68-1.53 0-.844-.752-1.529-1.68-1.529s-1.68.685-1.68 1.529c0 .845.752 1.53 1.68 1.53z"/><path d="m88.7096 114c.8188 0 1.2965-.559 1.2598-1.104-.0105-.205-.0368-.411-.084-.621-.4987-1.984-2.2729-3.446-4.3777-3.446-2.4933 0-4.5194 2.055-4.5194 4.593s2.0209 4.593 4.5194 4.593c1.5642 0 2.6822-.521 3.4958-1.333.3622-.364.336-.923-.0629-1.253-.0315-.024-.0683-.052-.0998-.071-.3937-.249-.8871-.163-1.2545.114-.3517.268-1.0183.818-2.0786.818-1.2703 0-2.3358-.985-2.5773-2.299zm-3.2019-3.446c1.1443 0 2.1153.798 2.4775 1.917h-4.9603c.3674-1.124 1.3333-1.917 2.4828-1.917z"/><path d="m81.0996 109.718c0-.421-.336-.78-.7874-.846-1.3805-.192-2.6665.277-3.4171 1.128v-.115c0-.478-.4252-.861-.9448-.865-.5249 0-.9448.387-.9501.86v7.05c-.0105.464.3779.856.8871.894.5196.029.9658-.33 1.0026-.808 0-.019 0-.033 0-.052v-3.638c0-1.611 1.328-2.93 3.1546-2.753.063.005.1207.005.189 0 .4934-.033.8661-.406.8661-.855z"/><path d="m113.586 110.65c0-.478-.426-.861-.945-.861-.526 0-.946.387-.946.861v6.318c0 .478.426.861.946.861.525 0 .945-.387.945-.861z"/><path d="m99.4968 105.86c0-.478-.4251-.86-.9448-.86-.5249 0-.9448.387-.9448.86v3.848c-.6352-.578-1.5117-.899-2.4198-.884-2.4933 0-4.5194 2.055-4.5194 4.593s2.0208 4.593 4.5194 4.593c.9133.019 1.7899-.306 2.4355-.889.0998.469.5932.775 1.1076.684.4461-.077.7716-.435.7716-.846zm-4.3147 10.434c-1.4487 0-2.6245-1.285-2.6245-2.872s1.1758-2.873 2.6245-2.873c1.4488 0 2.6245 1.286 2.6245 2.873.0053 1.587-1.1705 2.872-2.6245 2.872z"/><path d="m109.376 105.86c0-.478-.425-.86-.945-.86-.525 0-.945.387-.945.86v3.848c-.635-.578-1.512-.899-2.42-.884-2.493 0-4.519 2.055-4.519 4.593s2.021 4.593 4.519 4.593c.914.019 1.79-.306 2.436-.889.1.469.593.775 1.107.684.447-.077.772-.435.772-.846zm-4.31 10.434c-1.448 0-2.624-1.285-2.624-2.872s1.176-2.873 2.624-2.873c1.449 0 2.625 1.286 2.625 2.873.005 1.587-1.171 2.872-2.625 2.872z"/><path d="m118.389 116.964v-6.415h.84c.451.005.829-.306.871-.712.031-.421-.32-.789-.782-.817-.021 0-.037 0-.058 0h-.871v-1.219c.005-.459-.378-.846-.882-.889-.52-.029-.971.325-1.008.803v.057 1.243h-.782c-.446-.005-.824.306-.871.712-.032.421.32.789.782.813h.058.813v6.414c0 .478.425.86.945.86.525.015.945-.372.945-.85z"/><path d="m147.257 168.143c1.626 0 2.942-1.19 2.942-2.658 0-1.469-1.316-2.658-2.942-2.658h-.441c1.627 0 2.943 1.189 2.943 2.658 0 1.468-1.316 2.658-2.943 2.658z"/><path d="m146.773 162.827h-.44c-1.627 0-2.942 1.189-2.942 2.658 0 1.468 1.315 2.658 2.942 2.658h.44c-1.626 0-2.942-1.19-2.942-2.658.004-1.473 1.316-2.658 2.942-2.658z"/><path d="m124.402 161.62v1.35h1.733v5.135h1.733v-5.097h1.409l.482-1.384zm14.188 0v1.35h1.733v5.135h1.733v-5.097h1.408l.482-1.384zm-8.507.768c0-.422.38-.764.848-.764s.848.342.848.764-.38.764-.848.764-.848-.342-.848-.764zm0 1.312h1.691v4.405h-1.691zm2.419-2.08v6.481h1.691v-1.675l.523-.439 1.65 2.147h1.811l-2.376-3.134 2.136-1.895h-2.058l-1.691 1.532v-3.021zm18.26 0v6.481h1.691v-1.675l.524-.439 1.649 2.147h1.812l-2.377-3.134 2.136-1.895h-2.057l-1.692 1.532v-3.021z"/><path d="m146.812 168.143c1.626 0 2.942-1.19 2.942-2.658 0-1.469-1.316-2.658-2.942-2.658h-.042c-1.626 0-2.942 1.189-2.942 2.658 0 1.468 1.316 2.658 2.942 2.658zm-1.45-2.658c0-.713.644-1.291 1.432-1.291.787 0 1.431.578 1.431 1.291s-.644 1.291-1.431 1.291c-.793 0-1.432-.578-1.432-1.291z"/><path d="m119.675 160.409c-.733-.418-1.265-1.105-1.423-1.915-.018-.076-.023-.156-.032-.232v-.262h-2.238v8.088c-.005.941-.844 1.705-1.881 1.705-.306 0-.594-.064-.848-.182-.612-.283-1.034-.861-1.034-1.531 0-.945.844-1.713 1.882-1.713.199 0 .393.025.569.08v-1.612-.46c-.185-.021-.375-.034-.56-.034-2.271 0-4.11 1.675-4.11 3.743 0 1.295.723 2.438 1.821 3.109.653.397 1.441.633 2.289.633 2.27 0 4.11-1.675 4.11-3.742v-4.131c.875.57 1.941.903 3.104.903v-1.595-.43c-.588.008-1.158-.139-1.649-.422z"/><g clip-rule="evenodd" fill-rule="evenodd"><path d="m171.592 9.90625c-2.681 1.80285-6.569 2.76425-9.92 2.76425-4.69 0-8.919-1.5809-12.117-4.21112-.254-.20802-.026-.48537.274-.3282 3.452 1.82592 7.711 2.93072 12.122 2.93072 2.97 0 6.244-.564 9.25-1.72423.452-.18028.832.26811.391.56858z"/><path d="m172.7 8.7459c-.346-.39754-2.265-.18952-3.133-.09707-.264.02773-.304-.18028-.066-.3282 1.533-.97999 4.051-.69801 4.341-.36981.294.3282-.076 2.62558-1.518 3.72578-.218.1664-.437.0786-.34-.1433.335-.7396 1.066-2.38985.716-2.7874z"/><path d="m169.635 1.38147v-.952253c0-.1433.122-.240374.264-.240374h4.695c.153 0 .269.097074.269.240374v.818193c0 .13868-.126.31434-.355.60556l-2.432 3.16647c.904-.01849 1.858.1017 2.676.52236.183.09707.233.23575.249.3698v1.02159c0 .13868-.168.30047-.346.21727-1.441-.68877-3.36-.76735-4.959.00924-.163.07858-.341-.07858-.341-.21726v-.97074c0-.15717 0-.42066.173-.65641l2.818-3.6842h-2.452c-.137-.00925-.259-.10632-.259-.24962z"/><path d="m152.506 7.34568h-1.432c-.137-.00924-.244-.10632-.254-.22188v-6.67964c0-.134055.122-.240374.274-.240374h1.336c.137.004622.248.101696.258.221884v.86905h.026c.345-.845938 1-1.2342342 1.883-1.2342342.894 0 1.457.3929192 1.848 1.2342342.345-.845938 1.127-1.2342342 1.975-1.2342342.599 0 1.254.2265072 1.655.7303682.452.559336.36 1.377536.36 2.094036v4.22042c0 .13405-.122.24037-.274.24037h-1.426c-.143-.00924-.259-.11094-.259-.24037v-3.5409c0-.28198.03-.97999-.041-1.25273-.107-.44839-.431-.57319-.843-.57319-.345 0-.705.20801-.853.54546-.147.33745-.132.89678-.132 1.27583v3.5409c0 .13406-.121.24038-.274.24038h-1.426c-.142-.00925-.259-.11094-.259-.24038v-3.5409c0-.74423.132-1.83979-.883-1.83979-1.031 0-.985 1.06782-.985 1.83979v3.5409c0 .13406-.122.245-.274.245z"/><path d="m178.914.0651855c2.122 0 3.264 1.6595045 3.264 3.7627845 0 2.03856-1.264 3.65184-3.264 3.65184-2.082 0-3.219-1.65951-3.219-3.7258 0-2.07092 1.143-3.6888245 3.219-3.6888245zm.005 1.3682845c-1.056 0-1.122 1.30819-1.122 2.12177 0 .81357-.015 2.55629 1.112 2.55629 1.111 0 1.162-1.40065 1.162-2.26045 0-.56395-.025-1.23423-.213-1.76582-.167-.47613-.487-.65179-.939-.65179z"/><path d="m184.928 7.34577h-1.427c-.142-.00924-.259-.11094-.259-.24037v-6.679636c.01-.120188.132-.217262.274-.217262h1.325c.122.004623.229.083207.254.189526v1.021592h.025c.402-.91065.96-1.3497958 1.95-1.3497958.639 0 1.264.2080168 1.67.7858398.371.531596.371 1.433006.371 2.080166v4.20193c-.016.11556-.132.20801-.275.20801h-1.436c-.132-.00924-.239-.09707-.254-.20801v-3.62873c0-.73037.091-1.79819-.893-1.79819-.346 0-.665.21264-.823.5316-.198.40679-.228.81358-.228 1.26659v3.59637c.005.12943-.122.24037-.274.24037z"/><path d="m165.893 4.15108c0 .50386.015.93376-.269 1.38216-.228.36518-.589.59631-.985.59631-.548 0-.868-.37905-.868-.93839 0-1.10479 1.087-1.31281 2.127-1.31281zm1.437 3.1711c-.097.07858-.229.0832-.34.03235-.477-.35594-.564-.52235-.818-.86442-.786.73037-1.34.94301-2.355.94301-1.208 0-2.137-.67952-2.137-2.02932 0-1.05857.624-1.77507 1.523-2.12639.771-.30971 1.858-.36518 2.685-.45301v-.16641c0-.30972.025-.67952-.173-.93839-.172-.24037-.507-.33745-.802-.33745-.543 0-1.025.25425-1.147.78122-.025.11556-.117.23113-.249.23575l-1.386-.13405c-.116-.02312-.248-.11094-.213-.27274.315-1.530071 1.838-1.99233 3.193-1.99233.701 0 1.605.166413 2.153.647162.7.596318.629 1.382158.629 2.237328v2.02932c0 .60556.274.87367.538 1.20649.092.11557.112.25887-.005.35132-.289.21264-.807.62867-1.096.85056z"/><path d="m147.162 4.15108c0 .50386.015.93376-.27 1.38216-.228.36518-.583.59631-.984.59631-.549 0-.868-.37905-.868-.93839 0-1.10479 1.086-1.31281 2.122-1.31281zm1.441 3.1711c-.096.07858-.228.0832-.34.03235-.477-.35594-.563-.52235-.817-.86442-.787.73037-1.34.94301-2.356.94301-1.203 0-2.137-.67952-2.137-2.02932 0-1.05857.63-1.77507 1.523-2.12639.772-.30971 1.858-.36518 2.686-.45301v-.16641c0-.30972.025-.67952-.173-.93839-.173-.24037-.508-.33745-.802-.33745-.543 0-1.031.25425-1.153.78122-.025.11556-.116.23113-.248.23575l-1.386-.13405c-.117-.02312-.244-.11094-.213-.27274.319-1.530071 1.837-1.99233 3.193-1.99233.7 0 1.604.166413 2.152.647162.701.596318.63 1.382158.63 2.237328v2.02932c0 .60556.274.87367.538 1.20649.091.11557.111.25887-.005.35132-.29.21264-.797.62867-1.092.85056z"/></g><path d="m8.06075 169.062s.00587 0 0 0c.13493 0 .24055-.106.24055-.235 0-.006 0-.011 0-.011 0-.176-.10563-.264-.32856-.264h-.35786v.932h.13492v-.404h.16428l.00588.005.25229.399h.1408l-.27579-.416zm-.15254-.094h-.15254v-.317h.19952c.09973 0 .21706.018.21706.147-.00586.158-.12324.17-.26404.17zm-51.90231-10.079h1.9712v7.187h3.649v1.818h-5.6261v-9.005zm6.4943 2.904h1.895v6.101h-1.895zm.9504-3.033c.6043 0 1.0972.499 1.0972 1.097 0 .604-.4988 1.097-1.0972 1.097-.6042 0-1.097-.498-1.097-1.097-.0059-.604.4928-1.097 1.097-1.097zm8.8705.129h1.8949v5.38l2.1472-2.482h2.3232l-2.4875 2.828 2.4347 3.285h-2.3819l-2.0123-3.015h-.0234v3.015h-1.8949zm-6.8758 2.904h1.8187v.833h.0235c.3696-.633 1.0619-1.015 1.7952-.985 1.9242 0 2.2763 1.261 2.2763 2.904v3.344h-1.895v-2.969c0-.71-.0117-1.619-.9856-1.619-.9856 0-1.1382.768-1.1382 1.566v3.016h-1.8949z"/><path d="m-17.3226 164.134c0-.012 0-.018 0-.029 0-.622-.5104-1.139-1.1382-1.139-.0117 0-.0176 0-.0293 0-.6864-.041-1.2848.481-1.3376 1.162h2.5051zm1.6074 2.704c-.6395.775-1.5898 1.221-2.593 1.215-1.8949 0-3.4145-1.267-3.4145-3.221s1.5196-3.221 3.4145-3.221c1.7717 0 2.8805 1.262 2.8805 3.221v.593h-4.4c.1114.692.7275 1.202 1.4256 1.191.5456-.006 1.056-.288 1.3494-.746zm4.2417-3.572c-.9446 0-1.5137.633-1.5137 1.554s.5691 1.555 1.5137 1.555c.9504 0 1.51943-.634 1.51943-1.555-.00587-.921-.57493-1.554-1.51943-1.554zm3.26181 4.628h-1.74238v-.809h-.02349c-.44584.598-1.13814.95-1.88314.962-1.8187 0-3.0214-1.314-3.0214-3.174 0-1.707 1.0619-3.273 2.8043-3.273.7861 0 1.5194.217 1.9477.809h.0235v-3.52h1.89491zm12.78938 0h-1.89492v-2.968c0-.71-.01177-1.619-.98563-1.619-.985605 0-1.138176.768-1.138176 1.566v3.021h-1.894924v-6.101h1.818725v.833h.023419c.3696-.633 1.061896-1.015 1.795236-.985 1.9184 0 2.27627 1.261 2.27627 2.904zm-8.04913-6.934c-.60427 0-1.09706-.499-1.09706-1.097 0-.604.49866-1.097 1.09706-1.097.60427 0 1.09707.499 1.09707 1.097s-.4928 1.097-1.09707 1.097zm.9446 6.934h-1.895v-6.101h1.895zm8.04906-10.894h-10.90033c-.5104-.006-.93866.411-.94452.921v10.941c.00586.511.43412.927.94452.922h10.90033c.5104.005.93866-.411.94453-.922v-10.941c-.00587-.51-.43413-.927-.94453-.921zm2.40532 11.135c-.4752.006-.86238.399-.86238.874 0 .481.39306.874.87413.874.48106 0 .87413-.393.87413-.874 0-.475-.38719-.868-.86239-.874zm0 1.643c-.00587 0-.00588 0-.01174 0-.41654 0-.76263-.346-.76263-.763s.34609-.763.76263-.763c.41653 0 .75683.335.76269.751v.012c.00587.411-.32266.757-.73333.763z"/><path d="m3.39501 8.83519c-1.23787 0-2.2352-1.02667-2.2352-2.288s.99733-2.28799 2.2352-2.28799c1.23786 0 2.2352 1.02666 2.2352 2.28799 0 1.2672-.99734 2.288-2.2352 2.288zm2.25278.2992c0 .21119.35786.79786.79785.79786h.28163c.11147 0 .19945-.088.19945-.19946v-6.25385c-.00587-.1056-.09385-.18774-.19945-.18774h-.88c-.1056 0-.19362.08214-.19948.18774v.50453c-.53974-.66293-1.39628-.93867-2.24695-.93867-1.94186 0-3.514121 1.57227-3.514121 3.51413s1.572261 3.51407 3.514121 3.51407c.85067 0 1.78348-.33435 2.24695-.93861zm3.38507-.90347c.58667.4048 1.23194.61013 1.84794.61013.5867 0 1.191-.30506 1.191-.83306 0-.70987-1.3259-.81547-2.15894-1.09707-.83306-.2816-1.55468-.87413-1.55468-1.81866 0-1.44906 1.29654-2.04746 2.49922-2.04746.7627 0 1.5547.25227 2.0651.61014.176.13493.0704.28746.0704.28746l-.487.69227c-.0528.07626-.1701.14079-.2874.05866-.3286-.21707-.6923-.42827-1.3552-.42827-.8214 0-1.17924.34614-1.17924.76267 0 .50453.57494.66293 1.24964.83306 1.1792.3168 2.4581.704 2.4581 2.13546 0 1.27893-1.1909 2.06505-2.5168 2.06505-.99733 0-1.85389-.28745-2.56376-.81545-.14667-.14666-.04691-.28747-.04691-.28747l.48691-.69226c.1056-.11733.22882-.0704.28162-.0352zm10.98234.90347c0 .21119.3579.79786.7979.79786h.2816c.1115 0 .1995-.088.1995-.19946v-6.25385c-.0059-.1056-.0939-.18774-.1995-.18774h-.88c-.1056 0-.1936.08214-.1995.18774v.50453c-.5397-.66293-1.3962-.93867-2.2469-.93867-1.9418 0-3.5141 1.57227-3.5141 3.51413s1.5723 3.51407 3.5141 3.51407c.8507 0 1.7776-.33435 2.2469-.93861zm-2.2527-.2992c-1.2379 0-2.2352-1.02667-2.2352-2.288s.9973-2.28799 2.2352-2.28799c1.2378 0 2.2352 1.02666 2.2352 2.28799 0 1.2672-.9974 2.288-2.2352 2.288zm11.4282.51039v-3.23839c0-1.82453-1.1499-3.05065-2.9861-3.05065-.8742 0-1.5957.50453-1.848.93866v-.00587.00587c0-.44586-.3579-.69227-.7979-.69227h-.2816c-.1115 0-.1994.088-.1994.19947v5.64372.61013c.0058.1056.0938.18773.1994.18773h.88c.0117 0 .0293.00001.0411-.00586.0058 0 .0117-.00587.0176-.00587s.0117-.00587.0176-.00587c.0058-.00587.0176-.00586.0235-.01173.0058 0 .0058-.00587.0117-.00587.0058-.00587.0176-.01173.0235-.0176 0 0-.0001-.00001.0058-.00587.0117-.00587.0176-.0176.0235-.02933.0235-.02933.0352-.06453.0352-.10559v-3.69013c0-.97973.792-1.77172 1.7717-1.77172.9798 0 1.7717.79199 1.7717 1.77172v3.08586.00586.60427c.0059.1056.0939.18773.1995.18773h.88c.0118 0 .0294.00001.0411-.00586.0059 0 .0117-.00587.0176-.00587.0058 0 .0176-.00587.0235-.00587.0058-.00587.0117-.00586.0175-.01173.0059 0 .0059-.00587.0118-.00587.0059-.00587.0176-.01173.0234-.0176l.0059-.00587c.0059-.00587.0176-.01759.0235-.02346.0234-.02933.0352-.06453.0352-.1056zm6.8816-.21119c0 .21119.3579.79786.7979.79786h.2816c.1114 0 .1994-.088.1994-.19946v-6.25385c-.0058-.1056-.0938-.18774-.1994-.18774h-.88c-.1056 0-.1936.08214-.1995.18774v.50453c-.5397-.66293-1.3963-.93867-2.2411-.93867-1.9418 0-3.5141 1.57227-3.5141 3.51413s1.5723 3.51407 3.5141 3.51407c.8448 0 1.7718-.33435 2.2411-.93861zm-2.2469-.2992c-1.2379 0-2.2352-1.02667-2.2352-2.288s.9973-2.28799 2.2352-2.28799 2.2352 1.02666 2.2352 2.28799c0 1.2672-1.0032 2.288-2.2352 2.288z"/><path d="m290.115 1.48107h2.153v1.92428h1.554v1.53119h-1.554v3.15627c0 .66293.211.79198.927.79198h.622v1.56051h-1.373c-1.743 0-2.335-.3402-2.335-1.97702v-3.53761h-1.109v-1.53119h1.109c.006.00587.006-1.91841.006-1.91841zm11.017 6.77011c-.633 1.66613-2.112 2.38772-3.514 2.38772-2.294 0-3.866-1.38451-3.866-3.73704 0-2.25867 1.713-3.68425 3.784-3.68425 2.347 0 3.784 1.77172 3.631 4.27679h-5.227c.065 1.00319.845 1.45492 1.625 1.45492.822 0 1.344-.29331 1.584-.70985zm-5.168-2.07091h3.05c-.041-.88587-.657-1.33174-1.478-1.33174-.78 0-1.455.40481-1.572 1.33174zm12.613-.18774h-2.006c-.188-.82133-.71-1.1088-1.344-1.1088-.768 0-1.531.52801-1.531 2.03574 0 1.5312.763 2.03572 1.531 2.03572.792 0 1.291-.41065 1.449-1.08532h2.007c-.487 2.08853-2.177 2.75733-3.591 2.75733-2.323 0-3.602-1.49012-3.602-3.73705s1.467-3.68428 3.602-3.68428c1.455-.00587 3.063.66293 3.485 2.78666zm2.499-1.64853c.305-.528 1.08-1.08531 2.189-1.08531 1.806 0 2.376 1.0677 2.376 2.98023v4.23578h-2.154v-3.68431c0-1.0032-.029-1.82452-1.079-1.82452-.927 0-1.32.60428-1.32 1.92428v3.61385h-2.153v-9.504h2.153zm9.528 1.13814c-.147-.528-.698-.67468-1.373-.67468-.751 0-1.121.18188-1.121.52801 0 .32853.253.51628.869.63361l1.32.23464c1.689.30507 2.505.81546 2.505 2.04746 0 1.584-1.455 2.38772-3.409 2.38772-1.877 0-3.209-.79198-3.455-2.45812h2.006c.188.67467.739.88588 1.479.88588.768 0 1.308-.21118 1.308-.63358 0-.30506-.276-.5163-1.109-.6571l-1.255-.21119c-1.362-.22293-2.294-.90932-2.294-2.15305 0-1.40213 1.478-2.17654 3.22-2.17654 1.608 0 3.075.64535 3.339 2.25868zm3.309-4.00107h2.153v1.92428h1.554v1.53119h-1.554v3.15627c0 .66293.211.79198.927.79198h.61v1.56051h-1.361c-1.743 0-2.335-.3402-2.335-1.97702v-3.53761h-1.109v-1.53119h1.109v-1.91841zm8.629 4.30027c0-.8448-.399-1.12055-1.191-1.12055-.698 0-1.161.35787-1.255 1.03254h-2.018c.106-1.33173 1.361-2.50504 3.455-2.50504 2.036 0 3.192.82133 3.145 2.96853l-.029 1.53119v.7392c0 .76853.052 1.60749.158 2.03569h-2.124l-.029-.85649c-.528.75089-1.361 1.02669-2.376 1.02669-1.344 0-2.441-.7803-2.441-2.07097 0-1.73066 1.954-2.29387 4.688-2.50507zm.059 1.54881c-1.508.14666-2.511.29331-2.511 1.07944 0 .45174.434.76266.992.76266.868 0 1.519-.36958 1.519-1.66611zm7.017-1.84801c-.188-.02934-.399-.05281-.593-.04108-1.044 0-1.584.38135-1.584 1.47841v3.53763h-2.165v-7.05762h2.083v1.34345c.328-.8448.921-1.34346 1.924-1.38452h.159c.064 0 .117.00001.181.01174v2.11199zm4.775 0c-.147-.528-.698-.67468-1.373-.67468-.751 0-1.12.18188-1.12.52801 0 .32853.252.51628.868.63361l1.308.23464c1.69.30507 2.505.81546 2.505 2.04746 0 1.584-1.455 2.38772-3.408 2.38772-1.872 0-3.209-.79198-3.456-2.45812h2.007c.187.67467.739.88588 1.478.88588.769 0 1.308-.21118 1.308-.63358 0-.30506-.275-.5163-1.108-.6571l-1.262-.21119c-1.361-.22293-2.282-.90932-2.282-2.15305 0-1.40213 1.479-2.17654 3.221-2.17654 1.607 0 3.074.64535 3.338 2.25868z"/><path d="m229.829 222.264c-.982.005-1.878-.532-2.26-1.362s-.174-1.784.519-2.421c.693-.641 1.747-.825 2.653-.487.911.338 1.501 1.148 1.501 2.048.016 1.228-1.07 2.217-2.413 2.222zm0-5.264c-1.354-.005-2.582.736-3.1 1.869-.524 1.138-.241 2.451.715 3.325.955.875 2.396 1.139 3.646.666 1.25-.472 2.069-1.58 2.069-2.813 0-1.68-1.49-3.042-3.33-3.047z"/><path d="m242.181 217.174c-.033 0-.06.014-.077.039l-3.422 4.245-3.423-4.245c-.016-.025-.044-.039-.076-.039-.049 0-.088.034-.093.079v5.657h.911v-3.336l2.632 3.241c.01.015.032.025.054.025s.038-.01.055-.025l2.631-3.241v3.336h.906v-5.652c0-.02-.011-.045-.027-.06-.022-.02-.044-.024-.071-.024z"/><path d="m247.813 220.027h-2.112v-2.023h2.112c.612 0 1.108.452 1.108 1.009 0 .556-.496 1.009-1.108 1.014zm0-2.853h-3.024v5.736h.912v-2.053h2.112c1.114 0 2.02-.825 2.02-1.839 0-1.019-.912-1.844-2.02-1.844z"/><path d="m222.346 222.263c-1.146.005-2.134-.71-2.391-1.724-.251-1.014.301-2.053 1.338-2.496 1.031-.442 2.265-.174 2.969.651l.655-.586c-.9-.989-2.38-1.362-3.706-.92-1.332.438-2.211 1.581-2.211 2.863 0 1.283.884 2.431 2.211 2.864 1.326.432 2.806.064 3.706-.92l-.655-.587c-.453.537-1.168.855-1.916.855z"/><path d="m260.583 219.521-.693-.145c-.743-.144-.808-.606-.808-.75 0-.467.415-.741 1.124-.741.732 0 1.272.453 1.441.607l.639-.572c-.595-.572-1.272-.85-2.074-.85-1.212 0-2.031.621-2.031 1.546 0 .293 0 1.188 1.638 1.561l.758.164c.71.174 1.048.487 1.048.949 0 .537-.567.92-1.386.92-.873 0-1.408-.552-1.572-.736l-.628.562c.426.442 1.157.974 2.211.974 1.304 0 2.292-.741 2.292-1.725 0-.88-.665-1.496-1.943-1.769"/><path d="m266.684 219.521-.694-.145c-.742-.144-.808-.606-.808-.75 0-.467.415-.741 1.125-.741.731 0 1.272.453 1.436.607l.638-.572c-.595-.572-1.283-.85-2.074-.85-1.212 0-2.031.621-2.031 1.546 0 .293 0 1.188 1.638 1.561l.764.159c.71.174 1.048.487 1.048.949 0 .537-.568.915-1.386.915-.874 0-1.409-.552-1.572-.736l-.639.572c.426.442 1.157.974 2.211.974 1.304 0 2.292-.741 2.292-1.725 0-.88-.666-1.491-1.948-1.764z"/><path d="m252.48 220.614 1.043-1.805 1.042 1.805zm1.043-3.49c-.039 0-.066.02-.082.05l-3.308 5.741h1.021l.846-1.471h3.029l.852 1.471h1.021l-3.308-5.741c-.011-.035-.044-.045-.071-.05z"/><path d="m228.406 220.763.639.591 2.216-2.033-.638-.581z"/><path d="m66.6552.0452807c-1.0559.4021643-2.2133 1.5393193-2.5839 2.9630793-.462 1.80743 1.4671 2.56553 1.6194 2.31591.1878-.29122-.3452-.39292-.4518-1.3313-.1422-1.21112.4771-2.56091 1.2538-3.152604.1422-.110942.1371.041602.1371.328204 0 .50386-.0304 5.05711-.0304 6.00936 0 1.28045-.0559 1.69186-.1625 2.09403-.1066.40679-.2741.68414-.1472.78584.1421.1202.7615-.16179 1.1168-.61481.4315-.54084.5787-1.19725.6092-1.90912.0305-.85518.0305-2.21422.0305-2.98619 0-.70726.0152-2.78742-.0153-4.040141-.0051-.30509-.9391-.628671-1.3757-.4622583zm37.4188 6.0232293c-.036.66565-.198 1.188-.396 1.56243-.391.7165-1.203.93838-1.548-.09245-.188-.55933-.198-1.4931-.061-2.27431.137-.79971.523-1.3914 1.157-1.34055.625.05085.914.78122.848 2.14488zm-10.549 4.14179c-.0102 1.1095-.198 2.0848-.6143 2.3668-.5838.4022-1.3706.1017-1.2082-.7072.1422-.7212.8224-1.4515 1.8225-2.34832.0051.00462.0051.20801 0 .68872zm-.1625-4.14641c-.0355.60555-.2081 1.22036-.3959 1.56243-.3909.7165-1.2082.93838-1.5484-.09245-.2284-.69801-.1776-1.60404-.0609-2.18649.1472-.73961.5077-1.433 1.1575-1.433.6244.00463.9391.6333.8477 2.14951zm-6.107-.01387c-.0406.64716-.1776 1.18338-.3959 1.5763-.4011.70725-1.1981.93376-1.5484-.09245-.2538-.73499-.1675-1.74734-.0609-2.28818.1574-.80895.5432-1.38215 1.1575-1.32668.6244.05547.929.78584.8477 2.13101zm28.0015.75348c-.152 0-.223.1433-.279.38367-.198.84131-.411 1.02622-.68 1.02622-.305 0-.574-.41604-.645-1.2481-.056-.65179-.045-1.85828.026-3.05553.015-.245-.061-.48999-.787-.73037-.31-.10169-.767-.25424-.99.24038-.635 1.40064-.889 2.51468-.944 2.97232-.005.02311-.036.02773-.041-.02774-.036-.36056-.122-1.02159-.132-2.40374 0-.26811-.066-.49924-.391-.68877-.213-.12018-.853-.33744-1.086-.0832-.203.20801-.432.77197-.675 1.44224-.198.54547-.341.91065-.341.91065s.006-1.46998.006-2.02469c0-.20801-.163-.28198-.204-.29122-.213-.05547-.639-.15255-.817-.15255-.223 0-.274.11095-.274.27736 0 .02311-.036 1.93686-.036 3.26817v.18952c-.121.6148-.522 1.45149-.949 1.45149-.431 0-.634-.35131-.634-1.9461 0-.93377.03-1.33593.045-2.00621.01-.39292.026-.68876.026-.74885-.005-.20802-.396-.30972-.579-.35132-.183-.03698-.345-.05547-.467-.04623-.178.00925-.3.11557-.3.25887v.2265c-.228-.32358-.594-.55471-.837-.6148-.66-.17566-1.34-.01849-1.858.64254-.411.52235-.66 1.10942-.757 1.9646-.071.61942-.045 1.25272.077 1.78431-.153.60556-.437.85056-.7517.85056-.4519 0-.7768-.67027-.7361-1.83054.0253-.76735.1929-1.29895.3756-2.07092.0762-.3282.0152-.49924-.1421-.66565-.1472-.15255-.4569-.23113-.9036-.13406-.3199.06934-.7717.13868-1.193.19877 0 0 .0254-.09245.0457-.24962.1066-.84593-.8985-.77197-1.2184-.50386-.1929.16179-.3198.35132-.3706.68877-.0761.54084.4062.7997.4062.7997-.1574.66103-.5483 1.53008-.9493 2.15875-.2132.33283-.3858.58245-.594.85056 0-.09708 0-.19877 0-.29585-.0051-1.3914.0152-2.49157.0254-2.88911.0102-.39292.0254-.67952.0254-.74424 0-.15255-.1015-.20802-.2995-.28198-.1777-.06471-.3909-.10632-.6143-.12481-.2741-.01849-.4416.11557-.4366.27274v.21263c-.2284-.32358-.5939-.55471-.8376-.6148-.6599-.17566-1.3402-.01849-1.858.64254-.4112.52235-.6751 1.25734-.7564 1.95998-.071.65178-.0558 1.21111.0407 1.67799-.1016.46688-.4011.9615-.7463.9615-.4366 0-.6802-.35132-.6802-1.94611 0-.93376.0304-1.33592.0456-2.0062.0102-.39292.0254-.68876.0254-.74886-.005-.20801-.3959-.30971-.5787-.35131-.1929-.04161-.3553-.05547-.4823-.04623-.1675.00925-.2842.14792-.2842.24962v.23575c-.2285-.32358-.594-.55471-.8377-.6148-.6599-.17566-1.3401-.01849-1.8579.64254-.3452.42528-.6143.89678-.7564 1.95073-.0406.30047-.061.58707-.0559.85055-.137.74886-.731 1.62253-1.2183 1.62253-.2843 0-.5635-.50386-.5635-1.58092 0-1.433.0964-3.47156.1117-3.67034 0 0 .6193-.00924.736-.00924.3046-.00462.5838.00462.995-.01387.2031-.00924.4011-.68414.1929-.76735-.0964-.03698-.7767-.06934-1.0406-.07396-.2285-.00462-.858-.04622-.858-.04622s.0559-1.349799.0711-1.497722c.0102-.120187-.1574-.18028-.2538-.217261-.2335-.092451-.4467-.134054-.7006-.1802802-.3452-.06471617-.5025-.0000001-.533.2634872-.0457.402165-.0711 1.585546-.0711 1.585546-.2538 0-1.1168-.04623-1.3757-.04623-.2335 0-.4873.92914-.1624.93839.3756.01387 1.0254.02311 1.4671.03698 0 0-.0203 2.07554-.0203 2.71808v.19877c-.2386 1.13716-1.0763 1.74734-1.0763 1.74734.1777-.74886-.1878-1.31282-.8528-1.78894-.2437-.17566-.7259-.51311-1.264-.86905 0 0 .3147-.28198.5888-.85056.198-.39754.2031-.85517-.2792-.96149-.8021-.16641-1.4569.36518-1.6549.93376-.1523.43915-.0711.77197.2284 1.1048.0203.02311.0457.05085.0711.07396-.1777.31433-.4315.73961-.6346 1.06782-.5787.91989-1.0254 1.64101-1.3503 1.64101-.264 0-.2589-.73499-.2589-1.42838 0-.59631.0457-1.48847.0863-2.41298.0152-.30972-.1574-.48075-.4366-.64254-.1726-.09708-.533-.28198-.7513-.28198-.3147 0-1.2336.03698-2.0915 2.31129-.1066.2866-.3198.80895-.3198.80895l.0203-2.73194c0-.06472-.0355-.12481-.1218-.16642-.1473-.07396-.5331-.21726-.8834-.21726-.1624 0-.2436.06934-.2436.20802l-.0254 4.26202c0 .32358.0101.70263.0457.86905.0355.16641.0914.30046.1624.37905.0711.07858.1523.1433.2843.16641.1269.02311.8072.1017.8427-.13405.0406-.2866.0457-.59632.401-1.74734.5635-1.79356 1.2895-2.66723 1.6347-2.97695.0609-.05547.1269-.05547.1269.03236-.0152.39292-.066 1.37753-.1015 2.2096-.0914 2.23271.3502 2.64412.9899 2.64412.4873 0 1.1726-.43915 1.9138-1.55781.4569-.69339.9036-1.38216 1.2234-1.87215.2234.18953.4772.39292.7209.60556.5787.50386.7716.97999.6447 1.433-.0965.35132-.462.70263-1.1168.35594-.1879-.10632-.2691-.18028-.462-.29123-.1015-.06009-.2589-.07858-.3503-.01386-.2436.16641-.3858.37905-.4619.64716-.0762.25424.2081.39292.4975.5131.2487.1017.797.19415 1.132.2034 1.3453.0416 2.4164-.58707 3.1677-2.21884.132 1.40064.7057 2.20035 1.6956 2.20035.6599 0 1.33-.7766 1.6194-1.54857.0812.30972.2081.58245.3655.81358.7615 1.1048 2.2438.86442 2.99-.06934.2285-.2866.264-.39292.264-.39292.1066.88754.8884 1.188 1.3402 1.188.4975 0 1.0204-.21726 1.3808-.96149.0406.07858.0863.15716.1371.23112.7614 1.1048 2.2438.86443 2.99-.06933.0355-.04161.066-.08321.0914-.12019l.0203.57782s-.4214.35594-.6853.56858c-1.1473.9615-2.0205 1.6872-2.0814 2.5286-.0812 1.077.8833 1.4792 1.6093 1.5347.7716.0554 1.4366-.3329 1.8427-.8737.3554-.4761.5889-1.5116.5737-2.52395-.0051-.40678-.0203-.92914-.0254-1.4746.401-.42528.8528-.96612 1.2792-1.59479.4569-.68877.9392-1.60404 1.1981-2.32516 0 0 .4213.00462.8782-.02312.1422-.00924.1879.01849.1574.11557-.0305.11556-.5686 2.01082-.0812 3.27279.3401.86442 1.1016 1.14178 1.5483 1.14178.5278 0 1.0308-.36057 1.3048-.90141.03.06009.066.11557.101.17104.762 1.1048 2.239.8598 2.99-.06934.168-.20802.264-.39292.264-.39292.163.91065.94 1.19263 1.391 1.19263.467 0 .904-.17566 1.264-.94301.016.33745.041.6148.077.70263.02.05547.152.12019.253.15255.432.1433.858.07396 1.026.04622.117-.01849.198-.10169.208-.30971.03-.55471.01-1.47461.193-2.16799.31-1.15103.594-1.60404.731-1.82592.076-.12481.162-.1433.167-.01387.005.26349.021 1.04933.143 2.10328.086.77197.203 1.22498.294 1.37753.254.41141.574.43452.838.43452.162 0 .507-.0416.477-.30971-.015-.12944.01-.92452.315-2.05705.198-.74424.527-1.41914.644-1.66414.046-.09245.066-.01848.066-.00462-.025.51773-.081 2.18648.147 3.10176.31 1.23885 1.209 1.38215 1.523 1.38215.665 0 1.214-.46226 1.396-1.68262-.005-.31434-.071-.53622-.269-.53622z"/><path d="m235.074 6.42834h-2.817c-.071 0-.132.05547-.132.12019v1.25734c0 .06472.061.12019.132.12019h1.102v1.56243s-.249.07858-.934.07858c-.803 0-1.93-.26811-1.93-2.5193 0-2.2512 1.168-2.55167 2.27-2.55167.949 0 1.36.15254 1.624.22651.081.02311.163-.05085.163-.11557l.314-1.21574c0-.03236-.01-.06934-.05-.09245-.107-.06934-.752-.39754-2.386-.39754-1.884 0-3.813.73037-3.813 4.23429 0 3.5039 2.208 4.0263 4.072 4.0263 1.538 0 2.477-.6056 2.477-.6056.04-.0185.04-.0693.04-.0924v-3.91537c0-.07396-.06-.12019-.132-.12019z"/><path d="m249.605 3.30817c0-.06471-.055-.12018-.132-.12018h-1.583c-.072 0-.132.05547-.132.12018v2.79667h-2.473v-2.79667c0-.06471-.056-.12018-.132-.12018h-1.584c-.071 0-.131.05547-.131.12018v7.56253c0 .0647.06.1202.131.1202h1.584c.071 0 .132-.0555.132-.1202v-3.23116h2.473l-.005 3.23116c0 .0647.06.1202.131.1202h1.594c.072 0 .132-.0555.132-.1202z"/><path d="m238.071 4.30197c0-.51773-.457-.93838-1.026-.93838-.568 0-1.025.42065-1.025.93838s.457.93839 1.025.93839c.569 0 1.026-.42528 1.026-.93839z"/><path d="m237.958 9.27593c0-.19415 0-3.49467 0-3.49467 0-.06472-.061-.12019-.132-.12019h-1.579c-.072 0-.138.06934-.138.13406v5.00627c0 .1479.102.1895.229.1895h1.427c.162 0 .193-.0693.193-.1941 0-.2635 0-1.31747 0-1.52087z"/><path d="m255.63 5.67487h-1.578c-.072 0-.132.05547-.132.12018v3.70732s-.402.26811-.97.26811c-.569 0-.716-.23575-.716-.73962 0-.50386 0-3.23118 0-3.23118 0-.06472-.061-.12019-.132-.12019h-1.599c-.071 0-.132.05547-.132.12019v3.47618c0 1.50694.924 1.87214 2.188 1.87214 1.036 0 1.878-.5223 1.878-.5223s.041.2727.056.3097c.02.0323.066.0647.117.0647l1.02-.0046c.071 0 .132-.0555.132-.1202v-5.08487c0-.06009-.056-.11556-.132-.11556z"/><path d="m259.95 5.50285c-.893 0-1.502.36056-1.502.36056v-2.56091c0-.06472-.061-.12019-.132-.12019h-1.594c-.071 0-.132.05547-.132.12019v7.5625c0 .0648.061.1202.132.1202h1.107c.05 0 .086-.0231.116-.0647.026-.0416.066-.3513.066-.3513s.655.5593 1.884.5593c1.441 0 2.274-.6656 2.274-3.00002-.005-2.32054-1.325-2.62563-2.219-2.62563zm-.629 4.26202c-.543-.01386-.914-.24037-.914-.24037v-2.3945s.366-.20339.812-.24037c.569-.04623 1.117.11094 1.117 1.34517-.005 1.29432-.243 1.55319-1.015 1.53007z"/><path d="m242.515 5.66104h-1.193v-1.433c0-.05547-.03-.0832-.101-.0832h-1.625c-.061 0-.096.02311-.096.07858v1.47461s-.813.18028-.868.19414c-.056.01387-.097.0601-.097.11557v.93376c0 .06472.061.12019.132.12019h.838v2.23733c0 1.66418 1.284 1.82588 2.142 1.82588.396 0 .863-.1155.944-.1433.046-.0138.076-.0601.076-.1063v-1.02157c0-.06472-.061-.12019-.132-.12019s-.248.02774-.431.02774c-.584 0-.787-.245-.787-.56858 0-.31896 0-2.12639 0-2.12639h1.203c.071 0 .132-.05547.132-.12019v-1.16489c-.005-.06471-.061-.12019-.137-.12019z"/><path clip-rule="evenodd" d="m221.625 2c-3.102 0-5.625 2.2928-5.625 5.12182 0 2.26045 1.614 4.18348 3.848 4.85838.279.0462.391-.111.391-.245 0-.1202-.005-.5224-.01-.9523-1.569.3097-1.894-.6055-1.894-.6055-.254-.59636-.624-.7489-.624-.7489-.508-.31896.04-.30972.04-.30972.569.03698.858.52698.858.52698.503.78124 1.315.55934 1.64.42524.051-.32817.198-.5593.355-.68873-1.254-.12943-2.563-.56858-2.563-2.52856 0-.56395.218-1.01696.578-1.37753-.055-.12943-.248-.64716.056-1.35441 0 0 .477-.13868 1.549.52235.446-.11094.934-.17104 1.406-.17104.482 0 .959.0601 1.406.17104 1.071-.66103 1.548-.52235 1.548-.52235.305.70263.117 1.22498.056 1.35441.361.35594.579.81358.579 1.37753 0 1.96923-1.315 2.39913-2.569 2.52394.208.15716.386.47612.386.94765 0 .6887-.005 1.2342-.005 1.4006 0 .1341.101.2959.391.245 2.233-.6795 3.843-2.59788 3.843-4.85832-.016-2.81516-2.533-5.11258-5.64-5.11258z" fill-rule="evenodd"/><path d="m218.136 9.35961c-.01.02784-.056.03248-.096.01392-.041-.01856-.066-.05104-.051-.07888.01-.02784.056-.03248.096-.01392.041.01392.066.05104.051.07888z"/><path d="m218.361 9.5852c-.025.02303-.081.01382-.117-.02303-.035-.03685-.045-.08292-.015-.10595.025-.02303.076-.01382.117.02303.035.03686.04.08753.015.10595z"/><path d="m218.579 9.88089c-.035.02303-.091 0-.127-.04606-.035-.04607-.035-.10135 0-.11977.036-.02303.092 0 .127.04146.036.05067.036.10134 0 .12437z"/><path d="m218.885 10.1722c-.03.0322-.096.023-.142-.0185-.051-.0414-.061-.1013-.031-.1289.031-.03228.097-.0231.148.0184.04.0322.061.0921.025.129z"/><path d="m219.299 10.3342c-.015.0415-.076.0599-.142.0415s-.107-.0645-.091-.106c.015-.0414.076-.0599.142-.0414.071.0184.112.0691.091.1059z"/><path d="m219.766 10.3667c0 .0415-.051.0783-.117.0783s-.122-.0322-.122-.0737c0-.0414.051-.0783.122-.0783.056 0 .117.0323.117.0737z"/><path d="m220.193 10.2973c.01.0415-.041.0829-.107.0921-.066.0093-.126-.0138-.132-.0552-.01-.0415.041-.0829.107-.0968.066-.0092.122.0185.132.0599z"/><path d="m45.9229 56-1.6107 5.6462 6.2006 1.4666 1.6106-5.6462zm-8.9229.6254v5.8576h2.8409v-2.1685c.4002 0 .6966.1754.8844.5263.1927.351.3112.8998.3656 1.6377h2.9594c-.1333-1.1518-.5533-2.083-1.245-2.8074.4891-.3104.7362-.7468.7362-1.3002 0-.5038-.2075-.9177-.6226-1.2462-.4199-.3329-.9881-.5038-1.7094-.5038zm15.7558 0v5.8576h4.4862c.6966 0 1.2351-.1485 1.6254-.4409.3904-.2925.5781-.6839.5781-1.1788 0-.3149-.084-.5803-.2569-.7873-.1729-.2114-.4249-.3959-.751-.5533.5583-.288.835-.7064.835-1.2597 0-.5039-.2125-.9043-.6374-1.1923-.4249-.2924-1.0424-.4409-1.8626-.4409zm7.5543 0v5.8576h5.3458v-1.4712h-2.495v-4.3909h-2.8508zm13.409 0 2.5148 2.8928-2.5148 2.9648h3.0929l.9832-1.1608 1.0178 1.1608h3.1175l-2.5889-2.9783 2.4308-2.8793h-3.0879l-.9091 1.0752-.9535-1.0752zm-7.1788.0134v5.8307h6.4031v-5.8307zm-10.9337 1.1653h.1729c.499 0 .7461.1889.7461.5668 0 .2115-.0643.3554-.1927.4454-.1285.0855-.3459.126-.6571.126h-.0692zm-15.7558.027h.1729c.2421 0 .42.0584.5188.1754.1037.117.1531.2475.1531.4004 0 .3644-.2569.5489-.7707.5489h-.0791c.005 0 .005-1.1247.005-1.1247zm7.9149 1.0392 1.2006.2834-.3112 1.0933-1.2006-.2834zm21.3635.1215h1.2352v1.1247h-1.2352zm-13.5226.9358h.1976c.5287 0 .7955.2204.7955.6613 0 .225-.0692.3824-.2125.4724-.1383.09-.3755.135-.6917.135h-.0889z"/><path d="m115.176 64.3475c-.672.108-1.359.144-2.075.225l-2.169-5.7856v6.033c-.672.063-1.295.153-1.932.2385v-11.0584h1.803l2.466 6.2715v-6.2715h1.907zm3.735-6.2985c.736 0 1.863-.0315 2.535-.0315v1.7276c-.84 0-1.828 0-2.535.0315v2.5734c1.117-.063 2.228-.1529 3.355-.1844v1.6646l-5.257.3824v-10.2036h5.257v1.7276h-3.355zm10.41-2.3214h-1.966v7.9451c-.643 0-1.28 0-1.898.0225v-7.9676h-1.966v-1.7276h5.835c-.005 0-.005 1.7276-.005 1.7276zm3.078 2.209h2.599v1.7276h-2.599v3.9185h-1.863v-9.5782h5.302v1.7276h-3.439zm6.527 4.1345c1.082.0225 2.169.1035 3.226.1529v1.7051c-1.695-.1034-3.394-.1934-5.124-.2249v-9.6952h1.898zm4.822 1.975c.603.0315 1.245.063 1.862.1305v-10.1676h-1.862zm10.173-10.0461-2.406 5.2592 2.406 5.7992c-.712-.0855-1.423-.2025-2.135-.3105l-1.358-3.1987-1.389 2.9378c-.686-.108-1.353-.144-2.04-.2249l2.44-5.0658-2.203-5.1963h2.04l1.245 2.9018 1.325-2.9018z"/><path clip-rule="evenodd" d="m182.882 55h7.525c.499 0 .983.18 1.339.5039.356.3194.553.7558.553 1.2192v6.8519c0 .9537-.844 1.7186-1.887 1.7186h-7.525c-1.042 0-1.887-.7694-1.887-1.7186v-6.8519c-.005-.9583.845-1.7231 1.882-1.7231zm6.764 8.413c.331 0 .598-.2429.598-.5444v-5.4617c0-.3014-.267-.5443-.598-.5443h-6.003c-.158 0-.311.0584-.425.1574-.113.1035-.173.2385-.173.3824v5.4617c0 .3015.267.5444.598.5444h6.003z" fill-rule="evenodd"/><path d="m185.446 61.5323c-.187 0-.341-.1439-.341-.3104v-2.1775c0-.081.035-.1619.099-.2204.065-.0585.158-.09.242-.09h2.397c.089 0 .177.0315.242.09.064.0585.099.1439.099.2204v2.1775c0 .081-.035.162-.099.225-.065.0584-.158.0899-.242.0899h-2.397z"/><path d="m198.049 59.6834c-.351-.0855-.682-.1665-.934-.2745-.474-.1934-.697-.4634-.697-.8413 0-.7198.771-1.0437 1.532-1.0437.731 0 1.359.2744 1.788.7693l.03.036.613-.4364-.03-.036c-.563-.6524-1.403-1.0168-2.362-1.0168-.642 0-1.225.1575-1.645.4409-.474.3149-.731.7783-.731 1.3227 0 1.2732 1.314 1.5881 2.381 1.8356 1.077.2564 1.73.4544 1.73 1.1967 0 .7378-.648 1.2057-1.66 1.2057-.499 0-1.423-.1215-2.001-.9268l-.025-.036-.647.4274.024.036c.554.7558 1.492 1.1922 2.599 1.1922 1.497 0 2.51-.7693 2.51-1.9165-.005-1.3182-1.374-1.6646-2.475-1.9345z"/><path clip-rule="evenodd" d="m205.411 59.4179v-.6883h.726v6.555h-.726v-2.5644c-.41.5128-1.032.7963-1.754.7963-1.368 0-2.337-.9988-2.337-2.4475 0-1.4396.959-2.4519 2.337-2.4519.717 0 1.334.279 1.754.8008zm-3.33 1.6466c0 1.3407.84 1.8131 1.626 1.8131 1.032 0 1.699-.7153 1.699-1.8131 0-1.0977-.667-1.804-1.699-1.804-1.201-.0045-1.626.9313-1.626 1.804z" fill-rule="evenodd"/><path d="m210.902 58.7295v2.5869c0 .9088-.686 1.5611-1.62 1.5611-.776 0-1.161-.4229-1.161-1.2822v-2.8613h-.726v3.0008c0 1.1202.667 1.795 1.793 1.795.697 0 1.304-.2699 1.709-.7603v.6614h.727v-4.6834h-.727z"/><path clip-rule="evenodd" d="m212.993 59.2155c.528-.3824 1.254-.5984 1.981-.5984 1.146 0 1.833.5174 1.828 1.3902v3.4012h-.726v-.5174c-.366.4139-.89.6299-1.572.6299-1.101 0-1.793-.5489-1.793-1.4352 0-1.1517 1.191-1.3317 1.7-1.4037.084-.0135.168-.0225.251-.036h.005c.692-.1034 1.409-.1979 1.409-.7378 0-.6028-.87-.6523-1.132-.6523-.469 0-1.131.1259-1.576.4814l-.039.0315-.381-.5219zm.474 2.8343c0 .7468.78.8323 1.107.8323.731 0 1.497-.3509 1.497-1.3452v-.6748c-.351.2024-.855.2789-1.305.3509h-.01l-.222.036c-.702.1215-1.067.2744-1.067.8008z" fill-rule="evenodd"/><path d="m220.981 58.8106c-.173-.1125-.439-.1755-.726-.1755-.578.009-1.121.261-1.462.6839v-.5984h-.727v4.6834h.727v-2.5059c0-1.1112.686-1.6106 1.363-1.6106.203-.0045.396.036.573.1124l.05.0225.227-.5938z"/><path clip-rule="evenodd" d="m221.188 61.078c0-1.4486.993-2.4609 2.411-2.4609 1.363 0 2.322.8998 2.317 2.1865 0 .1125-.005.225-.02.3329l-.005.0405h-3.948c.02 1.0303.697 1.6961 1.749 1.6961.598 0 1.122-.2204 1.463-.6298l.03-.036.523.4274-.029.0315c-.346.3869-.984.8458-2.031.8458-1.462.0045-2.46-.9763-2.46-2.434zm2.391-1.8265c-.88 0-1.507.5263-1.606 1.3542h3.182c-.059-.6614-.499-1.3542-1.576-1.3542z" fill-rule="evenodd"/><path d="m4.63288 60.0815c-.73333-.135-1.38452-.1936-1.38452-.5984 0-.3638.352-.528.79786-.528.5104 0 .85653.1584.92693.6746h1.68959c-.088-1.1381-.968-1.848-2.60479-1.848-1.36692 0-2.49332.6336-2.49332 1.848 0 1.3552 1.0736 1.6251 2.07679 1.7952.76853.135 1.46666.1936 1.46666.7099 0 .3696-.352.5749-.90346.5749-.55733 0-.92106-.2346-1.03253-.7098h-1.75412c.12906 1.185 1.17332 1.9066 2.79838 1.9066 1.51359 0 2.62825-.6512 2.62825-1.9184 0-1.4784-1.19679-1.7365-2.21172-1.9066z"/><path d="m-1.53143 59.0923c.598404 0 1.026671.44 1.091204 1.1264h-2.276274c.12321-.6864.48107-1.1264 1.18507-1.1264zm.09974 3.4848c-.7568 0-1.18507-.487-1.29653-1.2614h4.14773c.01173-1.1733-.32853-2.1765-1.014934-2.8101-.4986669-.4517-1.149867-.7216-1.971196-.7216-1.76 0-2.96854 1.32-2.96854 3.0448 0 1.7483 1.17334 3.0683 3.08 3.0683.733337 0 1.320005-.1936 1.806938-.528.5104-.352.844792-.8448.967992-1.367h-1.795194c-.1584.3579-.469336.575-.956266.575z"/><path d="m10.0861 62.3662c-.08798.0058-.19944.0058-.30504.0058-.39307 0-.64533-.1114-.64533-.5632v-2.7045h.94457v-1.1499h-.94457v-1.8245h-1.79519v1.8245h-.5632v1.1499h.5632v3.1035c0 1.2378.76853 1.5898 1.83625 1.5898.41067 0 .71573-.0293.90351-.0645z"/><path d="m383.074 64.9531c-.129.0352-.234.0528-.34.0528-.381 0-.557-.1643-.557-.6278v-3.5258c0-1.848-1.473-2.7515-3.221-2.7515-1.332 0-2.048.1643-3.473.7333l-.317 1.8656 1.848.1995.264-.9152c.381-.1995.757-.2347 1.244-.2347 1.314 0 1.331.9915 1.331 1.8128v.2699c-.416-.0528-.88-.0704-1.331-.0704-1.848 0-3.778.4693-3.778 2.464 0 1.6896 1.331 2.3232 2.499 2.3232 1.314 0 2.141-.792 2.605-1.6192.105.9914.698 1.6192 1.777 1.6192.505 0 1.027-.1408 1.455-.3813zm-4.981-.0528c-.698 0-.95-.4166-.95-.9387 0-.88.722-1.1147 1.549-1.1147.375 0 .792.0528 1.167.1056-.058 1.3552-.938 1.9478-1.766 1.9478zm-3.115-10.9003-3.508 12.3728h-2.288l3.508-12.3728zm-4.711 0-3.508 12.3728h-2.282l3.508-12.3728zm-9.733 4.2651h2.429v2.9098h-2.429zm0 5.192h2.429v2.9157h-2.429zm-3.537-.1056 1.836.176-.504 2.8453h-7.087l-.235-1.2203 4.459-5.1216h-2.535l-.358 1.2555-1.672-.1819.288-2.8453h7.122l.182 1.2203-4.5 5.1274h2.628zm-11.616-5.2507c-2.916 0-4.353 1.9595-4.353 4.3355 0 2.5872 1.725 4.1184 4.224 4.1184 2.587 0 4.458-1.6368 4.458-4.224 0-2.2704-1.419-4.2299-4.329-4.2299zm-.059 6.6704c-1.255 0-1.906-1.0795-1.906-2.4816 0-1.5312.733-2.4053 1.924-2.4053 1.097 0 1.977.7333 1.977 2.3701.006 1.5429-.786 2.5168-1.995 2.5168zm-6.383-.1584h1.08v1.7658h-3.403v-4.5642c0-1.4021-.469-1.9419-1.385-1.9419-1.114 0-1.566.792-1.566 1.9243v2.8218h1.08v1.7659h-3.397v-4.5642c0-1.4022-.47-1.9419-1.385-1.9419-1.114 0-1.566.792-1.566 1.9243v2.8218h1.549v1.7659h-4.946v-1.7659h1.079v-4.5994h-1.079v-1.7659h3.397v1.2203c.487-.8624 1.332-1.3846 2.464-1.3846 1.167 0 2.247.5574 2.646 1.7424.451-1.0794 1.367-1.7424 2.646-1.7424 1.454 0 2.786.88 2.786 2.8043z"/><path d="m233.983 109.649v2.562h.699c.362-.005.703-.143.955-.382.252-.244.388-.564.383-.899.011-.335-.126-.664-.378-.903-.247-.239-.593-.373-.96-.373zm.704-.803c1.302 0 2.294.923 2.294 2.079 0 1.157-.987 2.089-2.294 2.089h-1.543c-.063 0-.111-.048-.111-.105v-3.958c0-.057.048-.105.111-.105zm5.658 3.456c.593 0 1.129-.33 1.355-.841.225-.512.105-1.095-.315-1.492-.415-.392-1.05-.511-1.601-.301-.546.21-.908.712-.914 1.267.016.755.672 1.362 1.475 1.367zm0-3.547c1.376 0 2.425.985 2.425 2.175s-1.055 2.175-2.425 2.175-2.42-.98-2.42-2.175c.006-1.195 1.061-2.175 2.42-2.175zm5.774 3.547c.814 0 1.465-.617 1.465-1.372s-.656-1.372-1.47-1.372-1.47.617-1.47 1.362c0 .364.152.713.431.971.273.267.656.411 1.044.411zm0-3.547c1.375 0 2.425.98 2.425 2.175s-1.06 2.175-2.425 2.175c-1.37 0-2.425-.98-2.425-2.175s1.05-2.175 2.425-2.175zm5.632.894h-.986v1.099h.986c.158.005.31-.047.426-.148.115-.105.178-.239.178-.387.005-.148-.058-.296-.173-.411-.11-.096-.273-.158-.431-.153zm-1.942-.693c0-.057.053-.105.111-.105h1.863c.887 0 1.533.607 1.533 1.372.005.516-.31.994-.793 1.223l.861 1.42c.026.033.026.076.005.11-.021.033-.063.052-.105.052h-.75c-.042 0-.084-.019-.1-.057l-.83-1.401h-.829v1.348c0 .058-.047.101-.11.106h-.73c-.063 0-.11-.048-.11-.106zm5.989.717v2.562h.699c.362-.005.703-.144.955-.383.252-.243.388-.564.383-.898.011-.335-.126-.664-.378-.903-.247-.239-.598-.373-.966-.373.016-.005-.693-.005-.693-.005zm.699-.808c1.301 0 2.293.927 2.293 2.084s-.986 2.084-2.293 2.084h-1.538c-.063 0-.111-.048-.111-.11v-3.957c0-.058.048-.106.111-.106zm5.217 1.023-.546 1.372h1.081zm-.856 2.141-.356.913c-.016.043-.058.072-.111.072h-.771c-.042.005-.079-.014-.1-.043s-.026-.072-.011-.11l1.664-3.953c.016-.043.063-.072.111-.067h.866c.047-.005.094.024.11.067l1.664 3.953c.016.033.01.072-.011.11-.021.029-.063.048-.099.043h-.772c-.052 0-.094-.029-.11-.072l-.357-.913zm3.953-2.055c0-.66.604-1.224 1.564-1.224.515-.009 1.019.163 1.391.493.047.038.047.105.005.148l-.005.005-.425.396c-.042.039-.11.039-.152 0-.2-.172-.462-.267-.74-.272-.383 0-.662.206-.662.449 0 .775 2.263.325 2.263 1.817 0 .75-.609 1.324-1.685 1.324-.604.004-1.192-.211-1.617-.603-.047-.038-.047-.11-.005-.148l.005-.005.409-.382c.042-.038.111-.043.153-.005l.005.005c.262.234.609.368.971.368.478 0 .793-.239.793-.535 0-.775-2.263-.325-2.263-1.817zm7.322-1.023v1.568h-1.916v-1.568c0-.057-.047-.1-.11-.105h-.729c-.063 0-.111.048-.111.105v3.953c0 .057.053.11.111.11h.729c.063 0 .11-.048.11-.11v-1.592h1.916v1.592c0 .057.053.11.111.11h.729c.063 0 .11-.048.11-.11v-3.953c0-.057-.047-.1-.11-.11h-.729c-.063.005-.116.053-.111.11zm-43.183.426c-.504-.846-1.491-1.382-2.562-1.377h-8.104c-.111 0-.21.062-.263.153-.042.091-.021.201.058.272l1.769 1.597c.157.138.367.22.588.22h5.711c.404-.005.74.287.745.659.005.368-.32.665-.735.669h-3.942c-.11 0-.215.063-.262.153-.042.096-.021.201.057.273l1.769 1.596c.158.139.368.22.588.22h1.785c2.341 0 4.094-2.227 2.798-4.435z"/><path d="m22.7941 109.479c0-1.889-1.2437-3.473-3.5669-3.473h-5.2741v10.155h2.9861v-3.115h1.1323l1.3082 3.115h3.4144l-1.8011-3.602c.792-.393 1.8011-1.302 1.8011-3.08zm-4.0245 1.22h-1.8246v-2.018h1.8246c.5163 0 .9738.305.9738 1.003 0 .71-.4869 1.015-.9738 1.015zm12.4138 5.462h3.0155v-3.45h4.4235v-2.686h-4.4235v-1.338h4.5467v-2.687h-7.5622zm-23.73062-10.155h-4.45278v10.155h4.4821c3.1152 0 5.4619-1.824 5.4619-5.092-.0294-3.233-2.3584-5.063-5.49122-5.063zm0 7.48h-1.43734v-4.787h1.46083c1.61333 0 2.37599 1.003 2.37599 2.376.00587 1.279-.86828 2.411-2.39948 2.411zm32.35462-7.48v2.687h2.6576v7.468h3.0155v-7.468h2.6576v-2.687zm-9.5978 0h.1173c.1525.029.2112.182.1525.27-.0293.029-.0293.058-.0586.088l-2.5285 2.898s-.0587.059-.0587.088c-.088.117 0 .27.1877.305h.088.8859.088c.1818.029.2405.182.1818.305-.0293.029-.0586.088-.0586.088l-1.9478 2.059c-.0293.03-.0293.059-.0586.088-.088.118 0 .27.1877.27h.6688c.088 0 .1878.029.2112.117.0294.059 0 .153-.0587.212-.0293.029-.0586.029-.0586.029l-4.3003 3.297s-.0587.059-.088.059c-.0293.029-.088.029-.1525 0-.0293-.03-.0587-.059-.0294-.088 0-.03.0294-.088.0294-.088l1.185-2.47.0294-.059c.088-.152 0-.305-.1877-.305-.0294 0-.0587 0-.0587 0h-.8213c-.0294 0-.0587 0-.0881 0-.1525-.029-.2112-.152-.1877-.27 0-.029.0293-.088.0293-.088l1.5019-2.47.0294-.029c.088-.153-.0294-.27-.2113-.305-.088 0-.2405 0-.2405 0s-.3989 0-.6688 0h-.088c-.1173 0-.2112-.059-.2405-.153 0-.058 0-.088.0293-.152l.4576-.786 1.4608-2.593.0293-.059c.1819-.182.3051-.241.487-.241z"/><path d="m306.571 116.211h-2.458v-3.508h-1.59v3.508h-2.523v-9.046h2.517v3.373h1.59v-3.373h2.458zm11.275.03c2.517 0 4.571-2.089 4.571-4.647 0-2.587-2.06-4.593-4.571-4.593-2.552 0-3.836 1.854-4.147 2.61 0-1.126-1.127-2.458-2.423-2.458h-4.201v9.053h3.913c1.59 0 2.711-1.356 2.711-2.552.352.739 1.601 2.587 4.147 2.587zm-7.169-3.673c.364 0 .657.352.657.763 0 .422-.287.774-.657.774h-1.249v-1.537zm0-3.391c.364 0 .657.352.657.763 0 .405-.287.763-.657.763h-1.249v-1.508h1.249zm1.655 2.417c.287-.017.762-.352.944-.551-.07.24-.07 1.015 0 1.25-.199-.288-.657-.646-.944-.699zm3.22 0c0-1.279 1.033-2.305 2.312-2.299 1.285.011 2.294 1.05 2.282 2.335-.017 1.255-1.032 2.276-2.294 2.276-1.267.006-2.3-1.027-2.3-2.312zm2.294 1.813c.98 0 1.807-.809 1.807-1.813 0-1.003-.821-1.807-1.807-1.807-1.015 0-1.812.792-1.812 1.807s.803 1.813 1.812 1.813z"/><path d="m335.565 110.36c-.048-2.192-1.6-3.349-3.498-3.349-1.04 0-1.984.346-2.624 1.029-.646-.677-1.584-1.029-2.624-1.029-1.899 0-3.451 1.168-3.499 3.354v.016 4.997c0 .459.374.832.832.832h.79c.08 0 .138-.064.138-.138v-5.685c.032-1.083.8-1.654 1.75-1.654.943 0 1.706.571 1.749 1.654v4.997c0 .458.373.832.832.832h.789c.08 0 .139-.064.139-.139v-5.69c.032-1.078.8-1.654 1.749-1.654.944 0 1.707.571 1.749 1.654v4.997c0 .458.374.832.832.832h.79c.08 0 .138-.064.138-.139l-.032-5.717c.006.011 0 .005 0 0zm17.685-3.205h-1.328c-.368 0-.709.181-.923.49l-1.472 2.182c-.192.288-.608.288-.805 0l-1.472-2.182c-.202-.304-.554-.49-.922-.49h-1.328c-.08 0-.128.09-.086.16l2.629 3.898c.187.283.187.651 0 .933l-2.629 3.899c-.048.069.006.16.086.16h1.328c.368 0 .709-.181.922-.491l1.472-2.181c.192-.288.608-.288.805 0l1.472 2.181c.203.304.555.491.923.491h1.328c.08 0 .128-.091.085-.16l-2.634-3.893c-.187-.283-.187-.651 0-.933l2.629-3.899c.048-.069 0-.165-.08-.165zm-8.949 0h-.789c-.395 0-.736.282-.811.65-.699-.533-1.579-.805-2.523-.805-2.298 0-4.165 1.6-4.165 4.624 0 3.018 1.861 4.624 4.165 4.624.939 0 1.803-.267 2.507-.79.037.422.389.758.832.758h.789c.08 0 .139-.064.139-.139v-8.778c-.011-.086-.064-.144-.144-.144zm-4.123 7.375c-1.37 0-2.485-1.002-2.485-2.901 0-1.898 1.12-2.901 2.485-2.901 1.366 0 2.486 1.003 2.486 2.901 0 1.899-1.115 2.901-2.486 2.901z"/><path d="m335.565 110.36c-.048-2.192-1.6-3.349-3.498-3.349-1.04 0-1.984.346-2.624 1.029-.646-.677-1.584-1.029-2.624-1.029-1.899 0-3.451 1.168-3.499 3.354v.016 4.997c0 .459.374.832.832.832h.79c.08 0 .138-.064.138-.138v-5.691c.032-1.082.8-1.653 1.75-1.653.943 0 1.706.571 1.749 1.653v4.997c0 .459.373.832.832.832h.789c.08 0 .139-.064.139-.138v-5.691c.032-1.077.8-1.653 1.749-1.653.944 0 1.707.571 1.749 1.653v4.997c0 .459.374.832.832.832h.79c.08 0 .138-.064.138-.138l-.032-5.712c.006.011 0 .005 0 0zm17.685-3.205h-1.328c-.368 0-.709.181-.923.49l-1.472 2.182c-.192.288-.608.288-.805 0l-1.472-2.182c-.202-.304-.554-.49-.922-.49h-1.328c-.08 0-.128.09-.086.16l2.629 3.898c.187.283.187.651 0 .933l-2.629 3.899c-.048.069.006.16.086.16h1.328c.368 0 .709-.181.922-.491l1.472-2.181c.192-.288.608-.288.805 0l1.472 2.181c.203.304.555.491.923.491h1.328c.08 0 .128-.091.085-.16l-2.634-3.893c-.187-.283-.187-.651 0-.933l2.629-3.899c.048-.069 0-.165-.08-.165zm-8.949 0h-.789c-.395 0-.736.282-.811.65-.699-.533-1.579-.805-2.523-.805-2.298 0-4.165 1.6-4.165 4.624 0 3.018 1.861 4.624 4.165 4.624.939 0 1.803-.267 2.507-.795.037.421.389.757.832.757h.789c.08 0 .139-.064.139-.138v-8.779c-.011-.08-.064-.138-.144-.138zm-4.123 7.375c-1.37 0-2.485-1.002-2.485-2.901 0-1.898 1.12-2.901 2.485-2.901 1.366 0 2.486 1.003 2.486 2.901 0 1.899-1.115 2.901-2.486 2.901z"/><path d="m335.565 110.36c-.048-2.192-1.6-3.349-3.498-3.349-1.04 0-1.984.346-2.624 1.029-.646-.677-1.584-1.029-2.624-1.029-1.899 0-3.451 1.168-3.499 3.354v.016 4.997c0 .459.374.832.832.832h.79c.08 0 .138-.064.138-.138v-5.691c.032-1.082.8-1.653 1.75-1.653.943 0 1.706.571 1.749 1.653v4.997c0 .459.373.832.832.832h.789c.08 0 .139-.064.139-.138v-5.691c.032-1.077.8-1.653 1.749-1.653.944 0 1.707.571 1.749 1.653v4.997c0 .459.374.832.832.832h.79c.08 0 .138-.064.138-.138l-.032-5.712c.006.011 0 .005 0 0zm17.685-3.205h-1.328c-.368 0-.709.181-.923.49l-1.472 2.182c-.192.288-.608.288-.805 0l-1.472-2.182c-.202-.304-.554-.49-.922-.49h-1.328c-.08 0-.128.09-.086.16l2.629 3.898c.187.283.187.651 0 .933l-2.629 3.899c-.048.069.006.16.086.16h1.328c.368 0 .709-.181.922-.491l1.472-2.181c.192-.288.608-.288.805 0l1.472 2.181c.203.304.555.491.923.491h1.328c.08 0 .128-.091.085-.16l-2.634-3.893c-.187-.283-.187-.651 0-.933l2.629-3.899c.048-.069 0-.165-.08-.165zm-8.949 0h-.789c-.395 0-.736.282-.811.65-.699-.533-1.579-.805-2.523-.805-2.298 0-4.165 1.6-4.165 4.624 0 3.018 1.861 4.624 4.165 4.624.939 0 1.803-.267 2.507-.795.037.421.389.757.832.757h.789c.08 0 .139-.064.139-.138v-8.779c-.011-.08-.064-.138-.144-.138zm-4.123 7.375c-1.37 0-2.485-1.002-2.485-2.901 0-1.898 1.12-2.901 2.485-2.901 1.366 0 2.486 1.003 2.486 2.901 0 1.899-1.115 2.901-2.486 2.901z"/><path d="m335.565 110.36c-.048-2.192-1.6-3.349-3.498-3.349-1.04 0-1.984.346-2.624 1.029-.646-.677-1.584-1.029-2.624-1.029-1.899 0-3.451 1.168-3.499 3.354v.016 4.997c0 .459.374.832.832.832h.79c.08 0 .138-.064.138-.138v-5.691c.032-1.082.8-1.653 1.75-1.653.943 0 1.706.571 1.749 1.653v4.997c0 .459.373.832.832.832h.789c.08 0 .139-.064.139-.138v-5.691c.032-1.077.8-1.653 1.749-1.653.944 0 1.707.571 1.749 1.653v4.997c0 .459.374.832.832.832h.79c.08 0 .138-.064.138-.138l-.032-5.712c.006.011 0 .005 0 0zm17.685-3.205h-1.328c-.368 0-.709.181-.923.49l-1.472 2.182c-.192.288-.608.288-.805 0l-1.472-2.182c-.202-.304-.554-.49-.922-.49h-1.328c-.08 0-.128.09-.086.16l2.629 3.898c.187.283.187.651 0 .933l-2.629 3.899c-.048.069.006.16.086.16h1.328c.368 0 .709-.181.922-.491l1.472-2.181c.192-.288.608-.288.805 0l1.472 2.181c.203.304.555.491.923.491h1.328c.08 0 .128-.091.085-.16l-2.634-3.893c-.187-.283-.187-.651 0-.933l2.629-3.899c.048-.069 0-.165-.08-.165zm-8.949 0h-.789c-.395 0-.736.282-.811.65-.699-.533-1.579-.805-2.523-.805-2.298 0-4.165 1.6-4.165 4.624 0 3.018 1.861 4.624 4.165 4.624.939 0 1.803-.267 2.507-.795.037.421.389.757.832.757h.789c.08 0 .139-.064.139-.138v-8.779c-.011-.08-.064-.138-.144-.138zm-4.123 7.375c-1.37 0-2.485-1.002-2.485-2.901 0-1.898 1.12-2.901 2.485-2.901 1.366 0 2.486 1.003 2.486 2.901 0 1.899-1.115 2.901-2.486 2.901z"/><path d="m190.043 166.628c.152.983-.135 1.924-.237 2.899-.468 0-.908 0-1.404 0 .255-1.65.505-3.299.769-4.983.408 0 .807.004 1.196 0 .185-.004.199.131.241.232.403.903.922 1.768 1.181 2.73.01-1 .246-1.962.376-2.949h1.394c-.254 1.662-.514 3.312-.769 4.987-.44 0-.857-.004-1.274 0-.181.004-.199-.127-.246-.228-.38-.831-.857-1.637-1.088-2.527-.019-.051-.014-.131-.139-.161z"/><path d="m206.562 169.527c.26-1.679.515-3.325.77-4.974.894 0 1.76-.047 2.618.012 1.028.068 1.547.743 1.371 1.675-.139.722-.468 1.317-1.311 1.587.44.565.857 1.114 1.316 1.713-.584 0-1.108 0-1.627 0-.148 0-.19-.106-.255-.19-.291-.409-.583-.823-.871-1.236-.064-.093-.125-.19-.273-.161-.139.03-.107.152-.12.237-.07.438-.135.886-.204 1.337-.478 0-.936 0-1.414 0zm2.002-3.801c-.06.388-.116.746-.176 1.13.315 0 .598.013.871-.004.399-.021.704-.333.681-.675-.023-.312-.236-.451-.699-.451-.214 0-.422 0-.677 0z"/><path d="m184.841 164.013c-.477 0-.912 0-1.403 0 .254-1.663.514-3.312.769-4.996.945.017 1.89-.076 2.812.051.816.114 1.237.633 1.191 1.384-.051.822-.371 1.519-1.33 1.856.426.561.848 1.105 1.307 1.705-.598 0-1.135.004-1.673-.005-.12 0-.153-.118-.208-.198-.283-.401-.57-.81-.858-1.211-.078-.114-.157-.219-.361-.143-.079.51-.162 1.029-.246 1.557zm.598-3.815c-.06.397-.111.752-.167 1.119.357 0 .672.033.978-.009.371-.051.612-.384.561-.7-.042-.283-.255-.405-.681-.405-.214-.005-.436-.005-.691-.005z"/><path d="m192.809 164.025c.259-1.696.519-3.341.769-5.008.875.009 1.733-.063 2.581.038.968.114 1.468.709 1.371 1.586-.069.629-.171 1.249-.292 1.865-.148.768-.834 1.325-1.788 1.46-.858.123-1.733.025-2.641.059zm2.001-3.822c-.139.89-.273 1.738-.408 2.607.306 0 .589.025.862-.008.343-.038.57-.211.617-.553.064-.494.152-.992.227-1.485.046-.321-.139-.536-.501-.561-.255-.017-.51 0-.797 0z"/><path d="m202.164 169.523c.255-1.667.514-3.316.765-4.975h3.841c-.061.397-.121.768-.181 1.165-.806 0-1.599 0-2.414 0-.042.253-.079.481-.121.742h2.225c-.061.397-.112.756-.172 1.144-.741 0-1.469 0-2.196 0-.093.24-.107.472-.125.73h2.395c-.06.413-.116.793-.176 1.198-1.279-.004-2.544-.004-3.841-.004z"/><path d="m190.244 160.945h2.229c-.055.379-.111.734-.171 1.122-.737 0-1.469 0-2.206 0-.069.257-.12.485-.111.743h2.395c-.06.409-.115.789-.176 1.189-1.278 0-2.543 0-3.841 0 .255-1.662.505-3.312.769-4.978h3.837c-.06.396-.116.772-.176 1.173-.806 0-1.594 0-2.419 0-.046.249-.083.476-.13.751z"/><path d="m186.975 164.54c.399 1.671.793 3.32 1.191 4.987-.514 0-.987 0-1.496 0-.074-.321-.144-.637-.223-.975-.482 0-.963 0-1.455 0-.129.262-.273.532-.398.81-.056.119-.116.19-.278.186-.422-.013-.843-.004-1.316-.004.297-.561.579-1.093.866-1.629.566-1.05 1.14-2.105 1.696-3.156.079-.151.162-.232.362-.219.356.013.695 0 1.051 0zm-.667 2.865c-.046-.498-.088-.966-.129-1.435-.028-.004-.061-.008-.089-.012-.189.472-.379.945-.583 1.447z"/><path d="m221.877 163.553c-.181.405-.487.721-.858 1-.519.388-1.075.713-1.64 1.046-.153.097-.338.186-.287.401.046.194.231.249.412.304.32.097.649.038 1.006.071-.112.182-.306.199-.468.22-.408.059-.816.033-1.219-.089-1.64-.506-3.192.283-3.605 1.823-.102.384-.134.776-.083 1.19-.334.046-.653.025-1.029.012.176-.932-.153-1.806-.287-2.692-.088-.586.046-1.122.417-1.607.074-.097.139-.224.334-.228-.079.211-.158.405-.227.603-.102.287-.07.57.046.849.139.333.375.409.718.223.524-.287.899-.704 1.209-1.185.176-.275.339-.557.524-.827.222-.321.547-.507 1.01-.557-.088.194-.255.27-.375.375-.227.194-.403.418-.44.705-.042.32.111.485.458.51.227.017.44-.029.654-.093.37-.109.709-.282 1.033-.468.607-.342 1.015-.776.94-1.485-.023-.262 0-.532.088-.789.112-.329.278-.536.672-.734-.361.439-.495.852-.468 1.308.01.194.047.38.125.557.102.223.274.282.501.152.315-.161.519-.426.774-.637.037.016.051.029.065.042z"/><path d="m198.378 164.548c-.07.414-.13.798-.195 1.199-.5 0-.968 0-1.473 0-.195 1.261-.394 2.506-.584 3.78-.468 0-.931 0-1.413 0 .19-1.257.38-2.493.574-3.772-.5 0-.977 0-1.482 0 .065-.422.125-.81.19-1.198 1.459-.009 2.896-.009 4.383-.009z"/><path d="m198.055 169.527c.255-1.671.505-3.304.764-4.957h1.404c-.19 1.232-.38 2.451-.574 3.712h2.238c-.065.439-.126.84-.19 1.249-1.214-.004-2.405-.004-3.642-.004z"/><path d="m83.5625 222.765h1.6977v-1.6c0-1.402.6932-1.969 1.8068-1.969.2784 0 .464.025.464.025v-1.531c-.1201-.025-.2238-.035-.3821-.035-.8243 0-1.4357.363-1.8887 1.079v-1.009h-1.6977z"/><path d="m95.6012 222.765h1.6922v-3.057c0-1.312-.8297-2.132-2.0579-2.132-.8188 0-1.4957.298-1.9597.87-.3658-.557-.999-.87-1.7796-.87-.6823 0-1.2227.209-1.6267.641v-.487h-1.6976v5.035h1.6976v-2.465c0-.825.3658-1.298 1.0536-1.298.6277 0 .9553.333.9553.955v2.808h1.6976v-2.465c0-.825.404-1.298 1.1081-1.298.5623 0 .9171.418.9171.975z"/><path d="m108.361 222.765h1.687v-3.092c0-.616-.202-1.143-.59-1.521-.382-.377-.884-.571-1.512-.571-.677 0-1.294.243-1.725.656v-.507h-1.698v5.035h1.698v-2.336c0-.92.415-1.427 1.168-1.427.579 0 .972.408.972 1.014z"/><path d="m70.8211 218.982h2.3746v1.934c0 1.292.7423 2.003 2.1616 2.003.6114 0 1.1081-.109 1.523-.293l-.4312-1.228c-.2621.119-.4913.179-.7424.179-.5404 0-.8134-.288-.8134-.825v-1.765h1.6759v-1.252h-1.6759v-1.735l-1.6976.512v1.228h-2.3691v-1.735l-1.6977.512v4.409c0 1.292.7424 2.003 2.1617 2.003.6113 0 1.1026-.109 1.5229-.293l-.4312-1.228c-.262.119-.4913.179-.7424.179-.5404 0-.8133-.288-.8133-.825z"/><path d="m59.4608 221.453h-1.7522v-1.362h1.7522c.3985 0 .797.238.797.691 0 .397-.3275.671-.797.671zm-1.7522-3.992h1.5339c.5622 0 .8133.333.8133.671 0 .473-.4148.691-.8133.691h-1.5339zm3.2643 1.825s.8789-.423.8789-1.447c0-.81-.7588-1.705-2.2927-1.705h-3.5591v6.641h3.5591c1.9542 0 2.5001-1.103 2.5001-1.869 0-1.213-1.0863-1.62-1.0863-1.62z"/><path d="m110.938 220.916c0 1.292.742 2.003 2.161 2.003.612 0 1.103-.109 1.523-.293l-.431-1.228c-.262.119-.491.179-.742.179-.541 0-.808-.288-.808-.825v-1.765h1.675v-1.252h-1.675v-1.735l-1.698.512v4.404z"/><path d="m99.7374 219.688c.1693-.556.7156-.825 1.2006-.825.557 0 .994.293 1.141.825zm4.0446.557c-.027-1.571-1.206-2.669-2.855-2.669-1.6699 0-2.9309 1.143-2.9309 2.669 0 1.446 1.1572 2.669 2.9209 2.669 1.266 0 2.423-.73 2.762-1.735l-1.643-.005c-.246.324-.612.478-1.114.478-.606 0-1.0809-.383-1.2173-1.009h4.0833z"/><path d="m78.7695 219.688c.1692-.556.7151-.825 1.2009-.825.5568 0 .9935.293 1.1409.825zm4.0558.557c-.0273-1.571-1.2064-2.669-2.8549-2.669-1.6704 0-2.9313 1.143-2.9313 2.669 0 1.446 1.1572 2.669 2.9204 2.669 1.2664 0 2.4237-.73 2.7621-1.735l-1.6431-.005c-.2456.324-.6114.478-1.1136.478-.6059 0-1.0808-.383-1.2173-1.009h4.0832z"/><path d="m64.3663 219.688c.1693-.556.7151-.825 1.201-.825.5567 0 .9934.293 1.1408.825zm4.045.557c-.0273-1.571-1.2064-2.669-2.855-2.669-1.6703 0-2.9313 1.143-2.9313 2.669 0 1.446 1.1573 2.669 2.9204 2.669 1.2664 0 2.4237-.73 2.7621-1.735l-1.643-.005c-.2457.324-.6114.478-1.1136.478-.6059 0-1.0808-.383-1.2173-1.009h4.0831z"/><path d="m162.705 220.018c0 2.192-1.883 3.807-4.192 3.807s-4.193-1.615-4.193-3.807c0-2.207 1.884-3.808 4.193-3.808s4.192 1.596 4.192 3.808zm-1.834 0c0-1.367-1.092-2.307-2.358-2.307-1.267 0-2.359.935-2.359 2.307 0 1.357 1.092 2.306 2.359 2.306 1.266 0 2.358-.954 2.358-2.306z"/><path d="m171.756 220.018c0 2.192-1.884 3.807-4.193 3.807s-4.192-1.615-4.192-3.807c0-2.207 1.883-3.808 4.192-3.808 2.304 0 4.193 1.596 4.193 3.808zm-1.84 0c0-1.367-1.092-2.307-2.358-2.307s-2.358.935-2.358 2.307c0 1.357 1.092 2.306 2.358 2.306s2.358-.954 2.358-2.306z"/><path d="m180.417 216.439v6.829c0 2.809-1.823 3.957-3.974 3.957-2.025 0-3.248-1.233-3.706-2.242l1.594-.601c.284.616.982 1.352 2.101 1.352 1.376 0 2.233-.775 2.233-2.232v-.547h-.065c-.415.463-1.207.865-2.2.865-2.086 0-4.002-1.66-4.002-3.787 0-2.148 1.916-3.823 4.002-3.823.999 0 1.79.403 2.2.85h.065v-.616zm-1.61 3.594c0-1.343-.983-2.322-2.233-2.322-1.266 0-2.331.979-2.331 2.322 0 1.327 1.059 2.291 2.331 2.291 1.25 0 2.233-.969 2.233-2.291z"/><path d="m183.295 212.437v11.155h-1.791v-11.155z"/><path d="m190.273 221.27 1.425.865c-.464.616-1.567 1.685-3.483 1.685-2.375 0-4.149-1.675-4.149-3.807 0-2.262 1.791-3.808 3.942-3.808 2.167 0 3.226 1.571 3.575 2.421l.191.432-5.584 2.108c.426.765 1.092 1.153 2.025 1.153s1.583-.413 2.058-1.049zm-4.389-1.367 3.734-1.411c-.207-.473-.824-.806-1.55-.806-.928-.005-2.227.746-2.184 2.217z"/><path d="m147.546 219.024v-1.616h5.972c.06.283.087.611.087.974 0 1.213-.366 2.709-1.539 3.778-1.141 1.084-2.599 1.66-4.526 1.66-3.575 0-6.583-2.654-6.583-5.91s3.008-5.91 6.583-5.91c1.982 0 3.39.706 4.449 1.63l-1.25 1.139c-.759-.647-1.79-1.154-3.199-1.154-2.614 0-4.651 1.914-4.651 4.295s2.042 4.295 4.651 4.295c1.692 0 2.659-.617 3.276-1.183.502-.458.829-1.109.96-1.998z"/><path d="m312.121 224.044.628-1.461c.68.51 1.584.774 2.476.774.662 0 1.073-.252 1.073-.639-.012-1.074-3.948-.235-3.983-2.933-.012-1.373 1.208-2.429 2.933-2.429 1.027 0 2.053.252 2.781.833l-.587 1.49c-.669-.428-1.502-.733-2.294-.733-.539 0-.891.252-.891.58.011 1.056 3.983.476 4.018 3.057 0 1.402-1.191 2.388-2.892 2.388-1.238-.006-2.388-.3-3.262-.927zm24.159-1.989c-.317.546-.903.927-1.584.927-1.003 0-1.819-.81-1.819-1.819 0-1.003.81-1.818 1.819-1.818.681 0 1.267.375 1.584.926l1.737-.962c-.652-1.155-1.901-1.947-3.321-1.947-2.1 0-3.807 1.707-3.807 3.807s1.707 3.808 3.807 3.808c1.431 0 2.669-.781 3.321-1.948 0-.012-1.737-.974-1.737-.974zm-17.119-7.861h2.171v10.63h-2.171zm19.712 0v10.63h2.171v-3.191l2.581 3.191h2.781l-3.28-3.79 3.039-3.532h-2.657l-2.458 2.934v-6.248h-2.177zm-11.082 7.879c-.317.516-.962.903-1.696.903-1.003 0-1.818-.81-1.818-1.819 0-1.003.809-1.818 1.818-1.818.734 0 1.379.404 1.696.932zm0-4.571v.863c-.358-.599-1.238-1.015-2.165-1.015-1.907 0-3.414 1.684-3.414 3.796s1.502 3.819 3.414 3.819c.927 0 1.807-.417 2.165-1.015v.862h2.171v-7.31z"/><path d="m298.687 222.061c0 .739-.598 1.337-1.338 1.337-.739 0-1.337-.598-1.337-1.337s.598-1.338 1.337-1.338h1.338zm.675 0c0-.739.598-1.338 1.337-1.338s1.338.599 1.338 1.338v3.35c0 .739-.599 1.337-1.338 1.337s-1.337-.598-1.337-1.337z"/><path d="m300.699 216.681c-.739 0-1.337-.598-1.337-1.337s.598-1.338 1.337-1.338 1.338.599 1.338 1.338v1.337zm0 .681c.739 0 1.338.598 1.338 1.338 0 .739-.599 1.337-1.338 1.337h-3.361c-.74 0-1.338-.598-1.338-1.337 0-.74.598-1.338 1.338-1.338z"/><path d="m306.074 218.699c0-.739.599-1.337 1.338-1.337s1.338.598 1.338 1.337-.599 1.338-1.338 1.338h-1.338zm-.668 0c0 .739-.599 1.338-1.338 1.338s-1.338-.599-1.338-1.338v-3.361c0-.74.599-1.338 1.338-1.338s1.338.598 1.338 1.338z"/><path d="m304.06 224.073c.739 0 1.338.598 1.338 1.338 0 .739-.599 1.337-1.338 1.337s-1.337-.598-1.337-1.337v-1.338zm0-.669c-.739 0-1.337-.598-1.337-1.337 0-.74.598-1.338 1.337-1.338h3.362c.739 0 1.337.598 1.337 1.338 0 .739-.598 1.337-1.337 1.337z"/><path clip-rule="evenodd" d="m-1.13149 222.68c1.0618684 0 1.449051-1.478 1.449051-2.458 0-1.032-.434162-2.417-1.496031-2.417-.96213 0-.96214.991-.96214 1.291 0 .328.01762 1.942.01762 2.299 0 .47.00004 1.285.9915 1.285zm-3.3792-3.402c.02347-1.098-.1291-1.356-.6219-1.491-.11733-.035-.19944-.146-.19944-.269v-.071c0-.141.10562-.258.24055-.276.968-.105 1.99467-.369 2.4992-.504.14667-.041.2933.047.33437.188 0 .005.00587.011.00587.017.0176.065.02931.147.04691.252.02347.153.17016.253.31682.223.0352-.005.07043-.017.09976-.035.5632-.364 1.120524-.551 1.8245226-.551 1.7365274 0 2.8159474 1.496 2.8159474 3.074 0 2.171-1.53702 3.678-3.332216 3.678-.551464 0-.950384-.141-1.231984-.287-.13493-.071-.29921-.024-.37547.111-.02347.041-.03524.088-.03524.129v1.661c0 .557.03524.985.62777 1.085.12907.023.22293.141.21707.27 0 .152-.12326.275-.27579.275h-.0058c-.70987-.017-1.41973-.029-2.1296-.035-.53973 0-.89176.012-1.34936.03-.15253.006-.28159-.112-.28746-.264 0-.006 0-.006 0-.012v-.035c0-.135.09387-.253.22294-.276.53386-.094.58079-.387.58079-.798.01173-.276.01174-1.12.01174-1.437.0176 0 0-4.652 0-4.652zm14.89549 4.153c-.58084-.041-.96804-.041-2.49337-.041-.83893 0-1.16751.012-1.66031.047-.18186.006-.33438-.129-.34611-.311-.00587-.164.10558-.311.26984-.34.80374-.112.83897-.405.83897-2.224v-4.57c-.01174-1.091-.02932-1.42-.12905-1.625-.1056-.252-.28166-.317-.71579-.387-.1584-.024-.27571-.164-.27571-.323 0-.199.15257-.346.33444-.34.80959.023 1.61333.035 2.42293.035s1.33167-.017 1.77756-.035c.1818-.018.3403.117.352.299.0176.182-.1173.34-.2992.352-.85064.106-.85068.364-.85068 2.271l.01175 4.452c.02933 1.508.04106 1.596.21706 1.825.1232.147.31687.223.61017.264.1584.023.2816.158.2816.323.0058.181-.1409.334-.3227.334-.0059-.006-.0176-.006-.0234-.006zm.4516-.311c0-.141.0998-.264.2406-.287.2171-.035.4811-.129.5221-.405.0411-.329.0411-1.191.0411-1.408 0-.505-.0117-1.32-.0117-1.825 0-.721-.2405-.921-.5808-1.015-.1232-.035-.2113-.152-.2113-.281v-.035c0-.141.0998-.264.2465-.288.7157-.123 1.7952-.434 2.3642-.628.1526-.052.3168.03.3696.182v.006c.0118.035.0235.076.0352.112.0469.152.2053.246.3637.199.0235-.006.047-.017.0704-.029.5398-.317 1.0561-.552 1.8129-.552.5456 0 1.0912.147 1.537.458.6982.487.8155 1.226.8742 2.012v.024 1.238c0 .217-.0294 1.337-.0294 1.584 0 .363.0997.586.5749.674.135.03.2347.147.2288.288 0 .158-.129.293-.2933.293-.0059 0-.0117 0-.0175 0-.4048-.029-1.0209-.047-2.03-.047-.569 0-.8858.018-1.1733.041-.1584.012-.305-.105-.3167-.264 0-.006 0-.018 0-.023v-.059c0-.129.088-.246.217-.282.4224-.111.4752-.316.4576-1.191l-.0293-2.241c-.0176-.692-.0411-1.478-.9798-1.478-.3872 0-.6923.141-.9797.364-.0763.058-.1232.146-.1173.246.0234.722.0234 2.763.0234 3.403 0 .657.1115.839.4635.933.1232.035.2112.152.2112.281v.035c0 .159-.129.294-.2933.294-.0059 0-.0118 0-.0176 0-.487-.03-1.1147-.053-2.2939-.053-.4517 0-.7157.012-.9621.035-.1584.018-.3051-.1-.3169-.264 0-.012 0-.017 0-.029 0-.006 0-.018 0-.018zm14.9542-1.255c.1819.129.2053.393.0469.551-.792.786-1.8597 1.232-2.9802 1.244-2.0534 0-3.5611-1.426-3.5611-3.379 0-2.054 1.7541-3.379 3.8954-3.379 1.408 0 2.7457.616 2.7457 1.654 0 .487-.4166.903-.9035.903-.2171 0-.4752-.099-.6336-.258-.1291-.117-.1585-.187-.4342-.803-.1291-.276-.4165-.763-.8624-.763-.833 0-1.0618 1.42-1.0618 2.129 0 1.626.921 2.717 1.9242 2.717.5339 0 .9798-.247 1.367-.593.1291-.111.3168-.123.4576-.023zm1.9829-.792c.704 0 1.3083.563 1.3083 1.308 0 .733-.6043 1.297-1.2907 1.297-.704.005-1.2848-.558-1.2965-1.268 0-.891.6864-1.337 1.2789-1.337z" fill-rule="evenodd"/><path d="m37.6938 164.595h-3.2944l-.0973-.097v-.629l.0973-.068h4.4388l.0603-.13c-.1483-.351-.5422-.511-1.2696-.511h-3.0858c-1.024 0-1.3484.177-1.3484.869v.405c0 .692.3244.869 1.3484.869h3.285l.1066.081v.658l-.0834.101h-3.7623v-.004h-.9823s-.1112.05-.1066.076c.0834.481.4541.62 1.3345.62h3.3592c1.024 0 1.3576-.177 1.3576-.869v-.506c.0046-.692-.3336-.865-1.3576-.865z"/><path d="m45.3714 163.156h-4.4898l-.1668.11v3.565h1.2418v-1.338l.1158-.097h3.2944c.8294 0 1.2232-.202 1.2232-.713v-.818c.0046-.507-.3892-.709-1.2186-.709zm0 1.32c0 .245-.1807.292-.5653.292h-2.7105l-.1344-.114v-.764l.1159-.097h2.7244c.3938 0 .5653.051.5653.291z"/><path d="m48.8615 163.835 1.0704 1.397-.0603.135h-2.3676l-.5978.666h3.5168l.2409.131.5468.675h1.4224l-3.1136-3.725"/><path d="m62.9993 166.113v-.991l.1297-.101h2.377v-.625h-3.7716v2.443h5.5647v-.628h-4.1701"/><path d="m67.3547 163.156h-5.6203v.696h5.6203z"/><path d="m55.4696 163.814h4.5268c-.0695-.511-.4262-.658-1.3344-.658h-3.2434c-1.0193 0-1.3483.177-1.3483.869v1.941c0 .692.3244.869 1.3483.869h3.2434c.9221 0 1.2742-.156 1.2974-.688h-4.4898l-.1344-.11v-2.147"/><path d="m70.8882 163.143h-1.8488l-.1019.173 2.0526 1.338c.3892-.203.8108-.405 1.2742-.608"/><path d="m72.5547 165.662 1.807 1.177h1.8719l.0788-.156-2.692-1.764c-.3661.237-.7228.481-1.0657.743z"/><path d="m70.6132 166.835h-1.6727l-.1436-.198c1.1398-.979 6.2273-5.186 17.2826-5.637.0046 0-9.2761.283-15.4663 5.835z"/><path d="m185.705 277.617c-.019-1.816 1.629-2.686 1.701-2.726-.927-1.234-2.368-1.404-2.878-1.422-1.225-.113-2.392.657-3.012.657s-1.581-.644-2.599-.622c-1.336.018-2.571.709-3.258 1.798-1.388 2.192-.355 5.443.999 7.224.664.87 1.451 1.85 2.489 1.815 1-.035 1.374-.586 2.58-.586s1.543.586 2.6.569c1.071-.018 1.753-.888 2.411-1.763.755-1.011 1.072-1.991 1.091-2.044-.034-.013-2.099-.735-2.124-2.9z"/><path d="m183.718 272.288c.553-.608.923-1.448.822-2.288-.793.031-1.754.481-2.321 1.089-.509.538-.956 1.396-.836 2.218.884.057 1.787-.415 2.335-1.019zm8.932 7.114-.913 2.515h-1.172l2.983-7.997h1.369l2.999 7.997h-1.211l-.937-2.515zm2.878-.81-.86-2.301c-.197-.52-.327-.997-.457-1.461h-.024c-.13.472-.274.958-.442 1.448l-.86 2.314zm3.272-.542c0-.735-.024-1.33-.053-1.877h1.028l.053.984h.024c.471-.7 1.211-1.115 2.244-1.115 1.523 0 2.671 1.172 2.671 2.918 0 2.065-1.379 3.084-2.868 3.084-.836 0-1.562-.332-1.942-.901h-.024v3.119h-1.133zm1.133 1.527c0 .157.024.297.053.429.207.721.899 1.225 1.72 1.225 1.211 0 1.917-.902 1.917-2.219 0-1.15-.663-2.135-1.878-2.135-.779 0-1.509.512-1.735 1.295-.038.132-.077.285-.077.429zm6.021-1.527c0-.735-.024-1.33-.053-1.877h1.028l.053.984h.024c.471-.7 1.211-1.115 2.244-1.115 1.523 0 2.671 1.172 2.671 2.918 0 2.065-1.379 3.084-2.868 3.084-.836 0-1.562-.332-1.941-.901h-.025v3.119h-1.133zm1.133 1.527c0 .157.025.297.053.429.207.721.899 1.225 1.72 1.225 1.211 0 1.917-.902 1.917-2.219 0-1.15-.663-2.135-1.878-2.135-.779 0-1.509.512-1.735 1.295-.038.132-.077.285-.077.429zm6.021-6.086h1.148v8.422h-1.148zm3.454 5.745c.024 1.413 1.019 1.995 2.162 1.995.822 0 1.317-.132 1.744-.298l.197.748c-.403.166-1.095.355-2.095.355-1.941 0-3.103-1.164-3.103-2.897 0-1.732 1.119-3.097 2.959-3.097 2.061 0 2.604 1.649 2.604 2.704 0 .214-.024.38-.038.485zm3.358-.749c.015-.665-.297-1.697-1.59-1.697-1.163 0-1.667.976-1.758 1.697z"/><path d="m-22.1385 273.857c-1.936 0-3.5082 1.578-3.5082 3.514s1.5781 3.514 3.5082 3.514c1.9302 0 3.5083-1.578 3.5083-3.514s-1.5781-3.514-3.5083-3.514zm2.2646 3.508c0 1.249-1.0208 2.27-2.2704 2.27s-2.2704-1.021-2.2704-2.27c0-1.25 1.0208-2.271 2.2704-2.271 1.2554.006 2.2704 1.021 2.2704 2.271zm-9.551-3.374h-5.3855c-.0411 0-.0763.03-.0763.077v1.073c0 .041.0293.077.0763.077h2.0885v5.45c0 .041.0293.076.0762.076h1.0736c.0411 0 .0763-.029.0763-.076v-5.45h2.0885c.0411 0 .0763-.03.0763-.077v-1.073c-.0176-.041-.0528-.077-.0939-.077zm42.5627 5.533h-2.5579v-5.45c0-.041-.0293-.077-.0762-.077h-1.07362c-.04106 0-.07627.03-.07627.077v6.594c0 .041.02934.076.07627.076h3.70192c.041 0 .0762-.029.0762-.076v-1.074c-.0058-.041-.0352-.07-.0704-.07zm-8.82345 1.114-2.85121-6.605c-.01173-.03-.04106-.042-.06452-.042h-1.190936c-.029332 0-.058674.018-.064541.042l-2.862943 6.605c-.01173.024-.01172.047.01175.065.0176.018.02934.029.05867.029l1.12052-.011c.02347 0 .05868-.018.06454-.042l2.270396-5.145 2.270394 5.145c.01174.024.04108.042.06455.042l1.12053.011c.02347 0 .04692-.011.05866-.029 0-.018.00001-.047-.00586-.065zm-12.12641-6.647h-1.07359c-.04107 0-.07627.03-.07627.077v4.576l-3.66668-4.611c-.0117-.024-.0293-.042-.0587-.042h-1.0735c-.0411 0-.0763.03-.0763.077v6.594c0 .041.0293.076.0763.076h1.0735c.0411 0 .0763-.029.0763-.076v-4.57l3.67255 4.617s0 0 .01173.012c0 0-.00001 0 .01173.011 0 0 .01174 0 .01174.012h.01173.01172.01175.01173.01173.01174 1.07359c.04107 0 .07627-.029.07627-.076v-6.594c-.0528-.047-.088-.083-.12907-.083z"/><path d="m320 289.167h23.167v-2.921h-1.46v1.461h-20.246v-20.246h20.246v11.886h1.46v-13.347h-23.167z"/><path d="m326.555 285.53v-5.468h-1.461v5.468z"/><path d="m330.289 282.591-1.479-2.529h-1.537v5.468h1.391v-2.839h.023l1.672 2.839h1.344v-5.468h-1.397v2.529z"/><path d="m49.6904 272.945 1.1851-2.059c.3461-.593.1349-1.373-.4576-1.719-.5926-.346-1.3729-.135-1.719.458l-1.185 2.059c-2.5168-.804-5.3622.229-6.735 2.634-.8741 1.525-.9914 3.262-.4576 4.811l2.1942-3.796c.4986-.874 1.3141-1.49 2.2938-1.754.9798-.264 1.9829-.135 2.8629.381 1.7952 1.033 2.423 3.356 1.3729 5.151-1.0326 1.795-3.3382 2.423-5.151 1.373l1.2614-2.194c.5925.346 1.3727.135 1.713-.458.3461-.61.1291-1.373-.4576-1.713-.5866-.34-1.3728-.135-1.713.458l-4.007 6.946c-.3461.61-.1291 1.372.4576 1.719.5867.346 1.3728.129 1.7131-.458l1.185-2.059c2.5168.804 5.3622-.229 6.735-2.634 1.3904-2.394.8565-5.357-1.0912-7.146z"/><path d="m55.0156 274.435h1.9478c1.1264 0 2.0592.552 2.0592 1.854s-.9328 1.872-2.0592 1.872h-.8038v1.812h-1.144zm1.9067 2.711c.5514 0 .9152-.247.9152-.863 0-.61-.3814-.862-.9152-.862h-.7803v1.713z"/><path d="m60.6758 274.435h3.6667v1.015h-2.5169v1.279h2.2118v.974h-2.2118v1.279h2.6342v.991h-3.7781v-5.538z"/><path d="m66.3672 274.435h1.144v4.541h2.4992v.991h-3.6432z"/><path d="m71.2891 277.198c0-1.642 1.2789-2.845 2.8629-2.845 1.6075 0 2.8629 1.203 2.8629 2.845 0 1.643-1.2613 2.846-2.8629 2.846-1.584 0-2.8629-1.209-2.8629-2.846zm4.5642 0c0-1.032-.6864-1.83-1.7013-1.83s-1.7013.78-1.7013 1.83c0 1.033.6864 1.831 1.7013 1.831s1.7013-.798 1.7013-1.831z"/><path d="m79.8223 275.427h-1.584v-1.015h4.312v1.015h-1.584v4.54h-1.144z"/><path d="m83.7656 277.198c0-1.642 1.279-2.845 2.863-2.845 1.6074 0 2.8629 1.203 2.8629 2.845 0 1.643-1.2789 2.846-2.8629 2.846-1.6016 0-2.863-1.209-2.863-2.846zm4.5467 0c0-1.032-.6864-1.83-1.7014-1.83-1.0149 0-1.7013.78-1.7013 1.83 0 1.033.6864 1.831 1.7013 1.831 1.0326.006 1.7014-.798 1.7014-1.831z"/><path d="m92.9688 277.392c-.2698-.27-.6629-.763-.6629-.763s.0763.611.0763 1.015v2.329h-1.0502v-5.591h.1174l2.7867 2.635c.2698.246.6511.768.6511.768s-.0762-.628-.0762-1.015v-2.329h1.0677v5.591h-.1173z"/><path d="m145.432 272.64c.014.203.014.403.014.606 0 6.218-5.16 13.382-14.587 13.382v-.004c-2.786.004-5.513-.731-7.859-2.108.405.044.811.067 1.221.067 2.308 0 4.552-.709 6.367-2.02-2.191-.04-4.117-1.35-4.788-3.268.767.138 1.559.107 2.317-.079-2.394-.443-4.113-2.374-4.113-4.61 0-.022 0-.04 0-.058.714.363 1.511.567 2.327.589-2.255-1.381-2.95-4.131-1.588-6.279 2.601 2.94 6.444 4.725 10.566 4.915-.415-1.634.15-3.343 1.482-4.494 2.066-1.781 5.315-1.692 7.255.203 1.149-.208 2.25-.593 3.254-1.142-.381 1.089-1.183 2.015-2.254 2.599 1.018-.111 2.008-.358 2.944-.739-.69.952-1.559 1.775-2.558 2.44z"/><path clip-rule="evenodd" d="m257.518 271.032-8.586.578c-.692.057-.932.468-.932.962v8.571c0 .385.154.713.509 1.155l2.018 2.389c.332.385.63.468 1.269.442l9.974-.552c.845-.056 1.086-.411 1.086-1.015v-9.646c0-.311-.135-.403-.538-.67l-.068-.048-2.743-1.759c-.668-.433-.937-.49-1.989-.407zm-5.501 2.726c-.812.053-1 .061-1.461-.28l-1.177-.849c-.12-.109-.063-.249.24-.275l8.254-.552c.692-.056 1.057.167 1.326.359l1.413.932c.062.026.211.193.029.193l-8.528.468zm-.952 9.721v-8.19c0-.358.12-.525.481-.551l9.796-.525c.332-.026.486.166.486.525v8.133c0 .359-.063.661-.601.691l-9.369.495c-.552.03-.793-.136-.793-.578zm9.254-7.748c.062.25 0 .495-.274.525l-.452.083v6.047c-.394.192-.754.301-1.057.301-.485 0-.6-.14-.965-.551l-2.955-4.23v4.095l.932.192s0 .494-.754.494l-2.081.11c-.062-.11 0-.385.212-.442l.538-.136v-5.416l-.755-.057c-.062-.249.092-.608.51-.634l2.229-.14 3.075 4.287v-3.793l-.783-.083c-.063-.302.182-.525.48-.551z" fill-rule="evenodd"/><path d="m269.432 281.012v-3.728h.068l2.95 3.728h.927v-5.478h-1.033v3.723h-.067l-2.95-3.723h-.932v5.478zm6.871.087c1.36 0 2.191-.809 2.191-2.157 0-1.343-.836-2.157-2.191-2.157s-2.191.819-2.191 2.157c0 1.339.826 2.157 2.191 2.157zm0-.792c-.721 0-1.134-.498-1.134-1.369 0-.866.413-1.369 1.134-1.369.716 0 1.129.503 1.129 1.369s-.404 1.369-1.129 1.369zm3.142-4.462v1.045h-.721v.753h.721v2.262c0 .805.413 1.124 1.461 1.124.197 0 .394-.017.538-.048v-.735c-.125.013-.202.018-.351.018-.432 0-.629-.18-.629-.591v-2.039h.975v-.752h-.975v-1.046zm2.619 5.167h1.028v-4.152h-1.028zm.514-4.839c.341 0 .619-.254.619-.569s-.278-.573-.619-.573c-.337 0-.62.258-.62.573.005.32.283.569.62.569zm3.344 4.926c1.364 0 2.19-.809 2.19-2.157 0-1.343-.836-2.157-2.19-2.157-1.355 0-2.191.819-2.191 2.157 0 1.339.826 2.157 2.191 2.157zm0-.792c-.721 0-1.134-.498-1.134-1.369 0-.866.413-1.369 1.134-1.369.715 0 1.129.503 1.129 1.369s-.414 1.369-1.129 1.369zm2.805.705h1.033v-2.42c0-.608.39-1.002 1.005-1.002.629 0 .922.32.922.954v2.463h1.033v-2.686c0-.993-.552-1.549-1.571-1.549-.677 0-1.139.285-1.355.748h-.067v-.665h-.995z"/><path d="m257.002 156c-4.412 0-8.002 3.579-8.002 8.002 0 4.424 3.579 8.002 8.002 8.002 4.412 0 8.002-3.578 8.002-8.002 0-4.417-3.584-8.002-8.002-8.002zm3.667 11.54c-.141.234-.452.311-.687.164-1.877-1.144-4.247-1.402-7.028-.769-.27.059-.534-.105-.604-.375-.059-.27.105-.534.375-.604 3.045-.693 5.668-.393 7.768.891.246.153.322.458.176.693zm.985-2.177c-.182.294-.563.393-.862.206-2.153-1.326-5.427-1.708-7.973-.933-.328.099-.675-.088-.774-.417-.1-.328.088-.674.416-.774 2.904-.88 6.518-.452 8.988 1.068.293.176.381.557.205.85zm.077-2.27c-2.576-1.531-6.835-1.666-9.293-.927-.393.117-.816-.106-.933-.499s.106-.815.505-.933c2.827-.862 7.521-.692 10.489 1.074.358.211.47.669.264 1.027-.211.352-.68.469-1.032.258zm9.034.293c-1.384-.328-1.625-.557-1.625-1.044 0-.458.429-.769 1.08-.769.622 0 1.238.235 1.889.716.017.012.041.018.07.018.024-.006.047-.018.059-.036l.674-.95c.03-.041.018-.094-.017-.123-.769-.616-1.643-.921-2.652-.921-1.496 0-2.534.892-2.534 2.176 0 1.379.897 1.86 2.452 2.236 1.326.305 1.549.557 1.549 1.02 0 .505-.452.822-1.179.822-.81 0-1.461-.27-2.2-.91-.018-.017-.041-.023-.065-.023-.023 0-.047.012-.064.029l-.763.898c-.029.035-.029.094.006.123.862.769 1.912 1.173 3.045 1.173 1.607 0 2.645-.874 2.645-2.235.006-1.156-.68-1.789-2.37-2.2zm6.002-1.361c-.692 0-1.273.276-1.742.833v-.633c0-.047-.042-.088-.089-.088h-1.237c-.047 0-.088.041-.088.088v7.04c0 .046.041.088.088.088h1.237c.047 0 .089-.042.089-.088v-2.218c.469.528 1.038.786 1.742.786 1.296 0 2.605-.991 2.605-2.898.011-1.913-1.303-2.91-2.605-2.91zm1.173 2.904c0 .974-.604 1.649-1.455 1.649-.844 0-1.484-.71-1.484-1.649s.64-1.648 1.484-1.648c.845 0 1.455.686 1.455 1.648zm4.793-2.904c-1.666 0-2.98 1.285-2.98 2.928 0 1.619 1.297 2.892 2.951 2.892 1.666 0 2.986-1.285 2.986-2.91.006-1.637-1.291-2.91-2.957-2.91zm0 4.558c-.886 0-1.554-.715-1.554-1.66 0-.944.651-1.637 1.537-1.637.891 0 1.56.71 1.56 1.661 0 .95-.645 1.636-1.543 1.636zm6.53-4.441h-1.355v-1.396c0-.047-.041-.088-.088-.088h-1.238c-.047 0-.088.041-.088.088v1.396h-.593c-.047 0-.088.041-.088.088v1.068c0 .047.041.088.088.088h.593v2.752c0 1.108.557 1.672 1.648 1.672.446 0 .816-.094 1.156-.288.029-.017.047-.047.047-.076v-1.015c0-.029-.018-.059-.041-.076-.029-.018-.059-.018-.088-.006-.235.117-.469.176-.722.176-.393 0-.575-.182-.575-.581v-2.564h1.361c.047 0 .089-.041.089-.088v-1.067c-.024-.042-.059-.083-.106-.083zm4.734 0v-.17c0-.504.194-.727.622-.727.258 0 .464.053.704.135.029.011.059.006.082-.012.024-.018.035-.047.035-.076v-1.039c0-.041-.023-.076-.064-.088-.246-.07-.557-.146-1.033-.146-1.138 0-1.748.639-1.748 1.859v.264h-.592c-.047 0-.088.041-.088.088v1.074c0 .047.041.088.088.088h.592v4.242c0 .052.041.088.088.088h1.238c.053 0 .088-.041.088-.088v-4.236h1.15l1.766 4.241c-.2.446-.399.534-.669.534-.217 0-.446-.064-.681-.193-.023-.012-.047-.012-.07-.006s-.041.023-.053.047l-.416.921c-.018.041 0 .094.041.117.434.235.827.34 1.326.34.915 0 1.414-.422 1.865-1.566l2.147-5.544c.012-.029.006-.059-.011-.082-.018-.029-.041-.041-.077-.041h-1.29c-.041 0-.077.023-.088.059l-1.314 3.772-1.449-3.772c-.012-.036-.047-.059-.083-.059zm-2.751 0h-1.238c-.047 0-.088.041-.088.088v5.398c0 .053.041.088.088.088h1.238c.047 0 .088-.041.088-.088v-5.392c.006-.053-.035-.094-.088-.094zm-.61-2.464c-.487 0-.886.393-.886.886 0 .487.399.886.886.886s.886-.399.886-.886-.394-.886-.886-.886zm10.835 4.201c-.487 0-.868-.399-.868-.874s.393-.874.874-.874.874.399.874.874-.393.874-.88.874zm.006-1.672c-.451 0-.78.352-.78.786s.334.78.774.78c.452 0 .781-.352.781-.786.006-.422-.329-.78-.775-.78zm.2.88.246.346h-.205l-.223-.317h-.188v.317h-.176v-.915h.405c.211 0 .352.105.352.293 0 .147-.094.241-.211.276zm-.153-.411h-.229v.294h.229c.112 0 .188-.053.188-.147-.012-.1-.076-.147-.188-.147z"/><path d="m294.289 58.4159h-1.922l.756.9808h.973l-.815 4.2425h1.7l.825-4.2425h2.124l-3.359-2.4609z"/><path d="m260.959 56h-7.742l-.217 1.1157h3.014l-1.265 6.5235h1.709l1.255-6.5235h3.039z"/><path d="m262.224 58.2944c-2.169 0-3.558 1.2372-3.829 2.6859-.307 1.6016.78 2.7713 2.959 2.7713.973 0 1.892-.1664 2.634-.5443l.232-1.1967c-.731.4723-1.65.7423-2.431.7423-1.092 0-1.957-.4139-1.823-1.3587h4.506c.054-.1125.118-.3104.168-.5534.217-1.1517-.228-2.5464-2.416-2.5464zm.879 2.173h-2.964c.178-.5399.751-1.2732 1.798-1.2732 1.151 0 1.27.7918 1.166 1.2732z"/><path d="m269.762 58.2944c-1.062 0-1.862.4004-2.238.8053h-.039l-1.497-.8053c-.055.4544-.129 1.0708-.247 1.6736l-.702 3.6757h1.705l.597-3.0773c.03-.1485.084-.3104.159-.4229.251-.4049.785-.7783 1.467-.7783.929 0 1.181.5714 1.042 1.3182l-.568 2.9468h1.705l.598-3.1043c.301-1.6466-.811-2.2315-1.982-2.2315z"/><path d="m290.211 58.2944c-1.063 0-1.863.4004-2.239.8053h-.039l-1.497-.8053c-.054.4544-.129 1.0708-.247 1.6736l-.697 3.6757h1.705l.598-3.0773c.029-.1485.084-.3104.158-.4229.252-.4049.785-.7783 1.467-.7783.929 0 1.181.5714 1.043 1.3182l-.569 2.9468h1.705l.598-3.1043c.306-1.6466-.816-2.2315-1.986-2.2315z"/><path d="m282.669 58.2944c-2.169 0-3.557 1.2372-3.829 2.6859-.306 1.6016.776 2.7713 2.96 2.7713.973 0 1.887-.1664 2.633-.5443l.232-1.1967c-.731.4723-1.65.7423-2.431.7423-1.087 0-1.956-.4139-1.823-1.3587h4.506c.055-.1125.119-.3104.168-.5534.227-1.1517-.217-2.5464-2.416-2.5464zm.889 2.173h-2.964c.178-.5399.751-1.2732 1.798-1.2732 1.147 0 1.265.7918 1.166 1.2732z"/><path d="m272.44 60.9579c-.306 1.6241.944 2.7938 3.049 2.7938.84 0 1.843-.2204 2.223-.3464l.277-1.3992c-.598.5849-1.398.7019-1.967.7019-1.161 0-2.04-.6119-1.833-1.6871.178-.9583 1.176-1.6961 2.476-1.6961.528 0 1.25.1619 1.699.7063l.262-1.4217c-.365-.1259-.953-.3104-1.823-.3104-2.367 0-4.061 1.0933-4.363 2.6589z"/></g></svg>