<svg width="85" height="116" viewBox="0 0 85 116" fill="none" xmlns="http://www.w3.org/2000/svg">
<path d="M51.6285 0C53.0174 0.453192 54.0036 1.40993 54.8389 2.54795C56.6404 5.00525 57.7373 7.78483 58.5022 10.7054C59.2872 13.6663 59.6394 16.6674 59.2771 19.7189C59.106 21.149 58.7437 22.5186 58.0493 23.7875C57.8782 24.1098 57.8782 24.3414 58.0393 24.6637C61.1993 30.7264 64.3393 36.7992 67.4893 42.872C67.7006 43.2748 67.8617 43.6978 68.1133 44.0805C69.8241 46.6788 69.8241 49.5591 69.5222 52.4796C69.0995 56.4979 67.6503 60.1436 65.4363 63.4972C65.3658 63.608 65.2752 63.7087 65.1847 63.8397C64.2085 61.2816 62.9907 58.9452 60.4949 57.5353C60.5552 57.6964 60.6257 57.8575 60.6861 58.0187C61.7428 60.768 62.5177 63.5879 62.6687 66.5487C62.719 67.4551 62.5278 68.2004 61.8937 68.8751C60.5653 70.2951 59.2872 71.7655 57.9789 73.2056C57.8682 73.3265 57.7474 73.4272 57.5763 73.5782C56.9121 70.4764 56.1875 67.4652 53.9936 64.9172C53.9936 65.2597 53.9835 65.4611 53.9936 65.6625C54.1948 69.4089 54.0137 73.1452 53.5709 76.8614C53.5507 77.0326 53.44 77.2441 53.2991 77.3549C48.8811 80.8998 44.0605 83.7801 38.9077 86.1266C38.7467 86.1971 38.5052 86.2072 38.3542 86.1367C29.9408 82.2594 22.423 77.1534 16.3544 70.0635C12.8119 65.9143 10.0343 61.3219 8.53476 56.0347C7.75984 53.3155 7.44786 50.5359 7.68939 47.7262C7.74977 47.0816 8.01144 46.4169 8.31335 45.8328C10.1047 42.308 11.9263 38.7932 13.7378 35.2785C15.5594 31.7335 17.381 28.1885 19.2227 24.6436C19.3736 24.3414 19.3736 24.1199 19.2126 23.8178C18.2968 22.146 17.9244 20.3332 17.854 18.45C17.6728 13.5051 18.8604 8.88256 21.1549 4.52185C21.7789 3.33348 22.5035 2.18539 23.5401 1.30922C24.1238 0.775462 24.8786 0.422979 25.5629 0C25.8951 0 26.2372 0 26.5693 0C27.5455 0.32227 28.3506 0.906384 29.0149 1.68185C29.3269 2.05447 29.6489 2.4271 29.9106 2.82993C32.3964 6.58639 33.6141 10.786 34.1072 15.2273C34.2179 16.2041 34.2179 17.1911 34.2682 18.1881C37.1667 18.1881 40.055 18.1881 42.8226 18.1881C43.044 16.3149 43.1648 14.4719 43.4868 12.6692C44.0806 9.32569 45.1776 6.15334 47.0092 3.27305C47.9049 1.85305 48.9616 0.584114 50.6221 0C50.9542 0 51.2964 0 51.6285 0ZM22.8759 51.2812C22.7652 51.4524 22.7249 51.5229 22.6847 51.5833C20.38 55.0679 19.434 58.8948 19.7259 63.0441C19.756 63.4368 19.9473 63.8497 20.1787 64.172C21.6984 66.2466 23.4998 68.0795 25.3919 69.8218C25.7139 70.1239 26.0561 70.4059 26.4284 70.7383C25.5629 66.8408 25.3919 63.0541 26.6599 59.2675C27.2034 60.2141 27.6562 61.1004 28.2098 61.906C29.4577 63.7289 30.9874 65.31 32.5976 66.8106C32.7385 66.9415 32.9801 67.0321 33.1813 67.0422C34.6507 67.1631 36.12 67.2638 37.5893 67.3746C37.8007 67.3846 38.012 67.3746 38.2938 67.3746C38.1932 65.7129 38.0825 64.1015 37.9919 62.5707C37.3377 62.4096 36.7842 62.3391 36.281 62.1377C34.2984 61.3723 33.0908 59.1164 33.6141 57.2231C33.8254 56.4677 34.1072 56.216 34.8821 56.1958C36.6232 56.1555 38.3643 56.1153 40.1154 56.085C40.8601 56.075 41.6049 56.085 42.3496 56.085C42.2389 55.8937 42.1081 55.793 41.9772 55.7023C40.6488 54.8262 39.3103 53.9701 37.9919 53.0738C37.7906 52.9328 37.6095 52.6609 37.5592 52.4192C36.8748 48.8642 36.2508 45.2991 35.5464 41.7541C34.2783 35.4195 27.8374 31.4112 21.5877 33.0125C21.2455 33.1032 21.0845 33.224 21.0342 33.5966C20.8631 34.8253 20.8832 36.0539 21.2354 37.2322C21.5575 38.2998 22.0003 39.327 22.3928 40.3643C21.4166 41.2405 20.3699 42.1267 19.3837 43.0734C17.4313 44.9567 15.6701 47.0011 14.4926 49.4684C14.3417 49.7806 14.2209 50.1835 14.2712 50.5158C14.6033 53.1242 15.4688 55.5614 16.757 57.8475C16.8576 58.0187 17.0086 58.1697 17.1897 58.4014C17.8942 55.0477 19.7259 52.7113 22.8759 51.2812ZM26.8713 18.8629C26.9014 18.8528 26.9316 18.8326 26.9618 18.8226C26.4586 14.049 25.9554 9.27533 25.4321 4.36071C25.2711 4.61249 25.1704 4.74341 25.1 4.8844C24.4559 6.24398 23.7313 7.57334 23.1979 8.9732C21.9802 12.1455 21.3462 15.4186 21.9399 18.8226C22.1311 19.9102 22.4431 20.9576 23.0168 22.0453C23.3187 19.8297 23.5904 17.7349 23.8923 15.5294C24.939 16.6976 25.9051 17.7752 26.8713 18.8629ZM54.1747 21.8841C54.215 21.8942 54.2452 21.9043 54.2854 21.9144C54.376 21.723 54.4666 21.5417 54.5471 21.3504C55.4528 19.1751 55.6541 16.9091 55.4025 14.5928C55.0301 11.1082 53.8124 7.89561 52.1116 4.85419C52.0412 4.72327 51.9405 4.60242 51.7896 4.38086C51.2763 9.2854 50.7731 14.049 50.2699 18.8125C50.3001 18.8226 50.3403 18.8326 50.3705 18.8427C51.3367 17.7651 52.3028 16.6875 53.3394 15.5294C53.6212 17.7248 53.903 19.7995 54.1747 21.8841ZM55.2817 35.0871C50.4309 33.6772 46.0129 37.3732 45.7109 41.2203C50.1592 42.5195 54.6779 39.4176 55.2817 35.0871Z" fill="white"/>
<path d="M0 91.8469C1.08691 91.8469 2.16375 91.8469 3.3211 91.8469C3.3211 98.3225 3.3211 104.838 3.3211 111.415C5.10242 111.415 6.82335 111.415 8.57447 111.415C8.57447 112.523 8.57447 113.57 8.57447 114.658C8.43358 114.668 8.31281 114.688 8.18198 114.688C5.61568 114.688 3.04937 114.688 0.483069 114.688C0.322046 114.688 0.161023 114.637 0 114.607C0 107.024 0 99.4303 0 91.8469Z" fill="white"/>
<path d="M79.2841 109.058C79.4854 107.517 79.6968 105.987 79.898 104.446C80.4415 100.337 80.9749 96.2379 81.5284 92.1289C81.5485 91.998 81.7297 91.7865 81.8303 91.7865C82.8367 91.7563 83.833 91.7664 84.9904 91.7664C83.8431 99.4404 82.6958 107.044 81.5586 114.658C79.9886 114.658 78.4992 114.658 76.9795 114.658C76.426 110.861 75.8825 107.084 75.329 103.308C75.2888 103.308 75.2485 103.298 75.2083 103.298C74.6648 107.074 74.1113 110.851 73.5678 114.658C72.0381 114.658 70.5587 114.658 68.9887 114.658C67.8415 107.044 66.7042 99.4404 65.5469 91.7664C66.7042 91.7664 67.7106 91.7563 68.707 91.7865C68.8177 91.7865 68.9887 92.0081 69.0089 92.139C69.3309 94.4654 69.6328 96.7918 69.9348 99.1182C70.3675 102.421 70.8103 105.735 71.3336 109.048C71.4745 108.021 71.6054 106.994 71.7463 105.976C72.2998 101.787 72.8533 97.5974 73.4068 93.4079C73.4571 93.0051 73.5276 92.6123 73.5578 92.2095C73.5779 91.9074 73.6685 91.7563 74.0106 91.7664C74.846 91.7865 75.6913 91.7865 76.5266 91.7664C76.8285 91.7563 76.9292 91.8772 76.9694 92.1591C77.5431 96.5501 78.1167 100.941 78.7004 105.322C78.8615 106.561 79.0325 107.809 79.2036 109.048C79.2338 109.068 79.264 109.068 79.2841 109.058Z" fill="white"/>
<path d="M26.4688 114.617C26.4688 107.024 26.4688 99.4404 26.4688 91.857C26.5191 91.8268 26.5593 91.7865 26.6096 91.7865C28.3708 91.7865 30.132 91.7059 31.8932 91.8066C34.5098 91.9476 35.8785 93.4281 35.9188 96.117C35.959 98.816 35.9289 101.525 35.9389 104.224C35.9389 106.188 35.949 108.152 35.9289 110.116C35.9289 110.549 35.8886 110.992 35.798 111.415C35.4055 113.328 34.218 114.486 32.2455 114.607C30.3434 114.708 28.4312 114.617 26.4688 114.617ZM29.7898 111.395C30.3836 111.395 30.917 111.415 31.4504 111.385C32.0643 111.354 32.4367 111.012 32.5675 110.418C32.6078 110.226 32.6178 110.015 32.6178 109.813C32.6178 105.423 32.6178 101.022 32.6178 96.6306C32.6178 96.3688 32.5776 96.0969 32.5071 95.8451C32.3863 95.4221 32.0643 95.1301 31.6416 95.0998C31.0378 95.0495 30.4138 95.0898 29.7898 95.0898C29.7898 100.528 29.7898 105.936 29.7898 111.395Z" fill="white"/>
<path d="M62.1051 103.277C62.1051 105.614 62.1151 107.94 62.095 110.277C62.095 110.78 62.0548 111.284 61.9642 111.777C61.6119 113.54 60.5452 114.647 58.7437 114.909C57.7675 115.05 56.7309 115.05 55.7547 114.869C53.8124 114.517 52.6953 112.976 52.645 110.75C52.6047 108.978 52.6349 107.195 52.6349 105.412C52.6349 102.381 52.6248 99.3397 52.645 96.3083C52.645 95.7141 52.7053 95.0998 52.8362 94.5157C53.1783 92.9144 54.2049 91.9476 55.795 91.5951C56.8517 91.3635 57.9285 91.3534 58.9852 91.6052C60.9578 92.0684 62.0648 93.5086 62.095 95.7443C62.1252 98.252 62.095 100.76 62.1051 103.277C62.095 103.277 62.095 103.277 62.1051 103.277ZM58.794 103.257C58.8041 100.961 58.8041 98.6649 58.794 96.3687C58.794 95.2005 58.3412 94.6869 57.3448 94.6869C56.3787 94.6869 55.9459 95.2106 55.9359 96.3486C55.9359 96.3989 55.9359 96.4493 55.9359 96.4997C55.9359 100.991 55.9359 105.493 55.9359 109.985C55.9359 110.206 55.9359 110.418 55.956 110.639C56.0365 111.294 56.4391 111.697 57.1033 111.777C58.1399 111.908 58.7739 111.395 58.784 110.347C58.8041 107.981 58.794 105.624 58.794 103.257Z" fill="white"/>
<path d="M12.2676 91.7764C13.3243 91.7764 14.2904 91.7663 15.2666 91.7865C15.3673 91.7865 15.5082 91.9778 15.5685 92.1188C15.6189 92.2296 15.5786 92.3806 15.5786 92.5216C15.5786 98.2419 15.5786 103.972 15.5786 109.693C15.5786 109.914 15.5786 110.126 15.5887 110.347C15.6289 111.344 16.112 111.808 17.0681 111.787C17.9638 111.767 18.4368 111.274 18.4368 110.287C18.4468 104.345 18.4368 98.4031 18.4368 92.4612C18.4368 92.2598 18.4368 92.0584 18.4368 91.8167C19.5438 91.8167 20.6206 91.8167 21.7478 91.8167C21.7478 92.008 21.7478 92.1893 21.7478 92.3706C21.7478 98.3124 21.7478 104.254 21.7377 110.196C21.7377 110.71 21.7075 111.244 21.6069 111.747C21.2547 113.54 20.1879 114.648 18.3563 114.909C17.3801 115.05 16.3334 115.04 15.3673 114.859C13.4954 114.517 12.4185 113.056 12.2877 110.962C12.2676 110.68 12.2676 110.388 12.2676 110.106C12.2676 104.214 12.2676 98.3225 12.2676 92.431C12.2676 92.2396 12.2676 92.0382 12.2676 91.7764Z" fill="white"/>
<path d="M40.5576 91.7966C41.6546 91.7966 42.7012 91.7966 43.8284 91.7966C43.8284 98.3326 43.8284 104.838 43.8284 111.415C45.6097 111.415 47.3306 111.415 49.0717 111.415C49.0717 112.523 49.0717 113.57 49.0717 114.658C46.2337 114.658 43.4057 114.658 40.5576 114.658C40.5576 107.044 40.5576 99.4505 40.5576 91.7966Z" fill="white"/>
<path d="M23.2578 35.0871C27.7161 33.7477 32.3455 36.8697 32.8789 41.2002C28.6018 42.5296 23.922 39.6191 23.2578 35.0871Z" fill="white"/>
</svg>
