<svg width="90" height="90" viewBox="0 0 90 90" fill="none" xmlns="http://www.w3.org/2000/svg">
<g clip-path="url(#clip0)">
<rect width="89.14" height="89.14" rx="44.57" fill="#D3C4F7"/>
<path d="M35.0629 52.2955V58.8324C35.0629 59.4796 44.5712 61.4389 44.5712 61.4389C44.5712 61.4389 54.0794 59.7556 54.0794 58.8324C54.0794 57.0853 54.0438 48.3139 54.0794 40.1689C58.3379 34.649 58.3379 31.199 54.9708 27.6334C51.6037 24.0678 27.6346 22.285 27.6346 22.285C27.6346 22.285 25.8363 39.5812 25.5546 44.2729C25.4414 46.1597 24.2175 52.2955 28.9717 52.2955H35.0629Z" fill="url(#paint1_linear)"/>
<path d="M35.0607 51.7378V55.3144C41.4291 54.1801 45.0938 51.7872 46.0547 48.1356C43.2814 50.0175 39.7158 51.206 35.3579 51.7012C35.2588 51.7125 35.1598 51.7247 35.0607 51.7378Z" fill="#DE6530"/>
<path d="M13.3716 72.2949C11.4858 76.1293 10.0001 82.4681 8.91457 91.3114H80.2266C79.1406 82.4671 77.655 76.1283 75.7696 72.2949C73.8905 68.474 56.4559 61.12 56.4559 61.12L32.6852 61.1179C32.6852 61.1179 15.2471 68.4818 13.3716 72.2949Z" fill="url(#paint2_linear)"/>
<path d="M42.4912 62.9923L41.0055 90.3285H48.1367L46.6511 62.9923C46.6511 62.9923 45.2643 61.5066 44.5711 61.5066C43.8779 61.5066 42.4912 62.9923 42.4912 62.9923Z" fill="url(#paint3_linear)"/>
<path d="M42.1884 68.5243L46.8047 65.8572L46.649 62.9923C45.7245 62.0018 45.0312 61.5066 44.5691 61.5066C44.1069 61.5066 43.4136 62.0018 42.4891 62.9923L42.1884 68.5243Z" fill="#D24B24"/>
<path d="M44.5714 61.5039L47.5428 66.8549L56.7539 61.2094L54.0797 57.3467L44.5714 60.8591L35.0632 57.3467L32.389 61.2094L41.6001 66.8549L44.5714 61.5039Z" fill="white"/>
<path d="M50.2088 31.2602C51.1536 30.4487 52.3018 29.9023 53.9247 30.7455C57.7723 32.7432 55.2187 40.4502 50.913 40.2999C49.4273 40.2482 50.1083 43.2088 54.0774 45.1642C54.0774 42.0443 58.8316 34.3189 59.2476 27.2851C64.0314 25.5038 62.8429 18.3765 59.5587 18.3765C60.0828 11.8422 49.6204 8.46738 45.5693 12.2169C41.4493 7.27884 31.0496 9.80448 30.4218 14.0885C23.2707 10.2713 18.57 21.2441 25.2659 25.5038C28.0212 27.2569 34.4666 27.924 43.7708 27.924C48.2355 27.924 45.668 38.3742 44.272 41.7472C42.4892 46.0556 32.5353 46.6499 29.4154 46.2042C26.9789 45.8563 25.7012 44.8671 25.5526 44.2728C23.3241 50.2155 26.1469 53.7811 30.6039 53.7811C38.1808 53.7811 45.7577 51.5526 46.9462 46.0556C47.8923 41.681 47.8403 34.6208 50.2088 31.2602Z" fill="url(#paint4_linear)"/>
</g>
<defs>
<linearGradient id="paint1_linear" x1="41.3629" y1="22.285" x2="41.3629" y2="61.4389" gradientUnits="userSpaceOnUse">
<stop stop-color="#E6864E"/>
<stop offset="1" stop-color="#EB965E"/>
</linearGradient>
<linearGradient id="paint2_linear" x1="44.5706" y1="61.1179" x2="44.5706" y2="91.3114" gradientUnits="userSpaceOnUse">
<stop stop-color="#130027"/>
<stop offset="1" stop-color="#130017"/>
</linearGradient>
<linearGradient id="paint3_linear" x1="44.5711" y1="90.3285" x2="44.5711" y2="61.5066" gradientUnits="userSpaceOnUse">
<stop stop-color="#E6864E"/>
<stop offset="1" stop-color="#E67240"/>
</linearGradient>
<linearGradient id="paint4_linear" x1="42.2371" y1="9.50659" x2="42.2371" y2="53.7811" gradientUnits="userSpaceOnUse">
<stop stop-color="#130027"/>
<stop offset="1" stop-color="#130017"/>
</linearGradient>
<clipPath id="clip0">
<rect width="89.14" height="89.14" rx="44.57" fill="white"/>
</clipPath>
</defs>
</svg>
