<svg width="90" height="90" viewBox="0 0 90 90" fill="none" xmlns="http://www.w3.org/2000/svg">
<g clip-path="url(#clip0)">
<rect width="89.14" height="89.14" rx="44.57" fill="#D3C4F7"/>
<path d="M35.0612 56.094C35.0259 58.8674 32.7481 60.9685 28.2272 62.3338C33.6745 66.2955 39.1222 69.465 44.5695 69.465C50.0169 69.465 55.4645 66.2955 60.9118 62.3338C56.4218 60.967 54.1437 58.9267 54.0778 56.2129C54.0778 55.7291 54.1096 45.1016 54.1301 40.4648C58.3886 34.9449 56.8242 28.4737 55.4898 28.635C53.8537 28.8344 39.6796 15.3838 36.9608 14.6941C34.242 14.0045 27.3358 16.2309 26.1472 22.4335C24.9587 28.6362 24.4619 44.2708 28.97 50.5126C30.2527 52.2889 32.3035 52.9789 35.0612 52.5926C35.0651 53.8908 35.0612 56.094 35.0612 56.094Z" fill="url(#paint1_linear)"/>
<path d="M35.0625 52.5926C41.5994 51.8497 45.7593 49.027 45.7593 49.027C45.7593 49.027 42.1937 54.9696 35.0625 56.1582V52.5926Z" fill="#DB6F3D"/>
<path d="M56.3078 40.5587C58.3551 35.6352 66.5589 25.6079 59.4871 19.3681C57.1101 7.77985 43.9768 9.06257 35.2113 11.7368C29.3201 13.5341 24.8711 17.0852 23.9203 14.411C17.9776 19.3681 20.9537 24.2164 24.8711 25.6079C28.4266 26.8707 34.4388 28.1335 44.662 26.945C46.4882 26.7325 46.1057 32.3254 47.0815 32.9301C48.5455 33.8373 49.6817 28.1335 53.6954 29.8462C57.7091 31.5588 55.3273 39.5 51.0188 39.5C49.5332 39.5 48.7903 43.5847 52.8016 45.5161C55.7136 46.9471 54.9776 43.7579 56.3078 40.5587Z" fill="white"/>
<path d="M75.7691 71.4036C78.5978 77.1552 80.2261 90.4201 80.2261 90.4201H8.91406C8.91406 90.4201 10.5429 77.1537 13.3711 71.4036C16.1992 65.6534 32.7144 60.3202 32.7144 60.3202C35.8976 66.855 53.3676 66.855 56.4171 60.3181C56.4171 60.3181 72.9404 65.652 75.7691 71.4036Z" fill="url(#paint2_linear)"/>
<mask id="mask0" mask-type="alpha" maskUnits="userSpaceOnUse" x="8" y="60" width="73" height="31">
<path d="M75.7691 71.4036C78.5978 77.1552 80.2261 90.4201 80.2261 90.4201H8.91406C8.91406 90.4201 10.5429 77.1537 13.3711 71.4036C16.1992 65.6534 32.7144 60.3202 32.7144 60.3202C35.8976 66.855 53.3676 66.855 56.4171 60.3181C56.4171 60.3181 72.9404 65.652 75.7691 71.4036Z" fill="url(#paint3_linear)"/>
</mask>
<g mask="url(#mask0)">
<path d="M5.94141 84.3859V82.0089H83.1961V84.3859H5.94141ZM5.94141 78.4433V76.0662H83.1961V78.4433H5.94141ZM5.94141 72.5006V70.1235H83.1961V72.5006H5.94141Z" fill="#6E5C5A"/>
</g>
</g>
<defs>
<linearGradient id="paint1_linear" x1="43.12" y1="14.5735" x2="43.12" y2="69.465" gradientUnits="userSpaceOnUse">
<stop stop-color="#E6864E"/>
<stop offset="1" stop-color="#EB965E"/>
</linearGradient>
<linearGradient id="paint2_linear" x1="44.5701" y1="60.3181" x2="44.5701" y2="90.4201" gradientUnits="userSpaceOnUse">
<stop stop-color="#1D0024"/>
<stop offset="1" stop-color="#100014"/>
</linearGradient>
<linearGradient id="paint3_linear" x1="44.5701" y1="60.3181" x2="44.5701" y2="90.4201" gradientUnits="userSpaceOnUse">
<stop stop-color="#1D0024"/>
<stop offset="1" stop-color="#100014"/>
</linearGradient>
<clipPath id="clip0">
<rect width="89.14" height="89.14" rx="44.57" fill="white"/>
</clipPath>
</defs>
</svg>
