<svg width="753" height="643" viewBox="0 0 753 643" fill="none" xmlns="http://www.w3.org/2000/svg">
<path fill-rule="evenodd" clip-rule="evenodd" d="M528.722 260.241L501.234 232.768L373.988 359.948L286.143 272.149L369.969 188.367L400.184 218.565L352.601 266.123L380.017 293.596L455.087 218.565L369.969 133.492L279.971 43.4692L203.752 119.576L231.24 147.049L279.971 98.3437L342.553 160.893L319.874 183.561L287.722 151.425L260.234 178.826L292.459 210.962L258.727 244.747L140.811 126.893L240.283 27.4014L212.795 0L113.323 99.4197L27.4157 13.5572L0 41.0303L231.24 272.149L235.689 276.596L243.297 284.2L373.988 414.822L528.722 260.241ZM681.661 421.063L654.245 448.464L698.168 492.364L602.285 588.125L572.142 557.998L639.748 490.427L612.261 462.954L544.654 530.525L460.541 446.456L612.835 294.17L621.088 302.419L641.183 322.504L530.803 432.899L558.219 460.3L668.671 349.977L710.728 392.012L738.143 364.539L696.087 322.504L682.379 308.803L648.576 275.018L612.835 239.367L581.256 207.734L676.781 112.188L649.365 84.7864L526.353 207.734L585.419 266.769L405.638 446.456L530.946 571.699L602.285 643L753 492.364L681.661 421.063ZM478.125 196.688L406.141 124.741L313.487 32.1357L340.975 4.66263L419.921 83.5671L479.417 24.1018L506.833 51.5749L496.929 61.4739L529.225 93.753L619.08 3.94531L646.495 31.4184L529.225 148.627L469.513 88.8753L447.336 111.04L505.541 169.214L478.125 196.688Z" fill="url(#paint0_linear)"/>
<g opacity="0.2">
<path d="M358.989 467.258C358.774 467.473 353.75 471.706 348.367 475.579C346.716 476.727 343.343 478.735 342.984 479.022C337.315 482.967 324.396 492.292 323.392 492.795C320.305 494.301 319.947 493.727 319.947 493.727C319.947 493.727 319.588 493.942 319.516 494.014C319.444 494.086 319.372 494.301 319.301 494.373C318.583 494.946 315.856 496.74 315.138 496.955C313.918 497.385 312.124 496.811 313.344 495.664C314.277 494.803 316.932 493.584 317.794 493.368C317.865 493.368 318.511 493.01 318.583 493.01C318.727 492.938 318.798 492.866 318.798 492.866C318.798 492.866 317.937 492.938 319.157 491.79C320.377 490.643 339.827 477.229 339.827 477.229C339.827 477.229 346.501 469.912 347.147 469.697C348.295 469.41 350.09 470.056 350.09 470.056C350.09 470.056 348.295 470.486 348.008 470.701C347.721 470.916 340.185 479.166 340.185 479.166L349.587 473.355L358.056 467.33L358.989 467.258Z" fill="url(#paint1_linear)"/>
<path d="M320.449 493.87C320.521 493.87 321.885 493.942 323.751 493.081C324.827 492.579 327.985 490.14 330.856 488.347C332.865 487.056 336.023 485.621 336.095 485.55C336.238 485.478 336.669 485.334 336.669 485.263C336.669 485.119 336.382 484.976 336.382 484.976L336.167 484.545L333.296 485.837L320.019 493.512L320.449 493.87Z" fill="url(#paint2_linear)"/>
<path d="M337.027 484.904C337.027 484.904 337.53 484.904 337.745 484.761C337.96 484.689 338.534 484.402 338.463 484.33C338.391 484.258 337.745 484.474 337.745 484.474C337.745 484.474 338.032 484.33 338.247 484.043C338.463 483.828 338.75 483.685 338.678 483.541C338.606 483.469 338.678 483.469 338.463 483.541C338.247 483.613 338.534 483.254 338.247 483.398C337.96 483.541 338.247 483.182 337.888 483.398C337.673 483.541 337.745 483.254 337.53 483.469C337.314 483.685 336.812 484.115 336.812 484.115L336.022 484.689L336.31 485.191L337.027 484.904Z" fill="url(#paint3_linear)"/>
<path d="M332.936 482.824C332.936 482.824 333.439 482.824 333.654 482.68C333.869 482.537 334.444 482.322 334.372 482.25C334.3 482.178 333.654 482.393 333.654 482.393C333.654 482.393 333.941 482.25 334.156 481.963C334.372 481.748 334.659 481.604 334.587 481.461C334.515 481.389 334.587 481.389 334.372 481.461C334.156 481.533 334.444 481.174 334.156 481.317C333.869 481.461 334.156 481.102 333.798 481.317C333.582 481.461 333.654 481.174 333.439 481.389C333.223 481.604 332.721 482.035 332.721 482.035L331.932 482.609L332.219 483.111L332.936 482.824Z" fill="url(#paint4_linear)"/>
<path d="M318.511 492.723C318.511 492.723 318.296 492.292 318.583 491.647C318.87 491.001 323.894 487.128 324.899 486.554C325.903 485.98 331.86 482.537 331.86 482.537L332.434 482.967C332.434 482.967 326.98 486.339 325.544 487.128C324.181 487.917 321.884 490.212 321.884 490.212L320.521 491.934L318.511 492.723Z" fill="url(#paint5_linear)"/>
</g>
<path d="M350.233 452.697L350.305 452.984L351.382 452.912L351.31 452.697H350.233Z" fill="white"/>
<path d="M351.022 439.426L351.166 438.853L353.176 439.283L353.247 439.498L351.022 439.426Z" fill="white"/>
<path d="M358.559 450.33L358.774 450.473L359.779 449.684L359.563 449.541L358.559 450.33Z" fill="white"/>
<path fill-rule="evenodd" clip-rule="evenodd" d="M351.125 438.344C350.914 437.933 349.954 436.001 350.018 434.979C350.018 434.979 350.664 434.047 351.525 433.903C353.104 433.688 353.534 434.764 353.534 434.764C353.534 434.764 353.45 434.764 353.369 434.817L353.535 434.764C353.535 434.764 353.32 435.625 353.463 436.055C353.633 436.62 353.535 436.74 353.486 436.801C353.473 436.817 353.463 436.829 353.463 436.844C353.427 436.953 353.446 437.211 353.464 437.456C353.482 437.694 353.498 437.921 353.463 437.992C353.391 438.135 353.104 438.207 353.104 438.207L353.164 439.513C353.528 439.576 354.547 439.922 354.898 441.794C355.016 442.345 355.005 443.524 354.958 444.89C355.436 445.458 356.146 446.296 356.548 446.743C357.194 447.46 359.634 449.469 359.634 449.469L359.397 449.662L359.635 449.899C359.635 449.899 360.065 449.899 360.281 449.971C360.496 450.043 360.927 450.258 360.855 450.401C360.711 450.473 360.209 450.258 360.209 450.258C360.209 450.258 360.424 450.401 360.568 450.688C360.609 450.75 360.656 450.812 360.701 450.87L360.701 450.87L360.701 450.871L360.701 450.871C360.811 451.015 360.906 451.139 360.855 451.19C360.84 451.205 360.831 451.217 360.824 451.226C360.818 451.234 360.814 451.24 360.809 451.242C360.799 451.247 360.784 451.242 360.742 451.226C360.718 451.217 360.685 451.205 360.639 451.19C360.532 451.154 360.532 451.226 360.532 451.298C360.532 451.37 360.532 451.441 360.424 451.405C360.331 451.375 360.305 451.424 360.282 451.467C360.253 451.523 360.228 451.569 360.065 451.405C359.958 451.334 359.922 451.37 359.895 451.397C359.868 451.423 359.85 451.441 359.778 451.334C359.635 451.119 359.276 450.616 359.276 450.616L358.773 450.186L358.87 450.09L358.486 450.401C358.486 450.401 357.984 449.971 356.764 449.038C356.254 448.649 355.532 447.972 354.863 447.315C354.849 447.681 354.837 448.042 354.826 448.393C354.779 449.773 354.889 451.121 354.99 452.04L355.042 452.123C356.118 453.844 358.271 458.292 358.271 458.292C358.271 458.292 358.26 458.336 358.24 458.412C358.253 458.465 358.264 458.521 358.271 458.579C358.343 459.655 358.989 466.039 358.989 466.039L358.877 466.119L358.989 466.397C358.989 466.397 359.85 466.254 360.639 466.182C360.926 466.182 360.711 466.469 360.209 466.756C359.778 466.971 358.917 467.402 358.199 467.473C358.056 467.545 357.912 467.473 357.769 467.402L357.769 467.402C357.686 467.361 357.769 467.037 357.841 466.755C357.876 466.618 357.909 466.49 357.919 466.41C357.692 465.215 356.946 461.292 356.764 460.444C356.681 460.053 356.638 459.693 356.623 459.365C355.912 458.399 354.898 457.001 354.898 457.001C354.468 456.212 353.499 455.029 352.638 454.043C352.626 454.211 352.614 454.384 352.602 454.562C352.53 456.642 351.023 461.376 351.023 461.376L351.021 461.378C350.476 463.204 348.87 468.191 348.87 468.191L348.707 468.213L348.439 468.908C348.439 468.908 349.516 469.267 350.09 469.84C350.233 470.056 349.659 470.127 349.085 469.984C348.654 469.912 347.865 469.769 347.291 469.338C347.147 469.267 347.004 468.908 347.147 468.764C347.296 468.616 347.444 468.48 347.577 468.367L347.291 468.406C347.291 468.406 348.87 462.954 349.013 461.95C349.114 461.466 349.249 461.048 349.397 460.692C349.418 459.505 349.444 458.148 349.444 458.148C349.579 457.027 349.573 454.866 349.55 453.406C349.347 453.411 349.229 453.414 349.229 453.414C349.229 453.414 349.946 449.827 349.874 448.895C349.855 448.621 349.782 448.034 349.692 447.31L349.692 447.31L349.692 447.31L349.692 447.31L349.692 447.31L349.692 447.309C349.638 446.874 349.578 446.389 349.52 445.893C349.388 446.504 349.205 447.188 348.998 447.709C348.836 448.33 348.655 449.071 348.582 449.541C348.439 450.473 348.152 453.629 348.152 453.629L346.932 453.055V450.975C346.932 449.839 347.33 447.358 347.463 446.563C347.445 446.495 347.435 446.456 347.435 446.456C347.435 444.663 348.439 441.291 348.655 440.718C348.861 440.168 349.99 439.618 351.031 439.447C351.072 439.414 351.109 439.387 351.142 439.368L351.166 438.924L351.095 438.494L351.125 438.344ZM348.008 454.418C348.008 454.131 347.793 453.773 347.793 453.773L347.65 453.414L346.932 453.127L346.788 453.773C346.788 453.773 346.501 454.275 346.429 454.49C346.356 454.601 346.396 454.616 346.442 454.635C346.486 454.652 346.536 454.672 346.501 454.777C346.464 454.965 346.525 454.956 346.591 454.946C346.652 454.937 346.717 454.927 346.717 455.064C346.717 455.213 346.775 455.188 346.84 455.159C346.901 455.133 346.969 455.104 347.004 455.207C347.028 455.279 347.036 455.327 347.041 455.359C347.051 455.422 347.051 455.422 347.147 455.422C347.248 455.473 347.313 455.346 347.393 455.192C347.427 455.126 347.463 455.056 347.506 454.992C347.65 454.777 347.721 454.49 347.721 454.49C347.721 454.49 347.721 454.992 347.865 455.064C348.008 455.136 348.008 454.634 348.008 454.418V454.418Z" fill="url(#paint6_linear)"/>
<path d="M346.86 453.055V453.271L348.009 453.844L348.08 453.557L346.86 453.055Z" fill="white"/>
<path d="M390 430L556.28 266.707C556.677 266.318 556.679 265.679 556.286 265.286L497.727 206.727C497.329 206.329 497.338 205.68 497.747 205.293L644 67" stroke="url(#paint7_linear)" stroke-width="4" stroke-linecap="round"/>
<defs>
<linearGradient id="paint0_linear" x1="251" y1="552" x2="391.299" y2="-33.8262" gradientUnits="userSpaceOnUse">
<stop offset="0.0416667" stop-color="#BF6DFF"/>
<stop offset="0.572917" stop-color="#D8A7FF"/>
<stop offset="0.895833" stop-color="#E8CAFF"/>
</linearGradient>
<linearGradient id="paint1_linear" x1="372.298" y1="463.771" x2="304.55" y2="497.473" gradientUnits="userSpaceOnUse">
<stop stop-color="#B5E0FF"/>
<stop offset="1" stop-color="#DFFDFF"/>
</linearGradient>
<linearGradient id="paint2_linear" x1="341.481" y1="483.456" x2="318.526" y2="496.665" gradientUnits="userSpaceOnUse">
<stop stop-color="#B5E0FF"/>
<stop offset="1" stop-color="#DFFDFF"/>
</linearGradient>
<linearGradient id="paint3_linear" x1="339.46" y1="483.109" x2="335.424" y2="484.97" gradientUnits="userSpaceOnUse">
<stop stop-color="#B5E0FF"/>
<stop offset="1" stop-color="#DFFDFF"/>
</linearGradient>
<linearGradient id="paint4_linear" x1="335.369" y1="481.029" x2="331.333" y2="482.89" gradientUnits="userSpaceOnUse">
<stop stop-color="#B5E0FF"/>
<stop offset="1" stop-color="#DFFDFF"/>
</linearGradient>
<linearGradient id="paint5_linear" x1="336.481" y1="481.347" x2="315.003" y2="490.862" gradientUnits="userSpaceOnUse">
<stop stop-color="#B5E0FF"/>
<stop offset="1" stop-color="#DFFDFF"/>
</linearGradient>
<linearGradient id="paint6_linear" x1="365.054" y1="429.647" x2="338.915" y2="433.018" gradientUnits="userSpaceOnUse">
<stop stop-color="#B5E0FF"/>
<stop offset="1" stop-color="#DFFDFF"/>
</linearGradient>
<linearGradient id="paint7_linear" x1="515.5" y1="67" x2="515.5" y2="432" gradientUnits="userSpaceOnUse">
<stop stop-color="#80F0F3" stop-opacity="0"/>
<stop offset="1" stop-color="#80F0F3"/>
</linearGradient>
</defs>
</svg>
