<svg width="907" height="624" viewBox="0 0 907 624" fill="none" xmlns="http://www.w3.org/2000/svg">
<g clip-path="url(#clip0)">
<g style="mix-blend-mode:multiply">
<path d="M476.877 574.824L0 399.195V231.674L668.358 493.288L476.877 574.824Z" fill="url(#paint0_linear)"/>
</g>
<path d="M668.356 0L476.875 81.5504V574.824L668.356 493.289V0Z" fill="url(#paint1_linear)"/>
<g filter="url(#filter0_d)">
<path fill-rule="evenodd" clip-rule="evenodd" d="M741.714 331.531C741.746 334.582 741.774 337.208 742.592 339.864C744.917 347.418 785 360.405 785 360.405C785 360.405 757.713 384.349 746.891 381.226C743.915 380.368 740.087 378.473 735.814 376.358C724.544 370.78 710.17 363.665 700.122 369.954C686.262 378.627 680.198 417.074 680.198 417.074C680.198 417.074 641.34 371.768 634.294 357.815C630.107 349.517 627.04 323.615 625.344 309.282C625.153 307.667 624.979 306.198 624.823 304.919C615.568 315.37 603.096 334.503 603.096 334.503C603.096 334.503 599.438 363.068 598.509 379.277C597.581 395.486 590.111 526.5 590.111 526.5L590.064 526.521L876.5 621.5L870.5 624L575 533L575.218 532.908C574.964 529.114 566.908 408.693 564.753 380.197C562.563 351.236 557.913 331.299 557.913 331.299C557.913 331.299 523.715 304.287 521.093 293.971C519.714 288.52 534.15 261.399 536.34 258.827C537.137 257.892 537.996 256.175 538.956 254.255C540.851 250.467 543.139 245.893 546.117 245.001C559.634 240.94 564.032 235.741 565.465 232.763C565.465 232.763 566.825 225.109 566.699 223.413C566.573 221.707 564.924 218.783 564.924 218.783L562 219.5C554.944 220.511 552.74 219.568 551.38 217.934C550.529 216.919 550.724 215.61 551.002 213.756C551.168 212.646 551.363 211.34 551.38 209.785C551.405 207.44 550.867 205.898 550.431 204.651C550.095 203.69 549.821 202.904 549.912 202.059C550.031 200.956 550.914 200.658 552.185 200.229C553.149 199.904 554.335 199.504 555.579 198.621C558.472 196.572 562.076 189.316 562.076 189.316C562.076 189.316 561.202 187.032 563.5 183.35C565.807 179.668 567.609 179.875 567.609 179.875C567.609 179.875 568.141 176.563 569.745 175.164C571.349 173.765 577.405 169.388 591.724 174.199C598.888 176.608 604.88 183.792 608.332 196.996C612.053 211.238 629.896 217.474 636.754 214.911C660.589 205.994 674.998 217.276 674.998 217.276C674.998 217.276 659.877 214.577 653.515 218.323C648.577 221.238 664.608 229.08 664.608 229.08C664.608 229.08 650.451 224.974 640.187 226.923C638.055 227.327 640.027 228.046 644.631 229.726C646.002 230.226 647.607 230.812 649.406 231.499C658.633 235.028 660.382 241.382 660.382 241.382C660.382 241.382 650.271 231.815 631.77 233.286C626.463 233.71 653.965 244.829 653.965 244.829C653.965 244.829 621.128 242.582 609.963 236.698C606.944 235.103 603.716 232.959 600.692 230.95C596.288 228.023 592.317 225.385 590.057 225.155C584.962 224.64 585.423 229.121 585.71 231.9C585.825 233.018 585.912 233.861 585.596 233.99C586.291 234.346 587.882 234.577 589.607 234.827C591.642 235.122 593.862 235.444 595.013 236.03C596.245 236.208 597.337 236.351 598.323 236.48C604.187 237.249 606.278 237.523 611.54 241.68C611.845 241.921 612.52 242.382 613.397 242.982C616.224 244.912 621.147 248.275 622.543 250.335C624.104 251.132 629.562 253.208 634.343 255.026C638.062 256.441 641.37 257.699 642.116 258.078C647.389 260.778 659.122 264.022 670.887 267.274C683.588 270.786 696.326 274.308 701.014 277.166C702.591 278.128 704.462 279.146 706.518 280.264C716.238 285.552 730.094 293.09 736.528 307.527C741.579 318.856 741.654 325.913 741.714 331.531ZM579.974 530.906L584.5 529L584.656 528.929L584.497 529L581.163 447.245L579.974 530.906ZM560.689 318.944C560.689 318.944 561.581 313.05 562.248 308.682C562.905 304.314 559.463 288.412 559.463 288.412C559.463 288.412 552.732 287.69 550.785 282.139C548.83 276.589 552.777 266.535 552.777 266.535C552.777 266.535 535.322 287.293 536.241 292.202C537.16 297.103 560.689 318.944 560.689 318.944ZM597.338 303.791C597.104 310.271 600.933 317.743 600.933 317.743C600.933 317.743 609.125 305.975 613.748 300.126C612.279 299.838 609.83 296.259 607.299 292.561C604.846 288.976 602.316 285.279 600.528 284.359C600.528 284.359 597.572 297.31 597.338 303.791Z" fill="url(#paint2_linear)"/>
</g>
<g clip-path="url(#clip1)">
<path d="M870.714 621.299C871.224 620.579 871.424 620.219 871.424 620.219C871.424 620.219 871.474 620.209 871.534 620.189L873.344 617.289L873.194 570.489L872.104 570.539C872.104 570.539 870.854 553.719 871.354 551.119C871.524 550.239 871.664 549.529 871.784 548.949H870.464C870.464 548.949 873.004 546.699 873.794 540.289C874.094 537.869 872.944 529.789 873.644 525.329C873.904 523.659 871.114 524.899 872.214 519.769C872.394 518.919 872.924 517.769 873.564 516.579L873.434 516.719L876.994 509.859L879.094 509.559C879.144 509.109 879.294 507.849 879.254 507.379C879.214 506.809 878.654 505.819 878.654 505.819C878.654 505.819 879.384 505.849 876.994 506.189C874.604 506.529 874.454 506.079 873.994 505.529C873.534 504.979 873.854 504.179 873.874 502.769C873.884 501.369 873.255 500.615 873.494 500C873.779 499.267 874.932 499.001 875.644 498.5C876.624 497.81 877.614 495.859 877.614 495.859C877.614 495.859 877.314 495.089 878.094 493.839C878.874 492.589 879.564 492.659 879.564 492.659C879.564 492.659 879.744 491.539 880.284 491.069C880.824 490.599 882.884 489.119 887.724 490.739C888.934 491.149 890.364 492.289 891.494 493.909C891.774 494.309 892.044 494.749 892.274 495.209C892.394 495.429 892.504 495.669 892.604 495.909C893.124 497.119 893.454 498.479 893.464 499.919C893.464 500.499 893.424 501.089 893.344 501.679C893.304 501.979 893.254 502.279 893.194 502.579C892.934 503.889 892.514 505.199 892.074 506.449C891.944 506.819 891.814 507.169 891.684 507.529C891.544 507.909 891.404 508.279 891.274 508.639C890.684 510.209 890.184 511.559 890.114 512.479C889.714 517.409 899.164 519.209 899.164 519.209C899.164 519.209 897.204 520.949 894.964 521.819C894.214 522.109 893.444 522.299 892.694 522.299C892.054 522.299 891.474 522.179 890.924 521.989C890.504 521.849 890.094 521.679 889.714 521.459C889.384 521.259 889.064 521.029 888.754 520.789C887.974 520.169 887.274 519.409 886.614 518.619C886.474 518.449 886.344 518.289 886.214 518.119C885.894 523.239 885.194 530.069 883.694 535.789C882.634 539.839 885.934 548.969 885.934 548.969H884.814C885.394 550.489 886.084 552.659 885.944 553.979C885.414 559.169 883.004 561.659 882.894 563.169C882.784 564.679 881.804 570.149 881.804 570.149L880.804 570.189L879.464 615.429L879.304 615.849C879.414 615.599 879.464 615.429 879.464 615.429C879.464 615.429 880.004 616.059 880.274 617.029C880.534 617.999 879.784 618.309 879.764 618.899C879.734 619.479 879.674 622.359 879.674 622.359L879.514 622.369L879.204 619.169C879.204 619.169 878.724 619.349 877.664 620.119C876.904 620.679 876.614 621.679 876.084 622.229C876.074 622.699 876.064 623.039 876.064 623.039L875.904 623.049L875.844 622.429C875.694 622.529 875.534 622.609 875.334 622.629C874.654 622.709 873.444 622.759 872.584 622.779C872.354 623.059 872.094 623.269 871.724 623.319C870.594 623.449 868.004 623.489 868.004 623.489C868.004 623.489 870.204 622.019 870.714 621.299ZM876.844 582.379L875.844 616.119L875.684 616.539C875.794 616.289 875.844 616.119 875.844 616.119C875.844 616.119 876.234 616.579 876.514 617.319L876.954 616.619L876.844 582.379ZM874.324 620.619C874.324 620.609 874.324 620.609 874.324 620.619C874.234 620.679 874.154 620.729 874.044 620.809C873.794 620.989 873.594 621.229 873.414 621.479C873.804 621.159 874.154 620.849 874.324 620.619Z" fill="url(#paint3_linear)"/>
</g>
</g>
<defs>
<filter id="filter0_d" x="451" y="106" width="495.5" height="592" filterUnits="userSpaceOnUse" color-interpolation-filters="sRGB">
<feFlood flood-opacity="0" result="BackgroundImageFix"/>
<feColorMatrix in="SourceAlpha" type="matrix" values="0 0 0 0 0 0 0 0 0 0 0 0 0 0 0 0 0 0 127 0" result="hardAlpha"/>
<feOffset dy="4"/>
<feGaussianBlur stdDeviation="35"/>
<feColorMatrix type="matrix" values="0 0 0 0 0.9375 0 0 0 0 0.644133 0 0 0 0 0.488281 0 0 0 0.8 0"/>
<feBlend mode="normal" in2="BackgroundImageFix" result="effect1_dropShadow"/>
<feBlend mode="normal" in="SourceGraphic" in2="effect1_dropShadow" result="shape"/>
</filter>
<linearGradient id="paint0_linear" x1="9.82259e-06" y1="361" x2="474" y2="575" gradientUnits="userSpaceOnUse">
<stop offset="0.46439" stop-color="#050A4B" stop-opacity="0"/>
<stop offset="1" stop-color="#050A4B"/>
</linearGradient>
<linearGradient id="paint1_linear" x1="572.616" y1="0" x2="572.616" y2="574.824" gradientUnits="userSpaceOnUse">
<stop stop-color="#D57EEB"/>
<stop offset="1" stop-color="#2E9FCC" stop-opacity="0"/>
</linearGradient>
<linearGradient id="paint2_linear" x1="780.37" y1="212.405" x2="605.244" y2="632.058" gradientUnits="userSpaceOnUse">
<stop offset="0.0416667" stop-color="#FCCB90"/>
<stop offset="0.572917" stop-color="#FF9E7E" stop-opacity="0.2"/>
<stop offset="0.895833" stop-color="#7169E0" stop-opacity="0"/>
</linearGradient>
<linearGradient id="paint3_linear" x1="889.55" y1="488.179" x2="875.949" y2="609.86" gradientUnits="userSpaceOnUse">
<stop stop-color="#FFDC97"/>
<stop offset="1" stop-color="#FF993B"/>
</linearGradient>
<clipPath id="clip0">
<rect width="907" height="624" fill="white"/>
</clipPath>
<clipPath id="clip1">
<rect width="31.17" height="133.5" fill="white" transform="matrix(-1 0 0 1 899.172 490)"/>
</clipPath>
</defs>
</svg>
