<svg width="227" height="42" viewBox="0 0 227 42" fill="none" xmlns="http://www.w3.org/2000/svg">
<g opacity="0.6">
<path d="M21.9794 8.64884C21.7835 8.6581 21.5926 8.70864 21.4084 8.82824C22.1653 8.98153 23.0517 9.08512 23.529 9.78503C23.768 10.0428 23.6941 10.4395 23.4543 10.666C23.0019 11.2135 22.2242 11.3853 21.5603 11.2101C19.3069 10.6702 17.1755 9.62079 14.8599 9.34706C13.6199 9.18114 12.4081 9.78671 11.5516 10.6626C10.7615 11.467 10.4743 12.6874 10.6303 13.7899C10.8055 14.6625 11.442 15.5679 12.3633 15.6968C11.818 15.0954 11.7143 14.0502 12.2795 13.4252C12.5999 13.0226 13.1684 12.967 13.6406 13.0412C15.4351 13.3797 17.1838 13.928 18.9732 14.2969C19.975 14.574 20.966 14.9042 21.9902 15.0929C22.0085 16.3352 22.0085 17.5758 21.9902 18.8181C21.3295 19.3193 20.6979 19.8583 20.0489 20.3754C20.6805 20.8547 21.3312 21.3044 21.9836 21.7533C22.0259 23.5103 21.9777 25.2664 22.0085 27.0233C20.9403 27.8605 19.5102 27.9961 18.2105 27.8411C16.8302 27.7636 15.6044 26.9289 14.7005 25.9157C16.2161 25.0954 17.7606 24.3214 19.311 23.5684C19.3658 20.7982 19.321 18.0272 19.3359 15.2554C17.3988 16.08 15.4815 16.9483 13.5502 17.7855C14.1079 16.3369 15.2433 15.1636 16.5978 14.4662C16.2443 14.4873 15.8733 14.4612 15.5438 14.617C13.009 15.6327 10.92 17.8158 10.1332 20.479C9.60697 22.1703 9.77628 24.0198 10.3473 25.674C11.0544 27.5143 12.3617 29.1424 14.0955 30.073C15.069 30.5843 16.1173 31.0627 17.2336 31.077C19.5443 31.2724 21.9753 30.3872 23.5339 28.6227C24.2145 27.8815 24.5581 26.9146 24.8951 25.9797C25.208 25.0583 25.3491 24.0779 25.3167 23.1043C24.5689 24.6094 23.5746 26.0235 22.2159 27.0216C22.2242 25.2706 22.2126 23.5212 22.2193 21.7702C22.8094 21.3137 23.4028 20.8572 23.9738 20.3763C23.387 19.849 22.8044 19.3226 22.2193 18.7937C22.2218 17.5632 22.2168 16.3293 22.2193 15.0996C23.5398 15.0289 25.0603 14.3222 25.4163 12.9157C25.6645 11.9985 25.794 10.9111 25.2395 10.0807C24.7299 9.49193 24.0684 8.97984 23.2924 8.8375C22.8642 8.7996 22.411 8.62778 21.9794 8.64884ZM15.7994 17.0907C15.7944 19.7589 15.8152 22.4271 15.7903 25.0954C15.3512 25.2706 14.9196 25.4618 14.4881 25.6555C13.6921 24.4864 13.1966 23.1102 12.9684 21.7129C12.9061 20.5338 13.1219 19.3395 13.5261 18.2328C14.2913 17.8639 15.0383 17.4655 15.7994 17.0907ZM167.286 8.64884C167.074 8.6421 166.866 8.68505 166.67 8.82824C167.116 8.93267 167.588 8.97731 168.006 9.1904C168.378 9.37148 168.624 9.74628 168.753 10.1346C168.823 10.554 168.52 10.9397 168.158 11.0972C167.508 11.4021 166.77 11.2606 166.109 11.0787C164.521 10.5852 162.976 9.94758 161.355 9.56183C160.523 9.38159 159.651 9.2123 158.81 9.43634C157.899 9.69659 156.973 10.1396 156.434 10.9659C155.74 11.8755 155.653 13.1271 155.991 14.1976C156.27 14.9109 156.836 15.6125 157.635 15.7043C157.374 15.3649 156.926 15.0213 157.054 14.537C157.127 14.0561 157.323 13.5684 157.703 13.2568C158.082 12.9662 158.602 12.9696 159.042 13.0993C160.657 13.4042 162.234 13.864 163.83 14.2481C164.911 14.4805 165.949 14.8907 167.038 15.0945C167.057 16.3318 167.042 17.5691 167.047 18.8072C166.462 19.3319 165.877 19.8558 165.299 20.3897C165.881 20.8462 166.454 21.3145 167.044 21.7618C167.052 23.5229 167.041 25.2857 167.053 27.0477C166.029 27.8268 164.68 28.0188 163.438 27.8436C162.065 27.7602 160.864 26.9222 159.953 25.9309C160.326 25.6664 160.753 25.4963 161.155 25.2824C162.289 24.7164 163.408 24.1234 164.551 23.5768C164.587 20.8041 164.555 18.0306 164.567 15.2579C162.642 16.0901 160.732 16.961 158.8 17.7754C159.241 16.7117 159.947 15.7389 160.896 15.0887C161.179 14.8259 161.467 14.5496 161.857 14.4595C161.467 14.4873 161.064 14.4738 160.71 14.6574C157.987 15.7751 155.666 18.2125 155.154 21.2084C154.96 22.7287 155.099 24.3079 155.622 25.749C156.293 27.4402 157.474 28.9428 159.011 29.9021C159.746 30.356 160.536 30.7224 161.361 30.9751C163.336 31.3086 165.454 31.0206 167.181 29.956C168.321 29.1491 169.38 28.103 169.857 26.747C170.369 25.5957 170.575 24.3374 170.601 23.0816C170.363 23.3974 170.224 23.7731 170.021 24.1108C169.365 25.2285 168.516 26.2408 167.481 27.0149C167.494 25.2588 167.466 23.5035 167.497 21.7474C168.082 21.3179 168.632 20.8403 169.221 20.4133C168.678 19.8423 168.062 19.3487 167.485 18.8147C167.474 17.5842 167.498 16.352 167.472 15.1207C168.607 15.0465 169.755 14.5294 170.365 13.5195C171 12.4811 170.996 11.0669 170.383 10.0209C169.901 9.37401 169.142 8.9571 168.359 8.8375C168.008 8.8055 167.641 8.65979 167.286 8.64884ZM161.057 17.0873C161.072 19.7505 161.057 22.4128 161.063 25.076C160.616 25.2664 160.174 25.4668 159.727 25.658C159.08 24.7341 158.576 23.6956 158.316 22.5905C158.03 21.1436 158.105 19.5745 158.768 18.2395C159.538 17.8664 160.296 17.4764 161.057 17.0873ZM68.8207 9.53657C69.5602 10.8505 69.0971 12.631 67.9849 13.5777C67.3018 14.0291 66.515 14.2784 65.7448 14.5319C65.7622 19.9063 65.7473 25.2815 65.7498 30.655C65.8046 30.9001 65.5821 31.093 65.3539 30.9945C64.9032 30.9734 64.7845 30.4908 64.5936 30.1665C61.8232 24.996 59.0826 19.8086 56.2889 14.6498C56.2358 18.4442 56.2881 22.2427 56.2632 26.0387C57.5828 26.2922 58.8676 26.9374 59.7308 28.002C60.1317 27.687 60.3906 27.1336 60.9044 27.0064C60.7741 27.2465 60.584 27.4444 60.4031 27.6457C59.4046 28.7667 58.4087 29.8937 57.4119 31.0172C56.9496 30.426 56.3329 29.8642 55.5618 29.7842C55.0547 29.7639 54.4679 29.7901 54.0986 30.1969C53.6728 30.5818 53.3881 31.2311 53.6919 31.7811C54.048 32.5703 54.9435 32.7842 55.6971 32.9729C54.7543 33.1616 53.6994 33.0512 52.9391 32.4103C52.3341 31.8856 51.7846 31.2193 51.6269 30.4066C51.4145 29.2864 51.7448 28.0416 52.5698 27.2473C53.4711 26.3427 54.7933 26.005 56.0316 26.0766C56.0648 24.4224 56.0499 22.7691 56.0391 21.1158C55.4374 21.0189 54.6182 21.1057 54.3376 21.7441C54.175 22.2612 54.5576 22.6967 54.9352 22.9797C54.4663 22.8963 53.9459 22.8062 53.6073 22.4372C53.208 21.9378 52.8976 21.3474 52.7823 20.7106C52.6669 19.8911 52.8794 18.9571 53.5508 18.4298C54.2538 17.8773 55.19 17.8015 56.0482 17.8217V14.3264C55.737 13.8522 55.4382 13.3081 54.9037 13.063C54.5543 12.9157 54.0978 12.8626 53.7965 13.1397C53.3798 13.4985 53.2794 14.0687 53.1143 14.5681C52.9541 13.3486 53.0744 11.9656 53.9168 11.0088C54.9336 9.67217 57.0857 9.62332 58.1978 10.8589C58.6792 11.3609 59.0087 11.9799 59.3366 12.5905C61.3957 16.3108 63.4134 20.0554 65.4933 23.7629C65.5058 20.6879 65.5116 17.6112 65.4908 14.5361C65.1331 14.3955 64.7356 14.3989 64.372 14.2708C63.6948 14.0897 63.1304 13.6467 62.6299 13.1675C62.317 13.5398 62.0024 13.9112 61.7111 14.3003C61.6431 14.2624 61.5078 14.1883 61.4397 14.1504C62.5062 12.786 63.65 11.4838 64.7596 10.1548C65.3414 10.7764 66.1 11.2851 66.9657 11.3415C67.8687 11.2354 68.7576 10.5018 68.8207 9.53657ZM138.053 12.5131C139.541 11.5285 141.027 10.5355 142.52 9.55931C142.532 15.3666 142.509 21.1747 142.532 26.9812C142.855 27.4267 143.295 27.7931 143.686 28.1847C143.932 27.9177 144.187 27.6625 144.441 27.4048C144.5 27.4655 144.619 27.5859 144.68 27.6449C143.488 28.6935 142.333 29.7816 141.134 30.8193C140.379 30.0326 139.597 29.2738 138.848 28.4829C138.512 28.7861 138.204 29.1188 137.888 29.4422C137.823 29.3917 137.694 29.2898 137.63 29.2392C138.202 28.6842 138.814 28.1755 139.392 27.6255C139.387 23.2239 139.395 18.8232 139.387 14.4233C139.374 13.6004 138.96 12.615 138.053 12.5131ZM26.9252 12.684C28.2067 11.7146 29.4625 10.7107 30.7448 9.74544C30.7506 12.9443 30.7439 16.1448 30.7481 19.3454C31.8329 18.4366 32.9268 17.5396 34.0008 16.6182C34.8631 17.5253 35.6673 18.4896 36.5554 19.3681C36.9297 19.0952 37.3148 18.8358 37.7074 18.5916C37.6369 19.0986 37.0393 19.2721 36.7289 19.6258C36.7322 21.3752 36.7289 23.1237 36.7297 24.873C36.7546 26.181 36.5687 27.4798 36.5305 28.7861C36.4724 30.2036 35.9304 31.6523 34.8415 32.5821C33.9559 33.3856 32.7458 33.6745 31.5905 33.7714C31.5706 33.7991 31.5283 33.8556 31.5075 33.8842L31.5382 33.7815C31.1398 33.7815 30.7431 33.7663 30.3464 33.736C30.8452 33.474 31.4096 33.3064 31.8022 32.8735C32.2537 32.3623 32.779 31.8755 33.0015 31.2076C33.365 30.1884 33.3758 29.0893 33.4123 28.0197C33.4023 25.6218 33.4231 23.2231 33.4015 20.8269C32.8753 20.1312 32.2454 19.5163 31.6876 18.8442C31.3822 19.1752 31.017 19.4532 30.7547 19.8212C30.734 22.2957 30.7522 24.7711 30.7464 27.2456C31.0626 27.5657 31.378 27.8874 31.6967 28.2049C31.9524 27.9447 32.208 27.6828 32.4628 27.4208C32.5201 27.4772 32.633 27.591 32.6894 27.6474C31.4494 28.632 30.2219 29.6309 28.9811 30.6138C28.1959 29.9063 27.4298 29.1794 26.6571 28.4576C26.3982 28.6539 26.1384 28.8526 25.8786 29.048C25.823 28.9891 25.7135 28.8703 25.6579 28.8114C26.2529 28.4222 26.8372 28.0163 27.4265 27.6196C27.4257 23.2197 27.4257 18.8206 27.4265 14.4208C27.4141 14.0847 27.4298 13.7225 27.2556 13.4227C27.1402 13.1936 26.8796 13.1203 26.6845 12.9822C26.6422 12.8365 26.848 12.7742 26.9252 12.684ZM112.345 10.3476C111.178 11.3053 110.039 12.2924 108.884 13.2643C108.872 12.348 108.9 11.4341 108.869 10.5178C108.69 10.5094 108.611 10.5911 108.636 10.7629C108.63 17.2397 108.638 23.7149 108.633 30.1918C108.003 30.0697 107.371 29.9417 106.748 29.7985C106.738 24.3365 106.747 18.8754 106.745 13.4117C106.731 12.7211 106.511 12.0262 106.062 11.499C105.505 10.8286 104.632 10.5169 103.79 10.4571C102.792 10.4285 101.876 10.9608 101.179 11.6464C100.537 12.2646 100.194 13.2197 100.376 14.1066C100.454 13.5566 100.63 12.9367 101.129 12.631C101.676 12.3943 102.405 12.5847 102.732 13.106C103.012 13.5263 103.04 14.0518 103.051 14.5437C103.054 16.0202 103.05 17.4966 103.051 18.9739C102.091 18.9891 100.958 19.1466 100.404 20.0503C99.846 20.7578 99.6733 21.7609 100.057 22.5922C100.308 23.4151 101.152 23.8396 101.936 23.9701C101.497 23.6821 101.05 23.1751 101.309 22.6107C101.658 22.0448 102.45 21.9614 103.04 22.1265C103.063 24.7467 103.052 27.3661 103.046 29.9863C102.165 30.2979 101.308 30.8403 100.838 31.6826C100.496 32.2831 100.487 33.0007 100.515 33.6745C100.62 34.8553 101.388 35.9326 102.419 36.4716C103.197 36.8413 104.075 36.8531 104.918 36.8237C107.312 36.6788 109.586 35.7153 111.984 35.6344C112.699 35.5805 113.117 36.3815 112.93 37.0098C112.787 37.5775 112.318 37.9615 111.876 38.2934C112.718 38.1123 113.556 37.7914 114.214 37.2111C114.956 36.5735 115.297 35.5443 115.249 34.5774C115.194 33.6206 114.434 32.9089 113.643 32.4979C112.603 31.8788 111.347 32.017 110.202 32.1424C108.051 32.3943 105.955 33.0866 103.783 33.1464C103.047 33.1969 102.359 32.6672 102.211 31.9353C102.045 31.2295 102.61 30.6121 103.182 30.3089C104.419 29.7159 105.843 29.9358 107.135 30.2112C108.632 30.3695 110.036 30.9894 111.535 31.1461C112.385 31.2446 113.289 31.0779 113.987 30.5548C114.707 30.1042 115.03 29.2266 115.05 28.3995C115.059 23.2441 115.041 18.0896 115.059 12.935C115.523 12.5257 116.035 12.1593 116.439 11.686C115.873 11.8283 115.518 12.3665 115.056 12.6958C114.144 11.9235 113.249 11.1318 112.345 10.3476ZM109.808 12.9536C110.329 13.4067 110.841 13.8682 111.362 14.3256C111.364 15.9494 111.359 17.5724 111.362 19.1963C111.115 19.4431 110.846 19.7033 110.485 19.7496C109.897 19.8751 109.324 19.5803 108.882 19.2114C108.884 17.3164 108.883 15.4213 108.882 13.5263C109.191 13.3368 109.501 13.1481 109.808 12.9536ZM108.881 19.6612C109.643 20.0537 110.622 20.1724 111.362 19.6646C111.359 20.4007 111.359 21.1402 111.362 21.8763C111.061 21.579 110.676 21.3432 110.246 21.3449C109.739 21.3339 109.274 21.5756 108.881 21.8763C108.884 21.1385 108.88 20.3999 108.881 19.6612ZM110.24 21.5773C110.731 21.5899 111.108 21.9622 111.362 22.3547C111.359 24.4098 111.364 26.4666 111.362 28.5216C111.402 29.1525 110.973 29.6915 110.506 30.0537C110.055 30.4175 109.442 30.4302 108.894 30.3998C108.863 27.7156 108.892 25.0263 108.881 22.3421C109.236 21.9504 109.685 21.5697 110.24 21.5773ZM171.297 13.6981C172.1 12.983 172.857 12.2157 173.678 11.5209C174.373 12.2646 175.104 12.9721 175.81 13.7048C174.963 14.5092 174.111 15.3068 173.253 16.0985C172.604 15.2942 171.937 14.5083 171.297 13.6981ZM78.5405 14.4637C79.0427 14.1142 79.6776 14.1352 80.2586 14.0594C79.8212 14.4106 79.3348 14.8183 79.2751 15.4239C79.1771 15.9654 79.5149 16.4522 79.9075 16.7765C80.6229 17.3577 81.5417 17.6828 82.1252 18.4282C82.4057 18.7878 82.575 19.2435 82.5626 19.7058C82.5593 22.1475 82.5651 24.5875 82.5593 27.0283C83.1992 27.5531 83.8416 28.0719 84.4807 28.5966C84.6666 28.4745 84.8525 28.3523 85.0401 28.2302C85.0318 25.5662 85.0533 22.9005 85.0284 20.2373C84.6998 19.8431 84.2449 19.5618 83.869 19.2106C84.7919 18.3481 85.6957 17.4638 86.6369 16.6232C87.4553 17.4385 88.316 18.21 89.1559 19.0034C88.8372 19.3454 88.5094 19.6789 88.1724 20.0023C88.1666 22.3446 88.1724 24.6869 88.1691 27.0292C89.0073 27.6887 89.8456 28.3498 90.693 28.9992C90.8125 28.9284 90.9329 28.8594 91.0549 28.7903C91.0424 25.93 91.0557 23.0698 91.0474 20.2095C90.659 19.8735 90.2573 19.5526 89.8738 19.2106C90.7793 18.3422 91.6956 17.4891 92.6061 16.6266C93.5124 17.3467 94.4204 18.066 95.3218 18.7928C95.6347 18.4433 95.9542 18.0955 96.3111 17.7897C96.3568 17.8563 96.4514 17.991 96.497 18.0576C95.726 18.7549 94.9591 19.4607 94.2113 20.1842C94.1465 22.465 94.2104 24.7526 94.1806 27.0342C92.2177 28.3431 90.1668 29.5374 88.1757 30.8109C87.125 30.0469 86.1049 29.2418 85.0675 28.4601C84.137 29.219 83.2058 29.9796 82.2696 30.7308C82.136 30.8816 81.9982 30.6618 81.8878 30.5986C81.0122 29.8852 80.1415 29.1651 79.2551 28.4677C78.8833 28.797 78.4924 29.1053 78.1189 29.4355C78.0591 29.3774 77.9429 29.2628 77.8832 29.2064C78.338 28.8872 78.7837 28.5503 79.2385 28.2311C79.241 26.0202 79.241 23.8101 79.2385 21.5984C79.2377 21.0071 79.0327 20.4074 78.6343 19.9695C78.1969 19.4877 77.6076 19.1491 77.259 18.584C76.8731 17.927 76.8382 17.1126 76.986 16.379C77.2026 15.5485 77.8508 14.9168 78.5405 14.4637ZM216.569 16.0429C216.659 16.2745 216.687 16.5331 216.575 16.763C216.301 17.3989 215.554 17.6432 214.919 17.6314C214.255 17.5708 213.736 17.0856 213.289 16.6274C212.537 17.1387 211.782 17.6457 211.032 18.157C210.166 18.7482 209.21 19.1853 208.251 19.5913C208.247 20.842 208.251 22.0911 208.247 23.3418C208.948 23.9348 209.668 24.5008 210.355 25.1097C209.828 25.6757 209.309 26.2501 208.812 26.843C208.301 27.4671 207.818 28.1881 207.788 29.027C207.758 29.9796 208.16 31.0113 208.991 31.5158C209.358 31.7348 209.804 31.9302 210.231 31.7609C209.7 31.568 209.047 31.1781 209.093 30.5211C209.241 29.8995 209.968 29.4835 210.572 29.662C211.199 29.8431 211.716 30.2979 212.116 30.8075C213.726 29.6309 215.421 28.5789 217.182 27.6516C217.169 26.0648 217.204 24.4738 217.166 22.8878C216.389 22.3345 215.647 21.7306 214.878 21.1671C215.691 20.1211 216.51 19.0152 216.85 17.7064C216.979 17.1547 217.021 16.4581 216.569 16.0429ZM211.385 18.4214C211.908 19.1828 212.599 19.9231 213.547 20.0798C214.49 20.3047 215.405 19.7859 216.024 19.0952C215.177 20.6845 213.863 21.9605 212.505 23.1035C212.138 22.7085 211.743 22.3404 211.38 21.9428C211.395 20.7696 211.382 19.5947 211.385 18.4214ZM212.716 23.1666C213.123 23.5136 213.524 23.8674 213.931 24.2178C214.117 24.3306 214.026 24.5673 214.052 24.7467C214.041 26.1094 214.069 27.4772 214.036 28.84C213.733 28.1426 213.278 27.4941 212.635 27.0814C211.704 26.4632 210.424 26.4278 209.476 27.0275C209.042 27.2717 208.695 27.6356 208.366 28.0062C208.836 27.0747 209.596 26.3402 210.31 25.6024C211.126 24.804 211.942 24.0072 212.716 23.1666ZM45.2428 16.6249C44.1713 17.2541 43.1355 17.9405 42.0864 18.6042C41.1966 19.075 40.2936 19.5189 39.3981 19.9762C39.4014 22.5248 39.3948 25.0735 39.4047 27.6221C39.0229 27.9228 38.5764 28.1393 38.2295 28.4846C38.2967 28.525 38.4295 28.6067 38.4959 28.648C38.7964 28.3852 39.0927 28.1165 39.423 27.8925C40.5327 28.8291 41.5801 29.8423 42.6881 30.7839C42.7429 30.7553 42.8524 30.6963 42.908 30.6677C44.783 29.1929 46.6778 27.74 48.5544 26.2661L48.322 26.0581C47.2779 26.8835 46.262 27.7527 45.2278 28.5907C44.373 27.8108 43.5463 26.9989 42.6947 26.2156C42.4043 25.9999 42.5669 25.5923 42.5462 25.2874C44.2958 23.987 46.047 22.6866 47.7709 21.3516C46.9085 19.785 46.0761 18.2058 45.2428 16.6249ZM42.5387 18.5031C43.4243 19.9796 44.314 21.451 45.1896 22.9333C44.2991 23.5692 43.416 24.2119 42.5354 24.8587C42.5271 22.7413 42.5229 20.6214 42.5387 18.5031ZM74.2454 16.6215C73.4901 17.126 72.7299 17.6247 71.9572 18.1005C70.8276 18.8181 69.6025 19.358 68.4198 19.9754C68.4231 22.5223 68.4132 25.071 68.4231 27.6179C68.0588 27.8933 67.6554 28.1123 67.301 28.4012C67.3384 28.4677 67.4155 28.6016 67.4529 28.669C67.8463 28.4012 68.2339 28.1258 68.6373 27.8731C69.6532 28.8585 70.684 29.8288 71.7065 30.8058C73.6204 29.363 75.4978 27.8697 77.3927 26.4009C77.6359 26.3503 77.4358 25.9503 77.2815 26.1052C76.2548 26.9129 75.258 27.7628 74.2462 28.5907C73.4528 27.7914 72.6643 26.9887 71.8742 26.1869C71.6185 25.9595 71.7696 25.5788 71.7563 25.2807C73.4403 24.0122 75.0729 22.6714 76.7602 21.4072C75.9817 19.7842 75.0721 18.2218 74.2454 16.6215ZM71.7339 18.5537C72.6021 19.988 73.398 21.4712 74.1989 22.946C73.3714 23.5616 72.5722 24.2144 71.7522 24.8402C71.714 22.7464 71.7522 20.6492 71.7339 18.5537ZM123.166 16.6283C122.337 17.1176 121.52 17.6221 120.717 18.1511C119.773 18.7347 118.741 19.15 117.737 19.6081C117.76 22.2814 117.744 24.9547 117.746 27.628C117.41 27.9674 117.07 28.306 116.744 28.6539C116.812 28.6505 116.949 28.6404 117.017 28.6353C117.256 28.3776 117.504 28.1258 117.749 27.8739C118.876 28.8105 119.987 29.7673 121.107 30.7123C121.292 30.8934 121.501 30.6239 121.681 30.5582C123.482 29.5593 125.183 28.3818 127.038 27.484C127.067 24.9935 127.047 22.5029 127.051 20.0116C127.385 19.6722 127.725 19.3336 128.053 18.9857C127.987 18.9866 127.856 18.9925 127.789 18.995C127.476 19.2552 127.16 19.5088 126.846 19.7656C125.618 18.7204 124.396 17.6676 123.166 16.6283ZM121.067 18.4753C121.952 19.3201 122.854 20.1514 123.739 20.9987C123.731 23.6501 123.733 26.3006 123.733 28.9529C122.825 28.1451 121.964 27.2877 121.067 26.4674V18.4753Z" fill="white"/>
<path d="M142.675 22.5686C143.953 20.5792 145.257 18.6067 146.567 16.6367C147.135 17.126 147.834 17.4284 148.575 17.505C149.299 17.5059 149.917 17.0696 150.462 16.6325C150.324 17.7063 149.972 18.8215 149.16 19.5677C148.452 20.2272 147.378 20.3855 146.486 20.0638C145.959 19.8827 145.474 19.598 145.038 19.2493C144.961 19.4329 144.898 19.6233 144.852 19.817C146.666 22.588 148.446 25.3851 150.227 28.1788C150.636 27.9093 150.995 27.5699 151.356 27.2389C151.426 27.2844 151.567 27.3745 151.637 27.42C150.356 28.5789 149.034 29.6915 147.721 30.8142C146.033 28.0693 144.383 25.3009 142.675 22.5686ZM204.015 16.6249C203.226 17.1117 202.434 17.5985 201.656 18.1005C200.578 18.8611 199.342 19.3336 198.199 19.9753C198.211 22.5223 198.199 25.0718 198.205 27.6179C197.81 27.8824 197.421 28.151 197.026 28.4104C197.077 28.4736 197.18 28.6025 197.231 28.6656C197.571 28.4104 197.878 28.1072 198.245 27.8857C199.269 28.8509 200.339 29.7639 201.377 30.714C201.476 30.8749 201.621 30.7106 201.721 30.6449C203.591 29.1828 205.467 27.7291 207.339 26.2711C207.12 25.8812 206.87 26.2593 206.651 26.4194C205.772 27.1454 204.894 27.8714 204.013 28.5932C203.112 27.7585 202.241 26.8936 201.321 26.0791C201.307 25.8172 201.306 25.5544 201.318 25.2924C203.073 24.0021 204.807 22.6823 206.548 21.3718C205.71 19.7858 204.869 18.2016 204.015 16.6249ZM201.309 18.5477C202.257 19.9711 203.091 21.4754 203.981 22.9401C203.078 23.5684 202.2 24.2329 201.302 24.8654C201.317 22.7598 201.304 20.6534 201.309 18.5477ZM131.639 16.8346C132.349 17.4907 132.945 18.2631 133.604 18.9714C134.321 18.274 135.021 17.5564 135.713 16.8329C136.217 17.1606 136.742 17.6196 137.387 17.4874C137.842 17.4562 138.08 17.0031 138.466 16.8178C138.468 17.7805 138.25 18.7928 137.622 19.5399C136.902 20.4133 135.542 20.6685 134.58 20.0697C134.21 19.8869 133.965 19.5374 133.619 19.3218C133.628 21.9546 133.624 24.5866 133.622 27.2195C134.133 27.6187 134.645 28.0163 135.171 28.3961C135.552 28.1418 135.846 27.6735 136.329 27.6297C135.196 28.7246 134.008 29.7665 132.826 30.81C131.938 29.9602 131.03 29.1322 130.152 28.2732C129.81 28.5848 129.494 28.9251 129.167 29.2535C129.115 29.192 129.011 29.0699 128.959 29.0084C129.39 28.5225 129.87 28.0845 130.309 27.6078C130.294 25.3548 130.318 23.1018 130.299 20.8504C130.063 20.2819 129.654 19.7884 129.357 19.2443C128.952 19.4868 128.657 19.993 128.152 20.0107C129.299 18.9352 130.499 17.9169 131.639 16.8346ZM177.66 19.6511C178.716 18.7137 179.749 17.7518 180.81 16.822C181.572 17.6743 182.359 18.5023 183.107 19.3664C184.228 18.5444 185.304 17.6609 186.414 16.822C187.192 17.6676 187.955 18.5275 188.74 19.3664C189.839 18.5208 190.927 17.6575 192.034 16.8228C192.79 17.6785 193.57 18.5132 194.336 19.3614C194.805 19.0581 195.235 18.6943 195.713 18.4037C195.749 18.6859 195.497 18.8139 195.32 18.9697C195.064 19.1786 194.816 19.3976 194.56 19.6056C194.539 21.9487 194.565 24.2927 194.547 26.6358C194.987 27.0991 195.436 27.5539 195.894 28.0003C196.136 27.7451 196.384 27.4941 196.619 27.2321C196.69 27.2776 196.833 27.3669 196.903 27.4124C195.746 28.5688 194.553 29.6907 193.365 30.8142C192.528 29.8111 191.65 28.8408 190.833 27.82C191.031 27.6347 191.225 27.4427 191.416 27.249C191.418 25.2276 191.416 23.2062 191.416 21.1865C190.783 20.4706 190.153 19.7522 189.501 19.0548C189.312 19.2502 189.124 19.4439 188.937 19.6401C188.935 22.1677 188.947 24.6945 188.931 27.222C189.245 27.5791 189.599 27.8992 189.917 28.2555C189.06 29.027 188.234 29.8347 187.383 30.6138C186.587 29.7639 185.803 28.9032 185.032 28.0297C185.252 27.7552 185.692 27.5564 185.622 27.1386C185.612 25.1678 185.632 23.1953 185.612 21.2261C185.081 20.4756 184.486 19.7496 183.871 19.0649C183.691 19.2586 183.509 19.4489 183.326 19.6384C183.331 22.086 183.312 24.5353 183.334 26.9837C183.595 27.4343 183.983 27.8032 184.307 28.2091C183.474 29.0969 182.615 29.9585 181.748 30.8108C180.92 29.8094 180.061 28.8341 179.227 27.8386C179.487 27.633 179.75 27.4309 180.012 27.2254C180.004 25.1577 179.997 23.0883 180.015 21.0206C179.526 20.4066 178.991 19.8322 178.477 19.2401C178.113 19.5146 177.791 19.8591 177.375 20.0528C177.355 19.86 177.542 19.7682 177.66 19.6511Z" fill="white"/>
<path d="M170.32 19.8134C171.412 18.7994 172.541 17.824 173.644 16.8209C174.43 17.7272 175.192 18.6537 175.973 19.5633C176.379 19.2407 176.742 18.8583 177.191 18.593C177.158 18.7379 177.119 18.8878 176.987 18.9695C176.651 19.2525 176.317 19.5372 175.978 19.8126C175.983 22.1599 175.968 24.5056 175.986 26.8529C176.427 27.3591 176.884 27.8543 177.295 28.3883C177.639 28.1761 177.925 27.8847 178.253 27.6488C178.323 27.6867 178.462 27.7609 178.532 27.7971C177.442 28.8339 176.311 29.8286 175.175 30.8115C174.42 29.89 173.644 28.9838 172.872 28.0767C172.536 28.3866 172.255 28.7614 171.887 29.031C171.835 28.9821 171.731 28.881 171.679 28.8305C172.007 28.5155 172.316 28.1811 172.648 27.8687C172.673 25.7369 172.649 23.6018 172.66 21.4701C172.64 21.1728 172.735 20.8216 172.506 20.5858C172.102 20.0762 171.73 19.5397 171.3 19.0529C170.979 19.3148 170.676 19.6003 170.32 19.8134Z" fill="white"/>
</g>
</svg>
