<svg width="624" height="833" viewBox="0 0 624 833" fill="none" xmlns="http://www.w3.org/2000/svg">
<path d="M345.461 423.495C435.193 434.781 517.136 371.206 528.487 281.496C539.839 191.786 476.299 109.913 386.567 98.6261C296.836 87.3396 214.892 150.914 203.541 240.624C192.19 330.334 255.729 412.208 345.461 423.495Z" fill="url(#paint0_linear)"/>
<g filter="url(#filter0_d)">
<path d="M359.611 395.633C438.985 405.612 511.665 347.866 521.946 266.653C532.226 185.44 476.215 111.514 396.841 101.535C317.467 91.5558 244.787 149.302 234.506 230.515C224.226 311.728 280.237 385.654 359.611 395.633Z" fill="url(#paint1_linear)"/>
</g>
<path d="M187.925 562.442L191.942 549.659L176.071 547.74L172.322 559.666L168.994 559.565L188.183 498.589L188.089 498.578L188.441 497.43L188.904 496.28L245.931 315.098L245.838 315.086L246.356 313.753L251.145 298.508L254.365 298.961L250.188 312.249L265.949 314.154L269.807 301.876L273.028 302.313L191.252 562.543L187.925 562.442ZM192.958 546.401L195.754 537.486L179.9 535.569L177.103 544.484L192.958 546.401ZM196.786 534.23L199.6 525.302L183.746 523.384L180.931 532.313L196.786 534.23ZM200.616 522.044L203.435 513.084L187.58 511.167L184.762 520.126L200.616 522.044ZM204.451 509.826L207.249 500.896L191.41 498.98L188.596 507.909L204.451 509.826ZM208.281 497.64L211.178 488.435L195.339 486.52L192.442 495.724L208.281 497.64ZM212.209 485.18L215.006 476.265L199.167 474.349L196.37 483.264L212.209 485.18ZM216.022 473.007L218.836 464.078L203.013 462.165L200.199 471.093L216.022 473.007ZM219.85 460.836L222.668 451.876L206.845 449.962L204.027 458.922L219.85 460.836ZM223.702 448.604L226.516 439.676L210.693 437.762L207.879 446.691L223.702 448.604ZM227.532 436.418L230.488 426.998L214.681 425.087L211.709 434.504L227.532 436.418ZM231.52 423.743L234.261 415.011L218.454 413.1L215.712 421.831L231.52 423.743ZM235.277 411.754L238.092 402.825L222.284 400.913L219.47 409.842L235.277 411.754ZM239.108 399.567L241.926 390.607L226.118 388.696L223.3 397.656L239.108 399.567ZM242.958 387.351L245.772 378.423L229.98 376.513L227.166 385.442L242.958 387.351ZM246.788 375.165L249.608 366.189L233.816 364.28L230.996 373.255L246.788 375.165ZM250.624 362.932L253.421 354.017L237.629 352.107L234.832 361.022L250.624 362.932ZM254.452 350.761L257.267 341.832L241.475 339.922L238.66 348.851L254.452 350.761ZM258.283 338.574L261.101 329.614L245.326 327.691L242.508 336.651L258.283 338.574ZM262.133 326.358L264.931 317.428L249.155 315.52L246.341 324.449L262.133 326.358Z" fill="white"/>
<path d="M131.665 802.471C204.331 811.611 270.691 760.126 279.883 687.477C289.076 614.828 237.62 548.525 164.953 539.385C92.2868 530.245 25.927 581.729 16.7346 654.378C7.54222 727.027 58.9982 793.331 131.665 802.471Z" fill="url(#paint2_linear)"/>
<path fill-rule="evenodd" clip-rule="evenodd" d="M245.58 286.044C245.409 285.688 242.761 280.126 243.162 277.315C243.162 277.315 244.946 275.028 247.202 274.804C251.049 274.446 252.061 277.133 252.061 277.133C252.061 277.133 252.018 277.139 251.953 277.163L252.062 277.133C252.062 277.133 251.497 279.208 251.778 280.388C252.142 281.859 251.908 282.074 251.744 282.225C251.7 282.266 251.661 282.302 251.64 282.357C251.558 282.59 251.551 283.173 251.543 283.757L251.543 283.757C251.536 284.396 251.528 285.037 251.421 285.223C251.217 285.579 250.511 285.633 250.511 285.633L250.547 288.3L250.604 288.314L250.709 288.868L250.554 288.858L250.556 288.988C251.555 289.255 253.89 290.343 254.49 294.708C255.922 296.482 257.407 298.019 258.371 298.211C260.776 298.688 268.657 299.251 268.657 299.251L268.58 299.512L269.246 299.644L269.059 300.201L269.177 300.176C269.177 300.176 270.068 299.54 270.621 299.451L270.705 299.437C271.29 299.341 272.421 299.156 272.329 299.523C272.233 299.908 270.909 300.187 270.909 300.187C270.909 300.187 271.594 300.178 272.316 300.507C272.508 300.593 272.708 300.661 272.891 300.722C273.269 300.848 273.57 300.949 273.556 301.14L273.554 301.18C273.548 301.263 273.545 301.303 273.525 301.328C273.505 301.352 273.469 301.363 273.4 301.383C273.338 301.402 273.247 301.429 273.115 301.482C272.911 301.568 272.982 301.709 273.051 301.848C273.13 302.007 273.208 302.163 272.878 302.231C272.584 302.29 272.623 302.424 272.658 302.546C272.7 302.689 272.736 302.815 272.235 302.786C271.948 302.773 271.927 302.897 271.907 303.009C271.886 303.127 271.867 303.233 271.551 303.161C270.917 303.018 269.556 302.465 269.556 302.465L268.334 302.359L268.226 302.679L267.657 302.655L268.151 300.97L267.597 302.854C267.597 302.854 259.619 302.803 255.932 302.657C255.367 302.635 254.795 302.435 254.232 302.112C254.15 303.079 254.06 304.089 253.969 305.114C253.783 307.19 253.593 309.329 253.454 311.309C253.094 316.43 253.465 321.547 253.588 322.962C253.597 323.058 253.213 323.128 252.564 323.176C252.524 323.98 252.464 324.923 252.376 326.02C251.968 331.125 249.672 343.076 249.649 343.193L249.649 343.194C249.166 345.883 246.197 361.579 246.197 361.579L245.94 361.661L246.132 362.08C246.132 362.08 248.298 361.558 250.24 361.294C250.87 361.215 250.423 361.985 249.169 362.717C248.174 363.291 246.017 364.498 244.195 364.697C243.783 364.743 243.501 364.646 243.179 364.535L243.179 364.535C243.135 364.52 243.09 364.504 243.044 364.489C242.772 364.398 243.111 363.182 243.334 362.485L243.214 362.523C243.214 362.523 243.244 362.228 243.295 361.717C242.159 362.573 240.525 363.778 239.158 364.015C238.702 364.101 238.023 363.936 237.624 363.822C237.225 363.708 237.99 360.8 237.988 360.816L238.3 360.693L237.991 360.8C237.991 360.8 239.098 346.872 239.184 344.308C239.218 343.263 239.341 342.327 239.514 341.497C239.593 338.56 239.706 335.265 239.706 335.265C240.028 332.319 240.073 326.794 240.063 323.152C239.283 323.133 238.807 323.119 238.807 323.119C238.807 323.119 239.314 321.158 239.841 318.836C239.581 318.258 239.279 317.588 238.936 316.824C238.168 315.114 237.179 311.961 236.435 309.436C235.918 308.064 235.489 306.202 235.383 305.727L235.356 305.628L235.359 305.619L235.358 305.612C235.522 301.166 238.347 292.906 239.081 291.378C239.772 289.939 242.558 288.75 245.13 288.473L245.594 287.047L245.73 287.082L245.73 287.081L245.571 286.075L245.58 286.044ZM240.511 304.928C240.35 305.506 240.17 306.103 239.976 306.685C240.262 308.152 240.65 310.059 240.972 311.37C240.931 310.666 240.852 309.612 240.76 308.365L240.76 308.365C240.682 307.322 240.595 306.146 240.511 304.928ZM243.822 342.334C243.037 347.195 240.952 359.774 240.952 359.774L240.744 359.846L241.034 360.881C241.034 360.881 242.052 360.226 243.477 359.886C243.881 355.811 244.617 348.264 244.718 346.467C244.75 345.867 244.811 345.304 244.894 344.778C244.881 342.884 244.943 338.571 244.975 336.558C244.51 339.012 244.066 341.171 243.822 342.334Z" fill="url(#paint3_linear)"/>
<path fill-rule="evenodd" clip-rule="evenodd" d="M162.094 479.456L161.796 478.671C161.796 478.671 158.605 475.726 158.414 471.95C158.414 471.95 159.497 469.798 161.301 469.246C164.359 468.328 165.642 471.398 165.642 471.398C165.642 471.398 165.732 472.57 165.908 473.069C166.483 474.556 166.322 476.459 166.293 476.694C166.239 477.116 166.186 477.285 165.988 477.593C165.871 477.769 165.669 477.728 165.669 477.728L166.113 479.486L166.334 479.401L166.424 479.826L166.421 479.836C166.718 479.861 167.281 479.961 167.911 480.341C168.528 480.639 179.796 486.066 182.261 486.145C184.288 486.21 193.691 485.439 193.691 485.439L193.689 488.22C193.689 488.22 187.173 489.689 184.114 489.478C181.055 489.268 174.905 487.841 174.905 487.841C174.905 487.841 172.674 487.053 170.541 486.184C170.513 486.997 170.432 487.97 170.334 489.038C171.337 489.578 172.718 490.371 174.005 491.205C175.349 491.44 177.941 491.878 179.311 492.004C181.196 492.194 187.666 491.594 187.666 491.594L187.683 491.706L188.065 491.596L188.089 491.738C189.249 491.195 192.053 489.916 192.246 490.327C192.468 490.832 191.987 490.994 191.987 490.994C191.987 490.994 192.029 491.158 191.994 491.313C191.957 491.483 191.686 491.608 191.686 491.608C191.686 491.608 191.586 491.77 191.396 492.017C191.206 492.263 190.001 492.858 190.001 492.858C190.001 492.858 191.189 492.897 191.017 493.129C190.844 493.362 189.039 493.421 189.039 493.421L188.37 493.354L188.488 494.034L188.008 494.074C187.641 494.191 185.147 494.959 182.511 495.126C180.984 495.222 178.304 495.078 176.141 494.924C174.795 494.937 172.966 494.673 172.79 494.648C172.779 494.647 172.773 494.646 172.773 494.646C172.773 494.646 172.772 494.645 172.77 494.643C171.933 494.295 170.967 493.758 169.971 493.129C169.836 494.934 169.755 496.774 169.848 498.426C169.954 500.265 169.982 502.407 170.007 504.336C170.041 506.859 170.069 509.016 170.259 509.653C170.277 509.707 169.849 509.793 169.144 509.894C169.232 514.052 170.746 521.786 170.845 522.291C170.934 522.654 170.935 523.049 170.801 523.471C170.208 525.343 166.278 539.02 165.208 542.747L165.277 542.772L165.104 543.513C165.104 543.513 167.213 544.446 168.902 546.185C169.268 546.565 168.965 547.067 167.777 546.902C166.824 546.766 163.785 545.016 162.501 544.218C162.223 544.032 162.088 543.828 161.936 543.597C161.912 543.561 161.888 543.524 161.862 543.486C161.729 543.288 162.175 542.525 162.437 542.108C162.874 538.746 164.454 526.637 164.786 524.875C164.844 524.561 164.914 524.266 164.995 523.988C164.396 521.597 163.695 518.65 163.695 518.65C163.591 517.979 163.466 517.122 163.331 516.168C161.139 519.26 159.011 522.113 159.011 522.113L158.999 522.118C157.765 524.275 149.529 540.074 148.864 541.349C149.601 542.234 150.724 543.643 151.279 544.649C151.537 545.127 149.839 545.469 148.765 544.905C147.9 544.446 146.095 542.12 145.172 540.86C144.942 540.545 144.931 539.748 145.227 539.547C145.359 539.455 145.493 539.368 145.625 539.288L145.434 539.16C145.434 539.16 152.822 524.624 153.712 522.495C153.991 521.824 154.28 521.223 154.57 520.686C155.66 518.391 157.04 515.554 157.04 515.554C157.909 514.036 158.704 512.344 159.333 510.895C158.628 510.948 158.155 510.973 158.052 510.961C158.052 510.961 159.998 503.369 159.689 501.407C159.38 499.444 158.358 487.012 158.773 485.491C159.147 484.12 161.01 480.986 162.009 480.054L161.962 480.011L162.116 479.735L162.094 479.456Z" fill="url(#paint4_linear)"/>
<path fill-rule="evenodd" clip-rule="evenodd" d="M216.177 487.508C216.247 487.962 216.32 488.893 216.32 488.893L216.979 489.89L217.399 489.633L217.619 490.154L217.277 490.343L217.278 490.343L217.809 490.05C217.809 490.05 218.279 491.636 218.849 493.443C219.484 494.985 221.24 499.201 222.04 500.629C223.026 502.391 226.791 507.84 226.791 507.84C226.791 507.84 226.909 507.967 227.075 508.169L229.165 505.675C229.165 505.675 228.755 505.274 228.812 504.947C228.843 504.766 229.178 504.342 229.507 503.924L229.507 503.924L229.507 503.924C229.799 503.554 230.087 503.188 230.155 503.002C230.171 502.956 230.165 502.913 230.158 502.863C230.132 502.683 230.094 502.421 231.087 501.673C231.878 501.073 232.591 499.462 232.591 499.462L232.612 499.491C232.753 499.413 234.729 498.388 236.911 500.531C238.213 501.808 238.165 504.202 238.165 504.202C236.934 506.242 232.198 508.46 232.071 508.519L231.457 509.064L230.978 509.822L232.039 510.265L230.839 511.008C231.157 512.339 230.956 515.393 230.694 516.71C230.602 517.201 230.361 518.087 230.071 519.159L230.071 519.159L230.071 519.159C229.453 521.438 228.608 524.557 228.47 526.507C228.333 528.477 226.994 542.471 226.994 542.471C226.994 542.471 226.411 542.309 225.535 542.057C225.322 544.905 225.01 549.434 224.975 551.929C224.975 551.929 224.641 555.679 224.376 558.276C224.717 559.329 224.987 560.746 224.925 562.525C224.865 564.622 224.986 575.857 224.988 576.119L225.004 576.126C225.001 576.126 225.013 576.2 225.032 576.324L225.032 576.324L225.032 576.324C225.124 576.904 225.388 578.563 225.118 578.62C224.791 578.69 224.221 578.794 223.852 578.699C222.542 578.378 221.417 576.391 220.846 575.385C220.779 575.265 220.719 575.159 220.667 575.071C220.052 574.024 220.217 573.6 220.679 573.849C222.201 574.645 222.972 575.839 222.972 575.839L222.847 575.207L222.619 575.11C222.619 575.11 220.864 560.297 220.662 557.998C220.629 557.628 220.674 557.325 220.772 557.076C220.206 554.333 218.66 546.435 218.847 542.891C218.89 542.093 218.934 541.349 218.977 540.668C216.717 540.551 214.194 540.496 212.511 540.679C212.511 540.679 209.244 540.77 206.658 540.814C206.872 541.906 206.967 543.391 206.625 545.215C206.241 547.249 204.68 558.338 204.68 558.338L204.204 558.047C204.012 558.872 203.577 560.48 203.334 560.426L203.271 560.415L203.271 560.415C202.972 560.363 202.72 560.32 202.42 560.104C201.975 559.788 201.413 559.473 200.855 559.159C199.875 558.609 198.907 558.065 198.608 557.541C198.007 556.512 198.004 555.78 198.41 556.086C199.687 557.057 202.089 557.439 202.089 557.439L202.598 557.068L202.48 556.996C202.48 556.996 202.665 541.68 202.805 539.44C202.815 539.287 202.838 539.15 202.872 539.029C202.976 538.532 203.202 537.946 203.57 537.295C204.622 535.437 212.925 534.35 217.654 533.961C217.768 529.292 218.059 522.939 218.837 520.414C219.119 519.502 219.36 518.261 219.61 516.965L219.61 516.965L219.61 516.965L219.61 516.965C220.011 514.895 220.438 512.686 221.108 511.459C220.803 510.424 220.507 508.926 220.193 507.336L220.193 507.336C219.933 506.024 219.661 504.649 219.362 503.42C218.81 502.303 216.929 498.414 216.271 495.929L215.108 491.538L215.276 491.445L215.158 491.004L215.228 490.961C214.808 489.703 213.293 485.136 213.321 484.811C213.34 484.588 213.558 484.744 213.783 484.905C213.953 485.027 214.127 485.152 214.221 485.115C214.378 485.06 214.532 485.265 214.727 485.526L214.727 485.526C214.821 485.652 214.924 485.79 215.042 485.918C215.318 485.746 216.107 487.054 216.177 487.508Z" fill="url(#paint5_linear)"/>
<defs>
<filter id="filter0_d" x="133.289" y="0.413879" width="489.872" height="496.34" filterUnits="userSpaceOnUse" color-interpolation-filters="sRGB">
<feFlood flood-opacity="0" result="BackgroundImageFix"/>
<feColorMatrix in="SourceAlpha" type="matrix" values="0 0 0 0 0 0 0 0 0 0 0 0 0 0 0 0 0 0 127 0" result="hardAlpha"/>
<feOffset/>
<feGaussianBlur stdDeviation="50"/>
<feColorMatrix type="matrix" values="0 0 0 0 0.509485 0 0 0 0 0.329167 0 0 0 0 1 0 0 0 1 0"/>
<feBlend mode="normal" in2="BackgroundImageFix" result="effect1_dropShadow"/>
<feBlend mode="normal" in="SourceGraphic" in2="effect1_dropShadow" result="shape"/>
</filter>
<linearGradient id="paint0_linear" x1="386.567" y1="98.6261" x2="345.701" y2="423.525" gradientUnits="userSpaceOnUse">
<stop stop-color="#D57EEB"/>
<stop offset="1" stop-color="#2E9FCC" stop-opacity="0"/>
</linearGradient>
<linearGradient id="paint1_linear" x1="396.841" y1="101.535" x2="359.862" y2="395.664" gradientUnits="userSpaceOnUse">
<stop stop-color="#D57EEB"/>
<stop offset="1" stop-color="#2E9FCC" stop-opacity="0"/>
</linearGradient>
<linearGradient id="paint2_linear" x1="222.394" y1="570.502" x2="104.807" y2="818.796" gradientUnits="userSpaceOnUse">
<stop offset="0.0416667" stop-color="#FCCB90"/>
<stop offset="0.5625" stop-color="#FF9E7E" stop-opacity="0.2"/>
<stop offset="0.895833" stop-color="#7169E0" stop-opacity="0.1"/>
</linearGradient>
<linearGradient id="paint3_linear" x1="250.938" y1="273.87" x2="245.742" y2="356.407" gradientUnits="userSpaceOnUse">
<stop stop-color="#FFDC97"/>
<stop offset="1" stop-color="#FF993B"/>
</linearGradient>
<linearGradient id="paint4_linear" x1="167.031" y1="468.572" x2="161.539" y2="539.452" gradientUnits="userSpaceOnUse">
<stop stop-color="#A75316"/>
<stop offset="1" stop-color="#D7B96C"/>
</linearGradient>
<linearGradient id="paint5_linear" x1="217.573" y1="483.96" x2="213.063" y2="568.494" gradientUnits="userSpaceOnUse">
<stop stop-color="#FFB762"/>
<stop offset="1" stop-color="#FCEC97"/>
</linearGradient>
</defs>
</svg>
