<svg fill="none" height="104" viewBox="0 0 197 104" width="197" xmlns="http://www.w3.org/2000/svg"><g fill="#fff"><path d="m72.3478 60.2242c-2.0718 0-4.1308 0-6.2413 0-.0386-.3086-.0643-.6171-.1415-.9256-.4118-1.7739-2.0204-3.1108-3.9121-3.1365-.7078-.0129-1.4799.09-2.0976.3856-1.2611.6042-1.3898 2.0182-.2316 2.7766.9651.6299 2.0847 1.0798 3.1785 1.4912 2.2263.8227 4.5298 1.4268 6.5888 2.6609 1.5056.8998 2.7796 2.0439 3.2944 3.7921.785 2.6738.0772 5.6946-2.3807 7.5072-3.3716 2.4809-9.8446 2.9822-13.5122-.6042-.193-.1928-.3989-.3728-.682-.6556-.1544.9384-.2831 1.7739-.4247 2.6866-.7077 0-1.4155 0-2.1104 0-1.1325 0-2.2778-.0257-3.4102.0129-.489.0128-.6177-.1671-.6177-.6299.0128-2.5452.0128-5.0905.0128-7.6485 0-.3086 0-.6042.4504-.6042 1.9561.0128 3.8992.0128 5.8553.0128.0643 0 .1158.0386.1673.0643.489 2.2239 1.763 3.3294 4.1437 3.4194.8365.0257 1.6987-.1414 2.5094-.3471.6177-.1543.978-.6685 1.0038-1.3498.0257-.6427-.4247-.9898-.9266-1.1826-1.2611-.4628-2.5609-.8227-3.822-1.2855-1.7244-.6298-3.5003-1.1826-5.1089-2.0181-2.6895-1.4012-4.015-3.7279-3.8091-6.8002.193-2.9565 1.8016-4.9876 4.4397-6.1831 3.0756-1.4011 6.177-1.3111 9.1239.3214.9008.5013 1.5957 1.3626 2.4065 2.0825.0772-.6042.1673-1.2984.2316-1.9925.0386-.4756.193-.7199.7464-.707 1.6086.0385 3.2172.0128 4.8257.0128.3346 0 .5663.0386.5663.4757-.0129 2.7252-.0129 5.4375-.0258 8.1627-.0257.0514-.0515.09-.0901.2057z"/><path d="m99.9895 63.8363c-.0901 2.1725-.3732 4.2806-1.2225 6.286-1.3255 3.1494-3.6676 5.2061-6.962 6.1445-2.9469.8355-5.9325.8355-8.8665 0-3.7963-1.0798-6.3958-3.5222-7.5282-7.3143-1.274-4.2421-1.2226-8.4584 1.0295-12.4176 1.9946-3.4965 5.1475-5.309 9.1239-5.7589 2.3292-.2571 4.6327-.0386 6.8333.707 3.912 1.3369 6.1512 4.1906 7.0134 8.1627.3088 1.3754.3861 2.7895.5791 4.1906zm-8.9309.0771c-.0643-.8998-.0901-1.7996-.2059-2.6866-.1673-1.324-.489-2.6095-1.274-3.7278-1.3383-1.9025-3.6161-1.864-4.8515.1028-.3732.5913-.6563 1.2598-.8493 1.9282-.6306 2.1467-.6949 4.3449-.3732 6.543.2188 1.4912.6177 2.9309 1.6086 4.1264 1.3383 1.6068 3.3201 1.5297 4.4911-.1928.3089-.45.5534-.9641.7336-1.4912.5662-1.4783.7335-3.0208.7206-4.602z"/><path d="m11.3888 71.6134v4.5377c-3.7834 0-7.52819 0-11.3373252 0 0-1.4783 0-2.9437 0-4.5377.4761422 0 .9522852-.0129 1.4412952 0 .30885 0 .47614-.0771.47614-.4371-.01287-4.9876-.01287-9.9752-.01287-14.9628 0-.0643-.0386-.1157-.09008-.27-.43753 0-.913676-.0128-1.37695 0-.360323 0-.48901-.1414-.48901-.5013.0128687-1.1826.0128687-2.3524 0-3.535 0-.3985.154424-.5142.527617-.5142 4.413963.0257 8.827923-.0257 13.241883.1028 1.3512.0386 2.7539.4499 4.0408.9256 2.149.797 3.2429 2.5195 3.4874 4.7433.0901.887.1287 1.8254-.0772 2.6738-.4633 2.0696-1.9947 3.1494-3.925 3.7536-.1287.0385-.2445.0771-.3732.1028-.1158.0257-.2445.0514-.5404.1286.3345.1157.5018.1799.6691.2313 2.3679.7456 3.8606 2.7509 3.8864 5.2319 0 .4499 0 .9255.1673 1.324.1158.2957.4504.6556.7463.7199.4762.1028.7207-.3342.785-.7584.0772-.4628.0515-.9384.0772-1.4655h2.2135c.0386 1.7097.2059 3.4194-.5663 5.0262-.6691 1.3883-1.8016 2.1853-3.2815 2.4038-1.6214.2314-3.2558.1414-4.7871-.527-1.9818-.8613-2.9856-2.4424-3.2429-4.512-.1416-1.1441-.103-2.3138-.2574-3.445-.1802-1.3498-.888-1.9283-2.2392-2.0054-1.28684-.0771-1.28684-.0771-1.28684 1.2341 0 1.2212.02574 2.4424-.01287 3.6636-.01287.5527.19303.7198.70778.6813.45043-.0386.91363-.0129 1.42843-.0129zm-2.14908-12.6362c0 .8613.01287 1.7097 0 2.571-.01286.4113.14156.5913.56623.5656.70775-.0514 1.41555-.0386 2.11045-.1286 1.5314-.2185 2.4708-1.3368 2.4708-2.8794-.0129-1.7354-.8751-2.8537-2.4708-3.0723-.6949-.1028-1.4027-.0771-2.11045-.1157-.42467-.0257-.56623.1543-.55336.5656 0 .8227-.01287 1.6583-.01287 2.4938z"/><path d="m68.3326 92.9521c0-2.3138.0129-4.6148-.0257-6.9286 0-.1543-.2831-.3985-.4633-.4242-.3989-.0643-.8107-.0514-1.2225-.0129-.4633.0386-.592-.1671-.5791-.6042.0257-.9255.0257-1.8382 0-2.7637-.0129-.4371.1544-.5528.5662-.5399 2.8955.0129 5.7909.0129 8.6864 0 .4633 0 .5919.1671.5791.6042-.0258.9255-.0258 1.8382 0 2.7637.0128.4371-.1544.5399-.5662.5528-1.6344.0385-1.6344.0514-1.6344 1.6582 0 5.1419-.0128 10.2838.0129 15.4255 0 .617-.1544.81-.785.797-1.866-.038-3.7319-.038-5.5979 0-.489.013-.7721-.167-1.0423-.565-2.458-3.5098-4.9416-7.0063-7.4124-10.5027-.1673-.2443-.3475-.4757-.6821-.6813-.0257.1928-.0514.3856-.0643.5784 0 2.1853.0129 4.3706-.0129 6.5559-.0128.5913.2059.7584.7464.707.4504-.0386.9008.0129 1.3512-.0128.3732-.0129.489.1414.4762.5015-.0129.99-.0129 1.967 0 2.956 0 .335-.1287.45-.4633.45-3.0241 0-6.0483 0-9.0724-.025-.1545 0-.4247-.283-.4247-.45-.0386-.99-.0129-1.967-.0257-2.957 0-.3599.1544-.5141.5018-.4755h.0644c1.3898-.0386 1.3898-.0386 1.3898-1.4655 0-3.8949-.0129-7.7899.0129-11.6977 0-.6685-.2059-.8484-.8494-.8227-1.2225.0385-1.0938.1799-1.0938-1.0798 0-.7713.0129-1.5426 0-2.3139-.0129-.3599.1287-.4884.489-.4884 2.8311.0128 5.6622 0 8.4934.0257.2316 0 .5404.2313.6949.437 2.3549 3.2908 4.6842 6.6073 7.0134 9.911.2445.3342.489.6684.7464.9898.0772-.0386.1415-.0771.193-.1029z"/><path d="m147.064 55.8793c-.489 0-.888.0257-1.287-.0129-.528-.0514-.656.18-.643.6685.012 2.6609-.013 5.3089.012 7.9699.013 2.1724-.167 4.3063-.9 6.3759-1.274 3.5993-3.874 5.4504-7.619 5.836-2.548.2571-5.006-.0386-7.322-1.1312-2.844-1.3369-4.35-3.7279-4.942-6.7101-.257-1.2727-.373-2.5838-.398-3.8822-.052-2.8023-.026-5.6175-.013-8.4198 0-.527-.155-.707-.695-.6941-1.3.0128-1.3-.0129-1.3-1.3369 0-.8613.013-1.7097 0-2.571 0-.3856.09-.5913.541-.5913 3.384.0129 6.781 0 10.166.0257.167 0 .476.2443.489.3857.038 1.324.026 2.648.026 4.0878-.477 0-.927.0128-1.365 0-.334-.0129-.527.09-.527.4627.026 2.9052-.013 5.8232.077 8.7284.039 1.144.232 2.301.528 3.3936.424 1.5297 1.377 2.1339 2.959 2.1339 1.751 0 2.626-.5399 3.115-2.0953.27-.8484.476-1.7483.502-2.6352.09-3.1494.077-6.2988.103-9.4354 0-.1285-.052-.2442-.091-.437-.45 0-.9-.0257-1.351 0-.373.0257-.489-.1286-.489-.4885.013-1.1955.013-2.4038 0-3.5993 0-.3728.129-.5399.528-.5399 3.127.0128 6.267 0 9.394 0 .322 0 .528.0643.515.4627-.026 1.3241-.013 2.6353-.013 4.0493z"/><path d="m176.558 71.5748c0-5.2447 0-10.348 0-15.5541-.708 0-1.402 0-2.175 0 0-1.4912-.012-2.8923.013-4.2935 0-.1028.18-.2699.309-.3085.18-.0514.386-.0257.579-.0257h19.689c.85 0 .85 0 .85.8227 0 2.0825-.013 4.1521.013 6.2345 0 .5013-.103.7199-.657.707-1.608-.0385-3.217-.0257-4.826 0-.514.0129-.669-.1671-.643-.6684.039-.7842.013-1.5811.013-2.4296-.219-.0257-.412-.0514-.592-.0514-1.519 0-3.05.0129-4.568-.0128-.464-.0129-.657.1028-.644.6041.026 1.4269.013 2.8666.013 4.3578h6.717v4.6662c-.231.0129-.45.0257-.682.0257-1.775 0-3.564.0129-5.34-.0128-.515-.0129-.721.1157-.721.6684.026 1.5426.026 3.0851 0 4.6277 0 .4628.155.6427.631.6427 1.518-.0257 3.05-.0257 4.568 0 .476 0 .644-.1542.618-.6298-.039-.8485-.013-1.7097-.013-2.6224h6.074v7.8414c-.232.0128-.463.0385-.682.0385-6.666 0-13.345 0-20.011.0129-.566 0-.746-.1414-.72-.7199.051-1.1312.025-2.2753.012-3.4065 0-.3856.129-.5399.515-.527.528.0257 1.055.0128 1.66.0128z"/><path d="m26.2776 76.1639c0-1.4397-.0128-2.828.0129-4.2163 0-.1285.2316-.3342.3732-.3599.3989-.0514.8107-.0514 1.2225-.0129.5405.0386.6821-.1928.6821-.707-.0129-3.3165-.0129-6.633-.0129-9.9623 0-1.3755 0-2.7381 0-4.1135 0-.2314 0-.4628 0-.7713-.785 0-1.5056 0-2.252 0 0-1.5554 0-3.0209 0-4.5634.2316-.0257.4761-.0643.7206-.0643 6.6274 0 13.2548 0 19.8693-.0129.6563 0 .8364.18.8236.8356-.0386 2.0825-.0386 4.1521 0 6.2345.0128.5785-.1802.7327-.7335.7199-1.5185-.0257-3.0499-.0386-4.5684 0-.6435.0128-.8108-.2186-.7721-.8227.0386-.7456.0128-1.4912.0128-2.2882-1.956 0-3.822 0-5.7523 0v4.8848h6.7303v4.7177c-.2445 0-.4632 0-.6949 0-1.8273 0-3.6418.0128-5.4692-.0129-.4761 0-.6305.1286-.6305.6171.0257 1.7353.0128 3.4579.0128 5.2575.3732.0257.6821.0514 1.0038.0514 1.3512 0 2.7024-.0257 4.0536.0129.6049.0128.785-.2057.7593-.7713-.0386-.6813-.0257-1.3754.0129-2.0567.0128-.1671.2187-.4628.3474-.4628 1.866-.0257 3.7191-.0257 5.6365-.0257v7.8927c-7.1164 0-14.1942 0-21.3878 0z"/><path d="m181.307 101.128c-.103.63-.232 1.182-.283 1.748-.039.398-.181.566-.592.566-1.545-.013-3.089-.013-4.633 0-.399 0-.515-.168-.515-.54.013-2.224.013-4.4609 0-6.6848 0-.4242.155-.5527.566-.5527 1.635.0128 3.256 0 4.891.0257.18 0 .514.2057.527.3471.27 1.7868 1.918 2.5581 3.539 2.6995.734.0642 1.493-.0386 2.226-.1286.258-.0257.528-.18.747-.3342.849-.6042.823-1.5554-.116-1.9925-.888-.4113-1.84-.6813-2.78-.9512-2.02-.5656-4.053-1.067-5.894-2.1339-2.187-1.2855-3.41-3.1237-3.294-5.7332.09-1.8382.901-3.3165 2.329-4.4606 2.754-2.211 7.335-2.5452 10.347-.6941.746.4628 1.351 1.1441 2.084 1.7739.09-.6298.219-1.2726.271-1.9282.025-.3985.193-.5013.566-.4884 1.505.0128 2.998.0257 4.504 0 .45-.0129.54.1799.54.5784-.013 2.211-.013 4.4092 0 6.6202 0 .4113-.115.5656-.54.5656-1.583-.0257-3.179-.0129-4.762 0-.373 0-.489-.1157-.566-.4885-.45-2.301-3.037-3.7407-5.25-2.9694-.708.2442-1.287.6684-1.351 1.4654-.065.7456.45 1.2212 1.042 1.4783 1.158.5013 2.329.9512 3.526 1.3626 2.008.6813 4.028 1.2983 5.842 2.4424 3.99 2.5195 3.308 7.9312-.553 9.9242-3.668 1.889-8.969 1.851-12.084-1.312-.077-.064-.18-.102-.334-.205z"/><path d="m129.498 85.6893c-.515 0-.914-.0129-1.313 0-.36.0128-.501-.1157-.501-.4756.012-1.0284.012-2.0568 0-3.0852 0-.3342.128-.4499.463-.4499 3.732.0129 7.464-.0386 11.196.0257 1.621.0257 3.243.2443 4.774.8613 2.149.8741 3.191 2.5066 3.307 4.7562.129 2.6738-1.171 4.3706-3.77 5.039-.219.0643-.451.1157-.811.2186.296.1285.45.2057.618.2571 2.046.5784 3.719 2.5323 3.513 4.4477-.052.4499.064.9512.231 1.3754.09.2443.451.5785.657.5528.257-.0257.579-.3342.707-.5913.142-.2571.103-.617.103-.9384s.116-.4499.451-.4628c1.647-.1157 1.66-.1285 1.647 1.504-.013.5528-.051 1.1184-.167 1.6581-.464 2.173-2.034 3.458-4.26 3.42-1.055-.013-2.149-.103-3.165-.399-2.175-.617-3.449-2.417-3.514-4.6919-.025-.707-.038-1.4141-.115-2.1082-.155-1.414-.605-1.8511-1.995-2.0568-1.326-.1928-1.326-.1928-1.326 1.1313v3.7278c.515 0 .953.0257 1.403 0 .412-.0257.579.1157.579.5399-.026.9899-.013 1.9669 0 2.9569 0 .372-.116.54-.515.54-3.152-.013-6.305-.013-9.458 0-.386 0-.541-.116-.528-.515.026-1.002.026-2.018 0-3.0205-.013-.4113.18-.4884.541-.5013 1.274-.0257 1.274-.0386 1.274-1.2983 0-3.8564 0-7.7128 0-11.5692-.026-.2443-.026-.4885-.026-.8484zm6.718 5.3604c.823 0 1.544.0514 2.264-.0129 1.377-.1157 2.381-1.0541 2.458-2.1981.116-1.6969-.527-2.7638-1.956-3.0723-.759-.1671-1.57-.1414-2.355-.1543-.141 0-.399.2314-.399.3471-.012 1.6711-.012 3.3422-.012 5.0905z"/><path d="m167.306 60.5327c0-1.5426 0-2.9952 0-4.4735-1.042 0-2.007 0-3.037 0-.013.27-.051.5271-.051.7842v13.883c0 .8613 0 .8613.9.8613.451 0 .901.0257 1.352 0 .514-.0386.733.1285.72.6813-.038 1.1312-.025 2.2753 0 3.4065 0 .4113-.128.5656-.553.5656-4.028-.0129-8.069-.0129-12.097 0-.386 0-.54-.1286-.527-.5142.013-1.1955.013-2.4038 0-3.5993 0-.3857.154-.5271.54-.5271.772.0129 1.532 0 2.317 0 0-5.2318 0-10.3737 0-15.567-.953 0-1.866-.0128-2.78.0257-.116 0-.296.3214-.309.4885-.026 1.067-.013 2.1467-.013 3.2137v.7456c-1.724 0-3.384 0-5.07 0-.013-.2186-.039-.4114-.039-.5914 0-2.6095.013-5.2318-.013-7.8413 0-.5142.168-.6556.657-.6556 7.502.0129 15.005.0129 22.52 0 .515 0 .656.18.656.6684-.013 2.6095-.013 5.2319 0 7.8414 0 .4628-.116.6427-.617.6427-1.493-.0642-2.973-.0385-4.556-.0385z"/><path d="m107.363 81.6786c1.519 0 3.05.0129 4.568-.0128.489-.0129.631.1542.618.6298-.026.8999-.026 1.7997 0 2.6995.013.3985-.09.5785-.527.5785-1.274.0257-1.274.0514-1.274 1.3112 0 2.0824-.039 4.152.012 6.2345.039 1.0798.168 2.1724.412 3.2265.373 1.5554 1.416 2.2881 2.986 2.2753 1.595-.0129 2.574-.7327 2.947-2.3267.218-.9513.373-1.9411.399-2.9052.051-2.3395 0-4.6662.025-7.0058.013-.5784-.193-.7327-.746-.7198-1.184.0257-1.055.1671-1.055-1.0541 0-.797.013-1.5811-.013-2.3781-.013-.3985.09-.5785.54-.5785 2.87.0129 5.753.0129 8.622 0 .374 0 .541.1028.541.5142-.026.9641-.026 1.9282 0 2.8923.013.4113-.18.5013-.541.5013-1.261.0257-1.261.0386-1.261 1.3241 0 2.3524.039 4.7176-.013 7.07-.038 1.6711-.257 3.3165-.875 4.8977-.952 2.4805-2.689 4.0875-5.276 4.7175-2.715.669-5.405.514-8.004-.476-2.999-1.131-4.607-3.4574-5.148-6.5297-.206-1.144-.244-2.3395-.27-3.5093-.038-2.2239-.026-4.4606 0-6.6844.013-.6171-.18-.887-.798-.8099-.193.0257-.412.0643-.566-.0128-.18-.09-.438-.2828-.438-.4499-.038-.9899-.012-1.9668-.025-2.9566-.013-.4114.18-.5014.553-.5014 1.519.0515 3.063.0386 4.607.0386z"/><path d="m38.1302 103.442c-3.0628 0-6.1255-.013-9.2011.012-.5662 0-.7464-.154-.7207-.719.0515-.939.0258-1.89.0129-2.8285 0-.3599.1158-.5141.489-.4884.1673.0128.3475 0 .5148 0 1.1839-.0257 1.1581.2185 1.1581-1.1955 0-3.8821 0-7.7514 0-11.6335 0-.8998 0-.8998-.8622-.8998-1.2868 0-1.2868 0-1.2868-1.2855 0-.707.0257-1.414-.0129-2.121-.0257-.4885.1673-.617.6306-.617 3.6032.0128 7.2064.0128 10.8097.0128 2.5737 0 5.1474.0129 7.7212-.0128.5791-.0129.7206.1799.7078.7327-.0386 1.8253-.0258 3.6378 0 5.4632 0 .4885-.103.6813-.6435.6685-1.4413-.0386-2.8697-.0386-4.311 0-.5405.0128-.6692-.18-.6434-.6685.0257-.5527 0-1.1183.0128-1.6711.0129-.3471-.1286-.5013-.489-.5013-1.5056.0128-2.9984-.0129-4.504.0257-.1544 0-.4375.2828-.4375.4499-.0386 1.1826-.0129 2.3524-.0258 3.535 0 .4242.2574.4757.592.4757 1.6729-.0129 3.3458.0128 5.0188-.0129.5533-.0129.6949.18.682.6941-.0386.8999-.0386 1.7997 0 2.6995.0257.5271-.1801.6556-.6692.6428-1.6472-.0257-3.3072.0128-4.9544-.0257-.5019-.0129-.6821.1542-.6821.6555.0258 1.3112.0129 2.6095 0 3.9207 0 .4756.1159.6942.6564.6813 1.3898-.0386 2.7925-.0257 4.1823 0 .4761.0129.6563-.1414.6305-.617-.0257-.6042.0129-1.1955-.0128-1.7997-.0129-.4242.1544-.5527.5662-.5527 1.5056.0128 2.9984.0128 4.504 0 .399 0 .5277.1414.5148.527-.0129 1.9668-.0257 3.9465 0 5.9135 0 .488-.2188.552-.6177.552-3.1142-.025-6.2156-.012-9.3298-.012z"/><path d="m162.763 81.6786c3.063 0 6.138.0129 9.201-.0128.541 0 .695.1542.682.6941-.026 1.8382-.026 3.6893 0 5.5275.013.5271-.167.6556-.669.6428-1.416-.0258-2.831-.0386-4.247 0-.553.0128-.707-.18-.669-.7071.039-.527-.013-1.0669.013-1.6068.013-.3728-.116-.5399-.515-.5399-1.48.0129-2.96.0129-4.439 0-.399 0-.528.18-.528.5399 0 1.1184.013 2.2239 0 3.3422 0 .4371.167.6042.605.5913 1.673-.0128 3.346.0129 5.019-.0128.489-.0129.694.1157.669.6427-.039.8998-.039 1.7997 0 2.6995.025.5142-.129.707-.682.6942-1.648-.0386-3.308 0-4.955-.0258-.515-.0128-.669.18-.669.6685.013 1.3112.013 2.6095 0 3.9207-.013.4884.142.6813.669.6684 1.39-.0257 2.793-.0386 4.183 0 .54.0129.656-.2057.63-.6813-.026-.6042 0-1.1955-.013-1.7996-.013-.36.129-.4885.489-.4885 1.545.0128 3.089.0128 4.633 0 .335 0 .463.1285.45.4499-.012 2.031 0 4.0753-.025 6.1063 0 .141-.245.308-.399.411-.09.064-.245.013-.373.013-6.049 0-12.097-.013-18.145.013-.657 0-.863-.18-.824-.823.052-.9.026-1.8.013-2.6995-.013-.3856.142-.5142.528-.527 1.557-.0514 1.557-.0643 1.557-1.6068 0-3.7536 0-7.4943 0-11.2479 0-.8612 0-.8484-.837-.8612-1.402-.0257-1.235.2313-1.248-1.2727 0-.6812.026-1.3754-.013-2.0567-.026-.527.142-.6942.695-.6942 3.088.0515 6.151.0386 9.214.0386z"/><path d="m10.4881 85.5864c1.3126 3.7665 3.14 7.1601 3.9636 10.9265.8879-3.8307 2.9341-7.16 4.3496-10.9265-.4633 0-.8107-.0128-1.1582 0-.3346.0129-.5147-.0899-.5276-.4627-.0129-.9641-.0515-1.9282-.0901-2.8795-.0257-.3985.0901-.5784.5405-.5784 2.741.0128 5.4949.0128 8.236 0 .3732 0 .5405.1028.5405.5141-.0258.9641-.0258 1.9282 0 2.8923.0128.3985-.1545.5785-.5277.5142-.875-.1542-1.2225.2957-1.5442 1.0413-2.3421 5.3475-4.7357 10.6693-7.0906 16.0173-.2574.578-.5405.848-1.2226.822-1.4927-.064-2.9984-.038-4.504 0-.5148.013-.7593-.167-.978-.617-2.68959-5.5144-5.41776-11.0162-8.09444-16.5437-.27025-.5528-.59196-.7456-1.18392-.7199-.913682.0386-.913682 0-.913682-.8998 0-.797.012869-1.5811-.012869-2.3781-.012869-.4628.115818-.6427.604829-.6427 3.628972.0128 7.245072.0128 10.874082 0 .4118 0 .5791.1156.5662.5527-.0257.9384-.0257 1.8896 0 2.828.0129.4371-.1673.5785-.5662.5528-.3861-.0257-.7722-.0129-1.2612-.0129z"/><path d="m103.323 56.0078c-.657 0-1.236 0-1.905 0 0-1.4783-.013-2.8794.026-4.2806 0-.1157.399-.3085.618-.3085 2.47-.0257 4.928-.0129 7.399-.0129.862 0 1.712-.0257 2.574.0129.18.0129.515.2314.515.3599.038 1.3883.025 2.7766.025 4.2292-.63 0-1.197 0-1.827 0-.026.3085-.052.5656-.052.8099 0 4.6534.013 9.2939-.012 13.9473 0 .6427.154.8741.823.8355 1.094-.0514 2.188-.0257 3.282-.0128.476.0128.643-.1671.63-.6299-.026-1.1312-.026-2.2753.013-3.4065 0-.18.232-.5013.348-.5142 1.814-.0385 3.641-.0257 5.494-.0257v9.1397c-6.575 0-13.164 0-19.856 0 0-1.0669 0-2.121 0-3.188 0-1.3369 0-1.3369 1.326-1.3883.193-.0128.373-.0385.579-.0642 0-5.1676 0-10.2838 0-15.5028z"/><path d="m89.1419 81.6786c3.4488 0 6.9104.0129 10.3593-.0128.5278 0 .7078.1285.6948.6813-.026 2.2238-.026 4.4605 0 6.6844 0 .5013-.129.6813-.6434.6684-1.1582-.0385-2.3163-.0257-3.4745 0-.4504.0129-.6048-.1542-.592-.6041.0258-.9256 0-1.8383.0129-2.7638.0129-.4499-.1158-.6813-.6177-.6427-.5791.0385-1.1582.0257-1.7373 0-.4118-.0129-.5662.1285-.5533.5527.0257 1.1569.0128 2.3139.0128 3.4708 0 3.0208.0129 6.0417-.0128 9.0625 0 .5014.1415.6942.6563.6556.5276-.0386 1.0681 0 1.6086-.0128.3217-.0129.4632.1157.4632.4499-.0128 1.054-.0128 2.095 0 3.149 0 .347-.1673.437-.4761.437-3.7319 0-7.4639 0-11.1958 0-.3732 0-.4761-.167-.4761-.501.0129-1.003.0129-2.018 0-3.0208-.0129-.3984.1544-.527.5405-.5013.489.0257.9909-.0257 1.4799.0129.5276.0385.7077-.1543.7077-.6942-.0257-2.211-.0128-4.4091-.0128-6.6201 0-1.9025-.0129-3.8179.0128-5.7204 0-.5142-.1286-.7455-.682-.707-.5791.0386-1.1582.0257-1.7373 0-.4504-.0257-.6177.1543-.6048.5913.0129.9384-.0129 1.8897.0129 2.8281.0128.4499-.1673.5913-.6048.5913-1.184-.0257-2.355-.0257-3.5389 0-.4118 0-.5663-.1157-.5663-.5399.0129-2.3139.0258-4.6277 0-6.9415 0-.5142.2574-.5271.6435-.5271 3.423-.0257 6.8719-.0257 10.3207-.0257z"/><path d="m98.2143 15.9012c-.1029.3985-.2831.7842-.2959 1.1827-.0386 1.0926 0 2.1853-.0258 3.2779 0 .3085.1545.707-.4246.7456-.5148.0385-.6049-.27-.6692-.6428-.2574-1.6839-.5276-3.3679-.7721-5.0647-.3732-2.6609-.6821-5.3347-1.0939-7.99561-.2831-1.85107.1931-3.48361 1.2612-4.94905.6048-.83555 1.3383-1.593977 2.0847-2.45524 2.1623 2.05675 3.9253 4.1392 3.5133 7.23718-.579 4.38342-1.236 8.74122-1.8661 13.11172-.0386.2443-.1416.5914-.3217.6942-.4376.2571-.8108-.0129-.8108-.5656-.0128-1.1312.0258-2.2753-.0128-3.4065-.0129-.3985-.1931-.7841-.296-1.1826-.0901.0128-.1802.0128-.2703.0128zm.1545-8.79257c.875 0 1.5828-.71986 1.5828-1.59397-.0129-.88698-.7078-1.56827-1.5957-1.56827-.8622 0-1.6086.74557-1.5957 1.58112 0 .84841.7464 1.58112 1.6086 1.58112z"/><path d="m93.4014 22.1872c-1.1582-1.7483-.5405-4.2164 1.5314-5.9132.1416.8227.2188 1.594.3989 2.3396.2831 1.1826.3732 2.2238-1.0423 2.7766-.3475.1285-.5791.5013-.888.797z"/><path d="m103.387 22.1486c-.695-.5142-1.377-.9898-2.02-1.504-.129-.1028-.18-.3728-.155-.5527.194-1.2212.412-2.4424.631-3.6636 1.557.9384 2.87 3.625 1.544 5.7203z"/><path d="m98.3937 26.3392c-.3603-1.2983-1.4027-2.3395-1.1453-3.8949.7464.5656 1.4156.6556 2.2006-.0386.0257.4628.1415.8098.0386 1.0798-.3218.9641-.7207 1.9025-1.0939 2.8537z"/><path d="m4.74911 43.5645h-.77212c-.18016 0-.32172-.1414-.32172-.3214 0-.1799.14156-.3213.32172-.3213h.77212c.18017 0 .32172.1414.32172.3213 0 .18-.14155.3214-.32172.3214z"/><path d="m83.1196 43.5645h-1.171c-.1802 0-.3218-.1414-.3218-.3214 0-.1799.1416-.3213.3218-.3213h1.171.3475c.1673 0 .3217.1414.3217.3213 0 .18-.1416.3214-.3217.3214-.1159 0-.2317 0-.3475 0zm-3.5904 0h-1.5313c-.1802 0-.3218-.1414-.3218-.3214 0-.1799.1416-.3213.3218-.3213h1.5313c.1802 0 .3218.1414.3218.3213 0 .18-.1416.3214-.3218.3214zm-3.9378 0h-1.5185c-.1801 0-.3217-.1414-.3217-.3214 0-.1799.1416-.3213.3217-.3213h1.5185c.1802 0 .3217.1414.3217.3213 0 .18-.1544.3214-.3217.3214zm-3.9378 0h-1.5185c-.1802 0-.3217-.1414-.3217-.3214 0-.1799.1415-.3213.3217-.3213h1.5185c.1802 0 .3217.1414.3217.3213 0 .18-.1544.3214-.3217.3214zm-3.9378 0h-1.5185c-.1802 0-.3217-.1414-.3217-.3214 0-.1799.1415-.3213.3217-.3213h1.5185c.1801 0 .3217.1414.3217.3213 0 .18-.1544.3214-.3217.3214zm-3.9378 0h-1.5185c-.1802 0-.3218-.1414-.3218-.3214 0-.1799.1416-.3213.3218-.3213h1.5185c.1801 0 .3217.1414.3217.3213 0 .18-.1416.3214-.3217.3214zm-3.9379 0h-1.5185c-.1801 0-.3217-.1414-.3217-.3214 0-.1799.1416-.3213.3217-.3213h1.5185c.1802 0 .3218.1414.3218.3213 0 .18-.1416.3214-.3218.3214zm-3.9378 0h-1.5185c-.1801 0-.3217-.1414-.3217-.3214 0-.1799.1416-.3213.3217-.3213h1.5185c.1802 0 .3217.1414.3217.3213 0 .18-.1415.3214-.3217.3214zm-3.9249 0h-1.5314c-.1802 0-.3217-.1414-.3217-.3214 0-.1799.1415-.3213.3217-.3213h1.5185c.1802 0 .3217.1414.3217.3213 0 .18-.1415.3214-.3088.3214zm-3.9379 0h-1.5185c-.1801 0-.3217-.1414-.3217-.3214 0-.1799.1416-.3213.3217-.3213h1.5185c.1802 0 .3218.1414.3218.3213 0 .18-.1416.3214-.3218.3214zm-3.9378 0h-1.5314c-.1801 0-.3217-.1414-.3217-.3214 0-.1799.1416-.3213.3217-.3213h1.5314c.1802 0 .3217.1414.3217.3213 0 .18-.1415.3214-.3217.3214zm-3.9378 0h-1.5185c-.1802 0-.3217-.1414-.3217-.3214 0-.1799.1415-.3213.3217-.3213h1.5185c.1802 0 .3217.1414.3217.3213 0 .18-.1415.3214-.3217.3214zm-3.9249 0h-1.5186c-.1801 0-.3217-.1414-.3217-.3214 0-.1799.1416-.3213.3217-.3213h1.5186c.1801 0 .3217.1414.3217.3213 0 .18-.1416.3214-.3217.3214zm-3.9379 0h-1.5185c-.1801 0-.3217-.1414-.3217-.3214 0-.1799.1416-.3213.3217-.3213h1.5185c.1802 0 .3217.1414.3217.3213 0 .18-.1415.3214-.3217.3214zm-3.9249 0h-1.5185c-.1802 0-.3217-.1414-.3217-.3214 0-.1799.1415-.3213.3217-.3213h1.5185c.1801 0 .3217.1414.3217.3213 0 .18-.1544.3214-.3217.3214zm-3.9378 0h-1.5185c-.1802 0-.3218-.1414-.3218-.3214 0-.1799.1416-.3213.3218-.3213h1.5185c.1801 0 .3217.1414.3217.3213 0 .18-.1416.3214-.3217.3214zm-3.9379 0h-1.5185c-.1801 0-.3217-.1414-.3217-.3214 0-.1799.1416-.3213.3217-.3213h1.5185c.1802 0 .3218.1414.3218.3213 0 .18-.1416.3214-.3218.3214zm-3.9378 0h-1.5185c-.1801 0-.3217-.1414-.3217-.3214 0-.1799.1416-.3213.3217-.3213h1.5185c.1802 0 .3217.1414.3217.3213 0 .18-.1415.3214-.3217.3214zm-3.9378 0h-1.5185c-.1802 0-.3217-.1414-.3217-.3214 0-.1799.1415-.3213.3217-.3213h1.5185c.1802 0 .3217.1414.3217.3213 0 .18-.1415.3214-.3217.3214zm-3.93782 0h-1.53138c-.18016 0-.32172-.1414-.32172-.3214 0-.1799.14156-.3213.32172-.3213h1.53138c.18016 0 .32171.1414.32171.3213 0 .18-.14155.3214-.32171.3214zm77.18642-.1671c-.1544 0-.296-.1157-.3217-.2828-.0257-.18.1029-.3342.2831-.36.5019-.0642.9909-.1414 1.4799-.2313.1802-.0386.3475.0771.3732.2571.0386.1799-.0772.347-.2574.3727-.5019.09-1.0166.1672-1.5185.2314-.0129.0129-.0257.0129-.0386.0129zm3.8478-.797c-.1416 0-.2703-.09-.3089-.2314-.0515-.1671.0386-.3471.2188-.3985.4761-.1414.9523-.3085 1.4155-.4885.1673-.0642.3475.0129.4118.18.0644.1671-.0128.3471-.1801.4113-.4762.18-.9652.36-1.4542.5014-.0386.0128-.0772.0257-.1029.0257zm3.6161-1.5169c-.1159 0-.2188-.0642-.2832-.1671-.09-.1542-.0257-.347.1287-.437.4376-.2443.8622-.5014 1.274-.7713.1416-.1029.3475-.0643.4504.09.103.1414.0644.347-.09.4499-.4247.2828-.8751.5527-1.3255.797-.0515.0257-.103.0385-.1544.0385zm3.1914-2.2624c-.0901 0-.1802-.0385-.2317-.1028-.1158-.1286-.1158-.3342.0258-.4499.3603-.3343.7206-.6813 1.0552-1.0541.1158-.1286.3217-.1414.4504-.0257s.1416.3213.0258.4499c-.3475.3856-.7078.7456-1.0939 1.0926-.0772.0643-.1544.09-.2316.09zm2.548-2.9823c-.0643 0-.1158-.0128-.1802-.0514-.1544-.1028-.193-.2956-.0901-.4499.2703-.4114.5277-.8356.7593-1.2726.0772-.1543.2831-.2185.4372-.1286.155.0772.219.2828.129.4371-.2445.4628-.5147.8998-.785 1.324-.0643.09-.1673.1414-.2702.1414zm1.7502-3.4964c-.039 0-.077 0-.116-.0258-.167-.0642-.257-.2442-.193-.4113.167-.4628.322-.9384.463-1.414.052-.1671.232-.27.399-.2185.168.0514.271.2313.219.3985-.141.5013-.296.9898-.476 1.4654-.039.1285-.167.2057-.296.2057zm.991-3.7793c-.013 0-.039 0-.052 0-.18-.0257-.296-.1928-.27-.3728.077-.4885.142-.977.206-1.4783.013-.18.18-.3085.347-.2828.181.0129.309.18.284.3471-.052.5142-.129 1.0284-.206 1.5168-.026.1543-.155.27-.309.27z"/><path d="m102.165 24.7967c-.012 0-.012 0 0 0-.18 0-.321-.1543-.321-.3343 0-.2571.013-.5013.013-.7584 0-.18.141-.3214.321-.3214s.322.1414.322.3214c0 .2571 0 .5271-.013.7841-.013.1672-.154.3086-.322.3086z"/><path d="m4.74911 46.2125h-.77212c-.18016 0-.32172-.1414-.32172-.3213 0-.18.14156-.3214.32172-.3214h.77212c.18017 0 .32172.1414.32172.3214 0 .1799-.14155.3213-.32172.3213z"/><path d="m80.7255 46.2125h-1.5571c-.1802 0-.3217-.1414-.3217-.3213 0-.18.1415-.3214.3217-.3214h1.5571c.1802 0 .3217.1414.3217.3214 0 .1799-.1415.3213-.3217.3213zm-4.0021 0h-1.5443c-.1802 0-.3217-.1414-.3217-.3213 0-.18.1415-.3214.3217-.3214h1.5443c.1801 0 .3217.1414.3217.3214 0 .1799-.1416.3213-.3217.3213zm-4.0022 0h-1.5443c-.1801 0-.3217-.1414-.3217-.3213 0-.18.1416-.3214.3217-.3214h1.5443c.1802 0 .3217.1414.3217.3214 0 .1799-.1415.3213-.3217.3213zm-4.0022 0h-1.5442c-.1802 0-.3217-.1414-.3217-.3213 0-.18.1415-.3214.3217-.3214h1.5442c.1802 0 .3217.1414.3217.3214 0 .1799-.1415.3213-.3217.3213zm-4.0021 0h-1.5443c-.1801 0-.3217-.1414-.3217-.3213 0-.18.1416-.3214.3217-.3214h1.5443c.1801 0 .3217.1414.3217.3214 0 .1799-.1416.3213-.3217.3213zm-3.9893 0h-1.5443c-.1801 0-.3217-.1414-.3217-.3213 0-.18.1416-.3214.3217-.3214h1.5443c.1801 0 .3217.1414.3217.3214 0 .1799-.1416.3213-.3217.3213zm-4.0022 0h-1.5442c-.1802 0-.3218-.1414-.3218-.3213 0-.18.1416-.3214.3218-.3214h1.5442c.1802 0 .3217.1414.3217.3214 0 .1799-.1415.3213-.3217.3213zm-3.9893 0h-1.5442c-.1802 0-.3218-.1414-.3218-.3213 0-.18.1416-.3214.3218-.3214h1.5442c.1802 0 .3217.1414.3217.3214 0 .1799-.1544.3213-.3217.3213zm-4.0022 0h-1.5442c-.1802 0-.3217-.1414-.3217-.3213 0-.18.1415-.3214.3217-.3214h1.5442c.1802 0 .3218.1414.3218.3214 0 .1799-.1416.3213-.3218.3213zm-4.0021 0h-1.5571c-.1802 0-.3218-.1414-.3218-.3213 0-.18.1416-.3214.3218-.3214h1.5571c.1801 0 .3217.1414.3217.3214 0 .1799-.1416.3213-.3217.3213zm-4.0022 0h-1.5442c-.1802 0-.3217-.1414-.3217-.3213 0-.18.1415-.3214.3217-.3214h1.5442c.1802 0 .3217.1414.3217.3214 0 .1799-.1415.3213-.3217.3213zm-3.9893 0h-1.5442c-.1802 0-.3217-.1414-.3217-.3213 0-.18.1415-.3214.3217-.3214h1.5442c.1802 0 .3217.1414.3217.3214 0 .1799-.1415.3213-.3217.3213zm-3.9893 0h-1.5442c-.1802 0-.3217-.1414-.3217-.3213 0-.18.1415-.3214.3217-.3214h1.5442c.1802 0 .3217.1414.3217.3214 0 .1799-.1544.3213-.3217.3213zm-4.0021 0h-1.5443c-.1802 0-.3217-.1414-.3217-.3213 0-.18.1415-.3214.3217-.3214h1.5443c.1801 0 .3217.1414.3217.3214 0 .1799-.1416.3213-.3217.3213zm-4.0022 0h-1.5443c-.1801 0-.3217-.1414-.3217-.3213 0-.18.1416-.3214.3217-.3214h1.5443c.1802 0 .3217.1414.3217.3214 0 .1799-.1415.3213-.3217.3213zm-3.9893 0h-1.5442c-.1802 0-.3218-.1414-.3218-.3213 0-.18.1416-.3214.3218-.3214h1.5442c.1802 0 .3217.1414.3217.3214 0 .1799-.1544.3213-.3217.3213zm-4.0022 0h-1.5442c-.1802 0-.3217-.1414-.3217-.3213 0-.18.1415-.3214.3217-.3214h1.5442c.1802 0 .3217.1414.3217.3214 0 .1799-.1415.3213-.3217.3213zm-4.0021 0h-1.5443c-.1801 0-.3217-.1414-.3217-.3213 0-.18.1416-.3214.3217-.3214h1.5443c.1801 0 .3217.1414.3217.3214 0 .1799-.1416.3213-.3217.3213zm-4.0022 0h-1.55711c-.18016 0-.32172-.1414-.32172-.3213 0-.18.14156-.3214.32172-.3214h1.55711c.18016 0 .32172.1414.32172.3214 0 .1799-.14156.3213-.32172.3213zm74.4325 0c-.1801 0-.3217-.1414-.3217-.3213 0-.18.1416-.3214.3217-.3214.5019 0 1.0167-.0129 1.5314-.0514.1802-.0129.3346.1285.3346.3085.0129.18-.1287.3342-.3089.3342-.5147.0386-1.0423.0514-1.5571.0514zm3.9765-.2828c-.1545 0-.296-.1157-.3218-.2699-.0257-.18.103-.3342.2703-.3599.5019-.0772 1.0166-.1543 1.5056-.2571.1802-.0386.3475.0771.3732.2571.0386.1799-.0772.347-.2574.3727-.5018.1029-1.0295.1929-1.5442.27.0129-.0257 0-.0129-.0257-.0129zm3.8992-.8612c-.1416 0-.2703-.09-.3089-.2314-.0514-.1671.0515-.3471.2188-.3985.489-.1543.978-.3085 1.4413-.4885.1673-.0643.3474.0257.4118.1928.0643.1671-.0258.3471-.193.4114-.4762.18-.9781.3471-1.4799.5013-.0258.0129-.0515.0129-.0901.0129zm3.7062-1.4783c-.1158 0-.2317-.0643-.2831-.18-.0773-.1542-.0129-.3471.1415-.437.4504-.2314.9008-.4757 1.3255-.7456.1544-.09.3474-.0514.4375.1028.0901.1543.0515.3471-.1029.4371-.4376.2699-.9008.527-1.3641.7713-.0515.0385-.103.0514-.1544.0514zm3.3458-2.1725c-.0901 0-.1801-.0385-.2445-.1157-.1158-.1414-.0901-.3342.0386-.4499.3861-.3213.7721-.6684 1.1196-1.0155.1287-.1285.3346-.1285.4504 0 .1287.1286.1287.3342 0 .4499-.3732.36-.7592.7199-1.171 1.0541-.0515.0643-.1287.0771-.1931.0771zm2.7279-2.8794c-.064 0-.128-.0257-.193-.0643-.141-.1028-.167-.3085-.064-.4499.296-.3985.579-.8227.836-1.2597.09-.1543.283-.2057.438-.1157.154.0899.206.2828.116.437-.271.4499-.566.887-.875 1.3112-.052.1028-.155.1414-.258.1414zm1.956-3.4579c-.038 0-.077-.0129-.128-.0257-.168-.0643-.245-.2571-.181-.4242.194-.4628.361-.9384.515-1.4269.052-.1671.232-.2571.399-.2057.167.0515.258.2314.206.3985-.154.5014-.335 1.0027-.54 1.4783-.026.1286-.155.2057-.271.2057zm1.12-3.8179c-.026 0-.039 0-.064 0-.181-.0385-.296-.2056-.258-.3727.09-.4885.167-.9898.232-1.504.026-.18.18-.2957.36-.2828.18.0257.309.1799.283.3599-.064.527-.141 1.0412-.231 1.5426-.039.1542-.181.257-.322.257z"/><path d="m104.301 27.4447c-.18 0-.322-.1542-.322-.3342.013-.2442.013-.5013.013-.7584 0-.18.142-.3214.322-.3214s.322.1414.322.3214c0 .2571 0 .527-.013.7841 0 .18-.142.3085-.322.3085z"/><path d="m192.439 43.5645h-.773c-.18 0-.321-.1414-.321-.3214 0-.1799.141-.3213.321-.3213h.773c.18 0 .321.1414.321.3213 0 .18-.154.3214-.321.3214z"/><path d="m189.26 43.5645h-1.531c-.181 0-.322-.1414-.322-.3214 0-.1799.141-.3213.322-.3213h1.531c.18 0 .322.1414.322.3213 0 .18-.155.3214-.322.3214zm-3.951 0h-1.518c-.18 0-.322-.1414-.322-.3214 0-.1799.142-.3213.322-.3213h1.518c.18 0 .322.1414.322.3213 0 .18-.142.3214-.322.3214zm-3.938 0h-1.518c-.18 0-.322-.1414-.322-.3214 0-.1799.142-.3213.322-.3213h1.518c.181 0 .322.1414.322.3213 0 .18-.141.3214-.322.3214zm-3.937 0h-1.519c-.18 0-.322-.1414-.322-.3214 0-.1799.142-.3213.322-.3213h1.519c.18 0 .321.1414.321.3213 0 .18-.141.3214-.321.3214zm-3.938 0h-1.519c-.18 0-.321-.1414-.321-.3214 0-.1799.141-.3213.321-.3213h1.519c.18 0 .322.1414.322.3213 0 .18-.142.3214-.322.3214zm-3.938 0h-1.519c-.18 0-.321-.1414-.321-.3214 0-.1799.141-.3213.321-.3213h1.519c.18 0 .322.1414.322.3213 0 .18-.142.3214-.322.3214zm-3.925 0h-1.518c-.181 0-.322-.1414-.322-.3214 0-.1799.141-.3213.322-.3213h1.518c.18 0 .322.1414.322.3213 0 .18-.142.3214-.322.3214zm-3.938 0h-1.518c-.18 0-.322-.1414-.322-.3214 0-.1799.142-.3213.322-.3213h1.518c.18 0 .322.1414.322.3213 0 .18-.142.3214-.322.3214zm-3.938 0h-1.518c-.18 0-.322-.1414-.322-.3214 0-.1799.142-.3213.322-.3213h1.518c.181 0 .322.1414.322.3213 0 .18-.141.3214-.322.3214zm-3.925 0h-1.531c-.18 0-.322-.1414-.322-.3214 0-.1799.142-.3213.322-.3213h1.531c.181 0 .322.1414.322.3213 0 .18-.141.3214-.322.3214zm-3.937 0h-1.519c-.18 0-.322-.1414-.322-.3214 0-.1799.142-.3213.322-.3213h1.519c.18 0 .321.1414.321.3213 0 .18-.141.3214-.321.3214zm-3.938 0h-1.519c-.18 0-.321-.1414-.321-.3214 0-.1799.141-.3213.321-.3213h1.519c.18 0 .322.1414.322.3213 0 .18-.142.3214-.322.3214zm-3.925 0h-1.519c-.18 0-.321-.1414-.321-.3214 0-.1799.141-.3213.321-.3213h1.519c.18 0 .322.1414.322.3213 0 .18-.142.3214-.322.3214zm-3.938 0h-1.518c-.181 0-.322-.1414-.322-.3214 0-.1799.141-.3213.322-.3213h1.518c.18 0 .322.1414.322.3213 0 .18-.142.3214-.322.3214zm-3.938 0h-1.518c-.18 0-.322-.1414-.322-.3214 0-.1799.142-.3213.322-.3213h1.518c.18 0 .322.1414.322.3213 0 .18-.142.3214-.322.3214zm-3.925 0h-1.518c-.18 0-.322-.1414-.322-.3214 0-.1799.142-.3213.322-.3213h1.518c.18 0 .322.1414.322.3213 0 .18-.154.3214-.322.3214zm-3.938 0h-1.518c-.18 0-.322-.1414-.322-.3214 0-.1799.142-.3213.322-.3213h1.518c.181 0 .322.1414.322.3213 0 .18-.154.3214-.322.3214zm-3.937 0h-1.519c-.18 0-.322-.1414-.322-.3214 0-.1799.142-.3213.322-.3213h1.519c.18 0 .321.1414.321.3213 0 .18-.154.3214-.321.3214zm-3.938 0h-1.532c-.18 0-.321-.1414-.321-.3214 0-.1799.141-.3213.321-.3213h1.532c.18 0 .322.1414.322.3213 0 .18-.155.3214-.322.3214zm-3.951 0h-1.171c-.116 0-.232 0-.347 0-.181 0-.322-.1543-.322-.3214 0-.1799.141-.3213.322-.3213h.347 1.171c.18 0 .322.1414.322.3213 0 .18-.142.3214-.322.3214zm-3.925-.1671c-.013 0-.026 0-.038 0-.515-.0643-1.03-.1414-1.532-.2314-.18-.0386-.296-.2057-.257-.3728.038-.18.206-.2828.373-.2571.489.09.991.1671 1.48.2314.18.0257.296.18.283.3599-.013.1543-.154.27-.309.27zm-3.848-.797c-.025 0-.064 0-.09-.0129-.502-.1542-.991-.3213-1.454-.5013-.167-.0643-.244-.2571-.18-.4113.064-.1672.257-.2443.412-.18.463.18.939.3471 1.415.4885.168.0514.271.2314.219.3985-.051.1285-.18.2185-.322.2185zm-3.616-1.5169c-.051 0-.103-.0128-.154-.0385-.451-.2443-.901-.5142-1.326-.797-.141-.1029-.193-.2957-.09-.4499.103-.1414.296-.1928.451-.09.412.2699.836.527 1.274.7713.154.09.219.2828.128.437-.064.1029-.167.1671-.283.1671zm-3.1911-2.2624c-.0772 0-.1544-.0257-.2188-.09-.3861-.347-.7464-.7198-1.0938-1.0926-.1159-.1286-.103-.3342.0257-.4499s.3346-.1029.4504.0257c.3346.3599.6821.7198 1.0556 1.0541.128.1157.141.3213.025.4499-.077.0643-.154.1028-.2441.1028zm-2.548-2.9823c-.103 0-.2059-.0514-.2703-.1414-.2831-.4242-.5405-.8741-.785-1.324-.0772-.1543-.0257-.3471.1287-.4371.1545-.0771.3475-.0257.4376.1286.2316.437.489.8741.7592 1.2726.103.1543.0515.3471-.0901.4499-.0514.0386-.1158.0514-.1801.0514zm-1.7502-3.4964c-.1287 0-.2573-.0772-.296-.2057-.1801-.4756-.3345-.9641-.4761-1.4654-.0515-.1672.0515-.3471.2188-.3985.1673-.0515.3474.0514.3989.2185.1416.4885.296.9641.4633 1.414.0643.1671-.0258.3471-.1931.4114-.0386.0257-.0772.0257-.1158.0257zm-.9909-3.7793c-.1544 0-.2959-.1157-.3217-.27-.0772-.4884-.1544-1.0026-.2059-1.5168-.0128-.18.1158-.3342.2831-.3471.1802-.0257.3346.1157.3475.2828.0515.5013.1158 1.0027.2059 1.4783.0257.18-.0901.3471-.2703.3728 0 0-.0128 0-.0386 0z"/><path d="m94.2506 24.7967c-.1802 0-.3217-.1414-.3217-.3085 0-.2571-.0129-.5142-.0129-.7842 0-.1799.1416-.3213.3217-.3213.1802 0 .3217.1414.3217.3213 0 .2571.0001.5142.0129.7585.0129.1799-.1287.3213-.3217.3342z"/><path d="m192.439 46.2125h-.773c-.18 0-.321-.1414-.321-.3213 0-.18.141-.3214.321-.3214h.773c.18 0 .321.1414.321.3214 0 .1799-.154.3213-.321.3213z"/><path d="m189.221 46.2126h-1.557c-.18 0-.322-.1414-.322-.3214s.142-.3214.322-.3214h1.557c.18 0 .322.1414.322.3214s-.155.3214-.322.3214zm-4.015 0h-1.544c-.18 0-.322-.1414-.322-.3214s.142-.3214.322-.3214h1.544c.18 0 .322.1414.322.3214s-.142.3214-.322.3214zm-4.002 0h-1.544c-.181 0-.322-.1414-.322-.3214s.141-.3214.322-.3214h1.544c.18 0 .322.1414.322.3214s-.142.3214-.322.3214zm-4.002 0h-1.544c-.181 0-.322-.1414-.322-.3214s.141-.3214.322-.3214h1.544c.18 0 .321.1414.321.3214s-.141.3214-.321.3214zm-3.99 0h-1.544c-.18 0-.322-.1414-.322-.3214s.142-.3214.322-.3214h1.544c.181 0 .322.1414.322.3214s-.141.3214-.322.3214zm-4.002 0h-1.544c-.18 0-.322-.1414-.322-.3214s.142-.3214.322-.3214h1.544c.18 0 .322.1414.322.3214s-.142.3214-.322.3214zm-4.002 0h-1.544c-.18 0-.322-.1414-.322-.3214s.142-.3214.322-.3214h1.544c.18 0 .322.1414.322.3214s-.142.3214-.322.3214zm-3.989 0h-1.544c-.181 0-.322-.1414-.322-.3214s.141-.3214.322-.3214h1.544c.18 0 .322.1414.322.3214s-.142.3214-.322.3214zm-4.002 0h-1.545c-.18 0-.321-.1414-.321-.3214s.141-.3214.321-.3214h1.545c.18 0 .321.1414.321.3214s-.141.3214-.321.3214zm-3.99 0h-1.557c-.18 0-.321-.1414-.321-.3214s.141-.3214.321-.3214h1.557c.181 0 .322.1414.322.3214s-.141.3214-.322.3214zm-4.002 0h-1.544c-.18 0-.322-.1414-.322-.3214s.142-.3214.322-.3214h1.544c.18 0 .322.1414.322.3214s-.142.3214-.322.3214zm-4.002 0h-1.544c-.18 0-.322-.1414-.322-.3214s.142-.3214.322-.3214h1.544c.18 0 .322.1414.322.3214s-.142.3214-.322.3214zm-3.989 0h-1.545c-.18 0-.321-.1414-.321-.3214s.141-.3214.321-.3214h1.545c.18 0 .321.1414.321.3214s-.141.3214-.321.3214zm-4.002 0h-1.545c-.18 0-.321-.1414-.321-.3214s.141-.3214.321-.3214h1.545c.18 0 .321.1414.321.3214s-.141.3214-.321.3214zm-3.99 0h-1.544c-.18 0-.322-.1414-.322-.3214s.142-.3214.322-.3214h1.544c.18 0 .322.1414.322.3214s-.154.3214-.322.3214zm-4.002 0h-1.544c-.18 0-.322-.1414-.322-.3214s.142-.3214.322-.3214h1.544c.18 0 .322.1414.322.3214s-.142.3214-.322.3214zm-4.002 0h-1.544c-.18 0-.322-.1414-.322-.3214s.142-.3214.322-.3214h1.544c.18 0 .322.1414.322.3214s-.142.3214-.322.3214zm-4.002 0h-1.544c-.181 0-.322-.1414-.322-.3214s.141-.3214.322-.3214h1.544c.18 0 .322.1414.322.3214s-.142.3214-.322.3214zm-4.002 0h-1.545c-.18 0-.321-.1414-.321-.3214s.141-.3214.321-.3214h1.545c.18 0 .321.1414.321.3214s-.141.3214-.321.3214zm-4.003 0c-.514 0-1.042-.0129-1.57-.0515-.18-.0128-.308-.1671-.308-.3342.012-.18.154-.3085.334-.3085.515.0257 1.03.0514 1.532.0514.18 0 .321.1414.321.3214.013.18-.141.3214-.309.3214zm-3.989-.2828c-.013 0-.026 0-.051 0-.515-.0772-1.03-.1672-1.545-.27-.18-.0386-.283-.2057-.257-.3728.039-.18.206-.2828.373-.2571.489.1029 1.004.1928 1.506.2571.18.0257.296.1928.27.3599 0 .1672-.129.2829-.296.2829zm-3.899-.8613c-.026 0-.064 0-.09-.0129-.502-.1542-1.004-.3213-1.48-.5013-.167-.0643-.245-.2442-.193-.4114.064-.1671.244-.2442.412-.1928.463.18.952.3343 1.441.4885.167.0514.27.2314.219.3985-.039.1414-.167.2314-.309.2314zm-3.693-1.4783c-.052 0-.103-.0129-.142-.0386-.476-.2442-.926-.5013-1.364-.7712-.1544-.09-.193-.2957-.103-.4371.09-.1543.296-.1928.438-.1028.424.2571.875.5141 1.325.7455.154.0772.219.27.142.4371-.078.1028-.181.1671-.296.1671zm-3.3462-2.1724c-.0772 0-.1416-.0258-.2059-.0772-.4118-.3342-.7979-.6941-1.1711-1.0541-.1287-.1285-.1287-.3342 0-.4499.1287-.1285.3346-.1285.4504 0 .3475.3471.7335.6942 1.1196 1.0156.1416.1156.1544.3213.0386.4499-.0386.0771-.1415.1157-.2316.1157zm-2.7411-2.8795c-.1029 0-.193-.0514-.2573-.1285-.3089-.4242-.6049-.8613-.8751-1.3112-.0901-.1543-.0386-.3471.1158-.4371s.3475-.0385.4375.1157c.2574.4371.5405.8613.8365 1.2598.103.1414.0772.3471-.0643.4499-.0515.0386-.1158.0514-.1931.0514zm-1.9431-3.4579c-.1287 0-.2445-.0771-.296-.1928-.193-.4756-.3732-.977-.5405-1.4783-.0515-.1671.0386-.3471.2059-.3985s.3475.0386.3989.2057c.1545.4885.3218.9641.5148 1.4268.0643.1672-.0129.3471-.1802.4242-.0129 0-.0643.0129-.1029.0129zm-1.1196-3.8178c-.1544 0-.2831-.1029-.3217-.2571-.0901-.5014-.1673-1.0155-.2317-1.5426-.0257-.18.103-.3342.2832-.3599.1801-.0129.3345.1028.3603.2828.0643.5142.1415 1.0155.2316 1.504.0386.1799-.0772.3471-.2574.3728-.0257 0-.0386 0-.0643 0z"/><path d="m92.1139 27.4447c-.1673 0-.3217-.1414-.3217-.3085-.0129-.2571-.0129-.5142-.0129-.7841 0-.18.1416-.3214.3217-.3214.1802 0 .3217.1414.3217.3214 0 .2571 0 .5142.0129.7584 0 .18-.1416.3342-.3217.3342z"/></g></svg>