<svg width="821" height="542" viewBox="0 0 821 542" fill="none" xmlns="http://www.w3.org/2000/svg">
<path opacity="0.1" d="M540.32 351.515L820.999 329.859V332.22L539.396 353.568L540.32 351.515Z" fill="url(#paint0_linear)"/>
<path d="M0 426.436V542L539.397 353.568L694.053 0L525.748 351.002L0 426.436Z" fill="url(#paint1_linear)"/>
<g opacity="0.2">
<path d="M249.789 419.971C249.789 419.971 250.097 419.56 250.097 419.457C249.994 419.252 249.892 418.842 249.584 418.944C249.276 419.047 249.378 419.457 249.378 419.457C249.378 419.457 249.173 419.252 248.66 419.149C248.25 419.047 248.044 418.842 247.736 418.944C247.531 419.047 247.634 418.944 247.531 419.149C247.531 419.355 246.813 419.149 246.915 419.355C247.018 419.56 246.3 419.355 246.608 419.663C246.813 419.868 246.197 419.765 246.505 419.971C246.813 420.176 247.736 420.381 247.736 420.381L248.352 420.792L249.994 420.278L249.789 419.971Z" fill="#181E26"/>
<path d="M244.453 430.131C244.453 430.131 240.656 428.078 239.527 427.052C238.398 426.026 237.885 425.615 237.885 425.615L240.143 424.589C240.143 424.589 243.221 426.744 244.248 427.257C245.274 427.873 248.045 429.002 248.045 429.002C248.045 429.002 249.276 429.618 248.866 430.028C248.455 430.439 244.453 430.131 244.453 430.131Z" fill="#181E26"/>
<path d="M238.193 425.513L237.885 425.307L239.835 424.486L240.04 424.692L238.193 425.513Z" fill="#181E26"/>
<path d="M222.389 412.786C222.389 412.581 222.389 412.478 222.491 412.273C222.697 411.247 224.441 410.734 224.749 410.22C225.16 409.605 225.365 409.605 225.673 409.81C226.288 410.22 225.775 410.939 225.775 410.939L225.365 412.17L223.928 413.197C223.928 413.094 222.491 412.992 222.389 412.786Z" fill="#181E26"/>
<path d="M203.403 419.56C202.992 419.56 202.479 419.355 202.582 419.149C202.787 418.534 204.121 418.02 204.737 417.61C205.558 417.199 206.789 416.789 206.789 417.097C206.789 417.815 205.455 418.636 205.455 418.636L207.713 418.944L206.071 419.457C205.968 419.457 204.737 419.56 203.403 419.56Z" fill="#181E26"/>
<path d="M223.723 413.094L224.852 411.965C224.852 411.965 233.677 415.557 235.011 416.173C236.346 416.789 236.448 418.534 236.448 418.534C236.448 418.534 234.806 419.047 232.446 417.61C231.317 417.097 223.723 413.094 223.723 413.094Z" fill="#181E26"/>
<path d="M204.429 419.663L207.713 418.739C207.713 418.739 222.901 420.894 225.569 421.305C228.135 421.715 227.827 422.742 227.827 422.742C227.827 422.742 224.235 422.947 219.617 422.023C217.359 421.613 204.429 419.663 204.429 419.663Z" fill="#181E26"/>
<path d="M235.012 416.173C235.012 416.173 240.964 418.636 243.324 419.97C245.685 421.305 246.506 421.92 246.506 421.92L244.248 425.923C244.248 425.923 239.63 422.023 237.475 420.997C237.475 420.997 233.472 418.431 232.857 418.02C232.343 417.507 235.012 416.173 235.012 416.173Z" fill="#181E26"/>
<path d="M224.543 421.407C224.543 421.407 235.216 422.126 239.116 422.844C243.015 423.563 245.786 424.076 245.786 424.076L238.5 426.334C238.5 426.334 231.008 424.486 227.519 423.871C227.519 423.871 220.746 422.126 220.027 421.921C219.104 421.818 224.543 421.407 224.543 421.407Z" fill="#181E26"/>
<path d="M274.83 430.131C274.83 430.131 273.085 429.926 272.469 429.618C271.546 429.105 271.34 429.31 271.033 429.31C270.622 429.31 269.391 428.899 268.98 428.899C268.57 428.899 268.056 429.105 268.056 429.105L265.491 428.386L261.386 429.823L263.849 430.234L264.362 430.439L270.93 431.157L274.83 430.131Z" fill="#181E26"/>
<path d="M268.57 432.8C266.415 432.389 264.465 430.542 264.465 430.542C264.465 430.542 267.133 429.413 267.544 429.413C268.057 429.413 269.801 429.823 269.801 429.823C269.801 429.823 269.904 430.131 270.52 430.234C271.238 430.234 271.238 430.131 271.238 430.131C271.443 429.926 270.93 429.926 270.93 429.926L271.443 429.823C271.443 429.823 273.598 430.336 274.009 430.336C274.522 430.336 274.83 430.234 274.83 430.234C274.83 430.234 275.856 431.055 272.983 432.081C271.341 432.594 268.57 432.8 268.57 432.8Z" fill="#181E26"/>
<path d="M235.319 426.026C235.319 426.026 245.377 421.407 245.684 421.613C246.505 421.92 249.687 422.947 253.279 423.665C257.692 424.589 263.439 425.718 264.875 426.231C268.159 427.463 265.799 428.592 265.799 428.592C265.799 428.592 263.952 429.823 262.925 430.131C261.899 430.439 256.973 430.644 255.331 430.542C253.689 430.439 245.89 427.77 244.35 427.257C242.708 426.949 235.319 426.026 235.319 426.026Z" fill="#181E26"/>
<path d="M262.925 430.028C260.976 430.849 257.999 431.568 256.46 431.465C254.921 431.465 247.532 430.849 244.453 430.131C244.453 430.131 241.579 428.797 242.4 428.489C243.837 428.078 250.405 428.797 251.534 429.105C252.663 429.413 255.742 430.336 257.178 430.131C258.615 430.028 262.925 430.028 262.925 430.028Z" fill="#181E26"/>
<path d="M254.715 425.82C254.715 425.82 250.61 423.563 249.481 422.536C248.352 421.51 247.736 420.997 247.736 420.997L250.712 419.97C250.712 419.97 253.381 422.126 254.51 422.742C255.638 423.357 258.512 424.589 258.512 424.589C258.512 424.589 259.846 425.307 259.333 425.615C259.025 426.128 254.715 425.82 254.715 425.82Z" fill="#181E26"/>
<path d="M262.617 430.234L263.849 430.336L266.517 428.592L266.209 428.489L262.617 430.234Z" fill="#181E26"/>
<path d="M247.942 420.894L247.736 420.689L250.199 419.868L250.507 419.97L247.942 420.894Z" fill="#181E26"/>
</g>
<path d="M226.51 408.894C225.434 409.43 224.359 410.074 224.359 410.074L224.037 409.645L224.144 409.538C224.144 409.538 219.951 401.064 219.198 399.562C219.198 399.562 215.973 393.019 214.36 390.445C214.36 390.337 214.253 390.337 214.253 390.23C214.145 389.586 214.145 388.728 214.038 387.763C214.145 387.977 214.253 388.192 214.253 388.299C215.22 390.23 215.758 391.195 215.758 391.195L217.371 390.874L215.865 391.195L215.973 391.517H216.188L216.51 392.161C216.51 392.161 216.618 393.019 216.725 393.341C216.833 393.662 216.941 393.233 217.156 393.555C217.371 394.092 217.371 393.448 217.586 393.77C217.801 394.092 217.801 393.448 218.016 393.662C218.231 393.877 218.123 393.877 218.338 393.77C218.446 393.662 218.338 393.341 218.338 392.912C218.338 392.483 218.123 392.053 218.123 392.053C218.123 392.053 218.661 392.697 218.876 392.59C219.091 392.483 218.661 391.946 218.446 391.732C218.231 391.517 217.693 391.195 217.693 391.195L218.016 391.088L217.908 390.659H218.016C218.016 390.659 215.973 386.476 215.543 385.081C215.113 383.687 214.36 380.469 214.36 380.469C214.36 380.469 214.253 380.254 214.145 379.933C214.253 377.68 214.253 375.749 214.145 374.891C213.715 372.21 212.21 371.673 211.672 371.566V371.459H211.78L211.672 371.244L211.565 369.635C211.565 369.635 211.995 369.528 212.102 369.313C212.21 369.099 212.102 367.919 212.102 367.597C212.102 367.49 212.425 367.49 212.102 366.417C211.887 365.774 212.21 364.594 212.21 364.594H212.102H212.21C212.21 364.594 211.457 362.985 209.199 363.307C207.909 363.521 206.941 364.916 206.941 364.916C206.726 366.739 208.554 370.064 208.554 370.064L208.662 370.601H208.554L208.447 371.566C206.941 371.781 205.329 372.639 204.899 373.497C204.468 374.462 203.071 379.396 203.071 382.078C203.071 382.078 203.393 383.472 203.823 384.33C204.361 385.832 205.006 387.548 205.544 388.621C205.759 389.05 205.974 389.479 206.189 389.801C205.974 391.088 205.759 392.268 205.759 392.268C205.759 392.268 205.974 392.268 206.296 392.268C206.296 394.413 206.296 397.631 206.189 399.455C206.189 399.455 206.081 401.6 206.081 403.316C205.866 403.853 205.759 404.389 205.651 405.032C205.329 406.534 203.071 414.579 203.071 414.579L203.608 414.472C203.393 414.686 203.071 414.901 202.856 415.115C202.641 415.33 202.856 415.759 203.071 415.973C203.608 416.617 204.791 416.724 205.436 416.939C206.296 417.153 207.156 417.046 206.941 416.724C206.081 415.866 204.468 415.33 204.468 415.33L204.899 414.257H205.221C205.221 414.257 208.124 405.032 208.662 403.424C208.662 403.424 208.662 403.424 208.662 403.316C209.199 401.385 210.704 396.451 210.812 393.984C210.812 393.662 210.812 393.448 210.812 393.233C212.102 394.735 213.607 396.451 214.253 397.631C214.253 397.631 216.618 400.849 217.478 402.136C217.586 402.458 217.801 402.673 218.016 402.994C218.768 404.067 221.994 409.43 222.854 410.825C222.854 411.254 222.854 412.112 223.069 412.112C223.284 412.112 223.499 412.112 223.714 412.005C224.682 411.576 225.757 410.503 226.187 409.967C226.832 409.216 226.94 408.679 226.51 408.894ZM206.619 385.189C206.404 384.438 206.081 383.258 205.866 382.4C205.974 382.078 206.081 381.649 206.081 381.327C206.404 383.043 206.511 384.438 206.619 385.189Z" fill="#0E1319"/>
<path d="M694.052 0L675.888 16.2159L694.565 19.2948L694.052 0Z" fill="white"/>
<defs>
<linearGradient id="paint0_linear" x1="521" y1="363" x2="742" y2="342" gradientUnits="userSpaceOnUse">
<stop stop-color="white"/>
<stop offset="1" stop-color="white" stop-opacity="0"/>
</linearGradient>
<linearGradient id="paint1_linear" x1="597.542" y1="47.9939" x2="117.122" y2="736.613" gradientUnits="userSpaceOnUse">
<stop offset="0.0416667" stop-color="white"/>
<stop offset="0.572917" stop-color="white" stop-opacity="0.2"/>
<stop offset="0.895833" stop-color="white" stop-opacity="0"/>
</linearGradient>
</defs>
</svg>
