<svg width="227" height="42" viewBox="0 0 227 42" fill="none" xmlns="http://www.w3.org/2000/svg">
<g opacity="0.6">
<path d="M81.9216 18.783V30.2651H77.5477V18.783H73.1289V15.1278H86.3417V18.7818H81.9216V18.783Z" fill="white"/>
<path d="M96.5501 25.7028H89.6057C89.7407 26.9564 90.5067 27.5184 91.6127 27.5184C92.6499 27.5184 93.5072 27.3015 94.6794 26.7179L96.2352 29.2046C94.7706 30.0255 93.2585 30.5013 91.4115 30.5013C87.8487 30.5013 85.8867 28.0793 85.8867 24.5979C85.8867 20.685 88.1861 18.6741 91.2978 18.6741C94.5444 18.6741 96.5739 20.7282 96.5739 24.9442C96.5739 25.269 96.5739 25.5075 96.5501 25.7028ZM91.1841 21.5503C90.2593 21.5503 89.7407 22.1555 89.6057 23.2796H92.9886C92.7849 22.1339 92.3787 21.5503 91.1841 21.5503Z" fill="white"/>
<path d="M104.101 30.5013C100.629 30.5013 98.5547 28.3825 98.5547 24.5559C98.5547 21.0745 100.404 18.6741 104.191 18.6741C106.423 18.6741 107.709 19.6688 108.746 21.2687L105.95 23.3012C105.387 22.3065 105.003 21.8307 104.124 21.8307C103.086 21.8307 102.569 22.8254 102.569 24.6195C102.569 26.4147 103.132 27.3435 104.237 27.3435C105.003 27.3435 105.544 26.9324 106.289 25.873L108.859 27.7977C107.484 29.7451 106.198 30.5013 104.101 30.5013Z" fill="white"/>
<path d="M117.942 30.2643V23.8204C117.942 22.3499 117.423 21.9617 116.59 21.9617C115.733 21.9617 115.214 22.3511 115.214 23.7773V30.2643H111.156V16.0582L115.214 14.5015V19.6691C115.957 19.1286 116.792 18.6744 118.191 18.6744C120.784 18.6744 122.025 20.339 122.025 23.3231V30.2643H117.942Z" fill="white"/>
<path d="M131.74 30.5013C127.05 30.5013 124.547 27.1708 124.547 22.6959C124.547 17.8315 127.524 14.8906 131.762 14.8906C135.641 14.8906 137.175 16.4905 138.257 19.3451L134.289 20.8372C133.724 19.4314 133.185 18.5446 131.741 18.5446C129.915 18.5446 129.126 20.2955 129.126 22.6959C129.126 25.0101 129.892 26.8473 131.786 26.8473C133.161 26.8473 133.748 26.1342 134.604 24.7069L138.302 26.5884C137.241 28.5778 135.481 30.5013 131.74 30.5013Z" fill="white"/>
<path d="M148.283 23.1935C147.765 22.653 147.18 22.242 146.39 22.242C145.398 22.242 144.788 22.6962 144.788 24.0791V30.263H140.73V18.9127H144.788V19.7349C145.487 19.0865 146.277 18.6755 147.314 18.6755C148.17 18.6755 148.757 18.8696 149.229 19.1512L148.283 23.1935Z" fill="white"/>
<path d="M157.931 30.264V29.5066C157.209 30.0471 156.353 30.5025 154.979 30.5025C152.385 30.5025 151.145 28.8379 151.145 25.8527V18.9126H155.226V25.3565C155.226 26.8258 155.745 27.2153 156.578 27.2153C157.413 27.2153 157.93 26.8258 157.93 25.3984V18.9126H162.012V30.2652H157.931V30.264Z" fill="white"/>
<path d="M171.727 30.2642V23.8203C171.727 22.3498 171.208 21.9615 170.375 21.9615C169.518 21.9615 168.999 22.351 168.999 23.7771V30.2642H164.941V18.9127H168.999V19.6702C169.743 19.1297 170.577 18.6755 171.976 18.6755C174.569 18.6755 175.81 20.3401 175.81 23.3241V30.2654H171.727V30.2642Z" fill="white"/>
<path d="M183.718 30.5013C180.246 30.5013 178.172 28.3825 178.172 24.5559C178.172 21.0745 180.021 18.6741 183.808 18.6741C186.04 18.6741 187.326 19.6688 188.363 21.2687L185.567 23.3012C185.004 22.3065 184.62 21.8307 183.742 21.8307C182.703 21.8307 182.186 22.8254 182.186 24.6195C182.186 26.4147 182.749 27.3435 183.854 27.3435C184.62 27.3435 185.161 26.9324 185.906 25.873L188.477 27.7977C187.101 29.7451 185.815 30.5013 183.718 30.5013Z" fill="white"/>
<path d="M197.559 30.2643V23.8204C197.559 22.3499 197.041 21.9617 196.207 21.9617C195.35 21.9617 194.831 22.3511 194.831 23.7773V30.2643H190.773V16.0582L194.831 14.5015V19.6691C195.575 19.1286 196.409 18.6744 197.808 18.6744C200.401 18.6744 201.642 20.339 201.642 23.3231V30.2643H197.559Z" fill="white"/>
<path d="M9.81641 8.64702V17.2936H18.8328V34.5881H27.8504V17.2936H36.8667V8.64702H9.81641Z" fill="white"/>
<path d="M45.8835 25.9415V17.2937H36.8672V34.5882H63.9175V25.9415H45.8835Z" fill="white"/>
<path d="M63.9168 8.64702H45.8828V17.2936H63.9168V8.64702Z" fill="white"/>
</g>
</svg>
