<svg width="71" height="52" viewBox="0 0 71 52" fill="none" xmlns="http://www.w3.org/2000/svg">
<g opacity="0.6">
<path fill-rule="evenodd" clip-rule="evenodd" d="M44.6534 13.9107C45.1142 14.2533 45.6901 13.9107 45.9191 13.7964C46.3798 13.341 45.9191 12.196 46.842 12.3116L47.4194 12.4258V24.4245C47.1876 24.5387 47.4194 25.224 47.0738 25.224H46.3812C46.1509 20.8823 45.8039 16.4249 42.5786 14.3675C41.9883 14.0078 41.313 13.8093 40.619 13.795C39.2354 13.9092 38.4305 14.9401 37.8531 15.9666C37.0468 17.2244 37.2786 19.6245 37.9683 20.7667C39.6975 23.1667 42.4635 24.5387 44.5383 26.4804C46.6131 28.6506 49.0334 30.9378 49.1486 34.5928C49.4942 38.5919 48.1105 41.9086 45.4598 44.0787C43.9609 45.1067 41.6557 45.2209 39.9265 44.5342L37.5061 42.9365C36.9287 42.7081 36.815 43.2806 36.5832 43.509C36.5832 44.1958 36.468 44.6512 36.0058 44.8797L35.1995 44.6512L35.0843 38.0223V30.5938C35.3161 30.481 35.8906 30.481 36.1224 30.5938C36.3528 35.281 36.468 40.1967 39.925 42.5924C40.9632 43.2792 42.2288 43.8517 43.7291 43.392C45.9176 42.4811 46.7239 40.0796 46.7239 37.4497C46.4921 35.1654 45.5721 33.4507 43.958 32.1942C41.7695 29.5644 38.5428 28.1952 36.468 25.3354C35.8906 24.6501 35.8906 23.7349 35.4299 22.9354C34.278 19.1633 35.7754 15.3927 37.9654 13.1069C39.0021 12.4215 40.6147 11.9647 41.9984 12.3073C42.9976 12.6357 43.9047 13.184 44.6534 13.9107Z" fill="white"/>
<path fill-rule="evenodd" clip-rule="evenodd" d="M13.052 12.3116C13.2838 12.4258 13.6294 12.4258 13.7431 12.8841C13.3976 13.6836 12.3594 13.6836 12.0139 14.3689C11.6683 15.0557 11.6683 16.3121 11.8987 17.1116L13.2824 25.2254C13.8597 27.8525 14.4342 30.5952 15.1254 33.225H15.4709C16.3939 29.3402 17.085 25.4539 17.7747 21.569C17.0835 18.5993 17.6595 14.5974 14.8935 13.2268C14.6617 12.6542 15.0087 12.3116 15.5847 12.3116C17.1987 12.4258 22.3836 12.3116 23.652 12.4258C23.7672 12.7199 23.7672 13.0469 23.652 13.341C22.732 13.6836 21.6924 13.5694 21.1179 14.3689C19.8495 16.4263 21.5787 18.5979 21.4649 20.9979L22.8472 28.198C23.1942 29.7956 23.1942 31.7388 24.1157 32.998H24.2309L25.9601 25.5695C26.883 22.4828 27.3423 19.1704 28.0349 15.9694C28.2653 14.9415 27.9197 14.2547 27.2286 13.7979C26.7678 13.3424 25.9601 13.4552 25.269 13.3424C25.1538 13.0483 25.1538 12.7213 25.269 12.4272C26.9982 12.4272 32.2997 12.313 32.9908 12.4272C33.3378 12.5414 33.2226 13.1125 33.106 13.3424C32.0693 13.5708 31.0312 13.7979 30.4567 14.4846C29.7656 16.3121 29.4186 18.2567 28.9593 20.0842L26.9997 28.9989C25.8478 33.9132 24.5793 38.9403 23.4274 43.9688C23.1971 44.3128 22.6211 44.3128 22.3893 44.083C21.6982 43.1678 21.6982 41.6815 21.3526 40.4251L19.6234 30.5937L18.7005 26.4804H18.4687L17.0864 33.2222C16.3823 36.5731 15.6912 39.9254 15.0116 43.2806C14.8964 43.9645 14.4342 44.4228 13.5128 44.1958C12.7064 43.9645 13.052 42.9365 12.8216 42.2498L12.2443 38.5919L10.515 29.5643L9.36315 23.0496C9.01759 20.4225 8.32504 17.7941 7.7491 15.2798C7.63392 14.5931 6.9428 14.1377 6.48061 13.6793C5.6743 13.4509 4.98319 13.7936 4.17688 13.3367C3.94795 13.1097 3.83276 12.4244 4.29351 12.3102H13.052V12.3116Z" fill="white"/>
<path fill-rule="evenodd" clip-rule="evenodd" d="M66.0061 12.6544C66.5835 12.5402 66.6987 13.1113 66.4697 13.4568C65.3178 13.6852 64.166 13.6852 63.472 14.4848C62.6657 16.3123 63.5872 18.7137 63.2416 20.6569C63.3568 21.0009 63.1264 21.6862 63.2416 22.2573C63.3568 23.7422 63.2416 25.4569 63.2416 26.8275V39.6286C62.5519 41.913 61.5123 44.2002 59.2086 44.767C56.9049 45.3424 55.4046 44.3116 54.3679 43.1694C53.0979 41.3433 51.7157 38.9419 52.7567 36.1992C53.216 35.1684 54.0223 34.5973 55.1756 34.4845C55.753 34.7129 56.4456 34.9399 56.6745 35.5124C56.5593 36.5404 57.2519 37.6826 56.5593 38.3693C56.4456 39.2845 55.1771 39.2845 55.1771 40.3125C55.2922 41.6831 55.8696 42.8253 57.0215 43.285C58.0582 43.5135 58.6327 43.0566 59.21 42.4855C60.0164 40.2011 59.5571 36.539 59.5571 34.0262L59.6722 27.3986V15.6241C59.439 14.9388 59.2086 14.3663 58.6327 13.7952C57.943 13.2255 56.3289 14.025 55.9805 13.1098L56.3275 12.4245C59.9012 12.426 62.4353 12.7686 66.0061 12.6544Z" fill="white"/>
</g>
</svg>
