<svg width="227" height="42" viewBox="0 0 227 42" fill="none" xmlns="http://www.w3.org/2000/svg">
<g opacity="0.6">
<path fill-rule="evenodd" clip-rule="evenodd" d="M43.0535 9.88628C43.2744 9.9629 43.4226 10.0405 43.348 10.347C43.2744 10.8833 42.4634 10.6534 42.0216 10.8067C40.9161 11.1907 41.2852 12.7232 41.137 13.7968V28.9773C41.137 29.5912 41.0633 30.2808 41.5061 30.5097C41.8007 30.9703 42.6843 30.6629 43.2744 30.7405C44.159 30.5872 44.5272 29.5902 45.1163 29.1295C45.3372 28.2877 45.7064 27.5971 45.8527 26.7543C46.2946 25.2219 46.0736 23.2269 46.5891 21.6935C46.8837 21.6178 46.9583 21.8468 47.031 22.0776V30.5892C47.1792 30.8181 46.9573 31.2002 46.9573 31.431L46.2936 31.5843H38.1159C37.8213 31.5086 37.3795 31.5843 37.2313 31.2787C37.3049 30.434 38.6314 30.8181 38.6314 29.823V19.0127C38.5577 17.6326 38.6314 15.8703 38.6314 14.5659C38.6314 13.2614 39.0005 11.4991 38.1159 10.8096C37.7468 10.4255 36.5685 11.0394 36.7158 10.1956C36.7894 10.0424 36.864 9.96577 37.0849 9.88915H43.0544L43.0535 9.88628Z" fill="white"/>
<path fill-rule="evenodd" clip-rule="evenodd" d="M72.6711 11.0346C72.9657 11.2644 73.3339 11.0346 73.4803 10.958C73.7748 10.6524 73.4803 9.88431 74.0703 9.96188L74.4394 10.0385V18.0875C74.2912 18.1641 74.4394 18.6238 74.2185 18.6238H73.7757C73.6285 15.7113 73.4066 12.7212 71.3447 11.3411C70.9673 11.0997 70.5356 10.9666 70.0919 10.957C69.2073 11.0336 68.6927 11.7251 68.3236 12.4137C67.8081 13.2575 67.9563 14.8675 68.3972 15.6337C69.5028 17.2437 71.271 18.1641 72.5975 19.4667C73.9239 20.9225 75.4713 22.4568 75.545 24.9086C75.7659 27.5913 74.8813 29.8162 73.1866 31.272C72.2284 31.9616 70.7546 32.0382 69.6491 31.5775L68.1017 30.5058C67.7326 30.3525 67.6599 30.7366 67.5117 30.8898C67.5117 31.3505 67.4381 31.656 67.1426 31.8093L66.6271 31.656L66.5535 27.2092V22.226C66.7017 22.1503 67.0689 22.1503 67.2171 22.226C67.3644 25.3703 67.4381 28.6678 69.6482 30.275C70.3119 30.7356 71.121 31.1197 72.0802 30.8113C73.4793 30.2003 73.9948 28.5893 73.9948 26.8251C73.8466 25.2927 73.2584 24.1424 72.2265 23.2996C70.8274 21.5354 68.7645 20.6169 67.4381 18.6985C67.0689 18.2388 67.0689 17.6249 66.7744 17.0886C66.038 14.5582 66.9953 12.0287 68.3954 10.4954C69.0581 10.0356 70.0891 9.72915 70.9737 9.95901C71.6126 10.1793 72.1925 10.5471 72.6711 11.0346Z" fill="white"/>
<path fill-rule="evenodd" clip-rule="evenodd" d="M14.3919 9.96293C14.5401 10.0395 14.761 10.0395 14.8337 10.347C14.6128 10.8833 13.9491 10.8833 13.7282 11.3431C13.5073 11.8037 13.5073 12.6466 13.6546 13.1829L14.5392 18.6258C14.9083 20.3881 15.2756 22.228 15.7174 23.9922H15.9383C16.5284 21.3861 16.9702 18.7791 17.4112 16.173C16.9693 14.1809 17.3375 11.4963 15.5692 10.5768C15.421 10.1928 15.6429 9.96293 16.0111 9.96293C17.043 10.0395 20.3577 9.96293 21.1687 10.0395C21.2423 10.2368 21.2423 10.4562 21.1687 10.6535C20.5805 10.8833 19.9158 10.8067 19.5486 11.3431C18.7376 12.7232 19.8431 14.1799 19.7704 15.7899L20.6541 20.6199C20.8759 21.6916 20.8759 22.9951 21.4651 23.8399H21.5387L22.6442 18.8567C23.2343 16.786 23.5279 14.564 23.9707 12.4167C24.118 11.7271 23.897 11.2664 23.4552 10.96C23.1606 10.6544 22.6442 10.7301 22.2024 10.6544C22.1287 10.4571 22.1287 10.2378 22.2024 10.0405C23.3079 10.0405 26.6972 9.96388 27.139 10.0405C27.3609 10.1171 27.2872 10.5002 27.2127 10.6544C26.5499 10.8077 25.8862 10.96 25.519 11.4206C25.0771 12.6466 24.8553 13.951 24.5616 15.177L23.3088 21.1572C22.5724 24.4538 21.7615 27.8261 21.0251 31.1993C20.8778 31.4301 20.5096 31.4301 20.3614 31.2759C19.9195 30.662 19.9195 29.665 19.6986 28.8221L18.5931 22.227L18.003 19.4677H17.8548L16.9712 23.9902C16.521 26.2381 16.0792 28.4869 15.6447 30.7376C15.5711 31.1964 15.2756 31.5038 14.6865 31.3516C14.171 31.1964 14.3919 30.5068 14.2446 30.0461L13.8755 27.5924L12.77 21.5365L12.0336 17.1662C11.8126 15.4039 11.3699 13.6407 11.0017 11.9541C10.928 11.4934 10.4862 11.1879 10.1907 10.8805C9.67523 10.7272 9.23339 10.9571 8.71791 10.6506C8.57155 10.4983 8.49791 10.0386 8.79247 9.96197H14.3919V9.96293Z" fill="white"/>
<path fill-rule="evenodd" clip-rule="evenodd" d="M54.4749 9.96288C54.5485 10.1161 54.6958 10.4226 54.5485 10.5768C53.8848 10.8833 52.7802 10.5768 52.6339 11.4206C52.4857 13.7968 52.4857 15.561 52.4857 17.9372L52.412 27.2906H52.3384C52.7802 28.4409 51.7483 30.7405 53.3703 30.8161C53.7394 30.8927 54.4758 30.8927 54.8431 30.6629C56.3159 29.4379 56.7577 27.3663 57.0541 25.2966C57.275 24.2248 57.1278 22.9213 57.4214 21.8467C57.611 21.7711 57.8209 21.7711 58.0114 21.8467V31.1992L57.9378 31.5833C56.7596 31.5833 55.5068 31.5833 54.6221 31.6599L50.4219 31.5833H48.1381C47.769 31.5833 47.9172 31.0469 47.9908 30.8171C48.7272 30.7414 49.6109 30.8171 49.98 30.206C50.2746 29.0558 50.0537 27.5234 50.201 26.2955C50.0528 25.2238 50.2746 24.0735 50.1273 22.8457L50.201 21.8486V12.0364C50.1273 11.6524 49.9064 11.1926 49.6855 10.9628C49.2436 10.4264 47.4754 11.1936 48.1381 9.96671H54.4749V9.96288Z" fill="white"/>
<path fill-rule="evenodd" clip-rule="evenodd" d="M85.64 10.0385L85.7873 10.4226V19.2388C85.7137 19.4686 85.5664 19.5452 85.4182 19.6228L85.049 19.4686C85.1227 16.7084 84.7545 14.2565 84.0172 12.0326C83.869 11.5729 83.5017 11.1888 83.0598 10.9589C82.6907 10.9589 82.3234 10.9589 82.1752 11.2654V27.5942H82.1034C82.1771 28.7445 81.9562 30.2032 82.7671 30.7385C83.2826 31.1226 84.1672 30.5077 84.2399 31.3525C84.2399 31.9635 83.429 31.5057 83.0617 31.7337H81.4416V31.658C80.9243 31.8888 80.4097 31.5048 79.9669 31.7337C79.5251 31.658 78.5678 31.658 77.9041 31.658C77.6832 31.5814 77.7568 31.1217 77.8304 30.9684C78.6414 30.8133 79.5242 30.7376 79.8197 29.8181V11.4187C79.6724 11.0346 79.4505 10.958 79.1569 10.8823C78.0514 11.1888 77.7577 12.4147 77.4632 13.565C77.094 15.2516 76.8004 16.9373 76.9477 19.0079C76.8004 19.2378 76.9477 19.6219 76.5786 19.6219L76.1367 19.4677V10.1918C77.0931 9.88626 83.3562 9.96288 85.64 10.0385Z" fill="white"/>
<path fill-rule="evenodd" clip-rule="evenodd" d="M109.953 10.0386C110.468 10.2684 110.174 11.3421 110.247 11.8784C110.469 13.1044 110.1 14.4845 110.321 15.5581C110.1 16.0188 110.394 16.3243 110.321 16.7841C110.174 17.3204 110.321 18.0876 110.174 18.5463C109.142 18.623 109.658 17.2428 109.51 16.5542C109.289 14.178 108.478 12.0298 106.563 11.0337C105.9 10.8038 104.795 10.8038 104.352 11.3402C103.91 12.7203 104.131 15.0199 104.131 16.3234C103.983 16.7831 104.205 16.9373 104.131 17.4736V19.62C104.205 19.8498 104.058 20.4638 104.573 20.3862C106.341 19.5424 106.563 17.3961 106.563 15.2497C106.563 14.9432 106.712 14.7891 107.153 14.8657L107.227 15.3254C107.08 16.3215 107.375 17.5493 107.153 18.622C107.153 19.6956 107.153 21.1524 107.227 22.3017C107.153 23.6291 107.153 24.9604 107.227 26.2879C107.227 26.5934 107.08 26.7486 106.785 26.7486C106.27 26.2879 106.637 24.9844 106.416 24.2948C106.121 22.9894 105.826 21.456 104.427 21.1505L104.205 21.3037C104.057 22.9894 104.131 24.2182 104.131 25.7506C104.131 27.1307 104.205 28.892 104.131 30.2731C104.573 31.1926 105.679 30.8095 106.71 30.8095C108.551 29.9676 109.214 27.668 109.584 25.5198L110.468 25.7506V31.4224L110.246 31.6532L101.699 31.7289C101.109 31.5757 100.078 31.8055 99.4883 31.5757C99.2674 30.3507 100.667 31.1916 101.109 30.7338C101.404 30.5806 101.551 30.2731 101.699 29.9676V11.8794C101.551 11.4953 101.33 11.1132 101.036 10.959C100.52 10.7291 99.4147 11.1898 99.4883 10.2694L99.6365 10.0395H109.952L109.953 10.0386Z" fill="white"/>
<path fill-rule="evenodd" clip-rule="evenodd" d="M120.64 10.0384C121.009 10.2683 122.039 9.88423 122.26 10.3449C122.26 13.1808 122.333 15.6346 122.26 18.3939C122.187 18.6238 121.817 18.6238 121.67 18.4705C121.376 15.4804 121.448 11.9539 118.797 10.8803C118.207 10.6504 117.543 10.9569 116.955 10.9569C116.586 11.341 116.291 11.6475 116.291 12.2614V19.6974C116.364 19.9273 116.44 20.0815 116.66 20.0815C118.649 19.5451 118.502 17.0147 118.798 14.945C118.871 14.7908 119.239 14.7908 119.385 14.945V18.0874C119.535 18.2416 119.385 18.2416 119.385 18.5471C119.535 19.2377 119.385 19.774 119.459 20.6178V22.6875C119.237 23.8378 119.533 25.2936 119.237 26.3682C119.09 26.5214 118.796 26.4439 118.722 26.213C118.574 24.4517 118.574 22.1512 117.249 21.0766C117.102 20.9233 116.659 20.9233 116.44 21.0766L116.291 21.6158V26.5971H116.364C116.438 27.824 115.922 29.819 116.807 30.5862C117.394 30.8917 118.206 30.9702 118.943 30.8151C120.563 30.2787 121.006 28.5145 121.595 26.9821C121.447 26.3711 121.816 25.7571 121.816 25.0656L121.964 22.6119C122.113 22.4586 122.26 22.383 122.482 22.5362L122.629 22.6894C122.407 23.8397 123.07 25.6786 122.039 26.1393C121.966 26.4448 121.596 26.4448 121.596 26.8289C121.893 26.5233 122.261 26.215 122.555 25.7571H122.702L122.629 30.204C122.482 30.7404 122.851 31.5813 122.26 31.7345C121.007 31.8897 119.828 31.8111 118.576 31.8111C116.218 31.6579 114.007 31.7345 111.723 31.7345C111.502 31.6588 111.502 31.1982 111.65 31.0449C112.313 30.8141 113.197 30.9693 113.639 30.2787C114.301 29.7424 113.933 28.209 114.008 27.212C114.081 25.5263 113.861 23.3043 114.008 21.77L113.934 17.3998V11.9549C113.712 11.341 113.271 10.8046 112.534 10.8046C112.092 10.8046 111.577 10.8813 111.723 10.2683C111.798 9.96277 119.46 10.0384 120.64 10.0384Z" fill="white"/>
<path fill-rule="evenodd" clip-rule="evenodd" d="M133.529 10.2683L133.676 10.4982L133.75 16.4008C133.528 17.3978 133.75 18.6247 133.603 19.6208C133.381 19.8507 133.16 19.6208 133.013 19.5442L132.791 15.7878C132.497 14.0237 132.203 12.4137 131.244 11.1877C131.022 10.9569 130.508 10.9569 130.361 11.1877L130.064 11.4942V30.1236C130.211 31.1953 131.684 30.5842 132.275 31.043C132.349 31.4271 132.202 31.6569 131.906 31.7326C129.991 31.9634 128.075 31.5794 126.159 31.7326C125.718 31.8092 125.718 31.2738 125.865 31.043C126.53 30.8898 127.338 30.9673 127.56 30.2768L127.633 21.6905V11.5718C127.486 11.341 127.34 11.1121 127.046 11.0355C125.719 11.1897 125.644 12.5679 125.277 13.5659L124.689 17.7062C124.54 18.3968 124.837 19.3162 124.468 19.6984L124.025 19.6218L123.952 15.3291C123.952 13.7967 123.878 11.8792 124.025 10.3468C124.54 9.96277 132.276 10.1917 133.529 10.2683Z" fill="white"/>
<path fill-rule="evenodd" clip-rule="evenodd" d="M149.447 10.1916C149.816 10.1149 149.89 10.4981 149.743 10.7298C149.007 10.8831 148.27 10.8831 147.827 11.4194C147.311 12.6453 147.9 14.2563 147.679 15.5598C147.753 15.7906 147.606 16.2503 147.679 16.6334C147.753 17.6295 147.679 18.7798 147.679 19.6992V28.2865C147.238 29.8189 146.574 31.3532 145.101 31.7334C143.628 32.1194 142.669 31.4279 142.006 30.6617C141.194 29.4367 140.311 27.8258 140.976 25.9859C141.27 25.2944 141.785 24.9113 142.523 24.8357C142.892 24.9889 143.335 25.1412 143.481 25.5253C143.407 26.2148 143.85 26.9811 143.407 27.4417C143.335 28.0557 142.524 28.0557 142.524 28.7452C142.597 29.6647 142.966 30.4309 143.703 30.7393C144.366 30.8925 144.733 30.586 145.102 30.2029C145.617 28.6705 145.324 26.2139 145.324 24.5282L145.397 20.0823V12.1837C145.248 11.724 145.101 11.3399 144.733 10.9568C144.292 10.5747 143.26 11.111 143.037 10.4971L143.259 10.0374C145.544 10.0383 147.164 10.2682 149.447 10.1916Z" fill="white"/>
<path fill-rule="evenodd" clip-rule="evenodd" d="M165.581 10.2685C165.878 10.1143 166.467 10.0386 166.687 10.4227C166.76 10.8824 166.467 10.959 166.171 11.0366C165.73 11.0366 165.435 11.2664 165.141 11.4963C164.845 12.0327 164.845 12.7998 164.845 13.567V22.3075L164.772 22.3841C164.919 24.6846 164.772 26.2151 164.919 28.5923C165.141 29.5117 165.656 30.3565 166.468 30.8143C167.13 30.9694 168.014 30.8909 168.457 30.3555C169.193 29.8192 169.34 28.9754 169.487 28.1306V20.4657L169.413 20.006L169.487 13.2595C169.56 12.57 169.413 11.8038 169.046 11.2674C168.675 10.9609 168.013 10.9609 167.57 10.8833L167.644 10.347L171.549 10.2704C171.771 10.2704 171.918 10.5002 171.918 10.6544C171.918 11.0366 171.328 10.8077 171.181 10.96C170.812 11.0366 170.445 11.344 170.445 11.7281L170.223 12.954V28.2877C170.076 29.5912 169.34 30.6629 168.456 31.4292C167.866 31.9655 166.687 31.7347 166.024 31.8898C164.551 31.5814 163.298 30.5097 162.855 29.0539C161.972 27.1374 162.562 23.9931 162.34 21.9234V12.0336C162.193 11.5739 161.971 11.2674 161.604 11.0375C161.234 10.8833 160.574 11.0375 160.574 10.5778C160.5 10.1171 161.014 10.348 161.236 10.1938L165.581 10.2685Z" fill="white"/>
<path fill-rule="evenodd" clip-rule="evenodd" d="M188.276 10.2682C188.425 10.4224 188.718 10.4981 188.794 10.7289C190.267 15.0216 191.372 19.4675 193.066 23.6079C193.509 23.5322 192.919 23.0715 193.215 22.8417C193.141 21.2317 193.288 19.6993 193.141 18.0117C193.289 17.0923 193.141 16.4017 193.215 15.4056C192.993 15.2514 193.362 15.0216 193.141 14.945C193.289 14.0246 193.068 12.721 193.068 11.6484C192.699 11.112 192.038 10.9578 191.3 10.9578C191.3 10.8812 191.153 10.4215 191.448 10.3458H195.721C196.015 10.4224 195.869 10.7299 195.869 10.9578C195.428 11.1886 194.763 11.112 194.47 11.5717L194.173 12.3379L194.1 16.4783V29.5881C194.027 30.202 194.173 31.1971 194.027 31.8101C193.88 31.9634 193.511 32.0409 193.364 31.8867C192.849 31.1952 192.921 30.0459 192.406 29.3563C191.597 27.2866 191.153 24.9095 190.342 22.9164L188.869 18.5452C188.649 17.779 188.279 17.165 188.06 16.4755L187.913 16.5521C187.691 17.4715 187.691 18.2377 187.839 19.1581L187.766 23.2985V30.1206C187.915 30.5047 188.062 30.8868 188.43 31.1177C188.799 31.3485 189.683 30.8868 189.683 31.5764L189.609 31.8848L185.485 31.9605C185.188 31.8848 184.82 31.8848 184.82 31.5017C185.116 30.8878 186.368 31.5017 186.662 30.7355C186.958 30.1216 186.958 29.2768 186.958 28.435L186.885 19.6179V12.2613C186.737 11.1877 185.707 11.1111 184.895 10.8812C184.674 10.728 184.895 10.4971 184.895 10.3449C185.994 10.1916 187.097 10.2682 188.276 10.2682Z" fill="white"/>
<path fill-rule="evenodd" clip-rule="evenodd" d="M213.842 10.3459C214.135 10.4225 214.432 10.4991 214.432 10.8822C214.284 11.4186 213.326 11.113 212.959 11.4186C212.443 11.6484 212.443 12.339 212.296 12.7987V29.8937C212.074 30.4301 212.443 30.8132 212.737 31.1206C213.327 31.5047 214.653 31.4261 215.391 31.1963C216.568 30.4301 216.79 28.8957 217.305 27.5185L217.821 23.5323C217.895 23.3771 218.19 23.3771 218.411 23.5323V30.6599H218.337C218.337 31.044 218.411 31.6569 218.265 32.04C217.896 32.1933 217.306 32.04 217.012 32.1167L216.79 32.04L212.812 32.1167C211.263 32.04 209.568 32.2699 208.316 31.8858C208.168 31.8092 208.168 31.5018 208.243 31.3495C208.684 31.0411 209.642 31.4252 209.863 30.7356L209.936 29.9694V11.8793C209.567 11.113 208.759 11.0355 208.021 11.0355C208.021 10.729 207.874 10.4215 208.168 10.3459H213.843H213.842Z" fill="white"/>
<path fill-rule="evenodd" clip-rule="evenodd" d="M159.836 17.5509C159.393 15.6344 159.099 13.6414 158.14 12.2612C157.697 11.4174 156.959 10.7288 156.223 10.1906C155.045 9.80841 153.646 10.0373 152.91 10.8811C151.068 13.105 150.109 16.2474 149.962 19.544C149.889 24.4506 150.55 28.6676 153.351 31.3512C153.941 31.9623 155.268 31.8876 156.152 31.6568C157.15 31.0256 157.965 30.1253 158.51 29.0507C159.983 26.1382 160.352 21.5371 159.836 17.5509ZM156.96 28.6686C156.813 29.4348 156.445 29.9721 156.076 30.585C155.561 31.0438 154.677 30.9691 154.162 30.6607C153.056 29.8945 152.835 28.4387 152.909 27.1352C152.835 26.0606 153.203 25.1411 152.909 24.1441C152.982 22.9939 152.909 21.6903 153.056 20.4644C152.909 20.3878 153.056 19.9281 152.909 19.8505C153.203 19.4664 152.835 19.2366 152.909 18.8544C152.982 16.938 152.909 15.4822 152.909 13.2583C153.203 12.2622 153.645 11.1119 154.676 10.8821C155.783 10.8035 156.373 11.4941 156.814 12.3378L156.961 13.7936V18.6236L157.035 18.7002L156.96 28.6686Z" fill="white"/>
<path fill-rule="evenodd" clip-rule="evenodd" d="M98.9773 26.9784C98.83 26.6729 98.6082 27.1336 98.3872 26.9784C98.3136 27.6699 98.1654 28.4371 98.239 29.1257C98.0917 29.3565 98.0181 29.7406 97.649 29.8172C97.4373 29.7502 97.2716 29.5768 97.2071 29.3565C96.9126 28.2072 97.1335 26.7514 97.0589 25.4489C96.838 25.4489 96.6898 25.2937 96.7644 25.0629C96.8371 24.9097 96.9853 25.0629 96.9853 25.2181C96.9853 23.8379 96.8371 22.0738 95.8061 21.3075C95.5125 20.8488 94.9952 20.8488 95.1434 20.3115C95.9525 19.7751 96.5425 19.0846 97.058 18.3174C98.0908 16.8616 97.7963 14.1014 97.2799 12.4148C96.6898 11.2645 95.6589 10.4226 94.406 10.0386V10.0395H87.2629C86.9683 10.1152 86.8938 10.346 86.9683 10.6535C87.1165 11.0356 87.7793 10.8067 88.1475 10.959C88.7357 11.1888 88.8839 11.8794 89.0312 12.569C88.9576 13.3352 89.0312 14.4845 88.9576 15.2516C89.0312 16.4776 89.0312 18.0876 89.0312 19.2378C88.9576 20.8488 89.0312 22.6101 89.0312 24.4509L88.9576 28.8959C89.1048 29.278 88.8839 29.7396 88.8839 30.1227C88.663 30.3536 88.4421 30.7367 88.073 30.8123C87.7784 31.0431 87.1156 30.6591 87.1156 31.1964C86.8211 32.1197 88.072 31.4272 88.4412 31.7327C88.5148 31.5795 88.7357 31.7327 88.8839 31.7327L92.7151 31.6571L92.8633 31.4263C92.936 30.8123 92.4205 30.8899 92.0523 30.8123C91.6832 30.6591 91.5368 30.276 91.3886 29.8172V21.3056L91.5368 21.0001C91.9041 20.6917 92.6414 20.8469 93.0842 21.0001C94.1142 21.3056 94.337 22.4559 94.557 23.5305V29.0491L94.7779 30.5049C95.1406 31.1361 95.7196 31.6015 96.398 31.8084C97.0608 31.885 97.5026 31.7299 97.9454 31.4243C99.0509 30.5834 99.1255 28.7426 98.9773 26.9784ZM93.9651 19.7751C93.3751 20.1592 92.1232 20.0816 91.5331 19.8518L91.4595 12.0326C91.5331 11.4963 91.7541 10.959 92.4168 10.959C92.8596 10.8048 93.3014 11.0346 93.8188 11.0346C95.8816 12.3381 95.0716 15.6348 94.997 18.0876C94.8488 18.7772 94.4806 19.3145 93.9651 19.7751Z" fill="white"/>
<path fill-rule="evenodd" clip-rule="evenodd" d="M184.515 27.2876C184.442 27.211 184.148 27.211 184.074 27.2876C183.925 28.2846 184.146 29.6628 183.263 29.9703C182.599 29.6609 182.672 28.5116 182.672 27.823L182.525 23.9124C182.525 23.0706 182.232 22.5333 181.935 21.9203C181.642 21.3849 180.905 21.2307 180.905 20.5402C182.232 19.9282 182.747 18.3948 183.41 17.1679C183.924 15.4813 183.483 13.5639 182.747 12.3379C181.863 10.4981 179.654 10.0384 177.443 10.3458C176.189 10.3458 175.305 10.3458 174.199 10.2692C173.685 10.4991 173.244 10.0393 173.022 10.5757C173.022 11.112 173.684 10.8812 174.052 11.0354C174.495 11.2653 174.567 11.7259 174.717 12.1857V29.8199L174.495 30.5861C174.126 30.9682 173.611 31.1971 172.946 31.1971C172.799 31.2738 172.799 31.6578 172.946 31.8111L175.082 31.9643L178.987 31.8886C178.914 31.6588 178.987 31.428 178.914 31.2747C178.397 31.1215 178.178 31.1981 177.735 31.1215C177.219 30.8916 177.145 30.3553 177.072 29.8946C177.145 26.7532 176.776 24.2994 177.072 21.3083L177.219 21.0775C177.958 20.772 178.915 20.9242 179.43 21.3859C180.167 21.9213 180.24 23.0715 180.314 24.0686V28.5135L180.536 30.7384C180.977 31.1224 180.977 31.8886 181.642 31.8886C182.232 32.1195 182.892 31.812 183.409 31.5802C184.368 30.5842 184.737 28.9732 184.515 27.2876ZM179.8 19.9272C179.21 20.158 177.884 20.158 177.147 19.9272C177.074 17.0147 177.074 14.7908 177.074 11.8792C177.147 11.4951 177.443 11.113 177.883 10.9588C179.286 10.6523 180.023 11.4185 180.685 12.2623C180.907 12.7986 180.907 13.5658 180.979 14.1021L180.906 18.1649C180.684 18.9311 180.463 19.6207 179.8 19.9272Z" fill="white"/>
<path fill-rule="evenodd" clip-rule="evenodd" d="M206.915 31.1215C205.515 30.3553 205.588 28.3603 205.146 26.8269L203.822 20.4645C203.601 18.2425 202.938 16.3251 202.643 14.1788L201.835 10.4234L200.876 10.3468C200.362 11.2662 200.213 12.5688 199.993 13.7191L199.328 17.551L198.223 24.1433L197.339 29.3564C197.192 30.0459 196.896 30.7365 196.233 31.1205C196.011 31.2738 195.275 30.9673 195.275 31.4261C195.057 32.1923 195.865 31.8868 196.233 32.04C197.412 32.04 198.812 32.1185 199.992 31.8868C200.507 30.7365 199.034 31.4261 198.665 31.042C197.782 30.2758 198.369 28.8947 198.518 27.9753C198.59 27.3614 198.665 26.7503 198.959 26.3662C199.992 26.212 201.391 26.212 202.57 26.2896C203.011 27.1344 203.157 28.2846 203.379 29.3564C203.453 30.0459 203.379 30.6599 203.01 30.9673C202.569 31.2728 201.314 30.8122 201.684 31.8868C203.453 32.1176 205.736 32.04 207.431 31.9624L207.505 31.8092C207.725 31.1972 207.284 31.1972 206.915 31.1215ZM202.348 25.4497L199.401 25.5253L199.032 25.2945C199.104 24.4526 199.253 23.5332 199.473 22.6118L200.063 18.549C200.21 17.9351 200.284 17.2455 200.505 16.7092L200.8 16.7858C201.243 19.6983 202.126 22.3063 202.495 25.2945L202.348 25.4497Z" fill="white"/>
<path fill-rule="evenodd" clip-rule="evenodd" d="M36.2742 30.8132C35.5378 30.7385 35.096 30.2778 34.8751 29.5882C34.4323 27.9773 34.285 26.2131 33.9168 24.4518L32.3695 16.5551C32.0749 14.4078 31.4858 12.5689 31.1912 10.4982C31.3394 9.65634 29.9384 9.8862 29.8648 10.2683C29.4975 12.1848 29.2766 14.1013 28.9075 15.9411L28.1711 20.388L27.3601 25.7543C26.991 27.1345 26.991 28.6688 26.4755 29.8938C26.0336 30.3544 25.5182 30.8142 24.6336 30.7385C24.4863 30.8917 24.4126 31.5804 24.8545 31.4281L29.0547 31.3524L29.1284 30.8917C28.9075 30.6609 28.3174 30.7385 28.0229 30.5077C27.2119 29.1275 28.1701 27.5932 28.2438 26.2131L28.5383 26.0598H31.4858C32.2222 26.5962 31.9276 27.9016 32.2968 28.6688C32.3695 29.1275 32.5177 29.8937 32.1486 30.2778C32.0003 31.1216 30.3803 30.2021 30.6012 31.3524C30.8948 31.5813 31.6312 31.3524 31.7794 31.5813H36.126L36.3479 31.3524C36.4952 31.1973 36.2742 31.044 36.2742 30.8132ZM29.1284 25.2199L28.5383 25.1433L28.612 24.1462L29.2757 19.7779L29.7911 16.941L29.9393 17.0177L30.7485 20.8506L31.4849 24.99C30.9703 25.602 29.9384 24.9881 29.1284 25.2199Z" fill="white"/>
</g>
</svg>
